<?xml version="1.0" encoding="utf-8" standalone="no"?>
<!DOCTYPE svg PUBLIC "-//W3C//DTD SVG 1.1//EN"
  "http://www.w3.org/Graphics/SVG/1.1/DTD/svg11.dtd">
<!-- Created with matplotlib (http://matplotlib.org/) -->
<svg height="216pt" version="1.1" viewBox="0 0 305.470129 216" width="305.470129pt" xmlns="http://www.w3.org/2000/svg" xmlns:xlink="http://www.w3.org/1999/xlink">
 <defs>
  <style type="text/css">
*{stroke-linecap:butt;stroke-linejoin:round;}
  </style>
 </defs>
 <g id="figure_1">
  <g id="patch_1">
   <path d="M 0 216 
L 305.470129 216 
L 305.470129 0 
L 0 0 
z
" style="fill:#272822;"/>
  </g>
  <g id="axes_1">
   <g id="patch_2">
    <path d="M 38.183766 192.24 
L 274.923117 192.24 
L 274.923117 25.92 
L 38.183766 25.92 
z
" style="fill:#272822;"/>
   </g>
   <g id="matplotlib.axis_1">
    <g id="xtick_1">
     <g id="line2d_1">
      <path clip-path="url(#p4848cb6f6c)" d="M 48.406602 192.24 
L 48.406602 25.92 
" style="fill:none;stroke:#606054;stroke-dasharray:0.8,1.32;stroke-dashoffset:0;stroke-width:0.8;"/>
     </g>
     <g id="line2d_2">
      <defs>
       <path d="M 0 0 
L 0 3.5 
" id="m0700622775" style="stroke:#917df0;stroke-width:0.8;"/>
      </defs>
      <g>
       <use style="fill:#917df0;stroke:#917df0;stroke-width:0.8;" x="48.406602" xlink:href="#m0700622775" y="192.24"/>
      </g>
     </g>
     <g id="text_1">
      <!-- −100 -->
      <defs>
       <path d="M 4.296875 35.5 
L 55.90625 35.5 
L 55.90625 27.203125 
L 4.296875 27.203125 
z
" id="DejaVuSansMono-2212"/>
       <path d="M 13.1875 8.296875 
L 28.515625 8.296875 
L 28.515625 64.015625 
L 12.015625 60.296875 
L 12.015625 69.28125 
L 28.421875 72.90625 
L 38.28125 72.90625 
L 38.28125 8.296875 
L 53.421875 8.296875 
L 53.421875 0 
L 13.1875 0 
z
" id="DejaVuSansMono-31"/>
       <path d="M 23.578125 36.625 
Q 23.578125 39.3125 25.453125 41.265625 
Q 27.34375 43.21875 29.984375 43.21875 
Q 32.71875 43.21875 34.671875 41.265625 
Q 36.625 39.3125 36.625 36.625 
Q 36.625 33.890625 34.6875 31.984375 
Q 32.765625 30.078125 29.984375 30.078125 
Q 27.25 30.078125 25.40625 31.9375 
Q 23.578125 33.796875 23.578125 36.625 
z
M 30.078125 66.40625 
Q 23.1875 66.40625 19.796875 58.984375 
Q 16.40625 51.5625 16.40625 36.375 
Q 16.40625 21.234375 19.796875 13.8125 
Q 23.1875 6.390625 30.078125 6.390625 
Q 37.015625 6.390625 40.40625 13.8125 
Q 43.796875 21.234375 43.796875 36.375 
Q 43.796875 51.5625 40.40625 58.984375 
Q 37.015625 66.40625 30.078125 66.40625 
z
M 30.078125 74.21875 
Q 41.75 74.21875 47.734375 64.640625 
Q 53.71875 55.078125 53.71875 36.375 
Q 53.71875 17.71875 47.734375 8.140625 
Q 41.75 -1.421875 30.078125 -1.421875 
Q 18.40625 -1.421875 12.453125 8.140625 
Q 6.5 17.71875 6.5 36.375 
Q 6.5 55.078125 12.453125 64.640625 
Q 18.40625 74.21875 30.078125 74.21875 
z
" id="DejaVuSansMono-30"/>
      </defs>
      <g style="fill:#917df0;" transform="translate(38.774102 205.36125)scale(0.08 -0.08)">
       <use xlink:href="#DejaVuSansMono-2212"/>
       <use x="60.205078" xlink:href="#DejaVuSansMono-31"/>
       <use x="120.410156" xlink:href="#DejaVuSansMono-30"/>
       <use x="180.615234" xlink:href="#DejaVuSansMono-30"/>
      </g>
     </g>
    </g>
    <g id="xtick_2">
     <g id="line2d_3">
      <path clip-path="url(#p4848cb6f6c)" d="M 75.443312 192.24 
L 75.443312 25.92 
" style="fill:none;stroke:#606054;stroke-dasharray:0.8,1.32;stroke-dashoffset:0;stroke-width:0.8;"/>
     </g>
     <g id="line2d_4">
      <g>
       <use style="fill:#917df0;stroke:#917df0;stroke-width:0.8;" x="75.443312" xlink:href="#m0700622775" y="192.24"/>
      </g>
     </g>
     <g id="text_2">
      <!-- −75 -->
      <defs>
       <path d="M 6.78125 72.90625 
L 52.6875 72.90625 
L 52.6875 68.703125 
L 26.609375 0 
L 16.3125 0 
L 41.703125 64.59375 
L 6.78125 64.59375 
z
" id="DejaVuSansMono-37"/>
       <path d="M 10.109375 72.90625 
L 47.015625 72.90625 
L 47.015625 64.59375 
L 19.09375 64.59375 
L 19.09375 46.6875 
Q 21.1875 47.46875 23.3125 47.828125 
Q 25.4375 48.1875 27.59375 48.1875 
Q 38.921875 48.1875 45.5625 41.5 
Q 52.203125 34.8125 52.203125 23.390625 
Q 52.203125 11.859375 45.234375 5.21875 
Q 38.28125 -1.421875 26.21875 -1.421875 
Q 20.40625 -1.421875 15.59375 -0.640625 
Q 10.796875 0.140625 6.984375 1.703125 
L 6.984375 11.71875 
Q 11.46875 9.28125 16.015625 8.078125 
Q 20.5625 6.890625 25.296875 6.890625 
Q 33.453125 6.890625 37.859375 11.1875 
Q 42.28125 15.484375 42.28125 23.390625 
Q 42.28125 31.203125 37.71875 35.546875 
Q 33.15625 39.890625 25 39.890625 
Q 21.046875 39.890625 17.28125 38.984375 
Q 13.53125 38.09375 10.109375 36.28125 
z
" id="DejaVuSansMono-35"/>
      </defs>
      <g style="fill:#917df0;" transform="translate(68.218937 205.36125)scale(0.08 -0.08)">
       <use xlink:href="#DejaVuSansMono-2212"/>
       <use x="60.205078" xlink:href="#DejaVuSansMono-37"/>
       <use x="120.410156" xlink:href="#DejaVuSansMono-35"/>
      </g>
     </g>
    </g>
    <g id="xtick_3">
     <g id="line2d_5">
      <path clip-path="url(#p4848cb6f6c)" d="M 102.480022 192.24 
L 102.480022 25.92 
" style="fill:none;stroke:#606054;stroke-dasharray:0.8,1.32;stroke-dashoffset:0;stroke-width:0.8;"/>
     </g>
     <g id="line2d_6">
      <g>
       <use style="fill:#917df0;stroke:#917df0;stroke-width:0.8;" x="102.480022" xlink:href="#m0700622775" y="192.24"/>
      </g>
     </g>
     <g id="text_3">
      <!-- −50 -->
      <g style="fill:#917df0;" transform="translate(95.255647 205.36125)scale(0.08 -0.08)">
       <use xlink:href="#DejaVuSansMono-2212"/>
       <use x="60.205078" xlink:href="#DejaVuSansMono-35"/>
       <use x="120.410156" xlink:href="#DejaVuSansMono-30"/>
      </g>
     </g>
    </g>
    <g id="xtick_4">
     <g id="line2d_7">
      <path clip-path="url(#p4848cb6f6c)" d="M 129.516731 192.24 
L 129.516731 25.92 
" style="fill:none;stroke:#606054;stroke-dasharray:0.8,1.32;stroke-dashoffset:0;stroke-width:0.8;"/>
     </g>
     <g id="line2d_8">
      <g>
       <use style="fill:#917df0;stroke:#917df0;stroke-width:0.8;" x="129.516731" xlink:href="#m0700622775" y="192.24"/>
      </g>
     </g>
     <g id="text_4">
      <!-- −25 -->
      <defs>
       <path d="M 18.21875 8.296875 
L 51.703125 8.296875 
L 51.703125 0 
L 7.421875 0 
L 7.421875 8.296875 
Q 16.546875 17.921875 23.375 25.296875 
Q 30.21875 32.671875 32.8125 35.6875 
Q 37.703125 41.65625 39.40625 45.34375 
Q 41.109375 49.03125 41.109375 52.875 
Q 41.109375 58.984375 37.515625 62.453125 
Q 33.9375 65.921875 27.6875 65.921875 
Q 23.25 65.921875 18.359375 64.3125 
Q 13.484375 62.703125 8.015625 59.421875 
L 8.015625 69.390625 
Q 13.03125 71.78125 17.890625 73 
Q 22.75 74.21875 27.484375 74.21875 
Q 38.1875 74.21875 44.703125 68.53125 
Q 51.21875 62.84375 51.21875 53.609375 
Q 51.21875 48.921875 49.046875 44.234375 
Q 46.875 39.546875 42 33.890625 
Q 39.265625 30.71875 34.0625 25.09375 
Q 28.859375 19.484375 18.21875 8.296875 
z
" id="DejaVuSansMono-32"/>
      </defs>
      <g style="fill:#917df0;" transform="translate(122.292356 205.36125)scale(0.08 -0.08)">
       <use xlink:href="#DejaVuSansMono-2212"/>
       <use x="60.205078" xlink:href="#DejaVuSansMono-32"/>
       <use x="120.410156" xlink:href="#DejaVuSansMono-35"/>
      </g>
     </g>
    </g>
    <g id="xtick_5">
     <g id="line2d_9">
      <path clip-path="url(#p4848cb6f6c)" d="M 156.553441 192.24 
L 156.553441 25.92 
" style="fill:none;stroke:#606054;stroke-dasharray:0.8,1.32;stroke-dashoffset:0;stroke-width:0.8;"/>
     </g>
     <g id="line2d_10">
      <g>
       <use style="fill:#917df0;stroke:#917df0;stroke-width:0.8;" x="156.553441" xlink:href="#m0700622775" y="192.24"/>
      </g>
     </g>
     <g id="text_5">
      <!-- 0 -->
      <g style="fill:#917df0;" transform="translate(154.145316 205.36125)scale(0.08 -0.08)">
       <use xlink:href="#DejaVuSansMono-30"/>
      </g>
     </g>
    </g>
    <g id="xtick_6">
     <g id="line2d_11">
      <path clip-path="url(#p4848cb6f6c)" d="M 183.590151 192.24 
L 183.590151 25.92 
" style="fill:none;stroke:#606054;stroke-dasharray:0.8,1.32;stroke-dashoffset:0;stroke-width:0.8;"/>
     </g>
     <g id="line2d_12">
      <g>
       <use style="fill:#917df0;stroke:#917df0;stroke-width:0.8;" x="183.590151" xlink:href="#m0700622775" y="192.24"/>
      </g>
     </g>
     <g id="text_6">
      <!-- 25 -->
      <g style="fill:#917df0;" transform="translate(178.773901 205.36125)scale(0.08 -0.08)">
       <use xlink:href="#DejaVuSansMono-32"/>
       <use x="60.205078" xlink:href="#DejaVuSansMono-35"/>
      </g>
     </g>
    </g>
    <g id="xtick_7">
     <g id="line2d_13">
      <path clip-path="url(#p4848cb6f6c)" d="M 210.626861 192.24 
L 210.626861 25.92 
" style="fill:none;stroke:#606054;stroke-dasharray:0.8,1.32;stroke-dashoffset:0;stroke-width:0.8;"/>
     </g>
     <g id="line2d_14">
      <g>
       <use style="fill:#917df0;stroke:#917df0;stroke-width:0.8;" x="210.626861" xlink:href="#m0700622775" y="192.24"/>
      </g>
     </g>
     <g id="text_7">
      <!-- 50 -->
      <g style="fill:#917df0;" transform="translate(205.810611 205.36125)scale(0.08 -0.08)">
       <use xlink:href="#DejaVuSansMono-35"/>
       <use x="60.205078" xlink:href="#DejaVuSansMono-30"/>
      </g>
     </g>
    </g>
    <g id="xtick_8">
     <g id="line2d_15">
      <path clip-path="url(#p4848cb6f6c)" d="M 237.663571 192.24 
L 237.663571 25.92 
" style="fill:none;stroke:#606054;stroke-dasharray:0.8,1.32;stroke-dashoffset:0;stroke-width:0.8;"/>
     </g>
     <g id="line2d_16">
      <g>
       <use style="fill:#917df0;stroke:#917df0;stroke-width:0.8;" x="237.663571" xlink:href="#m0700622775" y="192.24"/>
      </g>
     </g>
     <g id="text_8">
      <!-- 75 -->
      <g style="fill:#917df0;" transform="translate(232.847321 205.36125)scale(0.08 -0.08)">
       <use xlink:href="#DejaVuSansMono-37"/>
       <use x="60.205078" xlink:href="#DejaVuSansMono-35"/>
      </g>
     </g>
    </g>
    <g id="xtick_9">
     <g id="line2d_17">
      <path clip-path="url(#p4848cb6f6c)" d="M 264.700281 192.24 
L 264.700281 25.92 
" style="fill:none;stroke:#606054;stroke-dasharray:0.8,1.32;stroke-dashoffset:0;stroke-width:0.8;"/>
     </g>
     <g id="line2d_18">
      <g>
       <use style="fill:#917df0;stroke:#917df0;stroke-width:0.8;" x="264.700281" xlink:href="#m0700622775" y="192.24"/>
      </g>
     </g>
     <g id="text_9">
      <!-- 100 -->
      <g style="fill:#917df0;" transform="translate(257.475906 205.36125)scale(0.08 -0.08)">
       <use xlink:href="#DejaVuSansMono-31"/>
       <use x="60.205078" xlink:href="#DejaVuSansMono-30"/>
       <use x="120.410156" xlink:href="#DejaVuSansMono-30"/>
      </g>
     </g>
    </g>
    <g id="text_10">
     <!-- Time -->
     <defs>
      <path d="M 2.296875 72.90625 
L 57.90625 72.90625 
L 57.90625 64.59375 
L 35.109375 64.59375 
L 35.109375 0 
L 25.203125 0 
L 25.203125 64.59375 
L 2.296875 64.59375 
z
" id="DejaVuSansMono-54"/>
      <path d="M 12.5 54.6875 
L 35.5 54.6875 
L 35.5 6.984375 
L 53.328125 6.984375 
L 53.328125 0 
L 8.6875 0 
L 8.6875 6.984375 
L 26.515625 6.984375 
L 26.515625 47.703125 
L 12.5 47.703125 
z
M 26.515625 75.984375 
L 35.5 75.984375 
L 35.5 64.59375 
L 26.515625 64.59375 
z
" id="DejaVuSansMono-69"/>
      <path d="M 33.015625 49.125 
Q 34.671875 52.640625 37.234375 54.3125 
Q 39.796875 56 43.40625 56 
Q 50 56 52.703125 50.890625 
Q 55.421875 45.796875 55.421875 31.6875 
L 55.421875 0 
L 47.21875 0 
L 47.21875 31.296875 
Q 47.21875 42.875 45.921875 45.671875 
Q 44.625 48.484375 41.21875 48.484375 
Q 37.3125 48.484375 35.859375 45.484375 
Q 34.421875 42.484375 34.421875 31.296875 
L 34.421875 0 
L 26.21875 0 
L 26.21875 31.296875 
Q 26.21875 43.015625 24.828125 45.75 
Q 23.4375 48.484375 19.828125 48.484375 
Q 16.265625 48.484375 14.875 45.484375 
Q 13.484375 42.484375 13.484375 31.296875 
L 13.484375 0 
L 5.328125 0 
L 5.328125 54.6875 
L 13.484375 54.6875 
L 13.484375 50 
Q 15.09375 52.9375 17.5 54.46875 
Q 19.921875 56 23 56 
Q 26.703125 56 29.171875 54.296875 
Q 31.640625 52.59375 33.015625 49.125 
z
" id="DejaVuSansMono-6d"/>
      <path d="M 54.296875 29.59375 
L 54.296875 25.203125 
L 15.375 25.203125 
L 15.375 24.90625 
Q 15.375 15.96875 20.03125 11.078125 
Q 24.703125 6.203125 33.203125 6.203125 
Q 37.5 6.203125 42.1875 7.5625 
Q 46.875 8.9375 52.203125 11.71875 
L 52.203125 2.78125 
Q 47.078125 0.6875 42.3125 -0.359375 
Q 37.546875 -1.421875 33.109375 -1.421875 
Q 20.359375 -1.421875 13.171875 6.21875 
Q 6 13.875 6 27.296875 
Q 6 40.375 13.03125 48.1875 
Q 20.0625 56 31.78125 56 
Q 42.234375 56 48.265625 48.921875 
Q 54.296875 41.84375 54.296875 29.59375 
z
M 45.3125 32.234375 
Q 45.125 40.140625 41.578125 44.265625 
Q 38.03125 48.390625 31.390625 48.390625 
Q 24.90625 48.390625 20.703125 44.09375 
Q 16.5 39.796875 15.71875 32.171875 
z
" id="DejaVuSansMono-65"/>
     </defs>
     <g style="fill:#e5dc5a;" transform="translate(146.920941 217.14625)scale(0.08 -0.08)">
      <use xlink:href="#DejaVuSansMono-54"/>
      <use x="60.205078" xlink:href="#DejaVuSansMono-69"/>
      <use x="120.410156" xlink:href="#DejaVuSansMono-6d"/>
      <use x="180.615234" xlink:href="#DejaVuSansMono-65"/>
     </g>
    </g>
   </g>
   <g id="matplotlib.axis_2">
    <g id="ytick_1">
     <g id="line2d_19">
      <path clip-path="url(#p4848cb6f6c)" d="M 38.183766 184.68 
L 274.923117 184.68 
" style="fill:none;stroke:#606054;stroke-dasharray:0.8,1.32;stroke-dashoffset:0;stroke-width:0.8;"/>
     </g>
     <g id="line2d_20">
      <defs>
       <path d="M 0 0 
L -3.5 0 
" id="m1af4377697" style="stroke:#917df0;stroke-width:0.8;"/>
      </defs>
      <g>
       <use style="fill:#917df0;stroke:#917df0;stroke-width:0.8;" x="38.183766" xlink:href="#m1af4377697" y="184.68"/>
      </g>
     </g>
     <g id="text_11">
      <!-- 0.000 -->
      <defs>
       <path d="M 23.875 14.890625 
L 36.1875 14.890625 
L 36.1875 0 
L 23.875 0 
z
" id="DejaVuSansMono-2e"/>
      </defs>
      <g style="fill:#917df0;" transform="translate(7.102516 187.740625)scale(0.08 -0.08)">
       <use xlink:href="#DejaVuSansMono-30"/>
       <use x="60.205078" xlink:href="#DejaVuSansMono-2e"/>
       <use x="120.410156" xlink:href="#DejaVuSansMono-30"/>
       <use x="180.615234" xlink:href="#DejaVuSansMono-30"/>
       <use x="240.820312" xlink:href="#DejaVuSansMono-30"/>
      </g>
     </g>
    </g>
    <g id="ytick_2">
     <g id="line2d_21">
      <path clip-path="url(#p4848cb6f6c)" d="M 38.183766 165.749334 
L 274.923117 165.749334 
" style="fill:none;stroke:#606054;stroke-dasharray:0.8,1.32;stroke-dashoffset:0;stroke-width:0.8;"/>
     </g>
     <g id="line2d_22">
      <g>
       <use style="fill:#917df0;stroke:#917df0;stroke-width:0.8;" x="38.183766" xlink:href="#m1af4377697" y="165.749334"/>
      </g>
     </g>
     <g id="text_12">
      <!-- 0.001 -->
      <g style="fill:#917df0;" transform="translate(7.102516 168.809959)scale(0.08 -0.08)">
       <use xlink:href="#DejaVuSansMono-30"/>
       <use x="60.205078" xlink:href="#DejaVuSansMono-2e"/>
       <use x="120.410156" xlink:href="#DejaVuSansMono-30"/>
       <use x="180.615234" xlink:href="#DejaVuSansMono-30"/>
       <use x="240.820312" xlink:href="#DejaVuSansMono-31"/>
      </g>
     </g>
    </g>
    <g id="ytick_3">
     <g id="line2d_23">
      <path clip-path="url(#p4848cb6f6c)" d="M 38.183766 146.818669 
L 274.923117 146.818669 
" style="fill:none;stroke:#606054;stroke-dasharray:0.8,1.32;stroke-dashoffset:0;stroke-width:0.8;"/>
     </g>
     <g id="line2d_24">
      <g>
       <use style="fill:#917df0;stroke:#917df0;stroke-width:0.8;" x="38.183766" xlink:href="#m1af4377697" y="146.818669"/>
      </g>
     </g>
     <g id="text_13">
      <!-- 0.002 -->
      <g style="fill:#917df0;" transform="translate(7.102516 149.879294)scale(0.08 -0.08)">
       <use xlink:href="#DejaVuSansMono-30"/>
       <use x="60.205078" xlink:href="#DejaVuSansMono-2e"/>
       <use x="120.410156" xlink:href="#DejaVuSansMono-30"/>
       <use x="180.615234" xlink:href="#DejaVuSansMono-30"/>
       <use x="240.820312" xlink:href="#DejaVuSansMono-32"/>
      </g>
     </g>
    </g>
    <g id="ytick_4">
     <g id="line2d_25">
      <path clip-path="url(#p4848cb6f6c)" d="M 38.183766 127.888003 
L 274.923117 127.888003 
" style="fill:none;stroke:#606054;stroke-dasharray:0.8,1.32;stroke-dashoffset:0;stroke-width:0.8;"/>
     </g>
     <g id="line2d_26">
      <g>
       <use style="fill:#917df0;stroke:#917df0;stroke-width:0.8;" x="38.183766" xlink:href="#m1af4377697" y="127.888003"/>
      </g>
     </g>
     <g id="text_14">
      <!-- 0.003 -->
      <defs>
       <path d="M 37.890625 39.015625 
Q 45.0625 37.109375 48.875 32.25 
Q 52.6875 27.390625 52.6875 20.125 
Q 52.6875 10.0625 45.921875 4.3125 
Q 39.15625 -1.421875 27.203125 -1.421875 
Q 22.171875 -1.421875 16.9375 -0.484375 
Q 11.71875 0.4375 6.6875 2.203125 
L 6.6875 12.015625 
Q 11.671875 9.421875 16.5 8.15625 
Q 21.34375 6.890625 26.125 6.890625 
Q 34.234375 6.890625 38.578125 10.546875 
Q 42.921875 14.203125 42.921875 21.09375 
Q 42.921875 27.4375 38.578125 31.171875 
Q 34.234375 34.90625 26.8125 34.90625 
L 19.28125 34.90625 
L 19.28125 43.015625 
L 26.8125 43.015625 
Q 33.59375 43.015625 37.40625 45.984375 
Q 41.21875 48.96875 41.21875 54.296875 
Q 41.21875 59.90625 37.671875 62.90625 
Q 34.125 65.921875 27.59375 65.921875 
Q 23.25 65.921875 18.609375 64.9375 
Q 13.96875 63.96875 8.890625 62.015625 
L 8.890625 71.09375 
Q 14.796875 72.65625 19.40625 73.4375 
Q 24.03125 74.21875 27.59375 74.21875 
Q 38.234375 74.21875 44.609375 68.875 
Q 50.984375 63.53125 50.984375 54.6875 
Q 50.984375 48.6875 47.625 44.671875 
Q 44.28125 40.671875 37.890625 39.015625 
z
" id="DejaVuSansMono-33"/>
      </defs>
      <g style="fill:#917df0;" transform="translate(7.102516 130.948628)scale(0.08 -0.08)">
       <use xlink:href="#DejaVuSansMono-30"/>
       <use x="60.205078" xlink:href="#DejaVuSansMono-2e"/>
       <use x="120.410156" xlink:href="#DejaVuSansMono-30"/>
       <use x="180.615234" xlink:href="#DejaVuSansMono-30"/>
       <use x="240.820312" xlink:href="#DejaVuSansMono-33"/>
      </g>
     </g>
    </g>
    <g id="ytick_5">
     <g id="line2d_27">
      <path clip-path="url(#p4848cb6f6c)" d="M 38.183766 108.957338 
L 274.923117 108.957338 
" style="fill:none;stroke:#606054;stroke-dasharray:0.8,1.32;stroke-dashoffset:0;stroke-width:0.8;"/>
     </g>
     <g id="line2d_28">
      <g>
       <use style="fill:#917df0;stroke:#917df0;stroke-width:0.8;" x="38.183766" xlink:href="#m1af4377697" y="108.957338"/>
      </g>
     </g>
     <g id="text_15">
      <!-- 0.004 -->
      <defs>
       <path d="M 35.890625 63.921875 
L 12.890625 25.390625 
L 35.890625 25.390625 
z
M 34.28125 72.90625 
L 45.703125 72.90625 
L 45.703125 25.390625 
L 55.421875 25.390625 
L 55.421875 17.390625 
L 45.703125 17.390625 
L 45.703125 0 
L 35.890625 0 
L 35.890625 17.390625 
L 4.984375 17.390625 
L 4.984375 26.703125 
z
" id="DejaVuSansMono-34"/>
      </defs>
      <g style="fill:#917df0;" transform="translate(7.102516 112.017963)scale(0.08 -0.08)">
       <use xlink:href="#DejaVuSansMono-30"/>
       <use x="60.205078" xlink:href="#DejaVuSansMono-2e"/>
       <use x="120.410156" xlink:href="#DejaVuSansMono-30"/>
       <use x="180.615234" xlink:href="#DejaVuSansMono-30"/>
       <use x="240.820312" xlink:href="#DejaVuSansMono-34"/>
      </g>
     </g>
    </g>
    <g id="ytick_6">
     <g id="line2d_29">
      <path clip-path="url(#p4848cb6f6c)" d="M 38.183766 90.026672 
L 274.923117 90.026672 
" style="fill:none;stroke:#606054;stroke-dasharray:0.8,1.32;stroke-dashoffset:0;stroke-width:0.8;"/>
     </g>
     <g id="line2d_30">
      <g>
       <use style="fill:#917df0;stroke:#917df0;stroke-width:0.8;" x="38.183766" xlink:href="#m1af4377697" y="90.026672"/>
      </g>
     </g>
     <g id="text_16">
      <!-- 0.005 -->
      <g style="fill:#917df0;" transform="translate(7.102516 93.087297)scale(0.08 -0.08)">
       <use xlink:href="#DejaVuSansMono-30"/>
       <use x="60.205078" xlink:href="#DejaVuSansMono-2e"/>
       <use x="120.410156" xlink:href="#DejaVuSansMono-30"/>
       <use x="180.615234" xlink:href="#DejaVuSansMono-30"/>
       <use x="240.820312" xlink:href="#DejaVuSansMono-35"/>
      </g>
     </g>
    </g>
    <g id="ytick_7">
     <g id="line2d_31">
      <path clip-path="url(#p4848cb6f6c)" d="M 38.183766 71.096006 
L 274.923117 71.096006 
" style="fill:none;stroke:#606054;stroke-dasharray:0.8,1.32;stroke-dashoffset:0;stroke-width:0.8;"/>
     </g>
     <g id="line2d_32">
      <g>
       <use style="fill:#917df0;stroke:#917df0;stroke-width:0.8;" x="38.183766" xlink:href="#m1af4377697" y="71.096006"/>
      </g>
     </g>
     <g id="text_17">
      <!-- 0.006 -->
      <defs>
       <path d="M 48.390625 71.296875 
L 48.390625 62.203125 
Q 45.3125 64.015625 41.84375 64.96875 
Q 38.375 65.921875 34.625 65.921875 
Q 25.25 65.921875 20.40625 58.859375 
Q 15.578125 51.8125 15.578125 38.09375 
Q 17.921875 42.96875 22.0625 45.578125 
Q 26.21875 48.1875 31.59375 48.1875 
Q 42.140625 48.1875 47.921875 41.71875 
Q 53.71875 35.25 53.71875 23.390625 
Q 53.71875 11.578125 47.75 5.078125 
Q 41.796875 -1.421875 31 -1.421875 
Q 18.3125 -1.421875 12.40625 7.6875 
Q 6.5 16.796875 6.5 36.375 
Q 6.5 54.828125 13.59375 64.515625 
Q 20.703125 74.21875 34.1875 74.21875 
Q 37.796875 74.21875 41.40625 73.453125 
Q 45.015625 72.703125 48.390625 71.296875 
z
M 30.8125 40.484375 
Q 24.515625 40.484375 20.890625 35.9375 
Q 17.28125 31.390625 17.28125 23.390625 
Q 17.28125 15.375 20.890625 10.828125 
Q 24.515625 6.296875 30.8125 6.296875 
Q 37.359375 6.296875 40.671875 10.609375 
Q 44 14.9375 44 23.390625 
Q 44 31.890625 40.671875 36.1875 
Q 37.359375 40.484375 30.8125 40.484375 
z
" id="DejaVuSansMono-36"/>
      </defs>
      <g style="fill:#917df0;" transform="translate(7.102516 74.156631)scale(0.08 -0.08)">
       <use xlink:href="#DejaVuSansMono-30"/>
       <use x="60.205078" xlink:href="#DejaVuSansMono-2e"/>
       <use x="120.410156" xlink:href="#DejaVuSansMono-30"/>
       <use x="180.615234" xlink:href="#DejaVuSansMono-30"/>
       <use x="240.820312" xlink:href="#DejaVuSansMono-36"/>
      </g>
     </g>
    </g>
    <g id="ytick_8">
     <g id="line2d_33">
      <path clip-path="url(#p4848cb6f6c)" d="M 38.183766 52.165341 
L 274.923117 52.165341 
" style="fill:none;stroke:#606054;stroke-dasharray:0.8,1.32;stroke-dashoffset:0;stroke-width:0.8;"/>
     </g>
     <g id="line2d_34">
      <g>
       <use style="fill:#917df0;stroke:#917df0;stroke-width:0.8;" x="38.183766" xlink:href="#m1af4377697" y="52.165341"/>
      </g>
     </g>
     <g id="text_18">
      <!-- 0.007 -->
      <g style="fill:#917df0;" transform="translate(7.102516 55.225966)scale(0.08 -0.08)">
       <use xlink:href="#DejaVuSansMono-30"/>
       <use x="60.205078" xlink:href="#DejaVuSansMono-2e"/>
       <use x="120.410156" xlink:href="#DejaVuSansMono-30"/>
       <use x="180.615234" xlink:href="#DejaVuSansMono-30"/>
       <use x="240.820312" xlink:href="#DejaVuSansMono-37"/>
      </g>
     </g>
    </g>
    <g id="ytick_9">
     <g id="line2d_35">
      <path clip-path="url(#p4848cb6f6c)" d="M 38.183766 33.234675 
L 274.923117 33.234675 
" style="fill:none;stroke:#606054;stroke-dasharray:0.8,1.32;stroke-dashoffset:0;stroke-width:0.8;"/>
     </g>
     <g id="line2d_36">
      <g>
       <use style="fill:#917df0;stroke:#917df0;stroke-width:0.8;" x="38.183766" xlink:href="#m1af4377697" y="33.234675"/>
      </g>
     </g>
     <g id="text_19">
      <!-- 0.008 -->
      <defs>
       <path d="M 30.078125 34.625 
Q 23.484375 34.625 19.890625 30.9375 
Q 16.3125 27.25 16.3125 20.515625 
Q 16.3125 13.765625 19.9375 10.03125 
Q 23.578125 6.296875 30.078125 6.296875 
Q 36.71875 6.296875 40.296875 9.984375 
Q 43.890625 13.671875 43.890625 20.515625 
Q 43.890625 27.203125 40.25 30.90625 
Q 36.625 34.625 30.078125 34.625 
z
M 21.484375 38.71875 
Q 15.1875 40.328125 11.640625 44.71875 
Q 8.109375 49.125 8.109375 55.328125 
Q 8.109375 64.015625 14.015625 69.109375 
Q 19.921875 74.21875 30.078125 74.21875 
Q 40.28125 74.21875 46.1875 69.109375 
Q 52.09375 64.015625 52.09375 55.328125 
Q 52.09375 49.125 48.546875 44.71875 
Q 45.015625 40.328125 38.71875 38.71875 
Q 46.046875 37.109375 49.921875 32.21875 
Q 53.8125 27.34375 53.8125 19.578125 
Q 53.8125 9.71875 47.515625 4.140625 
Q 41.21875 -1.421875 30.078125 -1.421875 
Q 18.953125 -1.421875 12.671875 4.125 
Q 6.390625 9.671875 6.390625 19.484375 
Q 6.390625 27.296875 10.265625 32.203125 
Q 14.15625 37.109375 21.484375 38.71875 
z
M 17.921875 54.390625 
Q 17.921875 48.53125 21.046875 45.453125 
Q 24.171875 42.390625 30.078125 42.390625 
Q 36.03125 42.390625 39.15625 45.453125 
Q 42.28125 48.53125 42.28125 54.390625 
Q 42.28125 60.359375 39.171875 63.484375 
Q 36.078125 66.609375 30.078125 66.609375 
Q 24.171875 66.609375 21.046875 63.453125 
Q 17.921875 60.296875 17.921875 54.390625 
z
" id="DejaVuSansMono-38"/>
      </defs>
      <g style="fill:#917df0;" transform="translate(7.102516 36.2953)scale(0.08 -0.08)">
       <use xlink:href="#DejaVuSansMono-30"/>
       <use x="60.205078" xlink:href="#DejaVuSansMono-2e"/>
       <use x="120.410156" xlink:href="#DejaVuSansMono-30"/>
       <use x="180.615234" xlink:href="#DejaVuSansMono-30"/>
       <use x="240.820312" xlink:href="#DejaVuSansMono-38"/>
      </g>
     </g>
    </g>
    <g id="text_20">
     <!-- # -->
     <defs>
      <path d="M 33.40625 71.78125 
L 28.328125 51.515625 
L 40.28125 51.515625 
L 45.40625 71.78125 
L 53.21875 71.78125 
L 48.09375 51.515625 
L 60.015625 51.515625 
L 60.015625 44 
L 46.296875 44 
L 42.1875 27.6875 
L 54.390625 27.6875 
L 54.390625 20.21875 
L 40.28125 20.21875 
L 35.203125 0 
L 27.390625 0 
L 32.515625 20.21875 
L 20.515625 20.21875 
L 15.375 0 
L 7.625 0 
L 12.703125 20.21875 
L 0.09375 20.21875 
L 0.09375 27.6875 
L 14.59375 27.6875 
L 18.703125 44 
L 5.71875 44 
L 5.71875 51.515625 
L 20.515625 51.515625 
L 25.59375 71.78125 
z
M 38.484375 44 
L 26.515625 44 
L 22.40625 27.6875 
L 34.421875 27.6875 
z
" id="DejaVuSansMono-23"/>
     </defs>
     <g style="fill:#e5dc5a;" transform="translate(1.438766 111.488125)rotate(-90)scale(0.08 -0.08)">
      <use xlink:href="#DejaVuSansMono-23"/>
     </g>
    </g>
   </g>
   <g id="line2d_37">
    <defs>
     <path d="M 0 1.5 
C 0.397805 1.5 0.77937 1.341951 1.06066 1.06066 
C 1.341951 0.77937 1.5 0.397805 1.5 0 
C 1.5 -0.397805 1.341951 -0.77937 1.06066 -1.06066 
C 0.77937 -1.341951 0.397805 -1.5 0 -1.5 
C -0.397805 -1.5 -0.77937 -1.341951 -1.06066 -1.06066 
C -1.341951 -0.77937 -1.5 -0.397805 -1.5 0 
C -1.5 0.397805 -1.341951 0.77937 -1.06066 1.06066 
C -0.77937 1.341951 -0.397805 1.5 0 1.5 
z
" id="m1dc3f18df6" style="stroke:#1e90e5;"/>
    </defs>
    <g clip-path="url(#p4848cb6f6c)">
     <use style="fill:#1e90e5;stroke:#1e90e5;" x="48.944646" xlink:href="#m1dc3f18df6" y="100.225946"/>
     <use style="fill:#1e90e5;stroke:#1e90e5;" x="50.020734" xlink:href="#m1dc3f18df6" y="97.501622"/>
     <use style="fill:#1e90e5;stroke:#1e90e5;" x="51.096822" xlink:href="#m1dc3f18df6" y="109.761081"/>
     <use style="fill:#1e90e5;stroke:#1e90e5;" x="52.17291" xlink:href="#m1dc3f18df6" y="105.674595"/>
     <use style="fill:#1e90e5;stroke:#1e90e5;" x="53.248998" xlink:href="#m1dc3f18df6" y="104.312432"/>
     <use style="fill:#1e90e5;stroke:#1e90e5;" x="54.325086" xlink:href="#m1dc3f18df6" y="117.934054"/>
     <use style="fill:#1e90e5;stroke:#1e90e5;" x="55.401173" xlink:href="#m1dc3f18df6" y="96.139459"/>
     <use style="fill:#1e90e5;stroke:#1e90e5;" x="56.477261" xlink:href="#m1dc3f18df6" y="105.674595"/>
     <use style="fill:#1e90e5;stroke:#1e90e5;" x="57.553349" xlink:href="#m1dc3f18df6" y="111.123243"/>
     <use style="fill:#1e90e5;stroke:#1e90e5;" x="58.629437" xlink:href="#m1dc3f18df6" y="86.604324"/>
     <use style="fill:#1e90e5;stroke:#1e90e5;" x="59.705525" xlink:href="#m1dc3f18df6" y="96.139459"/>
     <use style="fill:#1e90e5;stroke:#1e90e5;" x="60.781613" xlink:href="#m1dc3f18df6" y="104.312432"/>
     <use style="fill:#1e90e5;stroke:#1e90e5;" x="61.857701" xlink:href="#m1dc3f18df6" y="97.501622"/>
     <use style="fill:#1e90e5;stroke:#1e90e5;" x="62.933789" xlink:href="#m1dc3f18df6" y="90.690811"/>
     <use style="fill:#1e90e5;stroke:#1e90e5;" x="64.009877" xlink:href="#m1dc3f18df6" y="105.674595"/>
     <use style="fill:#1e90e5;stroke:#1e90e5;" x="65.085965" xlink:href="#m1dc3f18df6" y="104.312432"/>
     <use style="fill:#1e90e5;stroke:#1e90e5;" x="66.162053" xlink:href="#m1dc3f18df6" y="92.052973"/>
     <use style="fill:#1e90e5;stroke:#1e90e5;" x="67.238141" xlink:href="#m1dc3f18df6" y="89.328649"/>
     <use style="fill:#1e90e5;stroke:#1e90e5;" x="68.314229" xlink:href="#m1dc3f18df6" y="93.415135"/>
     <use style="fill:#1e90e5;stroke:#1e90e5;" x="69.390317" xlink:href="#m1dc3f18df6" y="92.052973"/>
     <use style="fill:#1e90e5;stroke:#1e90e5;" x="70.466405" xlink:href="#m1dc3f18df6" y="105.674595"/>
     <use style="fill:#1e90e5;stroke:#1e90e5;" x="71.542493" xlink:href="#m1dc3f18df6" y="117.934054"/>
     <use style="fill:#1e90e5;stroke:#1e90e5;" x="72.618581" xlink:href="#m1dc3f18df6" y="83.88"/>
     <use style="fill:#1e90e5;stroke:#1e90e5;" x="73.694669" xlink:href="#m1dc3f18df6" y="109.761081"/>
     <use style="fill:#1e90e5;stroke:#1e90e5;" x="74.770757" xlink:href="#m1dc3f18df6" y="87.966486"/>
     <use style="fill:#1e90e5;stroke:#1e90e5;" x="75.846845" xlink:href="#m1dc3f18df6" y="112.485405"/>
     <use style="fill:#1e90e5;stroke:#1e90e5;" x="76.922933" xlink:href="#m1dc3f18df6" y="108.398919"/>
     <use style="fill:#1e90e5;stroke:#1e90e5;" x="77.999021" xlink:href="#m1dc3f18df6" y="111.123243"/>
     <use style="fill:#1e90e5;stroke:#1e90e5;" x="79.075109" xlink:href="#m1dc3f18df6" y="98.863784"/>
     <use style="fill:#1e90e5;stroke:#1e90e5;" x="80.151196" xlink:href="#m1dc3f18df6" y="100.225946"/>
     <use style="fill:#1e90e5;stroke:#1e90e5;" x="81.227284" xlink:href="#m1dc3f18df6" y="87.966486"/>
     <use style="fill:#1e90e5;stroke:#1e90e5;" x="82.303372" xlink:href="#m1dc3f18df6" y="97.501622"/>
     <use style="fill:#1e90e5;stroke:#1e90e5;" x="83.37946" xlink:href="#m1dc3f18df6" y="93.415135"/>
     <use style="fill:#1e90e5;stroke:#1e90e5;" x="84.455548" xlink:href="#m1dc3f18df6" y="96.139459"/>
     <use style="fill:#1e90e5;stroke:#1e90e5;" x="85.531636" xlink:href="#m1dc3f18df6" y="86.604324"/>
     <use style="fill:#1e90e5;stroke:#1e90e5;" x="86.607724" xlink:href="#m1dc3f18df6" y="98.863784"/>
     <use style="fill:#1e90e5;stroke:#1e90e5;" x="87.683812" xlink:href="#m1dc3f18df6" y="104.312432"/>
     <use style="fill:#1e90e5;stroke:#1e90e5;" x="88.7599" xlink:href="#m1dc3f18df6" y="83.88"/>
     <use style="fill:#1e90e5;stroke:#1e90e5;" x="89.835988" xlink:href="#m1dc3f18df6" y="67.534054"/>
     <use style="fill:#1e90e5;stroke:#1e90e5;" x="90.912076" xlink:href="#m1dc3f18df6" y="104.312432"/>
     <use style="fill:#1e90e5;stroke:#1e90e5;" x="91.988164" xlink:href="#m1dc3f18df6" y="108.398919"/>
     <use style="fill:#1e90e5;stroke:#1e90e5;" x="93.064252" xlink:href="#m1dc3f18df6" y="86.604324"/>
     <use style="fill:#1e90e5;stroke:#1e90e5;" x="94.14034" xlink:href="#m1dc3f18df6" y="108.398919"/>
     <use style="fill:#1e90e5;stroke:#1e90e5;" x="95.216428" xlink:href="#m1dc3f18df6" y="86.604324"/>
     <use style="fill:#1e90e5;stroke:#1e90e5;" x="96.292516" xlink:href="#m1dc3f18df6" y="86.604324"/>
     <use style="fill:#1e90e5;stroke:#1e90e5;" x="97.368604" xlink:href="#m1dc3f18df6" y="90.690811"/>
     <use style="fill:#1e90e5;stroke:#1e90e5;" x="98.444692" xlink:href="#m1dc3f18df6" y="107.036757"/>
     <use style="fill:#1e90e5;stroke:#1e90e5;" x="99.52078" xlink:href="#m1dc3f18df6" y="101.588108"/>
     <use style="fill:#1e90e5;stroke:#1e90e5;" x="100.596868" xlink:href="#m1dc3f18df6" y="77.069189"/>
     <use style="fill:#1e90e5;stroke:#1e90e5;" x="101.672956" xlink:href="#m1dc3f18df6" y="105.674595"/>
     <use style="fill:#1e90e5;stroke:#1e90e5;" x="102.749044" xlink:href="#m1dc3f18df6" y="79.793514"/>
     <use style="fill:#1e90e5;stroke:#1e90e5;" x="103.825132" xlink:href="#m1dc3f18df6" y="74.344865"/>
     <use style="fill:#1e90e5;stroke:#1e90e5;" x="104.901219" xlink:href="#m1dc3f18df6" y="101.588108"/>
     <use style="fill:#1e90e5;stroke:#1e90e5;" x="105.977307" xlink:href="#m1dc3f18df6" y="105.674595"/>
     <use style="fill:#1e90e5;stroke:#1e90e5;" x="107.053395" xlink:href="#m1dc3f18df6" y="102.95027"/>
     <use style="fill:#1e90e5;stroke:#1e90e5;" x="108.129483" xlink:href="#m1dc3f18df6" y="102.95027"/>
     <use style="fill:#1e90e5;stroke:#1e90e5;" x="109.205571" xlink:href="#m1dc3f18df6" y="101.588108"/>
     <use style="fill:#1e90e5;stroke:#1e90e5;" x="110.281659" xlink:href="#m1dc3f18df6" y="94.777297"/>
     <use style="fill:#1e90e5;stroke:#1e90e5;" x="111.357747" xlink:href="#m1dc3f18df6" y="86.604324"/>
     <use style="fill:#1e90e5;stroke:#1e90e5;" x="112.433835" xlink:href="#m1dc3f18df6" y="83.88"/>
     <use style="fill:#1e90e5;stroke:#1e90e5;" x="113.509923" xlink:href="#m1dc3f18df6" y="62.085405"/>
     <use style="fill:#1e90e5;stroke:#1e90e5;" x="114.586011" xlink:href="#m1dc3f18df6" y="83.88"/>
     <use style="fill:#1e90e5;stroke:#1e90e5;" x="115.662099" xlink:href="#m1dc3f18df6" y="104.312432"/>
     <use style="fill:#1e90e5;stroke:#1e90e5;" x="116.738187" xlink:href="#m1dc3f18df6" y="92.052973"/>
     <use style="fill:#1e90e5;stroke:#1e90e5;" x="117.814275" xlink:href="#m1dc3f18df6" y="96.139459"/>
     <use style="fill:#1e90e5;stroke:#1e90e5;" x="118.890363" xlink:href="#m1dc3f18df6" y="77.069189"/>
     <use style="fill:#1e90e5;stroke:#1e90e5;" x="119.966451" xlink:href="#m1dc3f18df6" y="82.517838"/>
     <use style="fill:#1e90e5;stroke:#1e90e5;" x="121.042539" xlink:href="#m1dc3f18df6" y="60.723243"/>
     <use style="fill:#1e90e5;stroke:#1e90e5;" x="122.118627" xlink:href="#m1dc3f18df6" y="78.431351"/>
     <use style="fill:#1e90e5;stroke:#1e90e5;" x="123.194715" xlink:href="#m1dc3f18df6" y="64.80973"/>
     <use style="fill:#1e90e5;stroke:#1e90e5;" x="124.270803" xlink:href="#m1dc3f18df6" y="79.793514"/>
     <use style="fill:#1e90e5;stroke:#1e90e5;" x="125.346891" xlink:href="#m1dc3f18df6" y="86.604324"/>
     <use style="fill:#1e90e5;stroke:#1e90e5;" x="126.422979" xlink:href="#m1dc3f18df6" y="68.896216"/>
     <use style="fill:#1e90e5;stroke:#1e90e5;" x="127.499067" xlink:href="#m1dc3f18df6" y="82.517838"/>
     <use style="fill:#1e90e5;stroke:#1e90e5;" x="128.575154" xlink:href="#m1dc3f18df6" y="82.517838"/>
     <use style="fill:#1e90e5;stroke:#1e90e5;" x="129.651242" xlink:href="#m1dc3f18df6" y="79.793514"/>
     <use style="fill:#1e90e5;stroke:#1e90e5;" x="130.72733" xlink:href="#m1dc3f18df6" y="87.966486"/>
     <use style="fill:#1e90e5;stroke:#1e90e5;" x="131.803418" xlink:href="#m1dc3f18df6" y="100.225946"/>
     <use style="fill:#1e90e5;stroke:#1e90e5;" x="132.879506" xlink:href="#m1dc3f18df6" y="75.707027"/>
     <use style="fill:#1e90e5;stroke:#1e90e5;" x="133.955594" xlink:href="#m1dc3f18df6" y="78.431351"/>
     <use style="fill:#1e90e5;stroke:#1e90e5;" x="135.031682" xlink:href="#m1dc3f18df6" y="71.620541"/>
     <use style="fill:#1e90e5;stroke:#1e90e5;" x="136.10777" xlink:href="#m1dc3f18df6" y="60.723243"/>
     <use style="fill:#1e90e5;stroke:#1e90e5;" x="137.183858" xlink:href="#m1dc3f18df6" y="75.707027"/>
     <use style="fill:#1e90e5;stroke:#1e90e5;" x="138.259946" xlink:href="#m1dc3f18df6" y="67.534054"/>
     <use style="fill:#1e90e5;stroke:#1e90e5;" x="139.336034" xlink:href="#m1dc3f18df6" y="81.155676"/>
     <use style="fill:#1e90e5;stroke:#1e90e5;" x="140.412122" xlink:href="#m1dc3f18df6" y="109.761081"/>
     <use style="fill:#1e90e5;stroke:#1e90e5;" x="141.48821" xlink:href="#m1dc3f18df6" y="60.723243"/>
     <use style="fill:#1e90e5;stroke:#1e90e5;" x="142.564298" xlink:href="#m1dc3f18df6" y="56.636757"/>
     <use style="fill:#1e90e5;stroke:#1e90e5;" x="143.640386" xlink:href="#m1dc3f18df6" y="75.707027"/>
     <use style="fill:#1e90e5;stroke:#1e90e5;" x="144.716474" xlink:href="#m1dc3f18df6" y="79.793514"/>
     <use style="fill:#1e90e5;stroke:#1e90e5;" x="145.792562" xlink:href="#m1dc3f18df6" y="49.825946"/>
     <use style="fill:#1e90e5;stroke:#1e90e5;" x="146.86865" xlink:href="#m1dc3f18df6" y="53.912432"/>
     <use style="fill:#1e90e5;stroke:#1e90e5;" x="147.944738" xlink:href="#m1dc3f18df6" y="75.707027"/>
     <use style="fill:#1e90e5;stroke:#1e90e5;" x="149.020826" xlink:href="#m1dc3f18df6" y="63.447568"/>
     <use style="fill:#1e90e5;stroke:#1e90e5;" x="150.096914" xlink:href="#m1dc3f18df6" y="66.171892"/>
     <use style="fill:#1e90e5;stroke:#1e90e5;" x="151.173002" xlink:href="#m1dc3f18df6" y="75.707027"/>
     <use style="fill:#1e90e5;stroke:#1e90e5;" x="152.24909" xlink:href="#m1dc3f18df6" y="72.982703"/>
     <use style="fill:#1e90e5;stroke:#1e90e5;" x="153.325177" xlink:href="#m1dc3f18df6" y="83.88"/>
     <use style="fill:#1e90e5;stroke:#1e90e5;" x="154.401265" xlink:href="#m1dc3f18df6" y="101.588108"/>
     <use style="fill:#1e90e5;stroke:#1e90e5;" x="155.477353" xlink:href="#m1dc3f18df6" y="132.917838"/>
     <use style="fill:#1e90e5;stroke:#1e90e5;" x="156.553441" xlink:href="#m1dc3f18df6" y="184.68"/>
     <use style="fill:#1e90e5;stroke:#1e90e5;" x="157.629529" xlink:href="#m1dc3f18df6" y="149.263784"/>
     <use style="fill:#1e90e5;stroke:#1e90e5;" x="158.705617" xlink:href="#m1dc3f18df6" y="101.588108"/>
     <use style="fill:#1e90e5;stroke:#1e90e5;" x="159.781705" xlink:href="#m1dc3f18df6" y="53.912432"/>
     <use style="fill:#1e90e5;stroke:#1e90e5;" x="160.857793" xlink:href="#m1dc3f18df6" y="81.155676"/>
     <use style="fill:#1e90e5;stroke:#1e90e5;" x="161.933881" xlink:href="#m1dc3f18df6" y="68.896216"/>
     <use style="fill:#1e90e5;stroke:#1e90e5;" x="163.009969" xlink:href="#m1dc3f18df6" y="60.723243"/>
     <use style="fill:#1e90e5;stroke:#1e90e5;" x="164.086057" xlink:href="#m1dc3f18df6" y="86.604324"/>
     <use style="fill:#1e90e5;stroke:#1e90e5;" x="165.162145" xlink:href="#m1dc3f18df6" y="63.447568"/>
     <use style="fill:#1e90e5;stroke:#1e90e5;" x="166.238233" xlink:href="#m1dc3f18df6" y="33.48"/>
     <use style="fill:#1e90e5;stroke:#1e90e5;" x="167.314321" xlink:href="#m1dc3f18df6" y="81.155676"/>
     <use style="fill:#1e90e5;stroke:#1e90e5;" x="168.390409" xlink:href="#m1dc3f18df6" y="59.361081"/>
     <use style="fill:#1e90e5;stroke:#1e90e5;" x="169.466497" xlink:href="#m1dc3f18df6" y="75.707027"/>
     <use style="fill:#1e90e5;stroke:#1e90e5;" x="170.542585" xlink:href="#m1dc3f18df6" y="85.242162"/>
     <use style="fill:#1e90e5;stroke:#1e90e5;" x="171.618673" xlink:href="#m1dc3f18df6" y="62.085405"/>
     <use style="fill:#1e90e5;stroke:#1e90e5;" x="172.694761" xlink:href="#m1dc3f18df6" y="74.344865"/>
     <use style="fill:#1e90e5;stroke:#1e90e5;" x="173.770849" xlink:href="#m1dc3f18df6" y="87.966486"/>
     <use style="fill:#1e90e5;stroke:#1e90e5;" x="174.846937" xlink:href="#m1dc3f18df6" y="78.431351"/>
     <use style="fill:#1e90e5;stroke:#1e90e5;" x="175.923025" xlink:href="#m1dc3f18df6" y="82.517838"/>
     <use style="fill:#1e90e5;stroke:#1e90e5;" x="176.999113" xlink:href="#m1dc3f18df6" y="81.155676"/>
     <use style="fill:#1e90e5;stroke:#1e90e5;" x="178.0752" xlink:href="#m1dc3f18df6" y="97.501622"/>
     <use style="fill:#1e90e5;stroke:#1e90e5;" x="179.151288" xlink:href="#m1dc3f18df6" y="71.620541"/>
     <use style="fill:#1e90e5;stroke:#1e90e5;" x="180.227376" xlink:href="#m1dc3f18df6" y="62.085405"/>
     <use style="fill:#1e90e5;stroke:#1e90e5;" x="181.303464" xlink:href="#m1dc3f18df6" y="60.723243"/>
     <use style="fill:#1e90e5;stroke:#1e90e5;" x="182.379552" xlink:href="#m1dc3f18df6" y="85.242162"/>
     <use style="fill:#1e90e5;stroke:#1e90e5;" x="183.45564" xlink:href="#m1dc3f18df6" y="71.620541"/>
     <use style="fill:#1e90e5;stroke:#1e90e5;" x="184.531728" xlink:href="#m1dc3f18df6" y="83.88"/>
     <use style="fill:#1e90e5;stroke:#1e90e5;" x="185.607816" xlink:href="#m1dc3f18df6" y="63.447568"/>
     <use style="fill:#1e90e5;stroke:#1e90e5;" x="186.683904" xlink:href="#m1dc3f18df6" y="82.517838"/>
     <use style="fill:#1e90e5;stroke:#1e90e5;" x="187.759992" xlink:href="#m1dc3f18df6" y="67.534054"/>
     <use style="fill:#1e90e5;stroke:#1e90e5;" x="188.83608" xlink:href="#m1dc3f18df6" y="72.982703"/>
     <use style="fill:#1e90e5;stroke:#1e90e5;" x="189.912168" xlink:href="#m1dc3f18df6" y="83.88"/>
     <use style="fill:#1e90e5;stroke:#1e90e5;" x="190.988256" xlink:href="#m1dc3f18df6" y="96.139459"/>
     <use style="fill:#1e90e5;stroke:#1e90e5;" x="192.064344" xlink:href="#m1dc3f18df6" y="55.274595"/>
     <use style="fill:#1e90e5;stroke:#1e90e5;" x="193.140432" xlink:href="#m1dc3f18df6" y="101.588108"/>
     <use style="fill:#1e90e5;stroke:#1e90e5;" x="194.21652" xlink:href="#m1dc3f18df6" y="79.793514"/>
     <use style="fill:#1e90e5;stroke:#1e90e5;" x="195.292608" xlink:href="#m1dc3f18df6" y="96.139459"/>
     <use style="fill:#1e90e5;stroke:#1e90e5;" x="196.368696" xlink:href="#m1dc3f18df6" y="90.690811"/>
     <use style="fill:#1e90e5;stroke:#1e90e5;" x="197.444784" xlink:href="#m1dc3f18df6" y="100.225946"/>
     <use style="fill:#1e90e5;stroke:#1e90e5;" x="198.520872" xlink:href="#m1dc3f18df6" y="89.328649"/>
     <use style="fill:#1e90e5;stroke:#1e90e5;" x="199.59696" xlink:href="#m1dc3f18df6" y="83.88"/>
     <use style="fill:#1e90e5;stroke:#1e90e5;" x="200.673048" xlink:href="#m1dc3f18df6" y="89.328649"/>
     <use style="fill:#1e90e5;stroke:#1e90e5;" x="201.749136" xlink:href="#m1dc3f18df6" y="92.052973"/>
     <use style="fill:#1e90e5;stroke:#1e90e5;" x="202.825223" xlink:href="#m1dc3f18df6" y="64.80973"/>
     <use style="fill:#1e90e5;stroke:#1e90e5;" x="203.901311" xlink:href="#m1dc3f18df6" y="71.620541"/>
     <use style="fill:#1e90e5;stroke:#1e90e5;" x="204.977399" xlink:href="#m1dc3f18df6" y="94.777297"/>
     <use style="fill:#1e90e5;stroke:#1e90e5;" x="206.053487" xlink:href="#m1dc3f18df6" y="87.966486"/>
     <use style="fill:#1e90e5;stroke:#1e90e5;" x="207.129575" xlink:href="#m1dc3f18df6" y="79.793514"/>
     <use style="fill:#1e90e5;stroke:#1e90e5;" x="208.205663" xlink:href="#m1dc3f18df6" y="71.620541"/>
     <use style="fill:#1e90e5;stroke:#1e90e5;" x="209.281751" xlink:href="#m1dc3f18df6" y="87.966486"/>
     <use style="fill:#1e90e5;stroke:#1e90e5;" x="210.357839" xlink:href="#m1dc3f18df6" y="93.415135"/>
     <use style="fill:#1e90e5;stroke:#1e90e5;" x="211.433927" xlink:href="#m1dc3f18df6" y="55.274595"/>
     <use style="fill:#1e90e5;stroke:#1e90e5;" x="212.510015" xlink:href="#m1dc3f18df6" y="100.225946"/>
     <use style="fill:#1e90e5;stroke:#1e90e5;" x="213.586103" xlink:href="#m1dc3f18df6" y="104.312432"/>
     <use style="fill:#1e90e5;stroke:#1e90e5;" x="214.662191" xlink:href="#m1dc3f18df6" y="108.398919"/>
     <use style="fill:#1e90e5;stroke:#1e90e5;" x="215.738279" xlink:href="#m1dc3f18df6" y="82.517838"/>
     <use style="fill:#1e90e5;stroke:#1e90e5;" x="216.814367" xlink:href="#m1dc3f18df6" y="71.620541"/>
     <use style="fill:#1e90e5;stroke:#1e90e5;" x="217.890455" xlink:href="#m1dc3f18df6" y="108.398919"/>
     <use style="fill:#1e90e5;stroke:#1e90e5;" x="218.966543" xlink:href="#m1dc3f18df6" y="90.690811"/>
     <use style="fill:#1e90e5;stroke:#1e90e5;" x="220.042631" xlink:href="#m1dc3f18df6" y="81.155676"/>
     <use style="fill:#1e90e5;stroke:#1e90e5;" x="221.118719" xlink:href="#m1dc3f18df6" y="89.328649"/>
     <use style="fill:#1e90e5;stroke:#1e90e5;" x="222.194807" xlink:href="#m1dc3f18df6" y="97.501622"/>
     <use style="fill:#1e90e5;stroke:#1e90e5;" x="223.270895" xlink:href="#m1dc3f18df6" y="85.242162"/>
     <use style="fill:#1e90e5;stroke:#1e90e5;" x="224.346983" xlink:href="#m1dc3f18df6" y="82.517838"/>
     <use style="fill:#1e90e5;stroke:#1e90e5;" x="225.423071" xlink:href="#m1dc3f18df6" y="101.588108"/>
     <use style="fill:#1e90e5;stroke:#1e90e5;" x="226.499159" xlink:href="#m1dc3f18df6" y="87.966486"/>
     <use style="fill:#1e90e5;stroke:#1e90e5;" x="227.575246" xlink:href="#m1dc3f18df6" y="89.328649"/>
     <use style="fill:#1e90e5;stroke:#1e90e5;" x="228.651334" xlink:href="#m1dc3f18df6" y="92.052973"/>
     <use style="fill:#1e90e5;stroke:#1e90e5;" x="229.727422" xlink:href="#m1dc3f18df6" y="104.312432"/>
     <use style="fill:#1e90e5;stroke:#1e90e5;" x="230.80351" xlink:href="#m1dc3f18df6" y="96.139459"/>
     <use style="fill:#1e90e5;stroke:#1e90e5;" x="231.879598" xlink:href="#m1dc3f18df6" y="109.761081"/>
     <use style="fill:#1e90e5;stroke:#1e90e5;" x="232.955686" xlink:href="#m1dc3f18df6" y="113.847568"/>
     <use style="fill:#1e90e5;stroke:#1e90e5;" x="234.031774" xlink:href="#m1dc3f18df6" y="97.501622"/>
     <use style="fill:#1e90e5;stroke:#1e90e5;" x="235.107862" xlink:href="#m1dc3f18df6" y="120.658378"/>
     <use style="fill:#1e90e5;stroke:#1e90e5;" x="236.18395" xlink:href="#m1dc3f18df6" y="71.620541"/>
     <use style="fill:#1e90e5;stroke:#1e90e5;" x="237.260038" xlink:href="#m1dc3f18df6" y="100.225946"/>
     <use style="fill:#1e90e5;stroke:#1e90e5;" x="238.336126" xlink:href="#m1dc3f18df6" y="102.95027"/>
     <use style="fill:#1e90e5;stroke:#1e90e5;" x="239.412214" xlink:href="#m1dc3f18df6" y="92.052973"/>
     <use style="fill:#1e90e5;stroke:#1e90e5;" x="240.488302" xlink:href="#m1dc3f18df6" y="90.690811"/>
     <use style="fill:#1e90e5;stroke:#1e90e5;" x="241.56439" xlink:href="#m1dc3f18df6" y="93.415135"/>
     <use style="fill:#1e90e5;stroke:#1e90e5;" x="242.640478" xlink:href="#m1dc3f18df6" y="105.674595"/>
     <use style="fill:#1e90e5;stroke:#1e90e5;" x="243.716566" xlink:href="#m1dc3f18df6" y="94.777297"/>
     <use style="fill:#1e90e5;stroke:#1e90e5;" x="244.792654" xlink:href="#m1dc3f18df6" y="104.312432"/>
     <use style="fill:#1e90e5;stroke:#1e90e5;" x="245.868742" xlink:href="#m1dc3f18df6" y="101.588108"/>
     <use style="fill:#1e90e5;stroke:#1e90e5;" x="246.94483" xlink:href="#m1dc3f18df6" y="107.036757"/>
     <use style="fill:#1e90e5;stroke:#1e90e5;" x="248.020918" xlink:href="#m1dc3f18df6" y="90.690811"/>
     <use style="fill:#1e90e5;stroke:#1e90e5;" x="249.097006" xlink:href="#m1dc3f18df6" y="101.588108"/>
     <use style="fill:#1e90e5;stroke:#1e90e5;" x="250.173094" xlink:href="#m1dc3f18df6" y="107.036757"/>
     <use style="fill:#1e90e5;stroke:#1e90e5;" x="251.249181" xlink:href="#m1dc3f18df6" y="109.761081"/>
     <use style="fill:#1e90e5;stroke:#1e90e5;" x="252.325269" xlink:href="#m1dc3f18df6" y="104.312432"/>
     <use style="fill:#1e90e5;stroke:#1e90e5;" x="253.401357" xlink:href="#m1dc3f18df6" y="96.139459"/>
     <use style="fill:#1e90e5;stroke:#1e90e5;" x="254.477445" xlink:href="#m1dc3f18df6" y="104.312432"/>
     <use style="fill:#1e90e5;stroke:#1e90e5;" x="255.553533" xlink:href="#m1dc3f18df6" y="115.20973"/>
     <use style="fill:#1e90e5;stroke:#1e90e5;" x="256.629621" xlink:href="#m1dc3f18df6" y="122.020541"/>
     <use style="fill:#1e90e5;stroke:#1e90e5;" x="257.705709" xlink:href="#m1dc3f18df6" y="94.777297"/>
     <use style="fill:#1e90e5;stroke:#1e90e5;" x="258.781797" xlink:href="#m1dc3f18df6" y="89.328649"/>
     <use style="fill:#1e90e5;stroke:#1e90e5;" x="259.857885" xlink:href="#m1dc3f18df6" y="116.571892"/>
     <use style="fill:#1e90e5;stroke:#1e90e5;" x="260.933973" xlink:href="#m1dc3f18df6" y="108.398919"/>
     <use style="fill:#1e90e5;stroke:#1e90e5;" x="262.010061" xlink:href="#m1dc3f18df6" y="90.690811"/>
     <use style="fill:#1e90e5;stroke:#1e90e5;" x="263.086149" xlink:href="#m1dc3f18df6" y="119.296216"/>
     <use style="fill:#1e90e5;stroke:#1e90e5;" x="264.162237" xlink:href="#m1dc3f18df6" y="119.296216"/>
    </g>
   </g>
   <g id="patch_3">
    <path d="M 38.183766 192.24 
L 38.183766 25.92 
" style="fill:none;stroke:#606054;stroke-linecap:square;stroke-linejoin:miter;"/>
   </g>
   <g id="patch_4">
    <path d="M 274.923117 192.24 
L 274.923117 25.92 
" style="fill:none;stroke:#606054;stroke-linecap:square;stroke-linejoin:miter;"/>
   </g>
   <g id="patch_5">
    <path d="M 38.183766 192.24 
L 274.923117 192.24 
" style="fill:none;stroke:#606054;stroke-linecap:square;stroke-linejoin:miter;"/>
   </g>
   <g id="patch_6">
    <path d="M 38.183766 25.92 
L 274.923117 25.92 
" style="fill:none;stroke:#606054;stroke-linecap:square;stroke-linejoin:miter;"/>
   </g>
  </g>
 </g>
 <defs>
  <clipPath id="p4848cb6f6c">
   <rect height="166.32" width="236.73935" x="38.183766" y="25.92"/>
  </clipPath>
 </defs>
</svg>
