<?xml version="1.0" encoding="utf-8" standalone="no"?>
<!DOCTYPE svg PUBLIC "-//W3C//DTD SVG 1.1//EN"
  "http://www.w3.org/Graphics/SVG/1.1/DTD/svg11.dtd">
<!-- Created with matplotlib (http://matplotlib.org/) -->
<svg height="144pt" version="1.1" viewBox="0 0 203.646753 144" width="203.646753pt" xmlns="http://www.w3.org/2000/svg" xmlns:xlink="http://www.w3.org/1999/xlink">
 <defs>
  <style type="text/css">
*{stroke-linecap:butt;stroke-linejoin:round;}
  </style>
 </defs>
 <g id="figure_1">
  <g id="patch_1">
   <path d="M 0 144 
L 203.646753 144 
L 203.646753 0 
L 0 0 
z
" style="fill:#272822;"/>
  </g>
  <g id="axes_1">
   <g id="patch_2">
    <path d="M 25.455844 128.16 
L 183.282078 128.16 
L 183.282078 17.28 
L 25.455844 17.28 
z
" style="fill:#272822;"/>
   </g>
   <g id="matplotlib.axis_1">
    <g id="xtick_1">
     <g id="line2d_1">
      <path clip-path="url(#p7ffefa7306)" d="M 32.265248 128.16 
L 32.265248 17.28 
" style="fill:none;stroke:#606054;stroke-dasharray:0.8,1.32;stroke-dashoffset:0;stroke-width:0.8;"/>
     </g>
     <g id="line2d_2">
      <defs>
       <path d="M 0 0 
L 0 3.5 
" id="mc1f2dfa198" style="stroke:#917df0;stroke-width:0.8;"/>
      </defs>
      <g>
       <use style="fill:#917df0;stroke:#917df0;stroke-width:0.8;" x="32.265248" xlink:href="#mc1f2dfa198" y="128.16"/>
      </g>
     </g>
     <g id="text_1">
      <!-- −100 -->
      <defs>
       <path d="M 4.296875 35.5 
L 55.90625 35.5 
L 55.90625 27.203125 
L 4.296875 27.203125 
z
" id="DejaVuSansMono-2212"/>
       <path d="M 13.1875 8.296875 
L 28.515625 8.296875 
L 28.515625 64.015625 
L 12.015625 60.296875 
L 12.015625 69.28125 
L 28.421875 72.90625 
L 38.28125 72.90625 
L 38.28125 8.296875 
L 53.421875 8.296875 
L 53.421875 0 
L 13.1875 0 
z
" id="DejaVuSansMono-31"/>
       <path d="M 23.578125 36.625 
Q 23.578125 39.3125 25.453125 41.265625 
Q 27.34375 43.21875 29.984375 43.21875 
Q 32.71875 43.21875 34.671875 41.265625 
Q 36.625 39.3125 36.625 36.625 
Q 36.625 33.890625 34.6875 31.984375 
Q 32.765625 30.078125 29.984375 30.078125 
Q 27.25 30.078125 25.40625 31.9375 
Q 23.578125 33.796875 23.578125 36.625 
z
M 30.078125 66.40625 
Q 23.1875 66.40625 19.796875 58.984375 
Q 16.40625 51.5625 16.40625 36.375 
Q 16.40625 21.234375 19.796875 13.8125 
Q 23.1875 6.390625 30.078125 6.390625 
Q 37.015625 6.390625 40.40625 13.8125 
Q 43.796875 21.234375 43.796875 36.375 
Q 43.796875 51.5625 40.40625 58.984375 
Q 37.015625 66.40625 30.078125 66.40625 
z
M 30.078125 74.21875 
Q 41.75 74.21875 47.734375 64.640625 
Q 53.71875 55.078125 53.71875 36.375 
Q 53.71875 17.71875 47.734375 8.140625 
Q 41.75 -1.421875 30.078125 -1.421875 
Q 18.40625 -1.421875 12.453125 8.140625 
Q 6.5 17.71875 6.5 36.375 
Q 6.5 55.078125 12.453125 64.640625 
Q 18.40625 74.21875 30.078125 74.21875 
z
" id="DejaVuSansMono-30"/>
      </defs>
      <g style="fill:#917df0;" transform="translate(22.632748 141.28125)scale(0.08 -0.08)">
       <use xlink:href="#DejaVuSansMono-2212"/>
       <use x="60.205078" xlink:href="#DejaVuSansMono-31"/>
       <use x="120.410156" xlink:href="#DejaVuSansMono-30"/>
       <use x="180.615234" xlink:href="#DejaVuSansMono-30"/>
      </g>
     </g>
    </g>
    <g id="xtick_2">
     <g id="line2d_3">
      <path clip-path="url(#p7ffefa7306)" d="M 68.360154 128.16 
L 68.360154 17.28 
" style="fill:none;stroke:#606054;stroke-dasharray:0.8,1.32;stroke-dashoffset:0;stroke-width:0.8;"/>
     </g>
     <g id="line2d_4">
      <g>
       <use style="fill:#917df0;stroke:#917df0;stroke-width:0.8;" x="68.360154" xlink:href="#mc1f2dfa198" y="128.16"/>
      </g>
     </g>
     <g id="text_2">
      <!-- −50 -->
      <defs>
       <path d="M 10.109375 72.90625 
L 47.015625 72.90625 
L 47.015625 64.59375 
L 19.09375 64.59375 
L 19.09375 46.6875 
Q 21.1875 47.46875 23.3125 47.828125 
Q 25.4375 48.1875 27.59375 48.1875 
Q 38.921875 48.1875 45.5625 41.5 
Q 52.203125 34.8125 52.203125 23.390625 
Q 52.203125 11.859375 45.234375 5.21875 
Q 38.28125 -1.421875 26.21875 -1.421875 
Q 20.40625 -1.421875 15.59375 -0.640625 
Q 10.796875 0.140625 6.984375 1.703125 
L 6.984375 11.71875 
Q 11.46875 9.28125 16.015625 8.078125 
Q 20.5625 6.890625 25.296875 6.890625 
Q 33.453125 6.890625 37.859375 11.1875 
Q 42.28125 15.484375 42.28125 23.390625 
Q 42.28125 31.203125 37.71875 35.546875 
Q 33.15625 39.890625 25 39.890625 
Q 21.046875 39.890625 17.28125 38.984375 
Q 13.53125 38.09375 10.109375 36.28125 
z
" id="DejaVuSansMono-35"/>
      </defs>
      <g style="fill:#917df0;" transform="translate(61.135779 141.28125)scale(0.08 -0.08)">
       <use xlink:href="#DejaVuSansMono-2212"/>
       <use x="60.205078" xlink:href="#DejaVuSansMono-35"/>
       <use x="120.410156" xlink:href="#DejaVuSansMono-30"/>
      </g>
     </g>
    </g>
    <g id="xtick_3">
     <g id="line2d_5">
      <path clip-path="url(#p7ffefa7306)" d="M 104.45506 128.16 
L 104.45506 17.28 
" style="fill:none;stroke:#606054;stroke-dasharray:0.8,1.32;stroke-dashoffset:0;stroke-width:0.8;"/>
     </g>
     <g id="line2d_6">
      <g>
       <use style="fill:#917df0;stroke:#917df0;stroke-width:0.8;" x="104.45506" xlink:href="#mc1f2dfa198" y="128.16"/>
      </g>
     </g>
     <g id="text_3">
      <!-- 0 -->
      <g style="fill:#917df0;" transform="translate(102.046935 141.28125)scale(0.08 -0.08)">
       <use xlink:href="#DejaVuSansMono-30"/>
      </g>
     </g>
    </g>
    <g id="xtick_4">
     <g id="line2d_7">
      <path clip-path="url(#p7ffefa7306)" d="M 140.549965 128.16 
L 140.549965 17.28 
" style="fill:none;stroke:#606054;stroke-dasharray:0.8,1.32;stroke-dashoffset:0;stroke-width:0.8;"/>
     </g>
     <g id="line2d_8">
      <g>
       <use style="fill:#917df0;stroke:#917df0;stroke-width:0.8;" x="140.549965" xlink:href="#mc1f2dfa198" y="128.16"/>
      </g>
     </g>
     <g id="text_4">
      <!-- 50 -->
      <g style="fill:#917df0;" transform="translate(135.733715 141.28125)scale(0.08 -0.08)">
       <use xlink:href="#DejaVuSansMono-35"/>
       <use x="60.205078" xlink:href="#DejaVuSansMono-30"/>
      </g>
     </g>
    </g>
    <g id="xtick_5">
     <g id="line2d_9">
      <path clip-path="url(#p7ffefa7306)" d="M 176.644871 128.16 
L 176.644871 17.28 
" style="fill:none;stroke:#606054;stroke-dasharray:0.8,1.32;stroke-dashoffset:0;stroke-width:0.8;"/>
     </g>
     <g id="line2d_10">
      <g>
       <use style="fill:#917df0;stroke:#917df0;stroke-width:0.8;" x="176.644871" xlink:href="#mc1f2dfa198" y="128.16"/>
      </g>
     </g>
     <g id="text_5">
      <!-- 100 -->
      <g style="fill:#917df0;" transform="translate(169.420496 141.28125)scale(0.08 -0.08)">
       <use xlink:href="#DejaVuSansMono-31"/>
       <use x="60.205078" xlink:href="#DejaVuSansMono-30"/>
       <use x="120.410156" xlink:href="#DejaVuSansMono-30"/>
      </g>
     </g>
    </g>
    <g id="text_6">
     <!-- τ (ns) -->
     <defs>
      <path d="M 36.234375 9.96875 
Q 37.984375 7.625 43.265625 7.625 
L 47.609375 7.625 
L 47.609375 0 
L 42.1875 0 
Q 33.40625 0 29.390625 4.6875 
Q 25.390625 9.46875 25.390625 19.828125 
L 25.390625 45.703125 
L 7.8125 45.703125 
L 7.8125 54.59375 
L 52.4375 54.59375 
L 52.4375 45.703125 
L 34.578125 45.703125 
L 34.578125 19.28125 
Q 34.578125 12.203125 36.234375 9.96875 
z
" id="DejaVuSansMono-3c4"/>
      <path id="DejaVuSansMono-20"/>
      <path d="M 43.21875 75.875 
Q 36.71875 64.75 33.515625 53.6875 
Q 30.328125 42.625 30.328125 31.390625 
Q 30.328125 20.21875 33.515625 9.125 
Q 36.71875 -1.953125 43.21875 -13.1875 
L 35.40625 -13.1875 
Q 28.03125 -1.5625 24.40625 9.4375 
Q 20.796875 20.453125 20.796875 31.390625 
Q 20.796875 42.28125 24.40625 53.3125 
Q 28.03125 64.359375 35.40625 75.875 
z
" id="DejaVuSansMono-28"/>
      <path d="M 51.3125 33.890625 
L 51.3125 0 
L 42.28125 0 
L 42.28125 33.890625 
Q 42.28125 41.265625 39.6875 44.71875 
Q 37.109375 48.1875 31.59375 48.1875 
Q 25.296875 48.1875 21.890625 43.71875 
Q 18.5 39.265625 18.5 30.90625 
L 18.5 0 
L 9.515625 0 
L 9.515625 54.6875 
L 18.5 54.6875 
L 18.5 46.484375 
Q 20.90625 51.171875 25 53.578125 
Q 29.109375 56 34.71875 56 
Q 43.0625 56 47.1875 50.5 
Q 51.3125 45.015625 51.3125 33.890625 
z
" id="DejaVuSansMono-6e"/>
      <path d="M 47.515625 52.78125 
L 47.515625 44 
Q 43.65625 46.234375 39.75 47.359375 
Q 35.84375 48.484375 31.78125 48.484375 
Q 25.6875 48.484375 22.671875 46.5 
Q 19.671875 44.53125 19.671875 40.484375 
Q 19.671875 36.8125 21.921875 35 
Q 24.171875 33.203125 33.109375 31.5 
L 36.71875 30.8125 
Q 43.40625 29.546875 46.84375 25.734375 
Q 50.296875 21.921875 50.296875 15.828125 
Q 50.296875 7.71875 44.53125 3.140625 
Q 38.765625 -1.421875 28.515625 -1.421875 
Q 24.46875 -1.421875 20.015625 -0.5625 
Q 15.578125 0.296875 10.40625 2 
L 10.40625 11.28125 
Q 15.4375 8.6875 20.015625 7.390625 
Q 24.609375 6.109375 28.71875 6.109375 
Q 34.671875 6.109375 37.9375 8.515625 
Q 41.21875 10.9375 41.21875 15.28125 
Q 41.21875 21.53125 29.25 23.921875 
L 28.859375 24.03125 
L 25.484375 24.703125 
Q 17.71875 26.21875 14.15625 29.8125 
Q 10.59375 33.40625 10.59375 39.59375 
Q 10.59375 47.46875 15.90625 51.734375 
Q 21.234375 56 31.109375 56 
Q 35.5 56 39.546875 55.1875 
Q 43.609375 54.390625 47.515625 52.78125 
z
" id="DejaVuSansMono-73"/>
      <path d="M 17 75.875 
L 24.8125 75.875 
Q 32.171875 64.359375 35.78125 53.3125 
Q 39.40625 42.28125 39.40625 31.390625 
Q 39.40625 20.40625 35.78125 9.375 
Q 32.171875 -1.65625 24.8125 -13.1875 
L 17 -13.1875 
Q 23.484375 -1.859375 26.6875 9.21875 
Q 29.890625 20.3125 29.890625 31.390625 
Q 29.890625 42.53125 26.6875 53.609375 
Q 23.484375 64.703125 17 75.875 
z
" id="DejaVuSansMono-29"/>
     </defs>
     <g style="fill:#e5dc5a;" transform="translate(89.920211 153.06625)scale(0.08 -0.08)">
      <use xlink:href="#DejaVuSansMono-3c4"/>
      <use x="60.205078" xlink:href="#DejaVuSansMono-20"/>
      <use x="120.410156" xlink:href="#DejaVuSansMono-28"/>
      <use x="180.615234" xlink:href="#DejaVuSansMono-6e"/>
      <use x="240.820312" xlink:href="#DejaVuSansMono-73"/>
      <use x="301.025391" xlink:href="#DejaVuSansMono-29"/>
     </g>
    </g>
   </g>
   <g id="matplotlib.axis_2">
    <g id="ytick_1">
     <g id="line2d_11">
      <path clip-path="url(#p7ffefa7306)" d="M 25.455844 123.12 
L 183.282078 123.12 
" style="fill:none;stroke:#606054;stroke-dasharray:0.8,1.32;stroke-dashoffset:0;stroke-width:0.8;"/>
     </g>
     <g id="line2d_12">
      <defs>
       <path d="M 0 0 
L -3.5 0 
" id="m7cfbbb0ff3" style="stroke:#917df0;stroke-width:0.8;"/>
      </defs>
      <g>
       <use style="fill:#917df0;stroke:#917df0;stroke-width:0.8;" x="25.455844" xlink:href="#m7cfbbb0ff3" y="123.12"/>
      </g>
     </g>
     <g id="text_7">
      <!-- 0.0 -->
      <defs>
       <path d="M 23.875 14.890625 
L 36.1875 14.890625 
L 36.1875 0 
L 23.875 0 
z
" id="DejaVuSansMono-2e"/>
      </defs>
      <g style="fill:#917df0;" transform="translate(4.007094 126.180625)scale(0.08 -0.08)">
       <use xlink:href="#DejaVuSansMono-30"/>
       <use x="60.205078" xlink:href="#DejaVuSansMono-2e"/>
       <use x="120.410156" xlink:href="#DejaVuSansMono-30"/>
      </g>
     </g>
    </g>
    <g id="ytick_2">
     <g id="line2d_13">
      <path clip-path="url(#p7ffefa7306)" d="M 25.455844 97.829275 
L 183.282078 97.829275 
" style="fill:none;stroke:#606054;stroke-dasharray:0.8,1.32;stroke-dashoffset:0;stroke-width:0.8;"/>
     </g>
     <g id="line2d_14">
      <g>
       <use style="fill:#917df0;stroke:#917df0;stroke-width:0.8;" x="25.455844" xlink:href="#m7cfbbb0ff3" y="97.829275"/>
      </g>
     </g>
     <g id="text_8">
      <!-- 0.2 -->
      <defs>
       <path d="M 18.21875 8.296875 
L 51.703125 8.296875 
L 51.703125 0 
L 7.421875 0 
L 7.421875 8.296875 
Q 16.546875 17.921875 23.375 25.296875 
Q 30.21875 32.671875 32.8125 35.6875 
Q 37.703125 41.65625 39.40625 45.34375 
Q 41.109375 49.03125 41.109375 52.875 
Q 41.109375 58.984375 37.515625 62.453125 
Q 33.9375 65.921875 27.6875 65.921875 
Q 23.25 65.921875 18.359375 64.3125 
Q 13.484375 62.703125 8.015625 59.421875 
L 8.015625 69.390625 
Q 13.03125 71.78125 17.890625 73 
Q 22.75 74.21875 27.484375 74.21875 
Q 38.1875 74.21875 44.703125 68.53125 
Q 51.21875 62.84375 51.21875 53.609375 
Q 51.21875 48.921875 49.046875 44.234375 
Q 46.875 39.546875 42 33.890625 
Q 39.265625 30.71875 34.0625 25.09375 
Q 28.859375 19.484375 18.21875 8.296875 
z
" id="DejaVuSansMono-32"/>
      </defs>
      <g style="fill:#917df0;" transform="translate(4.007094 100.8899)scale(0.08 -0.08)">
       <use xlink:href="#DejaVuSansMono-30"/>
       <use x="60.205078" xlink:href="#DejaVuSansMono-2e"/>
       <use x="120.410156" xlink:href="#DejaVuSansMono-32"/>
      </g>
     </g>
    </g>
    <g id="ytick_3">
     <g id="line2d_15">
      <path clip-path="url(#p7ffefa7306)" d="M 25.455844 72.538549 
L 183.282078 72.538549 
" style="fill:none;stroke:#606054;stroke-dasharray:0.8,1.32;stroke-dashoffset:0;stroke-width:0.8;"/>
     </g>
     <g id="line2d_16">
      <g>
       <use style="fill:#917df0;stroke:#917df0;stroke-width:0.8;" x="25.455844" xlink:href="#m7cfbbb0ff3" y="72.538549"/>
      </g>
     </g>
     <g id="text_9">
      <!-- 0.4 -->
      <defs>
       <path d="M 35.890625 63.921875 
L 12.890625 25.390625 
L 35.890625 25.390625 
z
M 34.28125 72.90625 
L 45.703125 72.90625 
L 45.703125 25.390625 
L 55.421875 25.390625 
L 55.421875 17.390625 
L 45.703125 17.390625 
L 45.703125 0 
L 35.890625 0 
L 35.890625 17.390625 
L 4.984375 17.390625 
L 4.984375 26.703125 
z
" id="DejaVuSansMono-34"/>
      </defs>
      <g style="fill:#917df0;" transform="translate(4.007094 75.599174)scale(0.08 -0.08)">
       <use xlink:href="#DejaVuSansMono-30"/>
       <use x="60.205078" xlink:href="#DejaVuSansMono-2e"/>
       <use x="120.410156" xlink:href="#DejaVuSansMono-34"/>
      </g>
     </g>
    </g>
    <g id="ytick_4">
     <g id="line2d_17">
      <path clip-path="url(#p7ffefa7306)" d="M 25.455844 47.247824 
L 183.282078 47.247824 
" style="fill:none;stroke:#606054;stroke-dasharray:0.8,1.32;stroke-dashoffset:0;stroke-width:0.8;"/>
     </g>
     <g id="line2d_18">
      <g>
       <use style="fill:#917df0;stroke:#917df0;stroke-width:0.8;" x="25.455844" xlink:href="#m7cfbbb0ff3" y="47.247824"/>
      </g>
     </g>
     <g id="text_10">
      <!-- 0.6 -->
      <defs>
       <path d="M 48.390625 71.296875 
L 48.390625 62.203125 
Q 45.3125 64.015625 41.84375 64.96875 
Q 38.375 65.921875 34.625 65.921875 
Q 25.25 65.921875 20.40625 58.859375 
Q 15.578125 51.8125 15.578125 38.09375 
Q 17.921875 42.96875 22.0625 45.578125 
Q 26.21875 48.1875 31.59375 48.1875 
Q 42.140625 48.1875 47.921875 41.71875 
Q 53.71875 35.25 53.71875 23.390625 
Q 53.71875 11.578125 47.75 5.078125 
Q 41.796875 -1.421875 31 -1.421875 
Q 18.3125 -1.421875 12.40625 7.6875 
Q 6.5 16.796875 6.5 36.375 
Q 6.5 54.828125 13.59375 64.515625 
Q 20.703125 74.21875 34.1875 74.21875 
Q 37.796875 74.21875 41.40625 73.453125 
Q 45.015625 72.703125 48.390625 71.296875 
z
M 30.8125 40.484375 
Q 24.515625 40.484375 20.890625 35.9375 
Q 17.28125 31.390625 17.28125 23.390625 
Q 17.28125 15.375 20.890625 10.828125 
Q 24.515625 6.296875 30.8125 6.296875 
Q 37.359375 6.296875 40.671875 10.609375 
Q 44 14.9375 44 23.390625 
Q 44 31.890625 40.671875 36.1875 
Q 37.359375 40.484375 30.8125 40.484375 
z
" id="DejaVuSansMono-36"/>
      </defs>
      <g style="fill:#917df0;" transform="translate(4.007094 50.308449)scale(0.08 -0.08)">
       <use xlink:href="#DejaVuSansMono-30"/>
       <use x="60.205078" xlink:href="#DejaVuSansMono-2e"/>
       <use x="120.410156" xlink:href="#DejaVuSansMono-36"/>
      </g>
     </g>
    </g>
    <g id="ytick_5">
     <g id="line2d_19">
      <path clip-path="url(#p7ffefa7306)" d="M 25.455844 21.957098 
L 183.282078 21.957098 
" style="fill:none;stroke:#606054;stroke-dasharray:0.8,1.32;stroke-dashoffset:0;stroke-width:0.8;"/>
     </g>
     <g id="line2d_20">
      <g>
       <use style="fill:#917df0;stroke:#917df0;stroke-width:0.8;" x="25.455844" xlink:href="#m7cfbbb0ff3" y="21.957098"/>
      </g>
     </g>
     <g id="text_11">
      <!-- 0.8 -->
      <defs>
       <path d="M 30.078125 34.625 
Q 23.484375 34.625 19.890625 30.9375 
Q 16.3125 27.25 16.3125 20.515625 
Q 16.3125 13.765625 19.9375 10.03125 
Q 23.578125 6.296875 30.078125 6.296875 
Q 36.71875 6.296875 40.296875 9.984375 
Q 43.890625 13.671875 43.890625 20.515625 
Q 43.890625 27.203125 40.25 30.90625 
Q 36.625 34.625 30.078125 34.625 
z
M 21.484375 38.71875 
Q 15.1875 40.328125 11.640625 44.71875 
Q 8.109375 49.125 8.109375 55.328125 
Q 8.109375 64.015625 14.015625 69.109375 
Q 19.921875 74.21875 30.078125 74.21875 
Q 40.28125 74.21875 46.1875 69.109375 
Q 52.09375 64.015625 52.09375 55.328125 
Q 52.09375 49.125 48.546875 44.71875 
Q 45.015625 40.328125 38.71875 38.71875 
Q 46.046875 37.109375 49.921875 32.21875 
Q 53.8125 27.34375 53.8125 19.578125 
Q 53.8125 9.71875 47.515625 4.140625 
Q 41.21875 -1.421875 30.078125 -1.421875 
Q 18.953125 -1.421875 12.671875 4.125 
Q 6.390625 9.671875 6.390625 19.484375 
Q 6.390625 27.296875 10.265625 32.203125 
Q 14.15625 37.109375 21.484375 38.71875 
z
M 17.921875 54.390625 
Q 17.921875 48.53125 21.046875 45.453125 
Q 24.171875 42.390625 30.078125 42.390625 
Q 36.03125 42.390625 39.15625 45.453125 
Q 42.28125 48.53125 42.28125 54.390625 
Q 42.28125 60.359375 39.171875 63.484375 
Q 36.078125 66.609375 30.078125 66.609375 
Q 24.171875 66.609375 21.046875 63.453125 
Q 17.921875 60.296875 17.921875 54.390625 
z
" id="DejaVuSansMono-38"/>
      </defs>
      <g style="fill:#917df0;" transform="translate(4.007094 25.017723)scale(0.08 -0.08)">
       <use xlink:href="#DejaVuSansMono-30"/>
       <use x="60.205078" xlink:href="#DejaVuSansMono-2e"/>
       <use x="120.410156" xlink:href="#DejaVuSansMono-38"/>
      </g>
     </g>
    </g>
    <g id="text_12">
     <!-- g$^2$(τ) -->
     <defs>
      <path d="M 41.890625 27.78125 
Q 41.890625 37.890625 38.59375 43.140625 
Q 35.296875 48.390625 29 48.390625 
Q 22.40625 48.390625 18.9375 43.140625 
Q 15.484375 37.890625 15.484375 27.78125 
Q 15.484375 17.671875 18.96875 12.375 
Q 22.46875 7.078125 29.109375 7.078125 
Q 35.296875 7.078125 38.59375 12.390625 
Q 41.890625 17.71875 41.890625 27.78125 
z
M 50.875 3.515625 
Q 50.875 -8.796875 45.0625 -15.140625 
Q 39.265625 -21.484375 27.984375 -21.484375 
Q 24.265625 -21.484375 20.203125 -20.796875 
Q 16.15625 -20.125 12.109375 -18.796875 
L 12.109375 -9.90625 
Q 16.890625 -12.15625 20.796875 -13.234375 
Q 24.703125 -14.3125 27.984375 -14.3125 
Q 35.25 -14.3125 38.5625 -10.34375 
Q 41.890625 -6.390625 41.890625 2.203125 
L 41.890625 2.59375 
L 41.890625 8.6875 
Q 39.75 4.109375 36.03125 1.859375 
Q 32.328125 -0.390625 27 -0.390625 
Q 17.4375 -0.390625 11.71875 7.265625 
Q 6 14.9375 6 27.78125 
Q 6 40.671875 11.71875 48.328125 
Q 17.4375 56 27 56 
Q 32.28125 56 35.9375 53.90625 
Q 39.59375 51.8125 41.890625 47.40625 
L 41.890625 54.5 
L 50.875 54.5 
z
" id="DejaVuSansMono-67"/>
      <path d="M 19.1875 8.296875 
L 53.609375 8.296875 
L 53.609375 0 
L 7.328125 0 
L 7.328125 8.296875 
Q 12.9375 14.109375 22.625 23.890625 
Q 32.328125 33.6875 34.8125 36.53125 
Q 39.546875 41.84375 41.421875 45.53125 
Q 43.3125 49.21875 43.3125 52.78125 
Q 43.3125 58.59375 39.234375 62.25 
Q 35.15625 65.921875 28.609375 65.921875 
Q 23.96875 65.921875 18.8125 64.3125 
Q 13.671875 62.703125 7.8125 59.421875 
L 7.8125 69.390625 
Q 13.765625 71.78125 18.9375 73 
Q 24.125 74.21875 28.421875 74.21875 
Q 39.75 74.21875 46.484375 68.546875 
Q 53.21875 62.890625 53.21875 53.421875 
Q 53.21875 48.921875 51.53125 44.890625 
Q 49.859375 40.875 45.40625 35.40625 
Q 44.1875 33.984375 37.640625 27.21875 
Q 31.109375 20.453125 19.1875 8.296875 
z
" id="DejaVuSans-32"/>
     </defs>
     <g style="fill:#e5dc5a;" transform="translate(-1.752906 84.32)rotate(-90)scale(0.08 -0.08)">
      <use transform="translate(0 0.765625)" xlink:href="#DejaVuSansMono-67"/>
      <use transform="translate(61.162109 39.046875)scale(0.7)" xlink:href="#DejaVuSans-32"/>
      <use transform="translate(108.432617 0.765625)" xlink:href="#DejaVuSansMono-28"/>
      <use transform="translate(168.637695 0.765625)" xlink:href="#DejaVuSansMono-3c4"/>
      <use transform="translate(228.842773 0.765625)" xlink:href="#DejaVuSansMono-29"/>
     </g>
    </g>
   </g>
   <g id="line2d_21">
    <defs>
     <path d="M 0 1.5 
C 0.397805 1.5 0.77937 1.341951 1.06066 1.06066 
C 1.341951 0.77937 1.5 0.397805 1.5 0 
C 1.5 -0.397805 1.341951 -0.77937 1.06066 -1.06066 
C 0.77937 -1.341951 0.397805 -1.5 0 -1.5 
C -0.397805 -1.5 -0.77937 -1.341951 -1.06066 -1.06066 
C -1.341951 -0.77937 -1.5 -0.397805 -1.5 0 
C -1.5 0.397805 -1.341951 0.77937 -1.06066 1.06066 
C -0.77937 1.341951 -0.397805 1.5 0 1.5 
z
" id="m90be00a4ee" style="stroke:#1e90e5;"/>
    </defs>
    <g clip-path="url(#p7ffefa7306)">
     <use style="fill:#1e90e5;stroke:#1e90e5;" x="32.629764" xlink:href="#m90be00a4ee" y="122.798298"/>
     <use style="fill:#1e90e5;stroke:#1e90e5;" x="33.347156" xlink:href="#m90be00a4ee" y="123.012766"/>
     <use style="fill:#1e90e5;stroke:#1e90e5;" x="34.064548" xlink:href="#m90be00a4ee" y="122.905532"/>
     <use style="fill:#1e90e5;stroke:#1e90e5;" x="34.78194" xlink:href="#m90be00a4ee" y="122.798298"/>
     <use style="fill:#1e90e5;stroke:#1e90e5;" x="35.499332" xlink:href="#m90be00a4ee" y="122.798298"/>
     <use style="fill:#1e90e5;stroke:#1e90e5;" x="36.216724" xlink:href="#m90be00a4ee" y="123.12"/>
     <use style="fill:#1e90e5;stroke:#1e90e5;" x="36.934116" xlink:href="#m90be00a4ee" y="123.12"/>
     <use style="fill:#1e90e5;stroke:#1e90e5;" x="37.651508" xlink:href="#m90be00a4ee" y="122.798298"/>
     <use style="fill:#1e90e5;stroke:#1e90e5;" x="38.3689" xlink:href="#m90be00a4ee" y="122.905532"/>
     <use style="fill:#1e90e5;stroke:#1e90e5;" x="39.086292" xlink:href="#m90be00a4ee" y="122.691064"/>
     <use style="fill:#1e90e5;stroke:#1e90e5;" x="39.803684" xlink:href="#m90be00a4ee" y="122.691064"/>
     <use style="fill:#1e90e5;stroke:#1e90e5;" x="40.521076" xlink:href="#m90be00a4ee" y="122.905532"/>
     <use style="fill:#1e90e5;stroke:#1e90e5;" x="41.238467" xlink:href="#m90be00a4ee" y="122.476596"/>
     <use style="fill:#1e90e5;stroke:#1e90e5;" x="41.955859" xlink:href="#m90be00a4ee" y="122.691064"/>
     <use style="fill:#1e90e5;stroke:#1e90e5;" x="42.673251" xlink:href="#m90be00a4ee" y="122.905532"/>
     <use style="fill:#1e90e5;stroke:#1e90e5;" x="43.390643" xlink:href="#m90be00a4ee" y="122.905532"/>
     <use style="fill:#1e90e5;stroke:#1e90e5;" x="44.108035" xlink:href="#m90be00a4ee" y="122.369362"/>
     <use style="fill:#1e90e5;stroke:#1e90e5;" x="44.825427" xlink:href="#m90be00a4ee" y="122.58383"/>
     <use style="fill:#1e90e5;stroke:#1e90e5;" x="45.542819" xlink:href="#m90be00a4ee" y="122.476596"/>
     <use style="fill:#1e90e5;stroke:#1e90e5;" x="46.260211" xlink:href="#m90be00a4ee" y="122.262128"/>
     <use style="fill:#1e90e5;stroke:#1e90e5;" x="46.977603" xlink:href="#m90be00a4ee" y="122.262128"/>
     <use style="fill:#1e90e5;stroke:#1e90e5;" x="47.694995" xlink:href="#m90be00a4ee" y="122.369362"/>
     <use style="fill:#1e90e5;stroke:#1e90e5;" x="48.412387" xlink:href="#m90be00a4ee" y="121.511489"/>
     <use style="fill:#1e90e5;stroke:#1e90e5;" x="49.129779" xlink:href="#m90be00a4ee" y="121.833191"/>
     <use style="fill:#1e90e5;stroke:#1e90e5;" x="49.847171" xlink:href="#m90be00a4ee" y="121.833191"/>
     <use style="fill:#1e90e5;stroke:#1e90e5;" x="50.564563" xlink:href="#m90be00a4ee" y="121.511489"/>
     <use style="fill:#1e90e5;stroke:#1e90e5;" x="51.281955" xlink:href="#m90be00a4ee" y="121.297021"/>
     <use style="fill:#1e90e5;stroke:#1e90e5;" x="51.999347" xlink:href="#m90be00a4ee" y="121.511489"/>
     <use style="fill:#1e90e5;stroke:#1e90e5;" x="52.716739" xlink:href="#m90be00a4ee" y="122.154894"/>
     <use style="fill:#1e90e5;stroke:#1e90e5;" x="53.434131" xlink:href="#m90be00a4ee" y="121.725957"/>
     <use style="fill:#1e90e5;stroke:#1e90e5;" x="54.151523" xlink:href="#m90be00a4ee" y="120.868085"/>
     <use style="fill:#1e90e5;stroke:#1e90e5;" x="54.868915" xlink:href="#m90be00a4ee" y="121.297021"/>
     <use style="fill:#1e90e5;stroke:#1e90e5;" x="55.586307" xlink:href="#m90be00a4ee" y="120.653617"/>
     <use style="fill:#1e90e5;stroke:#1e90e5;" x="56.303699" xlink:href="#m90be00a4ee" y="119.474043"/>
     <use style="fill:#1e90e5;stroke:#1e90e5;" x="57.021091" xlink:href="#m90be00a4ee" y="120.760851"/>
     <use style="fill:#1e90e5;stroke:#1e90e5;" x="57.738483" xlink:href="#m90be00a4ee" y="119.474043"/>
     <use style="fill:#1e90e5;stroke:#1e90e5;" x="58.455875" xlink:href="#m90be00a4ee" y="119.474043"/>
     <use style="fill:#1e90e5;stroke:#1e90e5;" x="59.173267" xlink:href="#m90be00a4ee" y="119.259574"/>
     <use style="fill:#1e90e5;stroke:#1e90e5;" x="59.890659" xlink:href="#m90be00a4ee" y="118.61617"/>
     <use style="fill:#1e90e5;stroke:#1e90e5;" x="60.608051" xlink:href="#m90be00a4ee" y="118.830638"/>
     <use style="fill:#1e90e5;stroke:#1e90e5;" x="61.325443" xlink:href="#m90be00a4ee" y="118.830638"/>
     <use style="fill:#1e90e5;stroke:#1e90e5;" x="62.042835" xlink:href="#m90be00a4ee" y="117.758298"/>
     <use style="fill:#1e90e5;stroke:#1e90e5;" x="62.760227" xlink:href="#m90be00a4ee" y="118.294468"/>
     <use style="fill:#1e90e5;stroke:#1e90e5;" x="63.477619" xlink:href="#m90be00a4ee" y="115.720851"/>
     <use style="fill:#1e90e5;stroke:#1e90e5;" x="64.195011" xlink:href="#m90be00a4ee" y="115.720851"/>
     <use style="fill:#1e90e5;stroke:#1e90e5;" x="64.912403" xlink:href="#m90be00a4ee" y="116.149787"/>
     <use style="fill:#1e90e5;stroke:#1e90e5;" x="65.629794" xlink:href="#m90be00a4ee" y="116.900426"/>
     <use style="fill:#1e90e5;stroke:#1e90e5;" x="66.347186" xlink:href="#m90be00a4ee" y="117.114894"/>
     <use style="fill:#1e90e5;stroke:#1e90e5;" x="67.064578" xlink:href="#m90be00a4ee" y="115.720851"/>
     <use style="fill:#1e90e5;stroke:#1e90e5;" x="67.78197" xlink:href="#m90be00a4ee" y="113.57617"/>
     <use style="fill:#1e90e5;stroke:#1e90e5;" x="68.499362" xlink:href="#m90be00a4ee" y="112.932766"/>
     <use style="fill:#1e90e5;stroke:#1e90e5;" x="69.216754" xlink:href="#m90be00a4ee" y="112.611064"/>
     <use style="fill:#1e90e5;stroke:#1e90e5;" x="69.934146" xlink:href="#m90be00a4ee" y="111.109787"/>
     <use style="fill:#1e90e5;stroke:#1e90e5;" x="70.651538" xlink:href="#m90be00a4ee" y="111.109787"/>
     <use style="fill:#1e90e5;stroke:#1e90e5;" x="71.36893" xlink:href="#m90be00a4ee" y="109.179574"/>
     <use style="fill:#1e90e5;stroke:#1e90e5;" x="72.086322" xlink:href="#m90be00a4ee" y="107.46383"/>
     <use style="fill:#1e90e5;stroke:#1e90e5;" x="72.803714" xlink:href="#m90be00a4ee" y="108.214468"/>
     <use style="fill:#1e90e5;stroke:#1e90e5;" x="73.521106" xlink:href="#m90be00a4ee" y="104.246809"/>
     <use style="fill:#1e90e5;stroke:#1e90e5;" x="74.238498" xlink:href="#m90be00a4ee" y="104.997447"/>
     <use style="fill:#1e90e5;stroke:#1e90e5;" x="74.95589" xlink:href="#m90be00a4ee" y="102.209362"/>
     <use style="fill:#1e90e5;stroke:#1e90e5;" x="75.673282" xlink:href="#m90be00a4ee" y="102.745532"/>
     <use style="fill:#1e90e5;stroke:#1e90e5;" x="76.390674" xlink:href="#m90be00a4ee" y="98.134468"/>
     <use style="fill:#1e90e5;stroke:#1e90e5;" x="77.108066" xlink:href="#m90be00a4ee" y="99.957447"/>
     <use style="fill:#1e90e5;stroke:#1e90e5;" x="77.825458" xlink:href="#m90be00a4ee" y="97.169362"/>
     <use style="fill:#1e90e5;stroke:#1e90e5;" x="78.54285" xlink:href="#m90be00a4ee" y="93.308936"/>
     <use style="fill:#1e90e5;stroke:#1e90e5;" x="79.260242" xlink:href="#m90be00a4ee" y="92.022128"/>
     <use style="fill:#1e90e5;stroke:#1e90e5;" x="79.977634" xlink:href="#m90be00a4ee" y="90.842553"/>
     <use style="fill:#1e90e5;stroke:#1e90e5;" x="80.695026" xlink:href="#m90be00a4ee" y="89.126809"/>
     <use style="fill:#1e90e5;stroke:#1e90e5;" x="81.412418" xlink:href="#m90be00a4ee" y="86.76766"/>
     <use style="fill:#1e90e5;stroke:#1e90e5;" x="82.12981" xlink:href="#m90be00a4ee" y="86.660426"/>
     <use style="fill:#1e90e5;stroke:#1e90e5;" x="82.847202" xlink:href="#m90be00a4ee" y="77.438298"/>
     <use style="fill:#1e90e5;stroke:#1e90e5;" x="83.564594" xlink:href="#m90be00a4ee" y="76.258723"/>
     <use style="fill:#1e90e5;stroke:#1e90e5;" x="84.281986" xlink:href="#m90be00a4ee" y="74.328511"/>
     <use style="fill:#1e90e5;stroke:#1e90e5;" x="84.999378" xlink:href="#m90be00a4ee" y="73.148936"/>
     <use style="fill:#1e90e5;stroke:#1e90e5;" x="85.71677" xlink:href="#m90be00a4ee" y="68.21617"/>
     <use style="fill:#1e90e5;stroke:#1e90e5;" x="86.434162" xlink:href="#m90be00a4ee" y="66.071489"/>
     <use style="fill:#1e90e5;stroke:#1e90e5;" x="87.151554" xlink:href="#m90be00a4ee" y="55.240851"/>
     <use style="fill:#1e90e5;stroke:#1e90e5;" x="87.868946" xlink:href="#m90be00a4ee" y="61.138723"/>
     <use style="fill:#1e90e5;stroke:#1e90e5;" x="88.586338" xlink:href="#m90be00a4ee" y="53.525106"/>
     <use style="fill:#1e90e5;stroke:#1e90e5;" x="89.30373" xlink:href="#m90be00a4ee" y="52.452766"/>
     <use style="fill:#1e90e5;stroke:#1e90e5;" x="90.021121" xlink:href="#m90be00a4ee" y="47.091064"/>
     <use style="fill:#1e90e5;stroke:#1e90e5;" x="90.738513" xlink:href="#m90be00a4ee" y="47.734468"/>
     <use style="fill:#1e90e5;stroke:#1e90e5;" x="91.455905" xlink:href="#m90be00a4ee" y="45.268085"/>
     <use style="fill:#1e90e5;stroke:#1e90e5;" x="92.173297" xlink:href="#m90be00a4ee" y="43.123404"/>
     <use style="fill:#1e90e5;stroke:#1e90e5;" x="92.890689" xlink:href="#m90be00a4ee" y="31.756596"/>
     <use style="fill:#1e90e5;stroke:#1e90e5;" x="93.608081" xlink:href="#m90be00a4ee" y="31.220426"/>
     <use style="fill:#1e90e5;stroke:#1e90e5;" x="94.325473" xlink:href="#m90be00a4ee" y="29.397447"/>
     <use style="fill:#1e90e5;stroke:#1e90e5;" x="95.042865" xlink:href="#m90be00a4ee" y="26.180426"/>
     <use style="fill:#1e90e5;stroke:#1e90e5;" x="95.760257" xlink:href="#m90be00a4ee" y="35.617021"/>
     <use style="fill:#1e90e5;stroke:#1e90e5;" x="96.477649" xlink:href="#m90be00a4ee" y="22.32"/>
     <use style="fill:#1e90e5;stroke:#1e90e5;" x="97.195041" xlink:href="#m90be00a4ee" y="25.965957"/>
     <use style="fill:#1e90e5;stroke:#1e90e5;" x="97.912433" xlink:href="#m90be00a4ee" y="30.362553"/>
     <use style="fill:#1e90e5;stroke:#1e90e5;" x="98.629825" xlink:href="#m90be00a4ee" y="31.971064"/>
     <use style="fill:#1e90e5;stroke:#1e90e5;" x="99.347217" xlink:href="#m90be00a4ee" y="35.509787"/>
     <use style="fill:#1e90e5;stroke:#1e90e5;" x="100.064609" xlink:href="#m90be00a4ee" y="41.836596"/>
     <use style="fill:#1e90e5;stroke:#1e90e5;" x="100.782001" xlink:href="#m90be00a4ee" y="50.522553"/>
     <use style="fill:#1e90e5;stroke:#1e90e5;" x="101.499393" xlink:href="#m90be00a4ee" y="65.320851"/>
     <use style="fill:#1e90e5;stroke:#1e90e5;" x="102.216785" xlink:href="#m90be00a4ee" y="79.046809"/>
     <use style="fill:#1e90e5;stroke:#1e90e5;" x="102.934177" xlink:href="#m90be00a4ee" y="95.560851"/>
     <use style="fill:#1e90e5;stroke:#1e90e5;" x="103.651569" xlink:href="#m90be00a4ee" y="118.830638"/>
     <use style="fill:#1e90e5;stroke:#1e90e5;" x="104.368961" xlink:href="#m90be00a4ee" y="123.12"/>
     <use style="fill:#1e90e5;stroke:#1e90e5;" x="105.086353" xlink:href="#m90be00a4ee" y="120.760851"/>
     <use style="fill:#1e90e5;stroke:#1e90e5;" x="105.803745" xlink:href="#m90be00a4ee" y="101.029787"/>
     <use style="fill:#1e90e5;stroke:#1e90e5;" x="106.521137" xlink:href="#m90be00a4ee" y="79.154043"/>
     <use style="fill:#1e90e5;stroke:#1e90e5;" x="107.238529" xlink:href="#m90be00a4ee" y="66.071489"/>
     <use style="fill:#1e90e5;stroke:#1e90e5;" x="107.955921" xlink:href="#m90be00a4ee" y="55.777021"/>
     <use style="fill:#1e90e5;stroke:#1e90e5;" x="108.673313" xlink:href="#m90be00a4ee" y="39.691915"/>
     <use style="fill:#1e90e5;stroke:#1e90e5;" x="109.390705" xlink:href="#m90be00a4ee" y="39.370213"/>
     <use style="fill:#1e90e5;stroke:#1e90e5;" x="110.108097" xlink:href="#m90be00a4ee" y="26.82383"/>
     <use style="fill:#1e90e5;stroke:#1e90e5;" x="110.825489" xlink:href="#m90be00a4ee" y="30.577021"/>
     <use style="fill:#1e90e5;stroke:#1e90e5;" x="111.542881" xlink:href="#m90be00a4ee" y="23.821277"/>
     <use style="fill:#1e90e5;stroke:#1e90e5;" x="112.260273" xlink:href="#m90be00a4ee" y="23.070638"/>
     <use style="fill:#1e90e5;stroke:#1e90e5;" x="112.977665" xlink:href="#m90be00a4ee" y="24.142979"/>
     <use style="fill:#1e90e5;stroke:#1e90e5;" x="113.695057" xlink:href="#m90be00a4ee" y="23.285106"/>
     <use style="fill:#1e90e5;stroke:#1e90e5;" x="114.412448" xlink:href="#m90be00a4ee" y="29.504681"/>
     <use style="fill:#1e90e5;stroke:#1e90e5;" x="115.12984" xlink:href="#m90be00a4ee" y="32.93617"/>
     <use style="fill:#1e90e5;stroke:#1e90e5;" x="115.847232" xlink:href="#m90be00a4ee" y="34.973617"/>
     <use style="fill:#1e90e5;stroke:#1e90e5;" x="116.564624" xlink:href="#m90be00a4ee" y="41.085957"/>
     <use style="fill:#1e90e5;stroke:#1e90e5;" x="117.282016" xlink:href="#m90be00a4ee" y="40.120851"/>
     <use style="fill:#1e90e5;stroke:#1e90e5;" x="117.999408" xlink:href="#m90be00a4ee" y="43.766809"/>
     <use style="fill:#1e90e5;stroke:#1e90e5;" x="118.7168" xlink:href="#m90be00a4ee" y="43.337872"/>
     <use style="fill:#1e90e5;stroke:#1e90e5;" x="119.434192" xlink:href="#m90be00a4ee" y="49.342979"/>
     <use style="fill:#1e90e5;stroke:#1e90e5;" x="120.151584" xlink:href="#m90be00a4ee" y="50.093617"/>
     <use style="fill:#1e90e5;stroke:#1e90e5;" x="120.868976" xlink:href="#m90be00a4ee" y="58.994043"/>
     <use style="fill:#1e90e5;stroke:#1e90e5;" x="121.586368" xlink:href="#m90be00a4ee" y="59.530213"/>
     <use style="fill:#1e90e5;stroke:#1e90e5;" x="122.30376" xlink:href="#m90be00a4ee" y="63.605106"/>
     <use style="fill:#1e90e5;stroke:#1e90e5;" x="123.021152" xlink:href="#m90be00a4ee" y="68.21617"/>
     <use style="fill:#1e90e5;stroke:#1e90e5;" x="123.738544" xlink:href="#m90be00a4ee" y="69.717447"/>
     <use style="fill:#1e90e5;stroke:#1e90e5;" x="124.455936" xlink:href="#m90be00a4ee" y="71.004255"/>
     <use style="fill:#1e90e5;stroke:#1e90e5;" x="125.173328" xlink:href="#m90be00a4ee" y="73.470638"/>
     <use style="fill:#1e90e5;stroke:#1e90e5;" x="125.89072" xlink:href="#m90be00a4ee" y="84.301277"/>
     <use style="fill:#1e90e5;stroke:#1e90e5;" x="126.608112" xlink:href="#m90be00a4ee" y="81.298723"/>
     <use style="fill:#1e90e5;stroke:#1e90e5;" x="127.325504" xlink:href="#m90be00a4ee" y="82.371064"/>
     <use style="fill:#1e90e5;stroke:#1e90e5;" x="128.042896" xlink:href="#m90be00a4ee" y="89.126809"/>
     <use style="fill:#1e90e5;stroke:#1e90e5;" x="128.760288" xlink:href="#m90be00a4ee" y="89.234043"/>
     <use style="fill:#1e90e5;stroke:#1e90e5;" x="129.47768" xlink:href="#m90be00a4ee" y="90.091915"/>
     <use style="fill:#1e90e5;stroke:#1e90e5;" x="130.195072" xlink:href="#m90be00a4ee" y="93.094468"/>
     <use style="fill:#1e90e5;stroke:#1e90e5;" x="130.912464" xlink:href="#m90be00a4ee" y="96.525957"/>
     <use style="fill:#1e90e5;stroke:#1e90e5;" x="131.629856" xlink:href="#m90be00a4ee" y="98.99234"/>
     <use style="fill:#1e90e5;stroke:#1e90e5;" x="132.347248" xlink:href="#m90be00a4ee" y="99.850213"/>
     <use style="fill:#1e90e5;stroke:#1e90e5;" x="133.06464" xlink:href="#m90be00a4ee" y="101.88766"/>
     <use style="fill:#1e90e5;stroke:#1e90e5;" x="133.782032" xlink:href="#m90be00a4ee" y="102.531064"/>
     <use style="fill:#1e90e5;stroke:#1e90e5;" x="134.499424" xlink:href="#m90be00a4ee" y="106.713191"/>
     <use style="fill:#1e90e5;stroke:#1e90e5;" x="135.216816" xlink:href="#m90be00a4ee" y="106.498723"/>
     <use style="fill:#1e90e5;stroke:#1e90e5;" x="135.934208" xlink:href="#m90be00a4ee" y="106.820426"/>
     <use style="fill:#1e90e5;stroke:#1e90e5;" x="136.6516" xlink:href="#m90be00a4ee" y="107.678298"/>
     <use style="fill:#1e90e5;stroke:#1e90e5;" x="137.368992" xlink:href="#m90be00a4ee" y="108.53617"/>
     <use style="fill:#1e90e5;stroke:#1e90e5;" x="138.086384" xlink:href="#m90be00a4ee" y="110.359149"/>
     <use style="fill:#1e90e5;stroke:#1e90e5;" x="138.803775" xlink:href="#m90be00a4ee" y="110.144681"/>
     <use style="fill:#1e90e5;stroke:#1e90e5;" x="139.521167" xlink:href="#m90be00a4ee" y="110.788085"/>
     <use style="fill:#1e90e5;stroke:#1e90e5;" x="140.238559" xlink:href="#m90be00a4ee" y="114.541277"/>
     <use style="fill:#1e90e5;stroke:#1e90e5;" x="140.955951" xlink:href="#m90be00a4ee" y="114.434043"/>
     <use style="fill:#1e90e5;stroke:#1e90e5;" x="141.673343" xlink:href="#m90be00a4ee" y="114.326809"/>
     <use style="fill:#1e90e5;stroke:#1e90e5;" x="142.390735" xlink:href="#m90be00a4ee" y="114.862979"/>
     <use style="fill:#1e90e5;stroke:#1e90e5;" x="143.108127" xlink:href="#m90be00a4ee" y="116.257021"/>
     <use style="fill:#1e90e5;stroke:#1e90e5;" x="143.825519" xlink:href="#m90be00a4ee" y="114.970213"/>
     <use style="fill:#1e90e5;stroke:#1e90e5;" x="144.542911" xlink:href="#m90be00a4ee" y="117.651064"/>
     <use style="fill:#1e90e5;stroke:#1e90e5;" x="145.260303" xlink:href="#m90be00a4ee" y="116.793191"/>
     <use style="fill:#1e90e5;stroke:#1e90e5;" x="145.977695" xlink:href="#m90be00a4ee" y="118.08"/>
     <use style="fill:#1e90e5;stroke:#1e90e5;" x="146.695087" xlink:href="#m90be00a4ee" y="119.045106"/>
     <use style="fill:#1e90e5;stroke:#1e90e5;" x="147.412479" xlink:href="#m90be00a4ee" y="118.294468"/>
     <use style="fill:#1e90e5;stroke:#1e90e5;" x="148.129871" xlink:href="#m90be00a4ee" y="118.61617"/>
     <use style="fill:#1e90e5;stroke:#1e90e5;" x="148.847263" xlink:href="#m90be00a4ee" y="119.045106"/>
     <use style="fill:#1e90e5;stroke:#1e90e5;" x="149.564655" xlink:href="#m90be00a4ee" y="119.795745"/>
     <use style="fill:#1e90e5;stroke:#1e90e5;" x="150.282047" xlink:href="#m90be00a4ee" y="119.259574"/>
     <use style="fill:#1e90e5;stroke:#1e90e5;" x="150.999439" xlink:href="#m90be00a4ee" y="119.902979"/>
     <use style="fill:#1e90e5;stroke:#1e90e5;" x="151.716831" xlink:href="#m90be00a4ee" y="120.439149"/>
     <use style="fill:#1e90e5;stroke:#1e90e5;" x="152.434223" xlink:href="#m90be00a4ee" y="121.404255"/>
     <use style="fill:#1e90e5;stroke:#1e90e5;" x="153.151615" xlink:href="#m90be00a4ee" y="120.760851"/>
     <use style="fill:#1e90e5;stroke:#1e90e5;" x="153.869007" xlink:href="#m90be00a4ee" y="120.868085"/>
     <use style="fill:#1e90e5;stroke:#1e90e5;" x="154.586399" xlink:href="#m90be00a4ee" y="120.868085"/>
     <use style="fill:#1e90e5;stroke:#1e90e5;" x="155.303791" xlink:href="#m90be00a4ee" y="121.404255"/>
     <use style="fill:#1e90e5;stroke:#1e90e5;" x="156.021183" xlink:href="#m90be00a4ee" y="121.940426"/>
     <use style="fill:#1e90e5;stroke:#1e90e5;" x="156.738575" xlink:href="#m90be00a4ee" y="121.297021"/>
     <use style="fill:#1e90e5;stroke:#1e90e5;" x="157.455967" xlink:href="#m90be00a4ee" y="122.262128"/>
     <use style="fill:#1e90e5;stroke:#1e90e5;" x="158.173359" xlink:href="#m90be00a4ee" y="122.154894"/>
     <use style="fill:#1e90e5;stroke:#1e90e5;" x="158.890751" xlink:href="#m90be00a4ee" y="122.369362"/>
     <use style="fill:#1e90e5;stroke:#1e90e5;" x="159.608143" xlink:href="#m90be00a4ee" y="121.833191"/>
     <use style="fill:#1e90e5;stroke:#1e90e5;" x="160.325535" xlink:href="#m90be00a4ee" y="122.369362"/>
     <use style="fill:#1e90e5;stroke:#1e90e5;" x="161.042927" xlink:href="#m90be00a4ee" y="122.58383"/>
     <use style="fill:#1e90e5;stroke:#1e90e5;" x="161.760319" xlink:href="#m90be00a4ee" y="122.04766"/>
     <use style="fill:#1e90e5;stroke:#1e90e5;" x="162.477711" xlink:href="#m90be00a4ee" y="122.476596"/>
     <use style="fill:#1e90e5;stroke:#1e90e5;" x="163.195103" xlink:href="#m90be00a4ee" y="122.04766"/>
     <use style="fill:#1e90e5;stroke:#1e90e5;" x="163.912494" xlink:href="#m90be00a4ee" y="122.369362"/>
     <use style="fill:#1e90e5;stroke:#1e90e5;" x="164.629886" xlink:href="#m90be00a4ee" y="122.905532"/>
     <use style="fill:#1e90e5;stroke:#1e90e5;" x="165.347278" xlink:href="#m90be00a4ee" y="122.691064"/>
     <use style="fill:#1e90e5;stroke:#1e90e5;" x="166.06467" xlink:href="#m90be00a4ee" y="122.691064"/>
     <use style="fill:#1e90e5;stroke:#1e90e5;" x="166.782062" xlink:href="#m90be00a4ee" y="122.58383"/>
     <use style="fill:#1e90e5;stroke:#1e90e5;" x="167.499454" xlink:href="#m90be00a4ee" y="122.905532"/>
     <use style="fill:#1e90e5;stroke:#1e90e5;" x="168.216846" xlink:href="#m90be00a4ee" y="122.58383"/>
     <use style="fill:#1e90e5;stroke:#1e90e5;" x="168.934238" xlink:href="#m90be00a4ee" y="122.691064"/>
     <use style="fill:#1e90e5;stroke:#1e90e5;" x="169.65163" xlink:href="#m90be00a4ee" y="122.58383"/>
     <use style="fill:#1e90e5;stroke:#1e90e5;" x="170.369022" xlink:href="#m90be00a4ee" y="122.905532"/>
     <use style="fill:#1e90e5;stroke:#1e90e5;" x="171.086414" xlink:href="#m90be00a4ee" y="122.476596"/>
     <use style="fill:#1e90e5;stroke:#1e90e5;" x="171.803806" xlink:href="#m90be00a4ee" y="122.905532"/>
     <use style="fill:#1e90e5;stroke:#1e90e5;" x="172.521198" xlink:href="#m90be00a4ee" y="122.798298"/>
     <use style="fill:#1e90e5;stroke:#1e90e5;" x="173.23859" xlink:href="#m90be00a4ee" y="123.012766"/>
     <use style="fill:#1e90e5;stroke:#1e90e5;" x="173.955982" xlink:href="#m90be00a4ee" y="122.691064"/>
     <use style="fill:#1e90e5;stroke:#1e90e5;" x="174.673374" xlink:href="#m90be00a4ee" y="122.691064"/>
     <use style="fill:#1e90e5;stroke:#1e90e5;" x="175.390766" xlink:href="#m90be00a4ee" y="123.012766"/>
     <use style="fill:#1e90e5;stroke:#1e90e5;" x="176.108158" xlink:href="#m90be00a4ee" y="122.691064"/>
    </g>
   </g>
   <g id="patch_3">
    <path d="M 25.455844 128.16 
L 25.455844 17.28 
" style="fill:none;stroke:#606054;stroke-linecap:square;stroke-linejoin:miter;"/>
   </g>
   <g id="patch_4">
    <path d="M 183.282078 128.16 
L 183.282078 17.28 
" style="fill:none;stroke:#606054;stroke-linecap:square;stroke-linejoin:miter;"/>
   </g>
   <g id="patch_5">
    <path d="M 25.455844 128.16 
L 183.282078 128.16 
" style="fill:none;stroke:#606054;stroke-linecap:square;stroke-linejoin:miter;"/>
   </g>
   <g id="patch_6">
    <path d="M 25.455844 17.28 
L 183.282078 17.28 
" style="fill:none;stroke:#606054;stroke-linecap:square;stroke-linejoin:miter;"/>
   </g>
  </g>
 </g>
 <defs>
  <clipPath id="p7ffefa7306">
   <rect height="110.88" width="157.826234" x="25.455844" y="17.28"/>
  </clipPath>
 </defs>
</svg>
