<?xml version="1.0" encoding="utf-8" standalone="no"?>
<!DOCTYPE svg PUBLIC "-//W3C//DTD SVG 1.1//EN"
  "http://www.w3.org/Graphics/SVG/1.1/DTD/svg11.dtd">
<!-- Created with matplotlib (http://matplotlib.org/) -->
<svg height="144pt" version="1.1" viewBox="0 0 203.646753 144" width="203.646753pt" xmlns="http://www.w3.org/2000/svg" xmlns:xlink="http://www.w3.org/1999/xlink">
 <defs>
  <style type="text/css">
*{stroke-linecap:butt;stroke-linejoin:round;}
  </style>
 </defs>
 <g id="figure_1">
  <g id="patch_1">
   <path d="M 0 144 
L 203.646753 144 
L 203.646753 0 
L 0 0 
z
" style="fill:#272822;"/>
  </g>
  <g id="axes_1">
   <g id="patch_2">
    <path d="M 25.455844 128.16 
L 183.282078 128.16 
L 183.282078 17.28 
L 25.455844 17.28 
z
" style="fill:#272822;"/>
   </g>
   <g id="matplotlib.axis_1">
    <g id="xtick_1">
     <g id="line2d_1">
      <path clip-path="url(#p1070f93133)" d="M 40.988995 128.16 
L 40.988995 17.28 
" style="fill:none;stroke:#606054;stroke-dasharray:0.8,1.32;stroke-dashoffset:0;stroke-width:0.8;"/>
     </g>
     <g id="line2d_2">
      <defs>
       <path d="M 0 0 
L 0 3.5 
" id="m8e9bec2981" style="stroke:#917df0;stroke-width:0.8;"/>
      </defs>
      <g>
       <use style="fill:#917df0;stroke:#917df0;stroke-width:0.8;" x="40.988995" xlink:href="#m8e9bec2981" y="128.16"/>
      </g>
     </g>
     <g id="text_1">
      <!-- −1000 -->
      <defs>
       <path d="M 4.296875 35.5 
L 55.90625 35.5 
L 55.90625 27.203125 
L 4.296875 27.203125 
z
" id="DejaVuSansMono-2212"/>
       <path d="M 13.1875 8.296875 
L 28.515625 8.296875 
L 28.515625 64.015625 
L 12.015625 60.296875 
L 12.015625 69.28125 
L 28.421875 72.90625 
L 38.28125 72.90625 
L 38.28125 8.296875 
L 53.421875 8.296875 
L 53.421875 0 
L 13.1875 0 
z
" id="DejaVuSansMono-31"/>
       <path d="M 23.578125 36.625 
Q 23.578125 39.3125 25.453125 41.265625 
Q 27.34375 43.21875 29.984375 43.21875 
Q 32.71875 43.21875 34.671875 41.265625 
Q 36.625 39.3125 36.625 36.625 
Q 36.625 33.890625 34.6875 31.984375 
Q 32.765625 30.078125 29.984375 30.078125 
Q 27.25 30.078125 25.40625 31.9375 
Q 23.578125 33.796875 23.578125 36.625 
z
M 30.078125 66.40625 
Q 23.1875 66.40625 19.796875 58.984375 
Q 16.40625 51.5625 16.40625 36.375 
Q 16.40625 21.234375 19.796875 13.8125 
Q 23.1875 6.390625 30.078125 6.390625 
Q 37.015625 6.390625 40.40625 13.8125 
Q 43.796875 21.234375 43.796875 36.375 
Q 43.796875 51.5625 40.40625 58.984375 
Q 37.015625 66.40625 30.078125 66.40625 
z
M 30.078125 74.21875 
Q 41.75 74.21875 47.734375 64.640625 
Q 53.71875 55.078125 53.71875 36.375 
Q 53.71875 17.71875 47.734375 8.140625 
Q 41.75 -1.421875 30.078125 -1.421875 
Q 18.40625 -1.421875 12.453125 8.140625 
Q 6.5 17.71875 6.5 36.375 
Q 6.5 55.078125 12.453125 64.640625 
Q 18.40625 74.21875 30.078125 74.21875 
z
" id="DejaVuSansMono-30"/>
      </defs>
      <g style="fill:#917df0;" transform="translate(28.94837 141.28125)scale(0.08 -0.08)">
       <use xlink:href="#DejaVuSansMono-2212"/>
       <use x="60.205078" xlink:href="#DejaVuSansMono-31"/>
       <use x="120.410156" xlink:href="#DejaVuSansMono-30"/>
       <use x="180.615234" xlink:href="#DejaVuSansMono-30"/>
       <use x="240.820312" xlink:href="#DejaVuSansMono-30"/>
      </g>
     </g>
    </g>
    <g id="xtick_2">
     <g id="line2d_3">
      <path clip-path="url(#p1070f93133)" d="M 72.806247 128.16 
L 72.806247 17.28 
" style="fill:none;stroke:#606054;stroke-dasharray:0.8,1.32;stroke-dashoffset:0;stroke-width:0.8;"/>
     </g>
     <g id="line2d_4">
      <g>
       <use style="fill:#917df0;stroke:#917df0;stroke-width:0.8;" x="72.806247" xlink:href="#m8e9bec2981" y="128.16"/>
      </g>
     </g>
     <g id="text_2">
      <!-- −500 -->
      <defs>
       <path d="M 10.109375 72.90625 
L 47.015625 72.90625 
L 47.015625 64.59375 
L 19.09375 64.59375 
L 19.09375 46.6875 
Q 21.1875 47.46875 23.3125 47.828125 
Q 25.4375 48.1875 27.59375 48.1875 
Q 38.921875 48.1875 45.5625 41.5 
Q 52.203125 34.8125 52.203125 23.390625 
Q 52.203125 11.859375 45.234375 5.21875 
Q 38.28125 -1.421875 26.21875 -1.421875 
Q 20.40625 -1.421875 15.59375 -0.640625 
Q 10.796875 0.140625 6.984375 1.703125 
L 6.984375 11.71875 
Q 11.46875 9.28125 16.015625 8.078125 
Q 20.5625 6.890625 25.296875 6.890625 
Q 33.453125 6.890625 37.859375 11.1875 
Q 42.28125 15.484375 42.28125 23.390625 
Q 42.28125 31.203125 37.71875 35.546875 
Q 33.15625 39.890625 25 39.890625 
Q 21.046875 39.890625 17.28125 38.984375 
Q 13.53125 38.09375 10.109375 36.28125 
z
" id="DejaVuSansMono-35"/>
      </defs>
      <g style="fill:#917df0;" transform="translate(63.173747 141.28125)scale(0.08 -0.08)">
       <use xlink:href="#DejaVuSansMono-2212"/>
       <use x="60.205078" xlink:href="#DejaVuSansMono-35"/>
       <use x="120.410156" xlink:href="#DejaVuSansMono-30"/>
       <use x="180.615234" xlink:href="#DejaVuSansMono-30"/>
      </g>
     </g>
    </g>
    <g id="xtick_3">
     <g id="line2d_5">
      <path clip-path="url(#p1070f93133)" d="M 104.623499 128.16 
L 104.623499 17.28 
" style="fill:none;stroke:#606054;stroke-dasharray:0.8,1.32;stroke-dashoffset:0;stroke-width:0.8;"/>
     </g>
     <g id="line2d_6">
      <g>
       <use style="fill:#917df0;stroke:#917df0;stroke-width:0.8;" x="104.623499" xlink:href="#m8e9bec2981" y="128.16"/>
      </g>
     </g>
     <g id="text_3">
      <!-- 0 -->
      <g style="fill:#917df0;" transform="translate(102.215374 141.28125)scale(0.08 -0.08)">
       <use xlink:href="#DejaVuSansMono-30"/>
      </g>
     </g>
    </g>
    <g id="xtick_4">
     <g id="line2d_7">
      <path clip-path="url(#p1070f93133)" d="M 136.440751 128.16 
L 136.440751 17.28 
" style="fill:none;stroke:#606054;stroke-dasharray:0.8,1.32;stroke-dashoffset:0;stroke-width:0.8;"/>
     </g>
     <g id="line2d_8">
      <g>
       <use style="fill:#917df0;stroke:#917df0;stroke-width:0.8;" x="136.440751" xlink:href="#m8e9bec2981" y="128.16"/>
      </g>
     </g>
     <g id="text_4">
      <!-- 500 -->
      <g style="fill:#917df0;" transform="translate(129.216376 141.28125)scale(0.08 -0.08)">
       <use xlink:href="#DejaVuSansMono-35"/>
       <use x="60.205078" xlink:href="#DejaVuSansMono-30"/>
       <use x="120.410156" xlink:href="#DejaVuSansMono-30"/>
      </g>
     </g>
    </g>
    <g id="xtick_5">
     <g id="line2d_9">
      <path clip-path="url(#p1070f93133)" d="M 168.258003 128.16 
L 168.258003 17.28 
" style="fill:none;stroke:#606054;stroke-dasharray:0.8,1.32;stroke-dashoffset:0;stroke-width:0.8;"/>
     </g>
     <g id="line2d_10">
      <g>
       <use style="fill:#917df0;stroke:#917df0;stroke-width:0.8;" x="168.258003" xlink:href="#m8e9bec2981" y="128.16"/>
      </g>
     </g>
     <g id="text_5">
      <!-- 1000 -->
      <g style="fill:#917df0;" transform="translate(158.625503 141.28125)scale(0.08 -0.08)">
       <use xlink:href="#DejaVuSansMono-31"/>
       <use x="60.205078" xlink:href="#DejaVuSansMono-30"/>
       <use x="120.410156" xlink:href="#DejaVuSansMono-30"/>
       <use x="180.615234" xlink:href="#DejaVuSansMono-30"/>
      </g>
     </g>
    </g>
    <g id="text_6">
     <!-- τ -->
     <defs>
      <path d="M 36.234375 9.96875 
Q 37.984375 7.625 43.265625 7.625 
L 47.609375 7.625 
L 47.609375 0 
L 42.1875 0 
Q 33.40625 0 29.390625 4.6875 
Q 25.390625 9.46875 25.390625 19.828125 
L 25.390625 45.703125 
L 7.8125 45.703125 
L 7.8125 54.59375 
L 52.4375 54.59375 
L 52.4375 45.703125 
L 34.578125 45.703125 
L 34.578125 19.28125 
Q 34.578125 12.203125 36.234375 9.96875 
z
" id="DejaVuSansMono-3c4"/>
     </defs>
     <g style="fill:#e5dc5a;" transform="translate(101.960836 153.06625)scale(0.08 -0.08)">
      <use xlink:href="#DejaVuSansMono-3c4"/>
     </g>
    </g>
   </g>
   <g id="matplotlib.axis_2">
    <g id="ytick_1">
     <g id="line2d_11">
      <path clip-path="url(#p1070f93133)" d="M 25.455844 125.68856 
L 183.282078 125.68856 
" style="fill:none;stroke:#606054;stroke-dasharray:0.8,1.32;stroke-dashoffset:0;stroke-width:0.8;"/>
     </g>
     <g id="line2d_12">
      <defs>
       <path d="M 0 0 
L -3.5 0 
" id="m7ddc8e9dad" style="stroke:#917df0;stroke-width:0.8;"/>
      </defs>
      <g>
       <use style="fill:#917df0;stroke:#917df0;stroke-width:0.8;" x="25.455844" xlink:href="#m7ddc8e9dad" y="125.68856"/>
      </g>
     </g>
     <g id="text_7">
      <!-- $\mathdefault{10^{-4}}$ -->
      <defs>
       <path d="M 35.890625 63.921875 
L 12.890625 25.390625 
L 35.890625 25.390625 
z
M 34.28125 72.90625 
L 45.703125 72.90625 
L 45.703125 25.390625 
L 55.421875 25.390625 
L 55.421875 17.390625 
L 45.703125 17.390625 
L 45.703125 0 
L 35.890625 0 
L 35.890625 17.390625 
L 4.984375 17.390625 
L 4.984375 26.703125 
z
" id="DejaVuSansMono-34"/>
      </defs>
      <g style="fill:#917df0;" transform="translate(1.735844 128.749185)scale(0.08 -0.08)">
       <use transform="translate(0 0.684375)" xlink:href="#DejaVuSansMono-31"/>
       <use transform="translate(60.205078 0.684375)" xlink:href="#DejaVuSansMono-30"/>
       <use transform="translate(121.367188 38.965625)scale(0.7)" xlink:href="#DejaVuSansMono-2212"/>
       <use transform="translate(163.510742 38.965625)scale(0.7)" xlink:href="#DejaVuSansMono-34"/>
      </g>
     </g>
    </g>
    <g id="ytick_2">
     <g id="line2d_13">
      <path clip-path="url(#p1070f93133)" d="M 25.455844 99.611852 
L 183.282078 99.611852 
" style="fill:none;stroke:#606054;stroke-dasharray:0.8,1.32;stroke-dashoffset:0;stroke-width:0.8;"/>
     </g>
     <g id="line2d_14">
      <g>
       <use style="fill:#917df0;stroke:#917df0;stroke-width:0.8;" x="25.455844" xlink:href="#m7ddc8e9dad" y="99.611852"/>
      </g>
     </g>
     <g id="text_8">
      <!-- $\mathdefault{10^{-3}}$ -->
      <defs>
       <path d="M 37.890625 39.015625 
Q 45.0625 37.109375 48.875 32.25 
Q 52.6875 27.390625 52.6875 20.125 
Q 52.6875 10.0625 45.921875 4.3125 
Q 39.15625 -1.421875 27.203125 -1.421875 
Q 22.171875 -1.421875 16.9375 -0.484375 
Q 11.71875 0.4375 6.6875 2.203125 
L 6.6875 12.015625 
Q 11.671875 9.421875 16.5 8.15625 
Q 21.34375 6.890625 26.125 6.890625 
Q 34.234375 6.890625 38.578125 10.546875 
Q 42.921875 14.203125 42.921875 21.09375 
Q 42.921875 27.4375 38.578125 31.171875 
Q 34.234375 34.90625 26.8125 34.90625 
L 19.28125 34.90625 
L 19.28125 43.015625 
L 26.8125 43.015625 
Q 33.59375 43.015625 37.40625 45.984375 
Q 41.21875 48.96875 41.21875 54.296875 
Q 41.21875 59.90625 37.671875 62.90625 
Q 34.125 65.921875 27.59375 65.921875 
Q 23.25 65.921875 18.609375 64.9375 
Q 13.96875 63.96875 8.890625 62.015625 
L 8.890625 71.09375 
Q 14.796875 72.65625 19.40625 73.4375 
Q 24.03125 74.21875 27.59375 74.21875 
Q 38.234375 74.21875 44.609375 68.875 
Q 50.984375 63.53125 50.984375 54.6875 
Q 50.984375 48.6875 47.625 44.671875 
Q 44.28125 40.671875 37.890625 39.015625 
z
" id="DejaVuSansMono-33"/>
      </defs>
      <g style="fill:#917df0;" transform="translate(1.735844 102.672477)scale(0.08 -0.08)">
       <use transform="translate(0 0.765625)" xlink:href="#DejaVuSansMono-31"/>
       <use transform="translate(60.205078 0.765625)" xlink:href="#DejaVuSansMono-30"/>
       <use transform="translate(121.367188 39.046875)scale(0.7)" xlink:href="#DejaVuSansMono-2212"/>
       <use transform="translate(163.510742 39.046875)scale(0.7)" xlink:href="#DejaVuSansMono-33"/>
      </g>
     </g>
    </g>
    <g id="ytick_3">
     <g id="line2d_15">
      <path clip-path="url(#p1070f93133)" d="M 25.455844 73.535143 
L 183.282078 73.535143 
" style="fill:none;stroke:#606054;stroke-dasharray:0.8,1.32;stroke-dashoffset:0;stroke-width:0.8;"/>
     </g>
     <g id="line2d_16">
      <g>
       <use style="fill:#917df0;stroke:#917df0;stroke-width:0.8;" x="25.455844" xlink:href="#m7ddc8e9dad" y="73.535143"/>
      </g>
     </g>
     <g id="text_9">
      <!-- $\mathdefault{10^{-2}}$ -->
      <defs>
       <path d="M 18.21875 8.296875 
L 51.703125 8.296875 
L 51.703125 0 
L 7.421875 0 
L 7.421875 8.296875 
Q 16.546875 17.921875 23.375 25.296875 
Q 30.21875 32.671875 32.8125 35.6875 
Q 37.703125 41.65625 39.40625 45.34375 
Q 41.109375 49.03125 41.109375 52.875 
Q 41.109375 58.984375 37.515625 62.453125 
Q 33.9375 65.921875 27.6875 65.921875 
Q 23.25 65.921875 18.359375 64.3125 
Q 13.484375 62.703125 8.015625 59.421875 
L 8.015625 69.390625 
Q 13.03125 71.78125 17.890625 73 
Q 22.75 74.21875 27.484375 74.21875 
Q 38.1875 74.21875 44.703125 68.53125 
Q 51.21875 62.84375 51.21875 53.609375 
Q 51.21875 48.921875 49.046875 44.234375 
Q 46.875 39.546875 42 33.890625 
Q 39.265625 30.71875 34.0625 25.09375 
Q 28.859375 19.484375 18.21875 8.296875 
z
" id="DejaVuSansMono-32"/>
      </defs>
      <g style="fill:#917df0;" transform="translate(1.735844 76.595768)scale(0.08 -0.08)">
       <use transform="translate(0 0.765625)" xlink:href="#DejaVuSansMono-31"/>
       <use transform="translate(60.205078 0.765625)" xlink:href="#DejaVuSansMono-30"/>
       <use transform="translate(121.367188 39.046875)scale(0.7)" xlink:href="#DejaVuSansMono-2212"/>
       <use transform="translate(163.510742 39.046875)scale(0.7)" xlink:href="#DejaVuSansMono-32"/>
      </g>
     </g>
    </g>
    <g id="ytick_4">
     <g id="line2d_17">
      <path clip-path="url(#p1070f93133)" d="M 25.455844 47.458434 
L 183.282078 47.458434 
" style="fill:none;stroke:#606054;stroke-dasharray:0.8,1.32;stroke-dashoffset:0;stroke-width:0.8;"/>
     </g>
     <g id="line2d_18">
      <g>
       <use style="fill:#917df0;stroke:#917df0;stroke-width:0.8;" x="25.455844" xlink:href="#m7ddc8e9dad" y="47.458434"/>
      </g>
     </g>
     <g id="text_10">
      <!-- $\mathdefault{10^{-1}}$ -->
      <g style="fill:#917df0;" transform="translate(1.735844 50.519059)scale(0.08 -0.08)">
       <use transform="translate(0 0.684375)" xlink:href="#DejaVuSansMono-31"/>
       <use transform="translate(60.205078 0.684375)" xlink:href="#DejaVuSansMono-30"/>
       <use transform="translate(121.367188 38.965625)scale(0.7)" xlink:href="#DejaVuSansMono-2212"/>
       <use transform="translate(163.510742 38.965625)scale(0.7)" xlink:href="#DejaVuSansMono-31"/>
      </g>
     </g>
    </g>
    <g id="ytick_5">
     <g id="line2d_19">
      <path clip-path="url(#p1070f93133)" d="M 25.455844 21.381726 
L 183.282078 21.381726 
" style="fill:none;stroke:#606054;stroke-dasharray:0.8,1.32;stroke-dashoffset:0;stroke-width:0.8;"/>
     </g>
     <g id="line2d_20">
      <g>
       <use style="fill:#917df0;stroke:#917df0;stroke-width:0.8;" x="25.455844" xlink:href="#m7ddc8e9dad" y="21.381726"/>
      </g>
     </g>
     <g id="text_11">
      <!-- $\mathdefault{10^{0}}$ -->
      <g style="fill:#917df0;" transform="translate(5.095844 24.442351)scale(0.08 -0.08)">
       <use transform="translate(0 0.765625)" xlink:href="#DejaVuSansMono-31"/>
       <use transform="translate(60.205078 0.765625)" xlink:href="#DejaVuSansMono-30"/>
       <use transform="translate(121.367188 39.046875)scale(0.7)" xlink:href="#DejaVuSansMono-30"/>
      </g>
     </g>
    </g>
    <g id="ytick_6">
     <g id="line2d_21">
      <defs>
       <path d="M 0 0 
L -2 0 
" id="m9ad3f82d63" style="stroke:#917df0;stroke-width:0.6;"/>
      </defs>
      <g>
       <use style="fill:#917df0;stroke:#917df0;stroke-width:0.6;" x="25.455844" xlink:href="#m9ad3f82d63" y="128.215654"/>
      </g>
     </g>
    </g>
    <g id="ytick_7">
     <g id="line2d_22">
      <g>
       <use style="fill:#917df0;stroke:#917df0;stroke-width:0.6;" x="25.455844" xlink:href="#m9ad3f82d63" y="126.881765"/>
      </g>
     </g>
    </g>
    <g id="ytick_8">
     <g id="line2d_23">
      <g>
       <use style="fill:#917df0;stroke:#917df0;stroke-width:0.6;" x="25.455844" xlink:href="#m9ad3f82d63" y="117.838689"/>
      </g>
     </g>
    </g>
    <g id="ytick_9">
     <g id="line2d_24">
      <g>
       <use style="fill:#917df0;stroke:#917df0;stroke-width:0.6;" x="25.455844" xlink:href="#m9ad3f82d63" y="113.246808"/>
      </g>
     </g>
    </g>
    <g id="ytick_10">
     <g id="line2d_25">
      <g>
       <use style="fill:#917df0;stroke:#917df0;stroke-width:0.6;" x="25.455844" xlink:href="#m9ad3f82d63" y="109.988817"/>
      </g>
     </g>
    </g>
    <g id="ytick_11">
     <g id="line2d_26">
      <g>
       <use style="fill:#917df0;stroke:#917df0;stroke-width:0.6;" x="25.455844" xlink:href="#m9ad3f82d63" y="107.461723"/>
      </g>
     </g>
    </g>
    <g id="ytick_12">
     <g id="line2d_27">
      <g>
       <use style="fill:#917df0;stroke:#917df0;stroke-width:0.6;" x="25.455844" xlink:href="#m9ad3f82d63" y="105.396937"/>
      </g>
     </g>
    </g>
    <g id="ytick_13">
     <g id="line2d_28">
      <g>
       <use style="fill:#917df0;stroke:#917df0;stroke-width:0.6;" x="25.455844" xlink:href="#m9ad3f82d63" y="103.651185"/>
      </g>
     </g>
    </g>
    <g id="ytick_14">
     <g id="line2d_29">
      <g>
       <use style="fill:#917df0;stroke:#917df0;stroke-width:0.6;" x="25.455844" xlink:href="#m9ad3f82d63" y="102.138946"/>
      </g>
     </g>
    </g>
    <g id="ytick_15">
     <g id="line2d_30">
      <g>
       <use style="fill:#917df0;stroke:#917df0;stroke-width:0.6;" x="25.455844" xlink:href="#m9ad3f82d63" y="100.805056"/>
      </g>
     </g>
    </g>
    <g id="ytick_16">
     <g id="line2d_31">
      <g>
       <use style="fill:#917df0;stroke:#917df0;stroke-width:0.6;" x="25.455844" xlink:href="#m9ad3f82d63" y="91.76198"/>
      </g>
     </g>
    </g>
    <g id="ytick_17">
     <g id="line2d_32">
      <g>
       <use style="fill:#917df0;stroke:#917df0;stroke-width:0.6;" x="25.455844" xlink:href="#m9ad3f82d63" y="87.1701"/>
      </g>
     </g>
    </g>
    <g id="ytick_18">
     <g id="line2d_33">
      <g>
       <use style="fill:#917df0;stroke:#917df0;stroke-width:0.6;" x="25.455844" xlink:href="#m9ad3f82d63" y="83.912109"/>
      </g>
     </g>
    </g>
    <g id="ytick_19">
     <g id="line2d_34">
      <g>
       <use style="fill:#917df0;stroke:#917df0;stroke-width:0.6;" x="25.455844" xlink:href="#m9ad3f82d63" y="81.385015"/>
      </g>
     </g>
    </g>
    <g id="ytick_20">
     <g id="line2d_35">
      <g>
       <use style="fill:#917df0;stroke:#917df0;stroke-width:0.6;" x="25.455844" xlink:href="#m9ad3f82d63" y="79.320228"/>
      </g>
     </g>
    </g>
    <g id="ytick_21">
     <g id="line2d_36">
      <g>
       <use style="fill:#917df0;stroke:#917df0;stroke-width:0.6;" x="25.455844" xlink:href="#m9ad3f82d63" y="77.574476"/>
      </g>
     </g>
    </g>
    <g id="ytick_22">
     <g id="line2d_37">
      <g>
       <use style="fill:#917df0;stroke:#917df0;stroke-width:0.6;" x="25.455844" xlink:href="#m9ad3f82d63" y="76.062237"/>
      </g>
     </g>
    </g>
    <g id="ytick_23">
     <g id="line2d_38">
      <g>
       <use style="fill:#917df0;stroke:#917df0;stroke-width:0.6;" x="25.455844" xlink:href="#m9ad3f82d63" y="74.728348"/>
      </g>
     </g>
    </g>
    <g id="ytick_24">
     <g id="line2d_39">
      <g>
       <use style="fill:#917df0;stroke:#917df0;stroke-width:0.6;" x="25.455844" xlink:href="#m9ad3f82d63" y="65.685272"/>
      </g>
     </g>
    </g>
    <g id="ytick_25">
     <g id="line2d_40">
      <g>
       <use style="fill:#917df0;stroke:#917df0;stroke-width:0.6;" x="25.455844" xlink:href="#m9ad3f82d63" y="61.093391"/>
      </g>
     </g>
    </g>
    <g id="ytick_26">
     <g id="line2d_41">
      <g>
       <use style="fill:#917df0;stroke:#917df0;stroke-width:0.6;" x="25.455844" xlink:href="#m9ad3f82d63" y="57.8354"/>
      </g>
     </g>
    </g>
    <g id="ytick_27">
     <g id="line2d_42">
      <g>
       <use style="fill:#917df0;stroke:#917df0;stroke-width:0.6;" x="25.455844" xlink:href="#m9ad3f82d63" y="55.308306"/>
      </g>
     </g>
    </g>
    <g id="ytick_28">
     <g id="line2d_43">
      <g>
       <use style="fill:#917df0;stroke:#917df0;stroke-width:0.6;" x="25.455844" xlink:href="#m9ad3f82d63" y="53.24352"/>
      </g>
     </g>
    </g>
    <g id="ytick_29">
     <g id="line2d_44">
      <g>
       <use style="fill:#917df0;stroke:#917df0;stroke-width:0.6;" x="25.455844" xlink:href="#m9ad3f82d63" y="51.497768"/>
      </g>
     </g>
    </g>
    <g id="ytick_30">
     <g id="line2d_45">
      <g>
       <use style="fill:#917df0;stroke:#917df0;stroke-width:0.6;" x="25.455844" xlink:href="#m9ad3f82d63" y="49.985529"/>
      </g>
     </g>
    </g>
    <g id="ytick_31">
     <g id="line2d_46">
      <g>
       <use style="fill:#917df0;stroke:#917df0;stroke-width:0.6;" x="25.455844" xlink:href="#m9ad3f82d63" y="48.651639"/>
      </g>
     </g>
    </g>
    <g id="ytick_32">
     <g id="line2d_47">
      <g>
       <use style="fill:#917df0;stroke:#917df0;stroke-width:0.6;" x="25.455844" xlink:href="#m9ad3f82d63" y="39.608563"/>
      </g>
     </g>
    </g>
    <g id="ytick_33">
     <g id="line2d_48">
      <g>
       <use style="fill:#917df0;stroke:#917df0;stroke-width:0.6;" x="25.455844" xlink:href="#m9ad3f82d63" y="35.016683"/>
      </g>
     </g>
    </g>
    <g id="ytick_34">
     <g id="line2d_49">
      <g>
       <use style="fill:#917df0;stroke:#917df0;stroke-width:0.6;" x="25.455844" xlink:href="#m9ad3f82d63" y="31.758691"/>
      </g>
     </g>
    </g>
    <g id="ytick_35">
     <g id="line2d_50">
      <g>
       <use style="fill:#917df0;stroke:#917df0;stroke-width:0.6;" x="25.455844" xlink:href="#m9ad3f82d63" y="29.231597"/>
      </g>
     </g>
    </g>
    <g id="ytick_36">
     <g id="line2d_51">
      <g>
       <use style="fill:#917df0;stroke:#917df0;stroke-width:0.6;" x="25.455844" xlink:href="#m9ad3f82d63" y="27.166811"/>
      </g>
     </g>
    </g>
    <g id="ytick_37">
     <g id="line2d_52">
      <g>
       <use style="fill:#917df0;stroke:#917df0;stroke-width:0.6;" x="25.455844" xlink:href="#m9ad3f82d63" y="25.421059"/>
      </g>
     </g>
    </g>
    <g id="ytick_38">
     <g id="line2d_53">
      <g>
       <use style="fill:#917df0;stroke:#917df0;stroke-width:0.6;" x="25.455844" xlink:href="#m9ad3f82d63" y="23.90882"/>
      </g>
     </g>
    </g>
    <g id="ytick_39">
     <g id="line2d_54">
      <g>
       <use style="fill:#917df0;stroke:#917df0;stroke-width:0.6;" x="25.455844" xlink:href="#m9ad3f82d63" y="22.574931"/>
      </g>
     </g>
    </g>
    <g id="text_12">
     <!-- g$^2$(τ) -->
     <defs>
      <path d="M 41.890625 27.78125 
Q 41.890625 37.890625 38.59375 43.140625 
Q 35.296875 48.390625 29 48.390625 
Q 22.40625 48.390625 18.9375 43.140625 
Q 15.484375 37.890625 15.484375 27.78125 
Q 15.484375 17.671875 18.96875 12.375 
Q 22.46875 7.078125 29.109375 7.078125 
Q 35.296875 7.078125 38.59375 12.390625 
Q 41.890625 17.71875 41.890625 27.78125 
z
M 50.875 3.515625 
Q 50.875 -8.796875 45.0625 -15.140625 
Q 39.265625 -21.484375 27.984375 -21.484375 
Q 24.265625 -21.484375 20.203125 -20.796875 
Q 16.15625 -20.125 12.109375 -18.796875 
L 12.109375 -9.90625 
Q 16.890625 -12.15625 20.796875 -13.234375 
Q 24.703125 -14.3125 27.984375 -14.3125 
Q 35.25 -14.3125 38.5625 -10.34375 
Q 41.890625 -6.390625 41.890625 2.203125 
L 41.890625 2.59375 
L 41.890625 8.6875 
Q 39.75 4.109375 36.03125 1.859375 
Q 32.328125 -0.390625 27 -0.390625 
Q 17.4375 -0.390625 11.71875 7.265625 
Q 6 14.9375 6 27.78125 
Q 6 40.671875 11.71875 48.328125 
Q 17.4375 56 27 56 
Q 32.28125 56 35.9375 53.90625 
Q 39.59375 51.8125 41.890625 47.40625 
L 41.890625 54.5 
L 50.875 54.5 
z
" id="DejaVuSansMono-67"/>
      <path d="M 19.1875 8.296875 
L 53.609375 8.296875 
L 53.609375 0 
L 7.328125 0 
L 7.328125 8.296875 
Q 12.9375 14.109375 22.625 23.890625 
Q 32.328125 33.6875 34.8125 36.53125 
Q 39.546875 41.84375 41.421875 45.53125 
Q 43.3125 49.21875 43.3125 52.78125 
Q 43.3125 58.59375 39.234375 62.25 
Q 35.15625 65.921875 28.609375 65.921875 
Q 23.96875 65.921875 18.8125 64.3125 
Q 13.671875 62.703125 7.8125 59.421875 
L 7.8125 69.390625 
Q 13.765625 71.78125 18.9375 73 
Q 24.125 74.21875 28.421875 74.21875 
Q 39.75 74.21875 46.484375 68.546875 
Q 53.21875 62.890625 53.21875 53.421875 
Q 53.21875 48.921875 51.53125 44.890625 
Q 49.859375 40.875 45.40625 35.40625 
Q 44.1875 33.984375 37.640625 27.21875 
Q 31.109375 20.453125 19.1875 8.296875 
z
" id="DejaVuSans-32"/>
      <path d="M 43.21875 75.875 
Q 36.71875 64.75 33.515625 53.6875 
Q 30.328125 42.625 30.328125 31.390625 
Q 30.328125 20.21875 33.515625 9.125 
Q 36.71875 -1.953125 43.21875 -13.1875 
L 35.40625 -13.1875 
Q 28.03125 -1.5625 24.40625 9.4375 
Q 20.796875 20.453125 20.796875 31.390625 
Q 20.796875 42.28125 24.40625 53.3125 
Q 28.03125 64.359375 35.40625 75.875 
z
" id="DejaVuSansMono-28"/>
      <path d="M 17 75.875 
L 24.8125 75.875 
Q 32.171875 64.359375 35.78125 53.3125 
Q 39.40625 42.28125 39.40625 31.390625 
Q 39.40625 20.40625 35.78125 9.375 
Q 32.171875 -1.65625 24.8125 -13.1875 
L 17 -13.1875 
Q 23.484375 -1.859375 26.6875 9.21875 
Q 29.890625 20.3125 29.890625 31.390625 
Q 29.890625 42.53125 26.6875 53.609375 
Q 23.484375 64.703125 17 75.875 
z
" id="DejaVuSansMono-29"/>
     </defs>
     <g style="fill:#e5dc5a;" transform="translate(-4.024156 84.32)rotate(-90)scale(0.08 -0.08)">
      <use transform="translate(0 0.765625)" xlink:href="#DejaVuSansMono-67"/>
      <use transform="translate(61.162109 39.046875)scale(0.7)" xlink:href="#DejaVuSans-32"/>
      <use transform="translate(108.432617 0.765625)" xlink:href="#DejaVuSansMono-28"/>
      <use transform="translate(168.637695 0.765625)" xlink:href="#DejaVuSansMono-3c4"/>
      <use transform="translate(228.842773 0.765625)" xlink:href="#DejaVuSansMono-29"/>
     </g>
    </g>
   </g>
   <g id="line2d_55">
    <defs>
     <path d="M 0 1.5 
C 0.397805 1.5 0.77937 1.341951 1.06066 1.06066 
C 1.341951 0.77937 1.5 0.397805 1.5 0 
C 1.5 -0.397805 1.341951 -0.77937 1.06066 -1.06066 
C 0.77937 -1.341951 0.397805 -1.5 0 -1.5 
C -0.397805 -1.5 -0.77937 -1.341951 -1.06066 -1.06066 
C -1.341951 -0.77937 -1.5 -0.397805 -1.5 0 
C -1.5 0.397805 -1.341951 0.77937 -1.06066 1.06066 
C -0.77937 1.341951 -0.397805 1.5 0 1.5 
z
" id="m8c7a4c6566" style="stroke:#1e90e5;"/>
    </defs>
    <g clip-path="url(#p1070f93133)">
     <use style="fill:#1e90e5;stroke:#1e90e5;" x="32.629764" xlink:href="#m8c7a4c6566" y="123.12"/>
     <use style="fill:#1e90e5;stroke:#1e90e5;" x="32.912741" xlink:href="#m8c7a4c6566" y="10369"/>
     <use style="fill:#1e90e5;stroke:#1e90e5;" x="34.498963" xlink:href="#m8c7a4c6566" y="10369"/>
     <use style="fill:#1e90e5;stroke:#1e90e5;" x="34.78194" xlink:href="#m8c7a4c6566" y="123.12"/>
     <use style="fill:#1e90e5;stroke:#1e90e5;" x="35.064916" xlink:href="#m8c7a4c6566" y="10369"/>
     <use style="fill:#1e90e5;stroke:#1e90e5;" x="35.933747" xlink:href="#m8c7a4c6566" y="10369"/>
     <use style="fill:#1e90e5;stroke:#1e90e5;" x="36.216724" xlink:href="#m8c7a4c6566" y="123.12"/>
     <use style="fill:#1e90e5;stroke:#1e90e5;" x="36.4997" xlink:href="#m8c7a4c6566" y="10369"/>
     <use style="fill:#1e90e5;stroke:#1e90e5;" x="38.085923" xlink:href="#m8c7a4c6566" y="10369"/>
     <use style="fill:#1e90e5;stroke:#1e90e5;" x="38.3689" xlink:href="#m8c7a4c6566" y="123.12"/>
     <use style="fill:#1e90e5;stroke:#1e90e5;" x="38.651876" xlink:href="#m8c7a4c6566" y="10369"/>
     <use style="fill:#1e90e5;stroke:#1e90e5;" x="40.238099" xlink:href="#m8c7a4c6566" y="10369"/>
     <use style="fill:#1e90e5;stroke:#1e90e5;" x="40.521076" xlink:href="#m8c7a4c6566" y="123.12"/>
     <use style="fill:#1e90e5;stroke:#1e90e5;" x="40.804052" xlink:href="#m8c7a4c6566" y="10369"/>
     <use style="fill:#1e90e5;stroke:#1e90e5;" x="41.672675" xlink:href="#m8c7a4c6566" y="10369"/>
     <use style="fill:#1e90e5;stroke:#1e90e5;" x="41.955859" xlink:href="#m8c7a4c6566" y="110.678248"/>
     <use style="fill:#1e90e5;stroke:#1e90e5;" x="42.239044" xlink:href="#m8c7a4c6566" y="10369"/>
     <use style="fill:#1e90e5;stroke:#1e90e5;" x="44.542243" xlink:href="#m8c7a4c6566" y="10369"/>
     <use style="fill:#1e90e5;stroke:#1e90e5;" x="44.825427" xlink:href="#m8c7a4c6566" y="110.678248"/>
     <use style="fill:#1e90e5;stroke:#1e90e5;" x="45.542819" xlink:href="#m8c7a4c6566" y="123.12"/>
     <use style="fill:#1e90e5;stroke:#1e90e5;" x="46.260211" xlink:href="#m8c7a4c6566" y="107.420257"/>
     <use style="fill:#1e90e5;stroke:#1e90e5;" x="46.54345" xlink:href="#m8c7a4c6566" y="10369"/>
     <use style="fill:#1e90e5;stroke:#1e90e5;" x="47.411756" xlink:href="#m8c7a4c6566" y="10369"/>
     <use style="fill:#1e90e5;stroke:#1e90e5;" x="47.694995" xlink:href="#m8c7a4c6566" y="107.420257"/>
     <use style="fill:#1e90e5;stroke:#1e90e5;" x="48.412387" xlink:href="#m8c7a4c6566" y="123.12"/>
     <use style="fill:#1e90e5;stroke:#1e90e5;" x="49.129779" xlink:href="#m8c7a4c6566" y="115.270129"/>
     <use style="fill:#1e90e5;stroke:#1e90e5;" x="49.847171" xlink:href="#m8c7a4c6566" y="115.270129"/>
     <use style="fill:#1e90e5;stroke:#1e90e5;" x="50.564563" xlink:href="#m8c7a4c6566" y="123.12"/>
     <use style="fill:#1e90e5;stroke:#1e90e5;" x="51.281955" xlink:href="#m8c7a4c6566" y="110.678248"/>
     <use style="fill:#1e90e5;stroke:#1e90e5;" x="51.999347" xlink:href="#m8c7a4c6566" y="123.12"/>
     <use style="fill:#1e90e5;stroke:#1e90e5;" x="52.716739" xlink:href="#m8c7a4c6566" y="115.270129"/>
     <use style="fill:#1e90e5;stroke:#1e90e5;" x="53.434131" xlink:href="#m8c7a4c6566" y="99.570386"/>
     <use style="fill:#1e90e5;stroke:#1e90e5;" x="54.151523" xlink:href="#m8c7a4c6566" y="115.270129"/>
     <use style="fill:#1e90e5;stroke:#1e90e5;" x="54.868915" xlink:href="#m8c7a4c6566" y="104.893163"/>
     <use style="fill:#1e90e5;stroke:#1e90e5;" x="55.586307" xlink:href="#m8c7a4c6566" y="98.236496"/>
     <use style="fill:#1e90e5;stroke:#1e90e5;" x="56.303699" xlink:href="#m8c7a4c6566" y="99.570386"/>
     <use style="fill:#1e90e5;stroke:#1e90e5;" x="57.021091" xlink:href="#m8c7a4c6566" y="101.082625"/>
     <use style="fill:#1e90e5;stroke:#1e90e5;" x="57.738483" xlink:href="#m8c7a4c6566" y="98.236496"/>
     <use style="fill:#1e90e5;stroke:#1e90e5;" x="58.455875" xlink:href="#m8c7a4c6566" y="95.963906"/>
     <use style="fill:#1e90e5;stroke:#1e90e5;" x="59.173267" xlink:href="#m8c7a4c6566" y="97.043291"/>
     <use style="fill:#1e90e5;stroke:#1e90e5;" x="59.890659" xlink:href="#m8c7a4c6566" y="95.963906"/>
     <use style="fill:#1e90e5;stroke:#1e90e5;" x="60.608051" xlink:href="#m8c7a4c6566" y="101.082625"/>
     <use style="fill:#1e90e5;stroke:#1e90e5;" x="61.325443" xlink:href="#m8c7a4c6566" y="94.978505"/>
     <use style="fill:#1e90e5;stroke:#1e90e5;" x="62.042835" xlink:href="#m8c7a4c6566" y="99.570386"/>
     <use style="fill:#1e90e5;stroke:#1e90e5;" x="62.760227" xlink:href="#m8c7a4c6566" y="92.451411"/>
     <use style="fill:#1e90e5;stroke:#1e90e5;" x="63.477619" xlink:href="#m8c7a4c6566" y="89.19342"/>
     <use style="fill:#1e90e5;stroke:#1e90e5;" x="64.195011" xlink:href="#m8c7a4c6566" y="86.666326"/>
     <use style="fill:#1e90e5;stroke:#1e90e5;" x="64.912403" xlink:href="#m8c7a4c6566" y="90.386625"/>
     <use style="fill:#1e90e5;stroke:#1e90e5;" x="65.629794" xlink:href="#m8c7a4c6566" y="87.61062"/>
     <use style="fill:#1e90e5;stroke:#1e90e5;" x="66.347186" xlink:href="#m8c7a4c6566" y="82.226461"/>
     <use style="fill:#1e90e5;stroke:#1e90e5;" x="67.064578" xlink:href="#m8c7a4c6566" y="84.985474"/>
     <use style="fill:#1e90e5;stroke:#1e90e5;" x="67.78197" xlink:href="#m8c7a4c6566" y="80.524519"/>
     <use style="fill:#1e90e5;stroke:#1e90e5;" x="68.499362" xlink:href="#m8c7a4c6566" y="81.630272"/>
     <use style="fill:#1e90e5;stroke:#1e90e5;" x="69.216754" xlink:href="#m8c7a4c6566" y="79.045249"/>
     <use style="fill:#1e90e5;stroke:#1e90e5;" x="69.934146" xlink:href="#m8c7a4c6566" y="83.522154"/>
     <use style="fill:#1e90e5;stroke:#1e90e5;" x="70.651538" xlink:href="#m8c7a4c6566" y="81.924444"/>
     <use style="fill:#1e90e5;stroke:#1e90e5;" x="71.36893" xlink:href="#m8c7a4c6566" y="77.944873"/>
     <use style="fill:#1e90e5;stroke:#1e90e5;" x="72.086322" xlink:href="#m8c7a4c6566" y="74.530673"/>
     <use style="fill:#1e90e5;stroke:#1e90e5;" x="72.803714" xlink:href="#m8c7a4c6566" y="74.074572"/>
     <use style="fill:#1e90e5;stroke:#1e90e5;" x="73.521106" xlink:href="#m8c7a4c6566" y="74.376589"/>
     <use style="fill:#1e90e5;stroke:#1e90e5;" x="74.238498" xlink:href="#m8c7a4c6566" y="73.07676"/>
     <use style="fill:#1e90e5;stroke:#1e90e5;" x="74.95589" xlink:href="#m8c7a4c6566" y="72.286325"/>
     <use style="fill:#1e90e5;stroke:#1e90e5;" x="75.673282" xlink:href="#m8c7a4c6566" y="71.428891"/>
     <use style="fill:#1e90e5;stroke:#1e90e5;" x="76.390674" xlink:href="#m8c7a4c6566" y="69.092137"/>
     <use style="fill:#1e90e5;stroke:#1e90e5;" x="77.108066" xlink:href="#m8c7a4c6566" y="67.652108"/>
     <use style="fill:#1e90e5;stroke:#1e90e5;" x="77.825458" xlink:href="#m8c7a4c6566" y="66.83701"/>
     <use style="fill:#1e90e5;stroke:#1e90e5;" x="78.54285" xlink:href="#m8c7a4c6566" y="66.91593"/>
     <use style="fill:#1e90e5;stroke:#1e90e5;" x="79.260242" xlink:href="#m8c7a4c6566" y="62.403524"/>
     <use style="fill:#1e90e5;stroke:#1e90e5;" x="79.977634" xlink:href="#m8c7a4c6566" y="62.727116"/>
     <use style="fill:#1e90e5;stroke:#1e90e5;" x="80.695026" xlink:href="#m8c7a4c6566" y="62.564164"/>
     <use style="fill:#1e90e5;stroke:#1e90e5;" x="81.412418" xlink:href="#m8c7a4c6566" y="60.409852"/>
     <use style="fill:#1e90e5;stroke:#1e90e5;" x="82.12981" xlink:href="#m8c7a4c6566" y="59.718036"/>
     <use style="fill:#1e90e5;stroke:#1e90e5;" x="82.847202" xlink:href="#m8c7a4c6566" y="57.900606"/>
     <use style="fill:#1e90e5;stroke:#1e90e5;" x="83.564594" xlink:href="#m8c7a4c6566" y="56.088701"/>
     <use style="fill:#1e90e5;stroke:#1e90e5;" x="84.281986" xlink:href="#m8c7a4c6566" y="55.295188"/>
     <use style="fill:#1e90e5;stroke:#1e90e5;" x="84.999378" xlink:href="#m8c7a4c6566" y="53.958145"/>
     <use style="fill:#1e90e5;stroke:#1e90e5;" x="85.71677" xlink:href="#m8c7a4c6566" y="53.416413"/>
     <use style="fill:#1e90e5;stroke:#1e90e5;" x="86.434162" xlink:href="#m8c7a4c6566" y="52.537709"/>
     <use style="fill:#1e90e5;stroke:#1e90e5;" x="87.151554" xlink:href="#m8c7a4c6566" y="49.612746"/>
     <use style="fill:#1e90e5;stroke:#1e90e5;" x="87.868946" xlink:href="#m8c7a4c6566" y="49.274157"/>
     <use style="fill:#1e90e5;stroke:#1e90e5;" x="88.586338" xlink:href="#m8c7a4c6566" y="48.208427"/>
     <use style="fill:#1e90e5;stroke:#1e90e5;" x="89.30373" xlink:href="#m8c7a4c6566" y="47.192704"/>
     <use style="fill:#1e90e5;stroke:#1e90e5;" x="90.021121" xlink:href="#m8c7a4c6566" y="45.797299"/>
     <use style="fill:#1e90e5;stroke:#1e90e5;" x="90.738513" xlink:href="#m8c7a4c6566" y="44.467501"/>
     <use style="fill:#1e90e5;stroke:#1e90e5;" x="91.455905" xlink:href="#m8c7a4c6566" y="43.903529"/>
     <use style="fill:#1e90e5;stroke:#1e90e5;" x="92.173297" xlink:href="#m8c7a4c6566" y="42.665777"/>
     <use style="fill:#1e90e5;stroke:#1e90e5;" x="92.890689" xlink:href="#m8c7a4c6566" y="40.388958"/>
     <use style="fill:#1e90e5;stroke:#1e90e5;" x="93.608081" xlink:href="#m8c7a4c6566" y="40.358555"/>
     <use style="fill:#1e90e5;stroke:#1e90e5;" x="94.325473" xlink:href="#m8c7a4c6566" y="38.610635"/>
     <use style="fill:#1e90e5;stroke:#1e90e5;" x="95.042865" xlink:href="#m8c7a4c6566" y="36.793554"/>
     <use style="fill:#1e90e5;stroke:#1e90e5;" x="95.760257" xlink:href="#m8c7a4c6566" y="36.644938"/>
     <use style="fill:#1e90e5;stroke:#1e90e5;" x="96.477649" xlink:href="#m8c7a4c6566" y="35.447359"/>
     <use style="fill:#1e90e5;stroke:#1e90e5;" x="97.195041" xlink:href="#m8c7a4c6566" y="34.16497"/>
     <use style="fill:#1e90e5;stroke:#1e90e5;" x="97.912433" xlink:href="#m8c7a4c6566" y="32.076779"/>
     <use style="fill:#1e90e5;stroke:#1e90e5;" x="98.629825" xlink:href="#m8c7a4c6566" y="31.86685"/>
     <use style="fill:#1e90e5;stroke:#1e90e5;" x="99.347217" xlink:href="#m8c7a4c6566" y="30.37076"/>
     <use style="fill:#1e90e5;stroke:#1e90e5;" x="100.064609" xlink:href="#m8c7a4c6566" y="29.58481"/>
     <use style="fill:#1e90e5;stroke:#1e90e5;" x="100.782001" xlink:href="#m8c7a4c6566" y="26.98233"/>
     <use style="fill:#1e90e5;stroke:#1e90e5;" x="101.499393" xlink:href="#m8c7a4c6566" y="26.783723"/>
     <use style="fill:#1e90e5;stroke:#1e90e5;" x="102.216785" xlink:href="#m8c7a4c6566" y="25.707876"/>
     <use style="fill:#1e90e5;stroke:#1e90e5;" x="102.934177" xlink:href="#m8c7a4c6566" y="23.262684"/>
     <use style="fill:#1e90e5;stroke:#1e90e5;" x="103.651569" xlink:href="#m8c7a4c6566" y="23.045033"/>
     <use style="fill:#1e90e5;stroke:#1e90e5;" x="104.368961" xlink:href="#m8c7a4c6566" y="23.351943"/>
     <use style="fill:#1e90e5;stroke:#1e90e5;" x="105.086353" xlink:href="#m8c7a4c6566" y="22.41455"/>
     <use style="fill:#1e90e5;stroke:#1e90e5;" x="105.803745" xlink:href="#m8c7a4c6566" y="22.32"/>
     <use style="fill:#1e90e5;stroke:#1e90e5;" x="106.521137" xlink:href="#m8c7a4c6566" y="24.662608"/>
     <use style="fill:#1e90e5;stroke:#1e90e5;" x="107.238529" xlink:href="#m8c7a4c6566" y="25.888341"/>
     <use style="fill:#1e90e5;stroke:#1e90e5;" x="107.955921" xlink:href="#m8c7a4c6566" y="25.85033"/>
     <use style="fill:#1e90e5;stroke:#1e90e5;" x="108.673313" xlink:href="#m8c7a4c6566" y="28.28975"/>
     <use style="fill:#1e90e5;stroke:#1e90e5;" x="109.390705" xlink:href="#m8c7a4c6566" y="29.564307"/>
     <use style="fill:#1e90e5;stroke:#1e90e5;" x="110.108097" xlink:href="#m8c7a4c6566" y="30.682973"/>
     <use style="fill:#1e90e5;stroke:#1e90e5;" x="110.825489" xlink:href="#m8c7a4c6566" y="31.26965"/>
     <use style="fill:#1e90e5;stroke:#1e90e5;" x="111.542881" xlink:href="#m8c7a4c6566" y="33.193121"/>
     <use style="fill:#1e90e5;stroke:#1e90e5;" x="112.260273" xlink:href="#m8c7a4c6566" y="34.301976"/>
     <use style="fill:#1e90e5;stroke:#1e90e5;" x="112.977665" xlink:href="#m8c7a4c6566" y="35.873443"/>
     <use style="fill:#1e90e5;stroke:#1e90e5;" x="113.695057" xlink:href="#m8c7a4c6566" y="36.121332"/>
     <use style="fill:#1e90e5;stroke:#1e90e5;" x="114.412448" xlink:href="#m8c7a4c6566" y="38.321635"/>
     <use style="fill:#1e90e5;stroke:#1e90e5;" x="115.12984" xlink:href="#m8c7a4c6566" y="39.609645"/>
     <use style="fill:#1e90e5;stroke:#1e90e5;" x="115.847232" xlink:href="#m8c7a4c6566" y="39.328963"/>
     <use style="fill:#1e90e5;stroke:#1e90e5;" x="116.564624" xlink:href="#m8c7a4c6566" y="41.600782"/>
     <use style="fill:#1e90e5;stroke:#1e90e5;" x="117.282016" xlink:href="#m8c7a4c6566" y="43.111811"/>
     <use style="fill:#1e90e5;stroke:#1e90e5;" x="117.999408" xlink:href="#m8c7a4c6566" y="44.337327"/>
     <use style="fill:#1e90e5;stroke:#1e90e5;" x="118.7168" xlink:href="#m8c7a4c6566" y="44.588155"/>
     <use style="fill:#1e90e5;stroke:#1e90e5;" x="119.434192" xlink:href="#m8c7a4c6566" y="46.690496"/>
     <use style="fill:#1e90e5;stroke:#1e90e5;" x="120.151584" xlink:href="#m8c7a4c6566" y="46.624307"/>
     <use style="fill:#1e90e5;stroke:#1e90e5;" x="120.868976" xlink:href="#m8c7a4c6566" y="48.284587"/>
     <use style="fill:#1e90e5;stroke:#1e90e5;" x="121.586368" xlink:href="#m8c7a4c6566" y="48.81652"/>
     <use style="fill:#1e90e5;stroke:#1e90e5;" x="122.30376" xlink:href="#m8c7a4c6566" y="51.335608"/>
     <use style="fill:#1e90e5;stroke:#1e90e5;" x="123.021152" xlink:href="#m8c7a4c6566" y="53.368425"/>
     <use style="fill:#1e90e5;stroke:#1e90e5;" x="123.738544" xlink:href="#m8c7a4c6566" y="52.55998"/>
     <use style="fill:#1e90e5;stroke:#1e90e5;" x="124.455936" xlink:href="#m8c7a4c6566" y="56.909252"/>
     <use style="fill:#1e90e5;stroke:#1e90e5;" x="125.173328" xlink:href="#m8c7a4c6566" y="55.937497"/>
     <use style="fill:#1e90e5;stroke:#1e90e5;" x="125.89072" xlink:href="#m8c7a4c6566" y="56.682421"/>
     <use style="fill:#1e90e5;stroke:#1e90e5;" x="126.608112" xlink:href="#m8c7a4c6566" y="57.514291"/>
     <use style="fill:#1e90e5;stroke:#1e90e5;" x="127.325504" xlink:href="#m8c7a4c6566" y="58.044418"/>
     <use style="fill:#1e90e5;stroke:#1e90e5;" x="128.042896" xlink:href="#m8c7a4c6566" y="60.276876"/>
     <use style="fill:#1e90e5;stroke:#1e90e5;" x="128.760288" xlink:href="#m8c7a4c6566" y="62.350479"/>
     <use style="fill:#1e90e5;stroke:#1e90e5;" x="129.47768" xlink:href="#m8c7a4c6566" y="61.782822"/>
     <use style="fill:#1e90e5;stroke:#1e90e5;" x="130.195072" xlink:href="#m8c7a4c6566" y="64.309916"/>
     <use style="fill:#1e90e5;stroke:#1e90e5;" x="130.912464" xlink:href="#m8c7a4c6566" y="66.603497"/>
     <use style="fill:#1e90e5;stroke:#1e90e5;" x="131.629856" xlink:href="#m8c7a4c6566" y="66.680801"/>
     <use style="fill:#1e90e5;stroke:#1e90e5;" x="132.347248" xlink:href="#m8c7a4c6566" y="69.784709"/>
     <use style="fill:#1e90e5;stroke:#1e90e5;" x="133.06464" xlink:href="#m8c7a4c6566" y="69.582472"/>
     <use style="fill:#1e90e5;stroke:#1e90e5;" x="133.782032" xlink:href="#m8c7a4c6566" y="69.784709"/>
     <use style="fill:#1e90e5;stroke:#1e90e5;" x="134.499424" xlink:href="#m8c7a4c6566" y="72.286325"/>
     <use style="fill:#1e90e5;stroke:#1e90e5;" x="135.216816" xlink:href="#m8c7a4c6566" y="72.159788"/>
     <use style="fill:#1e90e5;stroke:#1e90e5;" x="135.934208" xlink:href="#m8c7a4c6566" y="75.168868"/>
     <use style="fill:#1e90e5;stroke:#1e90e5;" x="136.6516" xlink:href="#m8c7a4c6566" y="73.636131"/>
     <use style="fill:#1e90e5;stroke:#1e90e5;" x="137.368992" xlink:href="#m8c7a4c6566" y="74.074572"/>
     <use style="fill:#1e90e5;stroke:#1e90e5;" x="138.086384" xlink:href="#m8c7a4c6566" y="78.156561"/>
     <use style="fill:#1e90e5;stroke:#1e90e5;" x="138.803775" xlink:href="#m8c7a4c6566" y="79.045249"/>
     <use style="fill:#1e90e5;stroke:#1e90e5;" x="139.521167" xlink:href="#m8c7a4c6566" y="77.944873"/>
     <use style="fill:#1e90e5;stroke:#1e90e5;" x="140.238559" xlink:href="#m8c7a4c6566" y="81.063905"/>
     <use style="fill:#1e90e5;stroke:#1e90e5;" x="140.955951" xlink:href="#m8c7a4c6566" y="82.855788"/>
     <use style="fill:#1e90e5;stroke:#1e90e5;" x="141.673343" xlink:href="#m8c7a4c6566" y="84.985474"/>
     <use style="fill:#1e90e5;stroke:#1e90e5;" x="142.390735" xlink:href="#m8c7a4c6566" y="85.794744"/>
     <use style="fill:#1e90e5;stroke:#1e90e5;" x="143.108127" xlink:href="#m8c7a4c6566" y="84.601539"/>
     <use style="fill:#1e90e5;stroke:#1e90e5;" x="143.825519" xlink:href="#m8c7a4c6566" y="84.985474"/>
     <use style="fill:#1e90e5;stroke:#1e90e5;" x="144.542911" xlink:href="#m8c7a4c6566" y="88.114035"/>
     <use style="fill:#1e90e5;stroke:#1e90e5;" x="145.260303" xlink:href="#m8c7a4c6566" y="89.774315"/>
     <use style="fill:#1e90e5;stroke:#1e90e5;" x="145.977695" xlink:href="#m8c7a4c6566" y="89.19342"/>
     <use style="fill:#1e90e5;stroke:#1e90e5;" x="146.695087" xlink:href="#m8c7a4c6566" y="101.082625"/>
     <use style="fill:#1e90e5;stroke:#1e90e5;" x="147.412479" xlink:href="#m8c7a4c6566" y="95.963906"/>
     <use style="fill:#1e90e5;stroke:#1e90e5;" x="148.129871" xlink:href="#m8c7a4c6566" y="89.19342"/>
     <use style="fill:#1e90e5;stroke:#1e90e5;" x="148.847263" xlink:href="#m8c7a4c6566" y="99.570386"/>
     <use style="fill:#1e90e5;stroke:#1e90e5;" x="149.564655" xlink:href="#m8c7a4c6566" y="99.570386"/>
     <use style="fill:#1e90e5;stroke:#1e90e5;" x="150.282047" xlink:href="#m8c7a4c6566" y="98.236496"/>
     <use style="fill:#1e90e5;stroke:#1e90e5;" x="150.999439" xlink:href="#m8c7a4c6566" y="99.570386"/>
     <use style="fill:#1e90e5;stroke:#1e90e5;" x="151.716831" xlink:href="#m8c7a4c6566" y="99.570386"/>
     <use style="fill:#1e90e5;stroke:#1e90e5;" x="152.434223" xlink:href="#m8c7a4c6566" y="101.082625"/>
     <use style="fill:#1e90e5;stroke:#1e90e5;" x="153.151615" xlink:href="#m8c7a4c6566" y="110.678248"/>
     <use style="fill:#1e90e5;stroke:#1e90e5;" x="153.869007" xlink:href="#m8c7a4c6566" y="101.082625"/>
     <use style="fill:#1e90e5;stroke:#1e90e5;" x="154.586399" xlink:href="#m8c7a4c6566" y="104.893163"/>
     <use style="fill:#1e90e5;stroke:#1e90e5;" x="155.303791" xlink:href="#m8c7a4c6566" y="101.082625"/>
     <use style="fill:#1e90e5;stroke:#1e90e5;" x="156.021183" xlink:href="#m8c7a4c6566" y="110.678248"/>
     <use style="fill:#1e90e5;stroke:#1e90e5;" x="156.738575" xlink:href="#m8c7a4c6566" y="123.12"/>
     <use style="fill:#1e90e5;stroke:#1e90e5;" x="157.455967" xlink:href="#m8c7a4c6566" y="104.893163"/>
     <use style="fill:#1e90e5;stroke:#1e90e5;" x="158.173359" xlink:href="#m8c7a4c6566" y="123.12"/>
     <use style="fill:#1e90e5;stroke:#1e90e5;" x="158.890751" xlink:href="#m8c7a4c6566" y="115.270129"/>
     <use style="fill:#1e90e5;stroke:#1e90e5;" x="159.173859" xlink:href="#m8c7a4c6566" y="10369"/>
     <use style="fill:#1e90e5;stroke:#1e90e5;" x="160.04235" xlink:href="#m8c7a4c6566" y="10369"/>
     <use style="fill:#1e90e5;stroke:#1e90e5;" x="160.325535" xlink:href="#m8c7a4c6566" y="110.678248"/>
     <use style="fill:#1e90e5;stroke:#1e90e5;" x="161.042927" xlink:href="#m8c7a4c6566" y="110.678248"/>
     <use style="fill:#1e90e5;stroke:#1e90e5;" x="161.760319" xlink:href="#m8c7a4c6566" y="110.678248"/>
     <use style="fill:#1e90e5;stroke:#1e90e5;" x="162.477711" xlink:href="#m8c7a4c6566" y="123.12"/>
     <use style="fill:#1e90e5;stroke:#1e90e5;" x="163.195103" xlink:href="#m8c7a4c6566" y="123.12"/>
     <use style="fill:#1e90e5;stroke:#1e90e5;" x="163.912494" xlink:href="#m8c7a4c6566" y="123.12"/>
     <use style="fill:#1e90e5;stroke:#1e90e5;" x="164.629886" xlink:href="#m8c7a4c6566" y="123.12"/>
     <use style="fill:#1e90e5;stroke:#1e90e5;" x="164.912863" xlink:href="#m8c7a4c6566" y="10369"/>
     <use style="fill:#1e90e5;stroke:#1e90e5;" x="167.216478" xlink:href="#m8c7a4c6566" y="10369"/>
     <use style="fill:#1e90e5;stroke:#1e90e5;" x="167.499454" xlink:href="#m8c7a4c6566" y="123.12"/>
     <use style="fill:#1e90e5;stroke:#1e90e5;" x="167.782431" xlink:href="#m8c7a4c6566" y="10369"/>
     <use style="fill:#1e90e5;stroke:#1e90e5;" x="172.238221" xlink:href="#m8c7a4c6566" y="10369"/>
     <use style="fill:#1e90e5;stroke:#1e90e5;" x="172.521198" xlink:href="#m8c7a4c6566" y="123.12"/>
     <use style="fill:#1e90e5;stroke:#1e90e5;" x="172.804175" xlink:href="#m8c7a4c6566" y="10369"/>
     <use style="fill:#1e90e5;stroke:#1e90e5;" x="175.825181" xlink:href="#m8c7a4c6566" y="10369"/>
     <use style="fill:#1e90e5;stroke:#1e90e5;" x="176.108158" xlink:href="#m8c7a4c6566" y="123.12"/>
    </g>
   </g>
   <g id="patch_3">
    <path d="M 25.455844 128.16 
L 25.455844 17.28 
" style="fill:none;stroke:#606054;stroke-linecap:square;stroke-linejoin:miter;"/>
   </g>
   <g id="patch_4">
    <path d="M 183.282078 128.16 
L 183.282078 17.28 
" style="fill:none;stroke:#606054;stroke-linecap:square;stroke-linejoin:miter;"/>
   </g>
   <g id="patch_5">
    <path d="M 25.455844 128.16 
L 183.282078 128.16 
" style="fill:none;stroke:#606054;stroke-linecap:square;stroke-linejoin:miter;"/>
   </g>
   <g id="patch_6">
    <path d="M 25.455844 17.28 
L 183.282078 17.28 
" style="fill:none;stroke:#606054;stroke-linecap:square;stroke-linejoin:miter;"/>
   </g>
  </g>
 </g>
 <defs>
  <clipPath id="p1070f93133">
   <rect height="110.88" width="157.826234" x="25.455844" y="17.28"/>
  </clipPath>
 </defs>
</svg>
