<?xml version="1.0" encoding="utf-8" standalone="no"?>
<!DOCTYPE svg PUBLIC "-//W3C//DTD SVG 1.1//EN"
  "http://www.w3.org/Graphics/SVG/1.1/DTD/svg11.dtd">
<!-- Created with matplotlib (http://matplotlib.org/) -->
<svg height="216pt" version="1.1" viewBox="0 0 305.470129 216" width="305.470129pt" xmlns="http://www.w3.org/2000/svg" xmlns:xlink="http://www.w3.org/1999/xlink">
 <defs>
  <style type="text/css">
*{stroke-linecap:butt;stroke-linejoin:round;}
  </style>
 </defs>
 <g id="figure_1">
  <g id="patch_1">
   <path d="M 0 216 
L 305.470129 216 
L 305.470129 0 
L 0 0 
z
" style="fill:#272822;"/>
  </g>
  <g id="axes_1">
   <g id="patch_2">
    <path d="M 38.183766 192.24 
L 274.923117 192.24 
L 274.923117 25.92 
L 38.183766 25.92 
z
" style="fill:#272822;"/>
   </g>
   <g id="matplotlib.axis_1">
    <g id="xtick_1">
     <g id="line2d_1">
      <path clip-path="url(#p33b83e53ce)" d="M 48.406602 192.24 
L 48.406602 25.92 
" style="fill:none;stroke:#606054;stroke-dasharray:0.8,1.32;stroke-dashoffset:0;stroke-width:0.8;"/>
     </g>
     <g id="line2d_2">
      <defs>
       <path d="M 0 0 
L 0 3.5 
" id="m7938a010a7" style="stroke:#917df0;stroke-width:0.8;"/>
      </defs>
      <g>
       <use style="fill:#917df0;stroke:#917df0;stroke-width:0.8;" x="48.406602" xlink:href="#m7938a010a7" y="192.24"/>
      </g>
     </g>
     <g id="text_1">
      <!-- −100 -->
      <defs>
       <path d="M 4.296875 35.5 
L 55.90625 35.5 
L 55.90625 27.203125 
L 4.296875 27.203125 
z
" id="DejaVuSansMono-2212"/>
       <path d="M 13.1875 8.296875 
L 28.515625 8.296875 
L 28.515625 64.015625 
L 12.015625 60.296875 
L 12.015625 69.28125 
L 28.421875 72.90625 
L 38.28125 72.90625 
L 38.28125 8.296875 
L 53.421875 8.296875 
L 53.421875 0 
L 13.1875 0 
z
" id="DejaVuSansMono-31"/>
       <path d="M 23.578125 36.625 
Q 23.578125 39.3125 25.453125 41.265625 
Q 27.34375 43.21875 29.984375 43.21875 
Q 32.71875 43.21875 34.671875 41.265625 
Q 36.625 39.3125 36.625 36.625 
Q 36.625 33.890625 34.6875 31.984375 
Q 32.765625 30.078125 29.984375 30.078125 
Q 27.25 30.078125 25.40625 31.9375 
Q 23.578125 33.796875 23.578125 36.625 
z
M 30.078125 66.40625 
Q 23.1875 66.40625 19.796875 58.984375 
Q 16.40625 51.5625 16.40625 36.375 
Q 16.40625 21.234375 19.796875 13.8125 
Q 23.1875 6.390625 30.078125 6.390625 
Q 37.015625 6.390625 40.40625 13.8125 
Q 43.796875 21.234375 43.796875 36.375 
Q 43.796875 51.5625 40.40625 58.984375 
Q 37.015625 66.40625 30.078125 66.40625 
z
M 30.078125 74.21875 
Q 41.75 74.21875 47.734375 64.640625 
Q 53.71875 55.078125 53.71875 36.375 
Q 53.71875 17.71875 47.734375 8.140625 
Q 41.75 -1.421875 30.078125 -1.421875 
Q 18.40625 -1.421875 12.453125 8.140625 
Q 6.5 17.71875 6.5 36.375 
Q 6.5 55.078125 12.453125 64.640625 
Q 18.40625 74.21875 30.078125 74.21875 
z
" id="DejaVuSansMono-30"/>
      </defs>
      <g style="fill:#917df0;" transform="translate(38.774102 205.36125)scale(0.08 -0.08)">
       <use xlink:href="#DejaVuSansMono-2212"/>
       <use x="60.205078" xlink:href="#DejaVuSansMono-31"/>
       <use x="120.410156" xlink:href="#DejaVuSansMono-30"/>
       <use x="180.615234" xlink:href="#DejaVuSansMono-30"/>
      </g>
     </g>
    </g>
    <g id="xtick_2">
     <g id="line2d_3">
      <path clip-path="url(#p33b83e53ce)" d="M 75.443312 192.24 
L 75.443312 25.92 
" style="fill:none;stroke:#606054;stroke-dasharray:0.8,1.32;stroke-dashoffset:0;stroke-width:0.8;"/>
     </g>
     <g id="line2d_4">
      <g>
       <use style="fill:#917df0;stroke:#917df0;stroke-width:0.8;" x="75.443312" xlink:href="#m7938a010a7" y="192.24"/>
      </g>
     </g>
     <g id="text_2">
      <!-- −75 -->
      <defs>
       <path d="M 6.78125 72.90625 
L 52.6875 72.90625 
L 52.6875 68.703125 
L 26.609375 0 
L 16.3125 0 
L 41.703125 64.59375 
L 6.78125 64.59375 
z
" id="DejaVuSansMono-37"/>
       <path d="M 10.109375 72.90625 
L 47.015625 72.90625 
L 47.015625 64.59375 
L 19.09375 64.59375 
L 19.09375 46.6875 
Q 21.1875 47.46875 23.3125 47.828125 
Q 25.4375 48.1875 27.59375 48.1875 
Q 38.921875 48.1875 45.5625 41.5 
Q 52.203125 34.8125 52.203125 23.390625 
Q 52.203125 11.859375 45.234375 5.21875 
Q 38.28125 -1.421875 26.21875 -1.421875 
Q 20.40625 -1.421875 15.59375 -0.640625 
Q 10.796875 0.140625 6.984375 1.703125 
L 6.984375 11.71875 
Q 11.46875 9.28125 16.015625 8.078125 
Q 20.5625 6.890625 25.296875 6.890625 
Q 33.453125 6.890625 37.859375 11.1875 
Q 42.28125 15.484375 42.28125 23.390625 
Q 42.28125 31.203125 37.71875 35.546875 
Q 33.15625 39.890625 25 39.890625 
Q 21.046875 39.890625 17.28125 38.984375 
Q 13.53125 38.09375 10.109375 36.28125 
z
" id="DejaVuSansMono-35"/>
      </defs>
      <g style="fill:#917df0;" transform="translate(68.218937 205.36125)scale(0.08 -0.08)">
       <use xlink:href="#DejaVuSansMono-2212"/>
       <use x="60.205078" xlink:href="#DejaVuSansMono-37"/>
       <use x="120.410156" xlink:href="#DejaVuSansMono-35"/>
      </g>
     </g>
    </g>
    <g id="xtick_3">
     <g id="line2d_5">
      <path clip-path="url(#p33b83e53ce)" d="M 102.480022 192.24 
L 102.480022 25.92 
" style="fill:none;stroke:#606054;stroke-dasharray:0.8,1.32;stroke-dashoffset:0;stroke-width:0.8;"/>
     </g>
     <g id="line2d_6">
      <g>
       <use style="fill:#917df0;stroke:#917df0;stroke-width:0.8;" x="102.480022" xlink:href="#m7938a010a7" y="192.24"/>
      </g>
     </g>
     <g id="text_3">
      <!-- −50 -->
      <g style="fill:#917df0;" transform="translate(95.255647 205.36125)scale(0.08 -0.08)">
       <use xlink:href="#DejaVuSansMono-2212"/>
       <use x="60.205078" xlink:href="#DejaVuSansMono-35"/>
       <use x="120.410156" xlink:href="#DejaVuSansMono-30"/>
      </g>
     </g>
    </g>
    <g id="xtick_4">
     <g id="line2d_7">
      <path clip-path="url(#p33b83e53ce)" d="M 129.516731 192.24 
L 129.516731 25.92 
" style="fill:none;stroke:#606054;stroke-dasharray:0.8,1.32;stroke-dashoffset:0;stroke-width:0.8;"/>
     </g>
     <g id="line2d_8">
      <g>
       <use style="fill:#917df0;stroke:#917df0;stroke-width:0.8;" x="129.516731" xlink:href="#m7938a010a7" y="192.24"/>
      </g>
     </g>
     <g id="text_4">
      <!-- −25 -->
      <defs>
       <path d="M 18.21875 8.296875 
L 51.703125 8.296875 
L 51.703125 0 
L 7.421875 0 
L 7.421875 8.296875 
Q 16.546875 17.921875 23.375 25.296875 
Q 30.21875 32.671875 32.8125 35.6875 
Q 37.703125 41.65625 39.40625 45.34375 
Q 41.109375 49.03125 41.109375 52.875 
Q 41.109375 58.984375 37.515625 62.453125 
Q 33.9375 65.921875 27.6875 65.921875 
Q 23.25 65.921875 18.359375 64.3125 
Q 13.484375 62.703125 8.015625 59.421875 
L 8.015625 69.390625 
Q 13.03125 71.78125 17.890625 73 
Q 22.75 74.21875 27.484375 74.21875 
Q 38.1875 74.21875 44.703125 68.53125 
Q 51.21875 62.84375 51.21875 53.609375 
Q 51.21875 48.921875 49.046875 44.234375 
Q 46.875 39.546875 42 33.890625 
Q 39.265625 30.71875 34.0625 25.09375 
Q 28.859375 19.484375 18.21875 8.296875 
z
" id="DejaVuSansMono-32"/>
      </defs>
      <g style="fill:#917df0;" transform="translate(122.292356 205.36125)scale(0.08 -0.08)">
       <use xlink:href="#DejaVuSansMono-2212"/>
       <use x="60.205078" xlink:href="#DejaVuSansMono-32"/>
       <use x="120.410156" xlink:href="#DejaVuSansMono-35"/>
      </g>
     </g>
    </g>
    <g id="xtick_5">
     <g id="line2d_9">
      <path clip-path="url(#p33b83e53ce)" d="M 156.553441 192.24 
L 156.553441 25.92 
" style="fill:none;stroke:#606054;stroke-dasharray:0.8,1.32;stroke-dashoffset:0;stroke-width:0.8;"/>
     </g>
     <g id="line2d_10">
      <g>
       <use style="fill:#917df0;stroke:#917df0;stroke-width:0.8;" x="156.553441" xlink:href="#m7938a010a7" y="192.24"/>
      </g>
     </g>
     <g id="text_5">
      <!-- 0 -->
      <g style="fill:#917df0;" transform="translate(154.145316 205.36125)scale(0.08 -0.08)">
       <use xlink:href="#DejaVuSansMono-30"/>
      </g>
     </g>
    </g>
    <g id="xtick_6">
     <g id="line2d_11">
      <path clip-path="url(#p33b83e53ce)" d="M 183.590151 192.24 
L 183.590151 25.92 
" style="fill:none;stroke:#606054;stroke-dasharray:0.8,1.32;stroke-dashoffset:0;stroke-width:0.8;"/>
     </g>
     <g id="line2d_12">
      <g>
       <use style="fill:#917df0;stroke:#917df0;stroke-width:0.8;" x="183.590151" xlink:href="#m7938a010a7" y="192.24"/>
      </g>
     </g>
     <g id="text_6">
      <!-- 25 -->
      <g style="fill:#917df0;" transform="translate(178.773901 205.36125)scale(0.08 -0.08)">
       <use xlink:href="#DejaVuSansMono-32"/>
       <use x="60.205078" xlink:href="#DejaVuSansMono-35"/>
      </g>
     </g>
    </g>
    <g id="xtick_7">
     <g id="line2d_13">
      <path clip-path="url(#p33b83e53ce)" d="M 210.626861 192.24 
L 210.626861 25.92 
" style="fill:none;stroke:#606054;stroke-dasharray:0.8,1.32;stroke-dashoffset:0;stroke-width:0.8;"/>
     </g>
     <g id="line2d_14">
      <g>
       <use style="fill:#917df0;stroke:#917df0;stroke-width:0.8;" x="210.626861" xlink:href="#m7938a010a7" y="192.24"/>
      </g>
     </g>
     <g id="text_7">
      <!-- 50 -->
      <g style="fill:#917df0;" transform="translate(205.810611 205.36125)scale(0.08 -0.08)">
       <use xlink:href="#DejaVuSansMono-35"/>
       <use x="60.205078" xlink:href="#DejaVuSansMono-30"/>
      </g>
     </g>
    </g>
    <g id="xtick_8">
     <g id="line2d_15">
      <path clip-path="url(#p33b83e53ce)" d="M 237.663571 192.24 
L 237.663571 25.92 
" style="fill:none;stroke:#606054;stroke-dasharray:0.8,1.32;stroke-dashoffset:0;stroke-width:0.8;"/>
     </g>
     <g id="line2d_16">
      <g>
       <use style="fill:#917df0;stroke:#917df0;stroke-width:0.8;" x="237.663571" xlink:href="#m7938a010a7" y="192.24"/>
      </g>
     </g>
     <g id="text_8">
      <!-- 75 -->
      <g style="fill:#917df0;" transform="translate(232.847321 205.36125)scale(0.08 -0.08)">
       <use xlink:href="#DejaVuSansMono-37"/>
       <use x="60.205078" xlink:href="#DejaVuSansMono-35"/>
      </g>
     </g>
    </g>
    <g id="xtick_9">
     <g id="line2d_17">
      <path clip-path="url(#p33b83e53ce)" d="M 264.700281 192.24 
L 264.700281 25.92 
" style="fill:none;stroke:#606054;stroke-dasharray:0.8,1.32;stroke-dashoffset:0;stroke-width:0.8;"/>
     </g>
     <g id="line2d_18">
      <g>
       <use style="fill:#917df0;stroke:#917df0;stroke-width:0.8;" x="264.700281" xlink:href="#m7938a010a7" y="192.24"/>
      </g>
     </g>
     <g id="text_9">
      <!-- 100 -->
      <g style="fill:#917df0;" transform="translate(257.475906 205.36125)scale(0.08 -0.08)">
       <use xlink:href="#DejaVuSansMono-31"/>
       <use x="60.205078" xlink:href="#DejaVuSansMono-30"/>
       <use x="120.410156" xlink:href="#DejaVuSansMono-30"/>
      </g>
     </g>
    </g>
    <g id="text_10">
     <!-- τ -->
     <defs>
      <path d="M 36.234375 9.96875 
Q 37.984375 7.625 43.265625 7.625 
L 47.609375 7.625 
L 47.609375 0 
L 42.1875 0 
Q 33.40625 0 29.390625 4.6875 
Q 25.390625 9.46875 25.390625 19.828125 
L 25.390625 45.703125 
L 7.8125 45.703125 
L 7.8125 54.59375 
L 52.4375 54.59375 
L 52.4375 45.703125 
L 34.578125 45.703125 
L 34.578125 19.28125 
Q 34.578125 12.203125 36.234375 9.96875 
z
" id="DejaVuSansMono-3c4"/>
     </defs>
     <g style="fill:#e5dc5a;" transform="translate(154.145316 217.14625)scale(0.08 -0.08)">
      <use xlink:href="#DejaVuSansMono-3c4"/>
     </g>
    </g>
   </g>
   <g id="matplotlib.axis_2">
    <g id="ytick_1">
     <g id="line2d_19">
      <path clip-path="url(#p33b83e53ce)" d="M 38.183766 184.68 
L 274.923117 184.68 
" style="fill:none;stroke:#606054;stroke-dasharray:0.8,1.32;stroke-dashoffset:0;stroke-width:0.8;"/>
     </g>
     <g id="line2d_20">
      <defs>
       <path d="M 0 0 
L -3.5 0 
" id="m34210a453a" style="stroke:#917df0;stroke-width:0.8;"/>
      </defs>
      <g>
       <use style="fill:#917df0;stroke:#917df0;stroke-width:0.8;" x="38.183766" xlink:href="#m34210a453a" y="184.68"/>
      </g>
     </g>
     <g id="text_11">
      <!-- 0.0 -->
      <defs>
       <path d="M 23.875 14.890625 
L 36.1875 14.890625 
L 36.1875 0 
L 23.875 0 
z
" id="DejaVuSansMono-2e"/>
      </defs>
      <g style="fill:#917df0;" transform="translate(16.735016 187.740625)scale(0.08 -0.08)">
       <use xlink:href="#DejaVuSansMono-30"/>
       <use x="60.205078" xlink:href="#DejaVuSansMono-2e"/>
       <use x="120.410156" xlink:href="#DejaVuSansMono-30"/>
      </g>
     </g>
    </g>
    <g id="ytick_2">
     <g id="line2d_21">
      <path clip-path="url(#p33b83e53ce)" d="M 38.183766 158.649166 
L 274.923117 158.649166 
" style="fill:none;stroke:#606054;stroke-dasharray:0.8,1.32;stroke-dashoffset:0;stroke-width:0.8;"/>
     </g>
     <g id="line2d_22">
      <g>
       <use style="fill:#917df0;stroke:#917df0;stroke-width:0.8;" x="38.183766" xlink:href="#m34210a453a" y="158.649166"/>
      </g>
     </g>
     <g id="text_12">
      <!-- 0.2 -->
      <g style="fill:#917df0;" transform="translate(16.735016 161.709791)scale(0.08 -0.08)">
       <use xlink:href="#DejaVuSansMono-30"/>
       <use x="60.205078" xlink:href="#DejaVuSansMono-2e"/>
       <use x="120.410156" xlink:href="#DejaVuSansMono-32"/>
      </g>
     </g>
    </g>
    <g id="ytick_3">
     <g id="line2d_23">
      <path clip-path="url(#p33b83e53ce)" d="M 38.183766 132.618331 
L 274.923117 132.618331 
" style="fill:none;stroke:#606054;stroke-dasharray:0.8,1.32;stroke-dashoffset:0;stroke-width:0.8;"/>
     </g>
     <g id="line2d_24">
      <g>
       <use style="fill:#917df0;stroke:#917df0;stroke-width:0.8;" x="38.183766" xlink:href="#m34210a453a" y="132.618331"/>
      </g>
     </g>
     <g id="text_13">
      <!-- 0.4 -->
      <defs>
       <path d="M 35.890625 63.921875 
L 12.890625 25.390625 
L 35.890625 25.390625 
z
M 34.28125 72.90625 
L 45.703125 72.90625 
L 45.703125 25.390625 
L 55.421875 25.390625 
L 55.421875 17.390625 
L 45.703125 17.390625 
L 45.703125 0 
L 35.890625 0 
L 35.890625 17.390625 
L 4.984375 17.390625 
L 4.984375 26.703125 
z
" id="DejaVuSansMono-34"/>
      </defs>
      <g style="fill:#917df0;" transform="translate(16.735016 135.678956)scale(0.08 -0.08)">
       <use xlink:href="#DejaVuSansMono-30"/>
       <use x="60.205078" xlink:href="#DejaVuSansMono-2e"/>
       <use x="120.410156" xlink:href="#DejaVuSansMono-34"/>
      </g>
     </g>
    </g>
    <g id="ytick_4">
     <g id="line2d_25">
      <path clip-path="url(#p33b83e53ce)" d="M 38.183766 106.587497 
L 274.923117 106.587497 
" style="fill:none;stroke:#606054;stroke-dasharray:0.8,1.32;stroke-dashoffset:0;stroke-width:0.8;"/>
     </g>
     <g id="line2d_26">
      <g>
       <use style="fill:#917df0;stroke:#917df0;stroke-width:0.8;" x="38.183766" xlink:href="#m34210a453a" y="106.587497"/>
      </g>
     </g>
     <g id="text_14">
      <!-- 0.6 -->
      <defs>
       <path d="M 48.390625 71.296875 
L 48.390625 62.203125 
Q 45.3125 64.015625 41.84375 64.96875 
Q 38.375 65.921875 34.625 65.921875 
Q 25.25 65.921875 20.40625 58.859375 
Q 15.578125 51.8125 15.578125 38.09375 
Q 17.921875 42.96875 22.0625 45.578125 
Q 26.21875 48.1875 31.59375 48.1875 
Q 42.140625 48.1875 47.921875 41.71875 
Q 53.71875 35.25 53.71875 23.390625 
Q 53.71875 11.578125 47.75 5.078125 
Q 41.796875 -1.421875 31 -1.421875 
Q 18.3125 -1.421875 12.40625 7.6875 
Q 6.5 16.796875 6.5 36.375 
Q 6.5 54.828125 13.59375 64.515625 
Q 20.703125 74.21875 34.1875 74.21875 
Q 37.796875 74.21875 41.40625 73.453125 
Q 45.015625 72.703125 48.390625 71.296875 
z
M 30.8125 40.484375 
Q 24.515625 40.484375 20.890625 35.9375 
Q 17.28125 31.390625 17.28125 23.390625 
Q 17.28125 15.375 20.890625 10.828125 
Q 24.515625 6.296875 30.8125 6.296875 
Q 37.359375 6.296875 40.671875 10.609375 
Q 44 14.9375 44 23.390625 
Q 44 31.890625 40.671875 36.1875 
Q 37.359375 40.484375 30.8125 40.484375 
z
" id="DejaVuSansMono-36"/>
      </defs>
      <g style="fill:#917df0;" transform="translate(16.735016 109.648122)scale(0.08 -0.08)">
       <use xlink:href="#DejaVuSansMono-30"/>
       <use x="60.205078" xlink:href="#DejaVuSansMono-2e"/>
       <use x="120.410156" xlink:href="#DejaVuSansMono-36"/>
      </g>
     </g>
    </g>
    <g id="ytick_5">
     <g id="line2d_27">
      <path clip-path="url(#p33b83e53ce)" d="M 38.183766 80.556662 
L 274.923117 80.556662 
" style="fill:none;stroke:#606054;stroke-dasharray:0.8,1.32;stroke-dashoffset:0;stroke-width:0.8;"/>
     </g>
     <g id="line2d_28">
      <g>
       <use style="fill:#917df0;stroke:#917df0;stroke-width:0.8;" x="38.183766" xlink:href="#m34210a453a" y="80.556662"/>
      </g>
     </g>
     <g id="text_15">
      <!-- 0.8 -->
      <defs>
       <path d="M 30.078125 34.625 
Q 23.484375 34.625 19.890625 30.9375 
Q 16.3125 27.25 16.3125 20.515625 
Q 16.3125 13.765625 19.9375 10.03125 
Q 23.578125 6.296875 30.078125 6.296875 
Q 36.71875 6.296875 40.296875 9.984375 
Q 43.890625 13.671875 43.890625 20.515625 
Q 43.890625 27.203125 40.25 30.90625 
Q 36.625 34.625 30.078125 34.625 
z
M 21.484375 38.71875 
Q 15.1875 40.328125 11.640625 44.71875 
Q 8.109375 49.125 8.109375 55.328125 
Q 8.109375 64.015625 14.015625 69.109375 
Q 19.921875 74.21875 30.078125 74.21875 
Q 40.28125 74.21875 46.1875 69.109375 
Q 52.09375 64.015625 52.09375 55.328125 
Q 52.09375 49.125 48.546875 44.71875 
Q 45.015625 40.328125 38.71875 38.71875 
Q 46.046875 37.109375 49.921875 32.21875 
Q 53.8125 27.34375 53.8125 19.578125 
Q 53.8125 9.71875 47.515625 4.140625 
Q 41.21875 -1.421875 30.078125 -1.421875 
Q 18.953125 -1.421875 12.671875 4.125 
Q 6.390625 9.671875 6.390625 19.484375 
Q 6.390625 27.296875 10.265625 32.203125 
Q 14.15625 37.109375 21.484375 38.71875 
z
M 17.921875 54.390625 
Q 17.921875 48.53125 21.046875 45.453125 
Q 24.171875 42.390625 30.078125 42.390625 
Q 36.03125 42.390625 39.15625 45.453125 
Q 42.28125 48.53125 42.28125 54.390625 
Q 42.28125 60.359375 39.171875 63.484375 
Q 36.078125 66.609375 30.078125 66.609375 
Q 24.171875 66.609375 21.046875 63.453125 
Q 17.921875 60.296875 17.921875 54.390625 
z
" id="DejaVuSansMono-38"/>
      </defs>
      <g style="fill:#917df0;" transform="translate(16.735016 83.617287)scale(0.08 -0.08)">
       <use xlink:href="#DejaVuSansMono-30"/>
       <use x="60.205078" xlink:href="#DejaVuSansMono-2e"/>
       <use x="120.410156" xlink:href="#DejaVuSansMono-38"/>
      </g>
     </g>
    </g>
    <g id="ytick_6">
     <g id="line2d_29">
      <path clip-path="url(#p33b83e53ce)" d="M 38.183766 54.525828 
L 274.923117 54.525828 
" style="fill:none;stroke:#606054;stroke-dasharray:0.8,1.32;stroke-dashoffset:0;stroke-width:0.8;"/>
     </g>
     <g id="line2d_30">
      <g>
       <use style="fill:#917df0;stroke:#917df0;stroke-width:0.8;" x="38.183766" xlink:href="#m34210a453a" y="54.525828"/>
      </g>
     </g>
     <g id="text_16">
      <!-- 1.0 -->
      <g style="fill:#917df0;" transform="translate(16.735016 57.586453)scale(0.08 -0.08)">
       <use xlink:href="#DejaVuSansMono-31"/>
       <use x="60.205078" xlink:href="#DejaVuSansMono-2e"/>
       <use x="120.410156" xlink:href="#DejaVuSansMono-30"/>
      </g>
     </g>
    </g>
    <g id="ytick_7">
     <g id="line2d_31">
      <path clip-path="url(#p33b83e53ce)" d="M 38.183766 28.494993 
L 274.923117 28.494993 
" style="fill:none;stroke:#606054;stroke-dasharray:0.8,1.32;stroke-dashoffset:0;stroke-width:0.8;"/>
     </g>
     <g id="line2d_32">
      <g>
       <use style="fill:#917df0;stroke:#917df0;stroke-width:0.8;" x="38.183766" xlink:href="#m34210a453a" y="28.494993"/>
      </g>
     </g>
     <g id="text_17">
      <!-- 1.2 -->
      <g style="fill:#917df0;" transform="translate(16.735016 31.555618)scale(0.08 -0.08)">
       <use xlink:href="#DejaVuSansMono-31"/>
       <use x="60.205078" xlink:href="#DejaVuSansMono-2e"/>
       <use x="120.410156" xlink:href="#DejaVuSansMono-32"/>
      </g>
     </g>
    </g>
    <g id="text_18">
     <!-- g$^2$(τ) -->
     <defs>
      <path d="M 41.890625 27.78125 
Q 41.890625 37.890625 38.59375 43.140625 
Q 35.296875 48.390625 29 48.390625 
Q 22.40625 48.390625 18.9375 43.140625 
Q 15.484375 37.890625 15.484375 27.78125 
Q 15.484375 17.671875 18.96875 12.375 
Q 22.46875 7.078125 29.109375 7.078125 
Q 35.296875 7.078125 38.59375 12.390625 
Q 41.890625 17.71875 41.890625 27.78125 
z
M 50.875 3.515625 
Q 50.875 -8.796875 45.0625 -15.140625 
Q 39.265625 -21.484375 27.984375 -21.484375 
Q 24.265625 -21.484375 20.203125 -20.796875 
Q 16.15625 -20.125 12.109375 -18.796875 
L 12.109375 -9.90625 
Q 16.890625 -12.15625 20.796875 -13.234375 
Q 24.703125 -14.3125 27.984375 -14.3125 
Q 35.25 -14.3125 38.5625 -10.34375 
Q 41.890625 -6.390625 41.890625 2.203125 
L 41.890625 2.59375 
L 41.890625 8.6875 
Q 39.75 4.109375 36.03125 1.859375 
Q 32.328125 -0.390625 27 -0.390625 
Q 17.4375 -0.390625 11.71875 7.265625 
Q 6 14.9375 6 27.78125 
Q 6 40.671875 11.71875 48.328125 
Q 17.4375 56 27 56 
Q 32.28125 56 35.9375 53.90625 
Q 39.59375 51.8125 41.890625 47.40625 
L 41.890625 54.5 
L 50.875 54.5 
z
" id="DejaVuSansMono-67"/>
      <path d="M 19.1875 8.296875 
L 53.609375 8.296875 
L 53.609375 0 
L 7.328125 0 
L 7.328125 8.296875 
Q 12.9375 14.109375 22.625 23.890625 
Q 32.328125 33.6875 34.8125 36.53125 
Q 39.546875 41.84375 41.421875 45.53125 
Q 43.3125 49.21875 43.3125 52.78125 
Q 43.3125 58.59375 39.234375 62.25 
Q 35.15625 65.921875 28.609375 65.921875 
Q 23.96875 65.921875 18.8125 64.3125 
Q 13.671875 62.703125 7.8125 59.421875 
L 7.8125 69.390625 
Q 13.765625 71.78125 18.9375 73 
Q 24.125 74.21875 28.421875 74.21875 
Q 39.75 74.21875 46.484375 68.546875 
Q 53.21875 62.890625 53.21875 53.421875 
Q 53.21875 48.921875 51.53125 44.890625 
Q 49.859375 40.875 45.40625 35.40625 
Q 44.1875 33.984375 37.640625 27.21875 
Q 31.109375 20.453125 19.1875 8.296875 
z
" id="DejaVuSans-32"/>
      <path d="M 43.21875 75.875 
Q 36.71875 64.75 33.515625 53.6875 
Q 30.328125 42.625 30.328125 31.390625 
Q 30.328125 20.21875 33.515625 9.125 
Q 36.71875 -1.953125 43.21875 -13.1875 
L 35.40625 -13.1875 
Q 28.03125 -1.5625 24.40625 9.4375 
Q 20.796875 20.453125 20.796875 31.390625 
Q 20.796875 42.28125 24.40625 53.3125 
Q 28.03125 64.359375 35.40625 75.875 
z
" id="DejaVuSansMono-28"/>
      <path d="M 17 75.875 
L 24.8125 75.875 
Q 32.171875 64.359375 35.78125 53.3125 
Q 39.40625 42.28125 39.40625 31.390625 
Q 39.40625 20.40625 35.78125 9.375 
Q 32.171875 -1.65625 24.8125 -13.1875 
L 17 -13.1875 
Q 23.484375 -1.859375 26.6875 9.21875 
Q 29.890625 20.3125 29.890625 31.390625 
Q 29.890625 42.53125 26.6875 53.609375 
Q 23.484375 64.703125 17 75.875 
z
" id="DejaVuSansMono-29"/>
     </defs>
     <g style="fill:#e5dc5a;" transform="translate(10.975016 120.68)rotate(-90)scale(0.08 -0.08)">
      <use transform="translate(0 0.765625)" xlink:href="#DejaVuSansMono-67"/>
      <use transform="translate(61.162109 39.046875)scale(0.7)" xlink:href="#DejaVuSans-32"/>
      <use transform="translate(108.432617 0.765625)" xlink:href="#DejaVuSansMono-28"/>
      <use transform="translate(168.637695 0.765625)" xlink:href="#DejaVuSansMono-3c4"/>
      <use transform="translate(228.842773 0.765625)" xlink:href="#DejaVuSansMono-29"/>
     </g>
    </g>
   </g>
   <g id="line2d_33">
    <defs>
     <path d="M 0 1.5 
C 0.397805 1.5 0.77937 1.341951 1.06066 1.06066 
C 1.341951 0.77937 1.5 0.397805 1.5 0 
C 1.5 -0.397805 1.341951 -0.77937 1.06066 -1.06066 
C 0.77937 -1.341951 0.397805 -1.5 0 -1.5 
C -0.397805 -1.5 -0.77937 -1.341951 -1.06066 -1.06066 
C -1.341951 -0.77937 -1.5 -0.397805 -1.5 0 
C -1.5 0.397805 -1.341951 0.77937 -1.06066 1.06066 
C -0.77937 1.341951 -0.397805 1.5 0 1.5 
z
" id="me3a58331bf" style="stroke:#1e90e5;"/>
    </defs>
    <g clip-path="url(#p33b83e53ce)">
     <use style="fill:#1e90e5;stroke:#1e90e5;" x="48.944646" xlink:href="#me3a58331bf" y="56.985882"/>
     <use style="fill:#1e90e5;stroke:#1e90e5;" x="50.020734" xlink:href="#me3a58331bf" y="74.138824"/>
     <use style="fill:#1e90e5;stroke:#1e90e5;" x="51.096822" xlink:href="#me3a58331bf" y="60.162353"/>
     <use style="fill:#1e90e5;stroke:#1e90e5;" x="52.17291" xlink:href="#me3a58331bf" y="52.538824"/>
     <use style="fill:#1e90e5;stroke:#1e90e5;" x="53.248998" xlink:href="#me3a58331bf" y="75.409412"/>
     <use style="fill:#1e90e5;stroke:#1e90e5;" x="54.325086" xlink:href="#me3a58331bf" y="64.609412"/>
     <use style="fill:#1e90e5;stroke:#1e90e5;" x="55.401173" xlink:href="#me3a58331bf" y="54.444706"/>
     <use style="fill:#1e90e5;stroke:#1e90e5;" x="56.477261" xlink:href="#me3a58331bf" y="67.785882"/>
     <use style="fill:#1e90e5;stroke:#1e90e5;" x="57.553349" xlink:href="#me3a58331bf" y="65.244706"/>
     <use style="fill:#1e90e5;stroke:#1e90e5;" x="58.629437" xlink:href="#me3a58331bf" y="83.032941"/>
     <use style="fill:#1e90e5;stroke:#1e90e5;" x="59.705525" xlink:href="#me3a58331bf" y="63.974118"/>
     <use style="fill:#1e90e5;stroke:#1e90e5;" x="60.781613" xlink:href="#me3a58331bf" y="59.527059"/>
     <use style="fill:#1e90e5;stroke:#1e90e5;" x="61.857701" xlink:href="#me3a58331bf" y="69.691765"/>
     <use style="fill:#1e90e5;stroke:#1e90e5;" x="62.933789" xlink:href="#me3a58331bf" y="74.138824"/>
     <use style="fill:#1e90e5;stroke:#1e90e5;" x="64.009877" xlink:href="#me3a58331bf" y="72.232941"/>
     <use style="fill:#1e90e5;stroke:#1e90e5;" x="65.085965" xlink:href="#me3a58331bf" y="64.609412"/>
     <use style="fill:#1e90e5;stroke:#1e90e5;" x="66.162053" xlink:href="#me3a58331bf" y="51.268235"/>
     <use style="fill:#1e90e5;stroke:#1e90e5;" x="67.238141" xlink:href="#me3a58331bf" y="67.785882"/>
     <use style="fill:#1e90e5;stroke:#1e90e5;" x="68.314229" xlink:href="#me3a58331bf" y="64.609412"/>
     <use style="fill:#1e90e5;stroke:#1e90e5;" x="69.390317" xlink:href="#me3a58331bf" y="65.88"/>
     <use style="fill:#1e90e5;stroke:#1e90e5;" x="70.466405" xlink:href="#me3a58331bf" y="63.338824"/>
     <use style="fill:#1e90e5;stroke:#1e90e5;" x="71.542493" xlink:href="#me3a58331bf" y="65.88"/>
     <use style="fill:#1e90e5;stroke:#1e90e5;" x="72.618581" xlink:href="#me3a58331bf" y="58.891765"/>
     <use style="fill:#1e90e5;stroke:#1e90e5;" x="73.694669" xlink:href="#me3a58331bf" y="49.362353"/>
     <use style="fill:#1e90e5;stroke:#1e90e5;" x="74.770757" xlink:href="#me3a58331bf" y="53.809412"/>
     <use style="fill:#1e90e5;stroke:#1e90e5;" x="75.846845" xlink:href="#me3a58331bf" y="54.444706"/>
     <use style="fill:#1e90e5;stroke:#1e90e5;" x="76.922933" xlink:href="#me3a58331bf" y="54.444706"/>
     <use style="fill:#1e90e5;stroke:#1e90e5;" x="77.999021" xlink:href="#me3a58331bf" y="60.162353"/>
     <use style="fill:#1e90e5;stroke:#1e90e5;" x="79.075109" xlink:href="#me3a58331bf" y="59.527059"/>
     <use style="fill:#1e90e5;stroke:#1e90e5;" x="80.151196" xlink:href="#me3a58331bf" y="72.232941"/>
     <use style="fill:#1e90e5;stroke:#1e90e5;" x="81.227284" xlink:href="#me3a58331bf" y="68.421176"/>
     <use style="fill:#1e90e5;stroke:#1e90e5;" x="82.303372" xlink:href="#me3a58331bf" y="70.962353"/>
     <use style="fill:#1e90e5;stroke:#1e90e5;" x="83.37946" xlink:href="#me3a58331bf" y="71.597647"/>
     <use style="fill:#1e90e5;stroke:#1e90e5;" x="84.455548" xlink:href="#me3a58331bf" y="70.962353"/>
     <use style="fill:#1e90e5;stroke:#1e90e5;" x="85.531636" xlink:href="#me3a58331bf" y="43.009412"/>
     <use style="fill:#1e90e5;stroke:#1e90e5;" x="86.607724" xlink:href="#me3a58331bf" y="50.632941"/>
     <use style="fill:#1e90e5;stroke:#1e90e5;" x="87.683812" xlink:href="#me3a58331bf" y="62.703529"/>
     <use style="fill:#1e90e5;stroke:#1e90e5;" x="88.7599" xlink:href="#me3a58331bf" y="67.150588"/>
     <use style="fill:#1e90e5;stroke:#1e90e5;" x="89.835988" xlink:href="#me3a58331bf" y="53.809412"/>
     <use style="fill:#1e90e5;stroke:#1e90e5;" x="90.912076" xlink:href="#me3a58331bf" y="50.632941"/>
     <use style="fill:#1e90e5;stroke:#1e90e5;" x="91.988164" xlink:href="#me3a58331bf" y="52.538824"/>
     <use style="fill:#1e90e5;stroke:#1e90e5;" x="93.064252" xlink:href="#me3a58331bf" y="45.550588"/>
     <use style="fill:#1e90e5;stroke:#1e90e5;" x="94.14034" xlink:href="#me3a58331bf" y="48.727059"/>
     <use style="fill:#1e90e5;stroke:#1e90e5;" x="95.216428" xlink:href="#me3a58331bf" y="63.974118"/>
     <use style="fill:#1e90e5;stroke:#1e90e5;" x="96.292516" xlink:href="#me3a58331bf" y="58.256471"/>
     <use style="fill:#1e90e5;stroke:#1e90e5;" x="97.368604" xlink:href="#me3a58331bf" y="41.738824"/>
     <use style="fill:#1e90e5;stroke:#1e90e5;" x="98.444692" xlink:href="#me3a58331bf" y="62.703529"/>
     <use style="fill:#1e90e5;stroke:#1e90e5;" x="99.52078" xlink:href="#me3a58331bf" y="61.432941"/>
     <use style="fill:#1e90e5;stroke:#1e90e5;" x="100.596868" xlink:href="#me3a58331bf" y="54.444706"/>
     <use style="fill:#1e90e5;stroke:#1e90e5;" x="101.672956" xlink:href="#me3a58331bf" y="69.691765"/>
     <use style="fill:#1e90e5;stroke:#1e90e5;" x="102.749044" xlink:href="#me3a58331bf" y="55.715294"/>
     <use style="fill:#1e90e5;stroke:#1e90e5;" x="103.825132" xlink:href="#me3a58331bf" y="70.327059"/>
     <use style="fill:#1e90e5;stroke:#1e90e5;" x="104.901219" xlink:href="#me3a58331bf" y="52.538824"/>
     <use style="fill:#1e90e5;stroke:#1e90e5;" x="105.977307" xlink:href="#me3a58331bf" y="53.174118"/>
     <use style="fill:#1e90e5;stroke:#1e90e5;" x="107.053395" xlink:href="#me3a58331bf" y="58.256471"/>
     <use style="fill:#1e90e5;stroke:#1e90e5;" x="108.129483" xlink:href="#me3a58331bf" y="58.256471"/>
     <use style="fill:#1e90e5;stroke:#1e90e5;" x="109.205571" xlink:href="#me3a58331bf" y="45.550588"/>
     <use style="fill:#1e90e5;stroke:#1e90e5;" x="110.281659" xlink:href="#me3a58331bf" y="60.162353"/>
     <use style="fill:#1e90e5;stroke:#1e90e5;" x="111.357747" xlink:href="#me3a58331bf" y="60.162353"/>
     <use style="fill:#1e90e5;stroke:#1e90e5;" x="112.433835" xlink:href="#me3a58331bf" y="53.809412"/>
     <use style="fill:#1e90e5;stroke:#1e90e5;" x="113.509923" xlink:href="#me3a58331bf" y="58.891765"/>
     <use style="fill:#1e90e5;stroke:#1e90e5;" x="114.586011" xlink:href="#me3a58331bf" y="53.809412"/>
     <use style="fill:#1e90e5;stroke:#1e90e5;" x="115.662099" xlink:href="#me3a58331bf" y="56.985882"/>
     <use style="fill:#1e90e5;stroke:#1e90e5;" x="116.738187" xlink:href="#me3a58331bf" y="52.538824"/>
     <use style="fill:#1e90e5;stroke:#1e90e5;" x="117.814275" xlink:href="#me3a58331bf" y="69.691765"/>
     <use style="fill:#1e90e5;stroke:#1e90e5;" x="118.890363" xlink:href="#me3a58331bf" y="66.515294"/>
     <use style="fill:#1e90e5;stroke:#1e90e5;" x="119.966451" xlink:href="#me3a58331bf" y="55.08"/>
     <use style="fill:#1e90e5;stroke:#1e90e5;" x="121.042539" xlink:href="#me3a58331bf" y="44.915294"/>
     <use style="fill:#1e90e5;stroke:#1e90e5;" x="122.118627" xlink:href="#me3a58331bf" y="72.232941"/>
     <use style="fill:#1e90e5;stroke:#1e90e5;" x="123.194715" xlink:href="#me3a58331bf" y="67.150588"/>
     <use style="fill:#1e90e5;stroke:#1e90e5;" x="124.270803" xlink:href="#me3a58331bf" y="63.974118"/>
     <use style="fill:#1e90e5;stroke:#1e90e5;" x="125.346891" xlink:href="#me3a58331bf" y="58.256471"/>
     <use style="fill:#1e90e5;stroke:#1e90e5;" x="126.422979" xlink:href="#me3a58331bf" y="71.597647"/>
     <use style="fill:#1e90e5;stroke:#1e90e5;" x="127.499067" xlink:href="#me3a58331bf" y="70.962353"/>
     <use style="fill:#1e90e5;stroke:#1e90e5;" x="128.575154" xlink:href="#me3a58331bf" y="44.28"/>
     <use style="fill:#1e90e5;stroke:#1e90e5;" x="129.651242" xlink:href="#me3a58331bf" y="41.738824"/>
     <use style="fill:#1e90e5;stroke:#1e90e5;" x="130.72733" xlink:href="#me3a58331bf" y="68.421176"/>
     <use style="fill:#1e90e5;stroke:#1e90e5;" x="131.803418" xlink:href="#me3a58331bf" y="67.150588"/>
     <use style="fill:#1e90e5;stroke:#1e90e5;" x="132.879506" xlink:href="#me3a58331bf" y="70.962353"/>
     <use style="fill:#1e90e5;stroke:#1e90e5;" x="133.955594" xlink:href="#me3a58331bf" y="45.550588"/>
     <use style="fill:#1e90e5;stroke:#1e90e5;" x="135.031682" xlink:href="#me3a58331bf" y="79.221176"/>
     <use style="fill:#1e90e5;stroke:#1e90e5;" x="136.10777" xlink:href="#me3a58331bf" y="88.115294"/>
     <use style="fill:#1e90e5;stroke:#1e90e5;" x="137.183858" xlink:href="#me3a58331bf" y="83.032941"/>
     <use style="fill:#1e90e5;stroke:#1e90e5;" x="138.259946" xlink:href="#me3a58331bf" y="67.785882"/>
     <use style="fill:#1e90e5;stroke:#1e90e5;" x="139.336034" xlink:href="#me3a58331bf" y="84.938824"/>
     <use style="fill:#1e90e5;stroke:#1e90e5;" x="140.412122" xlink:href="#me3a58331bf" y="81.762353"/>
     <use style="fill:#1e90e5;stroke:#1e90e5;" x="141.48821" xlink:href="#me3a58331bf" y="98.915294"/>
     <use style="fill:#1e90e5;stroke:#1e90e5;" x="142.564298" xlink:href="#me3a58331bf" y="83.668235"/>
     <use style="fill:#1e90e5;stroke:#1e90e5;" x="143.640386" xlink:href="#me3a58331bf" y="90.656471"/>
     <use style="fill:#1e90e5;stroke:#1e90e5;" x="144.716474" xlink:href="#me3a58331bf" y="93.832941"/>
     <use style="fill:#1e90e5;stroke:#1e90e5;" x="145.792562" xlink:href="#me3a58331bf" y="103.362353"/>
     <use style="fill:#1e90e5;stroke:#1e90e5;" x="146.86865" xlink:href="#me3a58331bf" y="108.444706"/>
     <use style="fill:#1e90e5;stroke:#1e90e5;" x="147.944738" xlink:href="#me3a58331bf" y="118.609412"/>
     <use style="fill:#1e90e5;stroke:#1e90e5;" x="149.020826" xlink:href="#me3a58331bf" y="117.974118"/>
     <use style="fill:#1e90e5;stroke:#1e90e5;" x="150.096914" xlink:href="#me3a58331bf" y="119.88"/>
     <use style="fill:#1e90e5;stroke:#1e90e5;" x="151.173002" xlink:href="#me3a58331bf" y="130.68"/>
     <use style="fill:#1e90e5;stroke:#1e90e5;" x="152.24909" xlink:href="#me3a58331bf" y="145.927059"/>
     <use style="fill:#1e90e5;stroke:#1e90e5;" x="153.325177" xlink:href="#me3a58331bf" y="156.091765"/>
     <use style="fill:#1e90e5;stroke:#1e90e5;" x="154.401265" xlink:href="#me3a58331bf" y="170.068235"/>
     <use style="fill:#1e90e5;stroke:#1e90e5;" x="155.477353" xlink:href="#me3a58331bf" y="182.138824"/>
     <use style="fill:#1e90e5;stroke:#1e90e5;" x="156.553441" xlink:href="#me3a58331bf" y="184.68"/>
     <use style="fill:#1e90e5;stroke:#1e90e5;" x="157.629529" xlink:href="#me3a58331bf" y="178.327059"/>
     <use style="fill:#1e90e5;stroke:#1e90e5;" x="158.705617" xlink:href="#me3a58331bf" y="159.903529"/>
     <use style="fill:#1e90e5;stroke:#1e90e5;" x="159.781705" xlink:href="#me3a58331bf" y="151.644706"/>
     <use style="fill:#1e90e5;stroke:#1e90e5;" x="160.857793" xlink:href="#me3a58331bf" y="149.103529"/>
     <use style="fill:#1e90e5;stroke:#1e90e5;" x="161.933881" xlink:href="#me3a58331bf" y="117.974118"/>
     <use style="fill:#1e90e5;stroke:#1e90e5;" x="163.009969" xlink:href="#me3a58331bf" y="123.056471"/>
     <use style="fill:#1e90e5;stroke:#1e90e5;" x="164.086057" xlink:href="#me3a58331bf" y="125.597647"/>
     <use style="fill:#1e90e5;stroke:#1e90e5;" x="165.162145" xlink:href="#me3a58331bf" y="112.256471"/>
     <use style="fill:#1e90e5;stroke:#1e90e5;" x="166.238233" xlink:href="#me3a58331bf" y="103.362353"/>
     <use style="fill:#1e90e5;stroke:#1e90e5;" x="167.314321" xlink:href="#me3a58331bf" y="100.185882"/>
     <use style="fill:#1e90e5;stroke:#1e90e5;" x="168.390409" xlink:href="#me3a58331bf" y="100.185882"/>
     <use style="fill:#1e90e5;stroke:#1e90e5;" x="169.466497" xlink:href="#me3a58331bf" y="98.915294"/>
     <use style="fill:#1e90e5;stroke:#1e90e5;" x="170.542585" xlink:href="#me3a58331bf" y="87.48"/>
     <use style="fill:#1e90e5;stroke:#1e90e5;" x="171.618673" xlink:href="#me3a58331bf" y="85.574118"/>
     <use style="fill:#1e90e5;stroke:#1e90e5;" x="172.694761" xlink:href="#me3a58331bf" y="95.103529"/>
     <use style="fill:#1e90e5;stroke:#1e90e5;" x="173.770849" xlink:href="#me3a58331bf" y="87.48"/>
     <use style="fill:#1e90e5;stroke:#1e90e5;" x="174.846937" xlink:href="#me3a58331bf" y="97.009412"/>
     <use style="fill:#1e90e5;stroke:#1e90e5;" x="175.923025" xlink:href="#me3a58331bf" y="71.597647"/>
     <use style="fill:#1e90e5;stroke:#1e90e5;" x="176.999113" xlink:href="#me3a58331bf" y="76.68"/>
     <use style="fill:#1e90e5;stroke:#1e90e5;" x="178.0752" xlink:href="#me3a58331bf" y="73.503529"/>
     <use style="fill:#1e90e5;stroke:#1e90e5;" x="179.151288" xlink:href="#me3a58331bf" y="77.315294"/>
     <use style="fill:#1e90e5;stroke:#1e90e5;" x="180.227376" xlink:href="#me3a58331bf" y="73.503529"/>
     <use style="fill:#1e90e5;stroke:#1e90e5;" x="181.303464" xlink:href="#me3a58331bf" y="81.762353"/>
     <use style="fill:#1e90e5;stroke:#1e90e5;" x="182.379552" xlink:href="#me3a58331bf" y="49.362353"/>
     <use style="fill:#1e90e5;stroke:#1e90e5;" x="183.45564" xlink:href="#me3a58331bf" y="63.974118"/>
     <use style="fill:#1e90e5;stroke:#1e90e5;" x="184.531728" xlink:href="#me3a58331bf" y="69.691765"/>
     <use style="fill:#1e90e5;stroke:#1e90e5;" x="185.607816" xlink:href="#me3a58331bf" y="59.527059"/>
     <use style="fill:#1e90e5;stroke:#1e90e5;" x="186.683904" xlink:href="#me3a58331bf" y="72.232941"/>
     <use style="fill:#1e90e5;stroke:#1e90e5;" x="187.759992" xlink:href="#me3a58331bf" y="69.056471"/>
     <use style="fill:#1e90e5;stroke:#1e90e5;" x="188.83608" xlink:href="#me3a58331bf" y="53.174118"/>
     <use style="fill:#1e90e5;stroke:#1e90e5;" x="189.912168" xlink:href="#me3a58331bf" y="48.727059"/>
     <use style="fill:#1e90e5;stroke:#1e90e5;" x="190.988256" xlink:href="#me3a58331bf" y="60.162353"/>
     <use style="fill:#1e90e5;stroke:#1e90e5;" x="192.064344" xlink:href="#me3a58331bf" y="47.456471"/>
     <use style="fill:#1e90e5;stroke:#1e90e5;" x="193.140432" xlink:href="#me3a58331bf" y="64.609412"/>
     <use style="fill:#1e90e5;stroke:#1e90e5;" x="194.21652" xlink:href="#me3a58331bf" y="54.444706"/>
     <use style="fill:#1e90e5;stroke:#1e90e5;" x="195.292608" xlink:href="#me3a58331bf" y="67.150588"/>
     <use style="fill:#1e90e5;stroke:#1e90e5;" x="196.368696" xlink:href="#me3a58331bf" y="33.48"/>
     <use style="fill:#1e90e5;stroke:#1e90e5;" x="197.444784" xlink:href="#me3a58331bf" y="55.715294"/>
     <use style="fill:#1e90e5;stroke:#1e90e5;" x="198.520872" xlink:href="#me3a58331bf" y="49.997647"/>
     <use style="fill:#1e90e5;stroke:#1e90e5;" x="199.59696" xlink:href="#me3a58331bf" y="51.268235"/>
     <use style="fill:#1e90e5;stroke:#1e90e5;" x="200.673048" xlink:href="#me3a58331bf" y="48.727059"/>
     <use style="fill:#1e90e5;stroke:#1e90e5;" x="201.749136" xlink:href="#me3a58331bf" y="55.715294"/>
     <use style="fill:#1e90e5;stroke:#1e90e5;" x="202.825223" xlink:href="#me3a58331bf" y="63.338824"/>
     <use style="fill:#1e90e5;stroke:#1e90e5;" x="203.901311" xlink:href="#me3a58331bf" y="67.150588"/>
     <use style="fill:#1e90e5;stroke:#1e90e5;" x="204.977399" xlink:href="#me3a58331bf" y="55.08"/>
     <use style="fill:#1e90e5;stroke:#1e90e5;" x="206.053487" xlink:href="#me3a58331bf" y="52.538824"/>
     <use style="fill:#1e90e5;stroke:#1e90e5;" x="207.129575" xlink:href="#me3a58331bf" y="58.891765"/>
     <use style="fill:#1e90e5;stroke:#1e90e5;" x="208.205663" xlink:href="#me3a58331bf" y="69.691765"/>
     <use style="fill:#1e90e5;stroke:#1e90e5;" x="209.281751" xlink:href="#me3a58331bf" y="43.644706"/>
     <use style="fill:#1e90e5;stroke:#1e90e5;" x="210.357839" xlink:href="#me3a58331bf" y="57.621176"/>
     <use style="fill:#1e90e5;stroke:#1e90e5;" x="211.433927" xlink:href="#me3a58331bf" y="67.150588"/>
     <use style="fill:#1e90e5;stroke:#1e90e5;" x="212.510015" xlink:href="#me3a58331bf" y="61.432941"/>
     <use style="fill:#1e90e5;stroke:#1e90e5;" x="213.586103" xlink:href="#me3a58331bf" y="55.08"/>
     <use style="fill:#1e90e5;stroke:#1e90e5;" x="214.662191" xlink:href="#me3a58331bf" y="64.609412"/>
     <use style="fill:#1e90e5;stroke:#1e90e5;" x="215.738279" xlink:href="#me3a58331bf" y="50.632941"/>
     <use style="fill:#1e90e5;stroke:#1e90e5;" x="216.814367" xlink:href="#me3a58331bf" y="48.091765"/>
     <use style="fill:#1e90e5;stroke:#1e90e5;" x="217.890455" xlink:href="#me3a58331bf" y="74.138824"/>
     <use style="fill:#1e90e5;stroke:#1e90e5;" x="218.966543" xlink:href="#me3a58331bf" y="53.809412"/>
     <use style="fill:#1e90e5;stroke:#1e90e5;" x="220.042631" xlink:href="#me3a58331bf" y="45.550588"/>
     <use style="fill:#1e90e5;stroke:#1e90e5;" x="221.118719" xlink:href="#me3a58331bf" y="53.809412"/>
     <use style="fill:#1e90e5;stroke:#1e90e5;" x="222.194807" xlink:href="#me3a58331bf" y="60.797647"/>
     <use style="fill:#1e90e5;stroke:#1e90e5;" x="223.270895" xlink:href="#me3a58331bf" y="53.809412"/>
     <use style="fill:#1e90e5;stroke:#1e90e5;" x="224.346983" xlink:href="#me3a58331bf" y="54.444706"/>
     <use style="fill:#1e90e5;stroke:#1e90e5;" x="225.423071" xlink:href="#me3a58331bf" y="62.068235"/>
     <use style="fill:#1e90e5;stroke:#1e90e5;" x="226.499159" xlink:href="#me3a58331bf" y="54.444706"/>
     <use style="fill:#1e90e5;stroke:#1e90e5;" x="227.575246" xlink:href="#me3a58331bf" y="61.432941"/>
     <use style="fill:#1e90e5;stroke:#1e90e5;" x="228.651334" xlink:href="#me3a58331bf" y="55.08"/>
     <use style="fill:#1e90e5;stroke:#1e90e5;" x="229.727422" xlink:href="#me3a58331bf" y="67.150588"/>
     <use style="fill:#1e90e5;stroke:#1e90e5;" x="230.80351" xlink:href="#me3a58331bf" y="65.244706"/>
     <use style="fill:#1e90e5;stroke:#1e90e5;" x="231.879598" xlink:href="#me3a58331bf" y="70.327059"/>
     <use style="fill:#1e90e5;stroke:#1e90e5;" x="232.955686" xlink:href="#me3a58331bf" y="58.891765"/>
     <use style="fill:#1e90e5;stroke:#1e90e5;" x="234.031774" xlink:href="#me3a58331bf" y="61.432941"/>
     <use style="fill:#1e90e5;stroke:#1e90e5;" x="235.107862" xlink:href="#me3a58331bf" y="55.715294"/>
     <use style="fill:#1e90e5;stroke:#1e90e5;" x="236.18395" xlink:href="#me3a58331bf" y="68.421176"/>
     <use style="fill:#1e90e5;stroke:#1e90e5;" x="237.260038" xlink:href="#me3a58331bf" y="82.397647"/>
     <use style="fill:#1e90e5;stroke:#1e90e5;" x="238.336126" xlink:href="#me3a58331bf" y="55.715294"/>
     <use style="fill:#1e90e5;stroke:#1e90e5;" x="239.412214" xlink:href="#me3a58331bf" y="63.974118"/>
     <use style="fill:#1e90e5;stroke:#1e90e5;" x="240.488302" xlink:href="#me3a58331bf" y="48.727059"/>
     <use style="fill:#1e90e5;stroke:#1e90e5;" x="241.56439" xlink:href="#me3a58331bf" y="57.621176"/>
     <use style="fill:#1e90e5;stroke:#1e90e5;" x="242.640478" xlink:href="#me3a58331bf" y="39.197647"/>
     <use style="fill:#1e90e5;stroke:#1e90e5;" x="243.716566" xlink:href="#me3a58331bf" y="86.209412"/>
     <use style="fill:#1e90e5;stroke:#1e90e5;" x="244.792654" xlink:href="#me3a58331bf" y="64.609412"/>
     <use style="fill:#1e90e5;stroke:#1e90e5;" x="245.868742" xlink:href="#me3a58331bf" y="60.797647"/>
     <use style="fill:#1e90e5;stroke:#1e90e5;" x="246.94483" xlink:href="#me3a58331bf" y="67.785882"/>
     <use style="fill:#1e90e5;stroke:#1e90e5;" x="248.020918" xlink:href="#me3a58331bf" y="58.256471"/>
     <use style="fill:#1e90e5;stroke:#1e90e5;" x="249.097006" xlink:href="#me3a58331bf" y="69.691765"/>
     <use style="fill:#1e90e5;stroke:#1e90e5;" x="250.173094" xlink:href="#me3a58331bf" y="74.774118"/>
     <use style="fill:#1e90e5;stroke:#1e90e5;" x="251.249181" xlink:href="#me3a58331bf" y="70.962353"/>
     <use style="fill:#1e90e5;stroke:#1e90e5;" x="252.325269" xlink:href="#me3a58331bf" y="63.974118"/>
     <use style="fill:#1e90e5;stroke:#1e90e5;" x="253.401357" xlink:href="#me3a58331bf" y="58.256471"/>
     <use style="fill:#1e90e5;stroke:#1e90e5;" x="254.477445" xlink:href="#me3a58331bf" y="61.432941"/>
     <use style="fill:#1e90e5;stroke:#1e90e5;" x="255.553533" xlink:href="#me3a58331bf" y="75.409412"/>
     <use style="fill:#1e90e5;stroke:#1e90e5;" x="256.629621" xlink:href="#me3a58331bf" y="60.162353"/>
     <use style="fill:#1e90e5;stroke:#1e90e5;" x="257.705709" xlink:href="#me3a58331bf" y="80.491765"/>
     <use style="fill:#1e90e5;stroke:#1e90e5;" x="258.781797" xlink:href="#me3a58331bf" y="73.503529"/>
     <use style="fill:#1e90e5;stroke:#1e90e5;" x="259.857885" xlink:href="#me3a58331bf" y="59.527059"/>
     <use style="fill:#1e90e5;stroke:#1e90e5;" x="260.933973" xlink:href="#me3a58331bf" y="62.703529"/>
     <use style="fill:#1e90e5;stroke:#1e90e5;" x="262.010061" xlink:href="#me3a58331bf" y="56.350588"/>
     <use style="fill:#1e90e5;stroke:#1e90e5;" x="263.086149" xlink:href="#me3a58331bf" y="63.338824"/>
     <use style="fill:#1e90e5;stroke:#1e90e5;" x="264.162237" xlink:href="#me3a58331bf" y="56.350588"/>
    </g>
   </g>
   <g id="patch_3">
    <path d="M 38.183766 192.24 
L 38.183766 25.92 
" style="fill:none;stroke:#606054;stroke-linecap:square;stroke-linejoin:miter;"/>
   </g>
   <g id="patch_4">
    <path d="M 274.923117 192.24 
L 274.923117 25.92 
" style="fill:none;stroke:#606054;stroke-linecap:square;stroke-linejoin:miter;"/>
   </g>
   <g id="patch_5">
    <path d="M 38.183766 192.24 
L 274.923117 192.24 
" style="fill:none;stroke:#606054;stroke-linecap:square;stroke-linejoin:miter;"/>
   </g>
   <g id="patch_6">
    <path d="M 38.183766 25.92 
L 274.923117 25.92 
" style="fill:none;stroke:#606054;stroke-linecap:square;stroke-linejoin:miter;"/>
   </g>
  </g>
 </g>
 <defs>
  <clipPath id="p33b83e53ce">
   <rect height="166.32" width="236.73935" x="38.183766" y="25.92"/>
  </clipPath>
 </defs>
</svg>
