<?xml version="1.0" encoding="utf-8" standalone="no"?>
<!DOCTYPE svg PUBLIC "-//W3C//DTD SVG 1.1//EN"
  "http://www.w3.org/Graphics/SVG/1.1/DTD/svg11.dtd">
<!-- Created with matplotlib (http://matplotlib.org/) -->
<svg height="432pt" version="1.1" viewBox="0 0 610 432" width="610pt" xmlns="http://www.w3.org/2000/svg" xmlns:xlink="http://www.w3.org/1999/xlink">
 <defs>
  <style type="text/css">
*{stroke-linecap:butt;stroke-linejoin:round;}
  </style>
 </defs>
 <g id="figure_1">
  <g id="patch_1">
   <path d="M 0 432 
L 610.940259 432 
L 610.940259 0 
L 0 0 
z
" style="fill:#272822;"/>
  </g>
  <g id="axes_1">
   <g id="patch_2">
    <path d="M 76.367532 384.48 
L 549.846233 384.48 
L 549.846233 51.84 
L 76.367532 51.84 
z
" style="fill:#272822;"/>
   </g>
   <g id="matplotlib.axis_1">
    <g id="xtick_1">
     <g id="line2d_1">
      <path clip-path="url(#pc6d6dad856)" d="M 140.071939 384.48 
L 140.071939 51.84 
" style="fill:none;stroke:#606054;stroke-dasharray:0.8,1.32;stroke-dashoffset:0;stroke-width:0.8;"/>
     </g>
     <g id="line2d_2">
      <defs>
       <path d="M 0 0 
L 0 3.5 
" id="m5f3c969f41" style="stroke:#917df0;stroke-width:0.8;"/>
      </defs>
      <g>
       <use style="fill:#917df0;stroke:#917df0;stroke-width:0.8;" x="140.071939" xlink:href="#m5f3c969f41" y="384.48"/>
      </g>
     </g>
     <g id="text_1">
      <!-- −400 -->
      <defs>
       <path d="M 4.296875 35.5 
L 55.90625 35.5 
L 55.90625 27.203125 
L 4.296875 27.203125 
z
" id="DejaVuSansMono-2212"/>
       <path d="M 35.890625 63.921875 
L 12.890625 25.390625 
L 35.890625 25.390625 
z
M 34.28125 72.90625 
L 45.703125 72.90625 
L 45.703125 25.390625 
L 55.421875 25.390625 
L 55.421875 17.390625 
L 45.703125 17.390625 
L 45.703125 0 
L 35.890625 0 
L 35.890625 17.390625 
L 4.984375 17.390625 
L 4.984375 26.703125 
z
" id="DejaVuSansMono-34"/>
       <path d="M 23.578125 36.625 
Q 23.578125 39.3125 25.453125 41.265625 
Q 27.34375 43.21875 29.984375 43.21875 
Q 32.71875 43.21875 34.671875 41.265625 
Q 36.625 39.3125 36.625 36.625 
Q 36.625 33.890625 34.6875 31.984375 
Q 32.765625 30.078125 29.984375 30.078125 
Q 27.25 30.078125 25.40625 31.9375 
Q 23.578125 33.796875 23.578125 36.625 
z
M 30.078125 66.40625 
Q 23.1875 66.40625 19.796875 58.984375 
Q 16.40625 51.5625 16.40625 36.375 
Q 16.40625 21.234375 19.796875 13.8125 
Q 23.1875 6.390625 30.078125 6.390625 
Q 37.015625 6.390625 40.40625 13.8125 
Q 43.796875 21.234375 43.796875 36.375 
Q 43.796875 51.5625 40.40625 58.984375 
Q 37.015625 66.40625 30.078125 66.40625 
z
M 30.078125 74.21875 
Q 41.75 74.21875 47.734375 64.640625 
Q 53.71875 55.078125 53.71875 36.375 
Q 53.71875 17.71875 47.734375 8.140625 
Q 41.75 -1.421875 30.078125 -1.421875 
Q 18.40625 -1.421875 12.453125 8.140625 
Q 6.5 17.71875 6.5 36.375 
Q 6.5 55.078125 12.453125 64.640625 
Q 18.40625 74.21875 30.078125 74.21875 
z
" id="DejaVuSansMono-30"/>
      </defs>
      <g style="fill:#917df0;" transform="translate(130.439439 397.60125)scale(0.08 -0.08)">
       <use xlink:href="#DejaVuSansMono-2212"/>
       <use x="60.205078" xlink:href="#DejaVuSansMono-34"/>
       <use x="120.410156" xlink:href="#DejaVuSansMono-30"/>
       <use x="180.615234" xlink:href="#DejaVuSansMono-30"/>
      </g>
     </g>
    </g>
    <g id="xtick_2">
     <g id="line2d_3">
      <path clip-path="url(#pc6d6dad856)" d="M 226.589411 384.48 
L 226.589411 51.84 
" style="fill:none;stroke:#606054;stroke-dasharray:0.8,1.32;stroke-dashoffset:0;stroke-width:0.8;"/>
     </g>
     <g id="line2d_4">
      <g>
       <use style="fill:#917df0;stroke:#917df0;stroke-width:0.8;" x="226.589411" xlink:href="#m5f3c969f41" y="384.48"/>
      </g>
     </g>
     <g id="text_2">
      <!-- −200 -->
      <defs>
       <path d="M 18.21875 8.296875 
L 51.703125 8.296875 
L 51.703125 0 
L 7.421875 0 
L 7.421875 8.296875 
Q 16.546875 17.921875 23.375 25.296875 
Q 30.21875 32.671875 32.8125 35.6875 
Q 37.703125 41.65625 39.40625 45.34375 
Q 41.109375 49.03125 41.109375 52.875 
Q 41.109375 58.984375 37.515625 62.453125 
Q 33.9375 65.921875 27.6875 65.921875 
Q 23.25 65.921875 18.359375 64.3125 
Q 13.484375 62.703125 8.015625 59.421875 
L 8.015625 69.390625 
Q 13.03125 71.78125 17.890625 73 
Q 22.75 74.21875 27.484375 74.21875 
Q 38.1875 74.21875 44.703125 68.53125 
Q 51.21875 62.84375 51.21875 53.609375 
Q 51.21875 48.921875 49.046875 44.234375 
Q 46.875 39.546875 42 33.890625 
Q 39.265625 30.71875 34.0625 25.09375 
Q 28.859375 19.484375 18.21875 8.296875 
z
" id="DejaVuSansMono-32"/>
      </defs>
      <g style="fill:#917df0;" transform="translate(216.956911 397.60125)scale(0.08 -0.08)">
       <use xlink:href="#DejaVuSansMono-2212"/>
       <use x="60.205078" xlink:href="#DejaVuSansMono-32"/>
       <use x="120.410156" xlink:href="#DejaVuSansMono-30"/>
       <use x="180.615234" xlink:href="#DejaVuSansMono-30"/>
      </g>
     </g>
    </g>
    <g id="xtick_3">
     <g id="line2d_5">
      <path clip-path="url(#pc6d6dad856)" d="M 313.106883 384.48 
L 313.106883 51.84 
" style="fill:none;stroke:#606054;stroke-dasharray:0.8,1.32;stroke-dashoffset:0;stroke-width:0.8;"/>
     </g>
     <g id="line2d_6">
      <g>
       <use style="fill:#917df0;stroke:#917df0;stroke-width:0.8;" x="313.106883" xlink:href="#m5f3c969f41" y="384.48"/>
      </g>
     </g>
     <g id="text_3">
      <!-- 0 -->
      <g style="fill:#917df0;" transform="translate(310.698758 397.60125)scale(0.08 -0.08)">
       <use xlink:href="#DejaVuSansMono-30"/>
      </g>
     </g>
    </g>
    <g id="xtick_4">
     <g id="line2d_7">
      <path clip-path="url(#pc6d6dad856)" d="M 399.624354 384.48 
L 399.624354 51.84 
" style="fill:none;stroke:#606054;stroke-dasharray:0.8,1.32;stroke-dashoffset:0;stroke-width:0.8;"/>
     </g>
     <g id="line2d_8">
      <g>
       <use style="fill:#917df0;stroke:#917df0;stroke-width:0.8;" x="399.624354" xlink:href="#m5f3c969f41" y="384.48"/>
      </g>
     </g>
     <g id="text_4">
      <!-- 200 -->
      <g style="fill:#917df0;" transform="translate(392.399979 397.60125)scale(0.08 -0.08)">
       <use xlink:href="#DejaVuSansMono-32"/>
       <use x="60.205078" xlink:href="#DejaVuSansMono-30"/>
       <use x="120.410156" xlink:href="#DejaVuSansMono-30"/>
      </g>
     </g>
    </g>
    <g id="xtick_5">
     <g id="line2d_9">
      <path clip-path="url(#pc6d6dad856)" d="M 486.141826 384.48 
L 486.141826 51.84 
" style="fill:none;stroke:#606054;stroke-dasharray:0.8,1.32;stroke-dashoffset:0;stroke-width:0.8;"/>
     </g>
     <g id="line2d_10">
      <g>
       <use style="fill:#917df0;stroke:#917df0;stroke-width:0.8;" x="486.141826" xlink:href="#m5f3c969f41" y="384.48"/>
      </g>
     </g>
     <g id="text_5">
      <!-- 400 -->
      <g style="fill:#917df0;" transform="translate(478.917451 397.60125)scale(0.08 -0.08)">
       <use xlink:href="#DejaVuSansMono-34"/>
       <use x="60.205078" xlink:href="#DejaVuSansMono-30"/>
       <use x="120.410156" xlink:href="#DejaVuSansMono-30"/>
      </g>
     </g>
    </g>
    <g id="text_6">
     <!-- τ (ns) -->
     <defs>
      <path d="M 36.234375 9.96875 
Q 37.984375 7.625 43.265625 7.625 
L 47.609375 7.625 
L 47.609375 0 
L 42.1875 0 
Q 33.40625 0 29.390625 4.6875 
Q 25.390625 9.46875 25.390625 19.828125 
L 25.390625 45.703125 
L 7.8125 45.703125 
L 7.8125 54.59375 
L 52.4375 54.59375 
L 52.4375 45.703125 
L 34.578125 45.703125 
L 34.578125 19.28125 
Q 34.578125 12.203125 36.234375 9.96875 
z
" id="DejaVuSansMono-3c4"/>
      <path id="DejaVuSansMono-20"/>
      <path d="M 43.21875 75.875 
Q 36.71875 64.75 33.515625 53.6875 
Q 30.328125 42.625 30.328125 31.390625 
Q 30.328125 20.21875 33.515625 9.125 
Q 36.71875 -1.953125 43.21875 -13.1875 
L 35.40625 -13.1875 
Q 28.03125 -1.5625 24.40625 9.4375 
Q 20.796875 20.453125 20.796875 31.390625 
Q 20.796875 42.28125 24.40625 53.3125 
Q 28.03125 64.359375 35.40625 75.875 
z
" id="DejaVuSansMono-28"/>
      <path d="M 51.3125 33.890625 
L 51.3125 0 
L 42.28125 0 
L 42.28125 33.890625 
Q 42.28125 41.265625 39.6875 44.71875 
Q 37.109375 48.1875 31.59375 48.1875 
Q 25.296875 48.1875 21.890625 43.71875 
Q 18.5 39.265625 18.5 30.90625 
L 18.5 0 
L 9.515625 0 
L 9.515625 54.6875 
L 18.5 54.6875 
L 18.5 46.484375 
Q 20.90625 51.171875 25 53.578125 
Q 29.109375 56 34.71875 56 
Q 43.0625 56 47.1875 50.5 
Q 51.3125 45.015625 51.3125 33.890625 
z
" id="DejaVuSansMono-6e"/>
      <path d="M 47.515625 52.78125 
L 47.515625 44 
Q 43.65625 46.234375 39.75 47.359375 
Q 35.84375 48.484375 31.78125 48.484375 
Q 25.6875 48.484375 22.671875 46.5 
Q 19.671875 44.53125 19.671875 40.484375 
Q 19.671875 36.8125 21.921875 35 
Q 24.171875 33.203125 33.109375 31.5 
L 36.71875 30.8125 
Q 43.40625 29.546875 46.84375 25.734375 
Q 50.296875 21.921875 50.296875 15.828125 
Q 50.296875 7.71875 44.53125 3.140625 
Q 38.765625 -1.421875 28.515625 -1.421875 
Q 24.46875 -1.421875 20.015625 -0.5625 
Q 15.578125 0.296875 10.40625 2 
L 10.40625 11.28125 
Q 15.4375 8.6875 20.015625 7.390625 
Q 24.609375 6.109375 28.71875 6.109375 
Q 34.671875 6.109375 37.9375 8.515625 
Q 41.21875 10.9375 41.21875 15.28125 
Q 41.21875 21.53125 29.25 23.921875 
L 28.859375 24.03125 
L 25.484375 24.703125 
Q 17.71875 26.21875 14.15625 29.8125 
Q 10.59375 33.40625 10.59375 39.59375 
Q 10.59375 47.46875 15.90625 51.734375 
Q 21.234375 56 31.109375 56 
Q 35.5 56 39.546875 55.1875 
Q 43.609375 54.390625 47.515625 52.78125 
z
" id="DejaVuSansMono-73"/>
      <path d="M 17 75.875 
L 24.8125 75.875 
Q 32.171875 64.359375 35.78125 53.3125 
Q 39.40625 42.28125 39.40625 31.390625 
Q 39.40625 20.40625 35.78125 9.375 
Q 32.171875 -1.65625 24.8125 -13.1875 
L 17 -13.1875 
Q 23.484375 -1.859375 26.6875 9.21875 
Q 29.890625 20.3125 29.890625 31.390625 
Q 29.890625 42.53125 26.6875 53.609375 
Q 23.484375 64.703125 17 75.875 
z
" id="DejaVuSansMono-29"/>
     </defs>
     <g style="fill:#e5dc5a;" transform="translate(298.658133 409.38625)scale(0.08 -0.08)">
      <use xlink:href="#DejaVuSansMono-3c4"/>
      <use x="60.205078" xlink:href="#DejaVuSansMono-20"/>
      <use x="120.410156" xlink:href="#DejaVuSansMono-28"/>
      <use x="180.615234" xlink:href="#DejaVuSansMono-6e"/>
      <use x="240.820312" xlink:href="#DejaVuSansMono-73"/>
      <use x="301.025391" xlink:href="#DejaVuSansMono-29"/>
     </g>
    </g>
   </g>
   <g id="matplotlib.axis_2">
    <g id="ytick_1">
     <g id="line2d_11">
      <path clip-path="url(#pc6d6dad856)" d="M 76.367532 369.36 
L 549.846233 369.36 
" style="fill:none;stroke:#606054;stroke-dasharray:0.8,1.32;stroke-dashoffset:0;stroke-width:0.8;"/>
     </g>
     <g id="line2d_12">
      <defs>
       <path d="M 0 0 
L -3.5 0 
" id="m9933de816c" style="stroke:#917df0;stroke-width:0.8;"/>
      </defs>
      <g>
       <use style="fill:#917df0;stroke:#917df0;stroke-width:0.8;" x="76.367532" xlink:href="#m9933de816c" y="369.36"/>
      </g>
     </g>
     <g id="text_7">
      <!-- 0.0 -->
      <defs>
       <path d="M 23.875 14.890625 
L 36.1875 14.890625 
L 36.1875 0 
L 23.875 0 
z
" id="DejaVuSansMono-2e"/>
      </defs>
      <g style="fill:#917df0;" transform="translate(54.918782 372.420625)scale(0.08 -0.08)">
       <use xlink:href="#DejaVuSansMono-30"/>
       <use x="60.205078" xlink:href="#DejaVuSansMono-2e"/>
       <use x="120.410156" xlink:href="#DejaVuSansMono-30"/>
      </g>
     </g>
    </g>
    <g id="ytick_2">
     <g id="line2d_13">
      <path clip-path="url(#pc6d6dad856)" d="M 76.367532 304.749986 
L 549.846233 304.749986 
" style="fill:none;stroke:#606054;stroke-dasharray:0.8,1.32;stroke-dashoffset:0;stroke-width:0.8;"/>
     </g>
     <g id="line2d_14">
      <g>
       <use style="fill:#917df0;stroke:#917df0;stroke-width:0.8;" x="76.367532" xlink:href="#m9933de816c" y="304.749986"/>
      </g>
     </g>
     <g id="text_8">
      <!-- 0.5 -->
      <defs>
       <path d="M 10.109375 72.90625 
L 47.015625 72.90625 
L 47.015625 64.59375 
L 19.09375 64.59375 
L 19.09375 46.6875 
Q 21.1875 47.46875 23.3125 47.828125 
Q 25.4375 48.1875 27.59375 48.1875 
Q 38.921875 48.1875 45.5625 41.5 
Q 52.203125 34.8125 52.203125 23.390625 
Q 52.203125 11.859375 45.234375 5.21875 
Q 38.28125 -1.421875 26.21875 -1.421875 
Q 20.40625 -1.421875 15.59375 -0.640625 
Q 10.796875 0.140625 6.984375 1.703125 
L 6.984375 11.71875 
Q 11.46875 9.28125 16.015625 8.078125 
Q 20.5625 6.890625 25.296875 6.890625 
Q 33.453125 6.890625 37.859375 11.1875 
Q 42.28125 15.484375 42.28125 23.390625 
Q 42.28125 31.203125 37.71875 35.546875 
Q 33.15625 39.890625 25 39.890625 
Q 21.046875 39.890625 17.28125 38.984375 
Q 13.53125 38.09375 10.109375 36.28125 
z
" id="DejaVuSansMono-35"/>
      </defs>
      <g style="fill:#917df0;" transform="translate(54.918782 307.810611)scale(0.08 -0.08)">
       <use xlink:href="#DejaVuSansMono-30"/>
       <use x="60.205078" xlink:href="#DejaVuSansMono-2e"/>
       <use x="120.410156" xlink:href="#DejaVuSansMono-35"/>
      </g>
     </g>
    </g>
    <g id="ytick_3">
     <g id="line2d_15">
      <path clip-path="url(#pc6d6dad856)" d="M 76.367532 240.139971 
L 549.846233 240.139971 
" style="fill:none;stroke:#606054;stroke-dasharray:0.8,1.32;stroke-dashoffset:0;stroke-width:0.8;"/>
     </g>
     <g id="line2d_16">
      <g>
       <use style="fill:#917df0;stroke:#917df0;stroke-width:0.8;" x="76.367532" xlink:href="#m9933de816c" y="240.139971"/>
      </g>
     </g>
     <g id="text_9">
      <!-- 1.0 -->
      <defs>
       <path d="M 13.1875 8.296875 
L 28.515625 8.296875 
L 28.515625 64.015625 
L 12.015625 60.296875 
L 12.015625 69.28125 
L 28.421875 72.90625 
L 38.28125 72.90625 
L 38.28125 8.296875 
L 53.421875 8.296875 
L 53.421875 0 
L 13.1875 0 
z
" id="DejaVuSansMono-31"/>
      </defs>
      <g style="fill:#917df0;" transform="translate(54.918782 243.200596)scale(0.08 -0.08)">
       <use xlink:href="#DejaVuSansMono-31"/>
       <use x="60.205078" xlink:href="#DejaVuSansMono-2e"/>
       <use x="120.410156" xlink:href="#DejaVuSansMono-30"/>
      </g>
     </g>
    </g>
    <g id="ytick_4">
     <g id="line2d_17">
      <path clip-path="url(#pc6d6dad856)" d="M 76.367532 175.529957 
L 549.846233 175.529957 
" style="fill:none;stroke:#606054;stroke-dasharray:0.8,1.32;stroke-dashoffset:0;stroke-width:0.8;"/>
     </g>
     <g id="line2d_18">
      <g>
       <use style="fill:#917df0;stroke:#917df0;stroke-width:0.8;" x="76.367532" xlink:href="#m9933de816c" y="175.529957"/>
      </g>
     </g>
     <g id="text_10">
      <!-- 1.5 -->
      <g style="fill:#917df0;" transform="translate(54.918782 178.590582)scale(0.08 -0.08)">
       <use xlink:href="#DejaVuSansMono-31"/>
       <use x="60.205078" xlink:href="#DejaVuSansMono-2e"/>
       <use x="120.410156" xlink:href="#DejaVuSansMono-35"/>
      </g>
     </g>
    </g>
    <g id="ytick_5">
     <g id="line2d_19">
      <path clip-path="url(#pc6d6dad856)" d="M 76.367532 110.919942 
L 549.846233 110.919942 
" style="fill:none;stroke:#606054;stroke-dasharray:0.8,1.32;stroke-dashoffset:0;stroke-width:0.8;"/>
     </g>
     <g id="line2d_20">
      <g>
       <use style="fill:#917df0;stroke:#917df0;stroke-width:0.8;" x="76.367532" xlink:href="#m9933de816c" y="110.919942"/>
      </g>
     </g>
     <g id="text_11">
      <!-- 2.0 -->
      <g style="fill:#917df0;" transform="translate(54.918782 113.980567)scale(0.08 -0.08)">
       <use xlink:href="#DejaVuSansMono-32"/>
       <use x="60.205078" xlink:href="#DejaVuSansMono-2e"/>
       <use x="120.410156" xlink:href="#DejaVuSansMono-30"/>
      </g>
     </g>
    </g>
    <g id="text_12">
     <!-- g$^2$(τ) -->
     <defs>
      <path d="M 41.890625 27.78125 
Q 41.890625 37.890625 38.59375 43.140625 
Q 35.296875 48.390625 29 48.390625 
Q 22.40625 48.390625 18.9375 43.140625 
Q 15.484375 37.890625 15.484375 27.78125 
Q 15.484375 17.671875 18.96875 12.375 
Q 22.46875 7.078125 29.109375 7.078125 
Q 35.296875 7.078125 38.59375 12.390625 
Q 41.890625 17.71875 41.890625 27.78125 
z
M 50.875 3.515625 
Q 50.875 -8.796875 45.0625 -15.140625 
Q 39.265625 -21.484375 27.984375 -21.484375 
Q 24.265625 -21.484375 20.203125 -20.796875 
Q 16.15625 -20.125 12.109375 -18.796875 
L 12.109375 -9.90625 
Q 16.890625 -12.15625 20.796875 -13.234375 
Q 24.703125 -14.3125 27.984375 -14.3125 
Q 35.25 -14.3125 38.5625 -10.34375 
Q 41.890625 -6.390625 41.890625 2.203125 
L 41.890625 2.59375 
L 41.890625 8.6875 
Q 39.75 4.109375 36.03125 1.859375 
Q 32.328125 -0.390625 27 -0.390625 
Q 17.4375 -0.390625 11.71875 7.265625 
Q 6 14.9375 6 27.78125 
Q 6 40.671875 11.71875 48.328125 
Q 17.4375 56 27 56 
Q 32.28125 56 35.9375 53.90625 
Q 39.59375 51.8125 41.890625 47.40625 
L 41.890625 54.5 
L 50.875 54.5 
z
" id="DejaVuSansMono-67"/>
      <path d="M 19.1875 8.296875 
L 53.609375 8.296875 
L 53.609375 0 
L 7.328125 0 
L 7.328125 8.296875 
Q 12.9375 14.109375 22.625 23.890625 
Q 32.328125 33.6875 34.8125 36.53125 
Q 39.546875 41.84375 41.421875 45.53125 
Q 43.3125 49.21875 43.3125 52.78125 
Q 43.3125 58.59375 39.234375 62.25 
Q 35.15625 65.921875 28.609375 65.921875 
Q 23.96875 65.921875 18.8125 64.3125 
Q 13.671875 62.703125 7.8125 59.421875 
L 7.8125 69.390625 
Q 13.765625 71.78125 18.9375 73 
Q 24.125 74.21875 28.421875 74.21875 
Q 39.75 74.21875 46.484375 68.546875 
Q 53.21875 62.890625 53.21875 53.421875 
Q 53.21875 48.921875 51.53125 44.890625 
Q 49.859375 40.875 45.40625 35.40625 
Q 44.1875 33.984375 37.640625 27.21875 
Q 31.109375 20.453125 19.1875 8.296875 
z
" id="DejaVuSans-32"/>
     </defs>
     <g style="fill:#e5dc5a;" transform="translate(49.158782 229.76)rotate(-90)scale(0.08 -0.08)">
      <use transform="translate(0 0.765625)" xlink:href="#DejaVuSansMono-67"/>
      <use transform="translate(61.162109 39.046875)scale(0.7)" xlink:href="#DejaVuSans-32"/>
      <use transform="translate(108.432617 0.765625)" xlink:href="#DejaVuSansMono-28"/>
      <use transform="translate(168.637695 0.765625)" xlink:href="#DejaVuSansMono-3c4"/>
      <use transform="translate(228.842773 0.765625)" xlink:href="#DejaVuSansMono-29"/>
     </g>
    </g>
   </g>
   <g id="line2d_21">
    <defs>
     <path d="M 0 1.5 
C 0.397805 1.5 0.77937 1.341951 1.06066 1.06066 
C 1.341951 0.77937 1.5 0.397805 1.5 0 
C 1.5 -0.397805 1.341951 -0.77937 1.06066 -1.06066 
C 0.77937 -1.341951 0.397805 -1.5 0 -1.5 
C -0.397805 -1.5 -0.77937 -1.341951 -1.06066 -1.06066 
C -1.341951 -0.77937 -1.5 -0.397805 -1.5 0 
C -1.5 0.397805 -1.341951 0.77937 -1.06066 1.06066 
C -0.77937 1.341951 -0.397805 1.5 0 1.5 
z
" id="mbab3cfa406" style="stroke:#1e90e5;"/>
    </defs>
    <g clip-path="url(#pc6d6dad856)">
     <use style="fill:#1e90e5;stroke:#1e90e5;" x="97.889291" xlink:href="#mbab3cfa406" y="327.319024"/>
     <use style="fill:#1e90e5;stroke:#1e90e5;" x="100.041467" xlink:href="#mbab3cfa406" y="313.305366"/>
     <use style="fill:#1e90e5;stroke:#1e90e5;" x="102.193643" xlink:href="#mbab3cfa406" y="308.88"/>
     <use style="fill:#1e90e5;stroke:#1e90e5;" x="104.345819" xlink:href="#mbab3cfa406" y="309.617561"/>
     <use style="fill:#1e90e5;stroke:#1e90e5;" x="106.497995" xlink:href="#mbab3cfa406" y="302.979512"/>
     <use style="fill:#1e90e5;stroke:#1e90e5;" x="108.650171" xlink:href="#mbab3cfa406" y="301.50439"/>
     <use style="fill:#1e90e5;stroke:#1e90e5;" x="110.802347" xlink:href="#mbab3cfa406" y="301.50439"/>
     <use style="fill:#1e90e5;stroke:#1e90e5;" x="112.954523" xlink:href="#mbab3cfa406" y="281.590244"/>
     <use style="fill:#1e90e5;stroke:#1e90e5;" x="115.106699" xlink:href="#mbab3cfa406" y="286.01561"/>
     <use style="fill:#1e90e5;stroke:#1e90e5;" x="117.258875" xlink:href="#mbab3cfa406" y="274.214634"/>
     <use style="fill:#1e90e5;stroke:#1e90e5;" x="119.411051" xlink:href="#mbab3cfa406" y="285.278049"/>
     <use style="fill:#1e90e5;stroke:#1e90e5;" x="121.563227" xlink:href="#mbab3cfa406" y="287.490732"/>
     <use style="fill:#1e90e5;stroke:#1e90e5;" x="123.715402" xlink:href="#mbab3cfa406" y="281.590244"/>
     <use style="fill:#1e90e5;stroke:#1e90e5;" x="125.867578" xlink:href="#mbab3cfa406" y="284.540488"/>
     <use style="fill:#1e90e5;stroke:#1e90e5;" x="128.019754" xlink:href="#mbab3cfa406" y="289.703415"/>
     <use style="fill:#1e90e5;stroke:#1e90e5;" x="130.17193" xlink:href="#mbab3cfa406" y="283.802927"/>
     <use style="fill:#1e90e5;stroke:#1e90e5;" x="132.324106" xlink:href="#mbab3cfa406" y="300.766829"/>
     <use style="fill:#1e90e5;stroke:#1e90e5;" x="134.476282" xlink:href="#mbab3cfa406" y="302.979512"/>
     <use style="fill:#1e90e5;stroke:#1e90e5;" x="136.628458" xlink:href="#mbab3cfa406" y="326.581463"/>
     <use style="fill:#1e90e5;stroke:#1e90e5;" x="138.780634" xlink:href="#mbab3cfa406" y="314.780488"/>
     <use style="fill:#1e90e5;stroke:#1e90e5;" x="140.93281" xlink:href="#mbab3cfa406" y="321.418537"/>
     <use style="fill:#1e90e5;stroke:#1e90e5;" x="143.084986" xlink:href="#mbab3cfa406" y="328.056585"/>
     <use style="fill:#1e90e5;stroke:#1e90e5;" x="145.237162" xlink:href="#mbab3cfa406" y="316.25561"/>
     <use style="fill:#1e90e5;stroke:#1e90e5;" x="147.389337" xlink:href="#mbab3cfa406" y="308.142439"/>
     <use style="fill:#1e90e5;stroke:#1e90e5;" x="149.541513" xlink:href="#mbab3cfa406" y="300.766829"/>
     <use style="fill:#1e90e5;stroke:#1e90e5;" x="151.693689" xlink:href="#mbab3cfa406" y="300.029268"/>
     <use style="fill:#1e90e5;stroke:#1e90e5;" x="153.845865" xlink:href="#mbab3cfa406" y="270.526829"/>
     <use style="fill:#1e90e5;stroke:#1e90e5;" x="155.998041" xlink:href="#mbab3cfa406" y="275.689756"/>
     <use style="fill:#1e90e5;stroke:#1e90e5;" x="158.150217" xlink:href="#mbab3cfa406" y="281.590244"/>
     <use style="fill:#1e90e5;stroke:#1e90e5;" x="160.302393" xlink:href="#mbab3cfa406" y="257.250732"/>
     <use style="fill:#1e90e5;stroke:#1e90e5;" x="162.454569" xlink:href="#mbab3cfa406" y="253.562927"/>
     <use style="fill:#1e90e5;stroke:#1e90e5;" x="164.606745" xlink:href="#mbab3cfa406" y="263.15122"/>
     <use style="fill:#1e90e5;stroke:#1e90e5;" x="166.758921" xlink:href="#mbab3cfa406" y="246.187317"/>
     <use style="fill:#1e90e5;stroke:#1e90e5;" x="168.911097" xlink:href="#mbab3cfa406" y="248.4"/>
     <use style="fill:#1e90e5;stroke:#1e90e5;" x="171.063273" xlink:href="#mbab3cfa406" y="257.250732"/>
     <use style="fill:#1e90e5;stroke:#1e90e5;" x="173.215448" xlink:href="#mbab3cfa406" y="253.562927"/>
     <use style="fill:#1e90e5;stroke:#1e90e5;" x="175.367624" xlink:href="#mbab3cfa406" y="266.839024"/>
     <use style="fill:#1e90e5;stroke:#1e90e5;" x="177.5198" xlink:href="#mbab3cfa406" y="291.916098"/>
     <use style="fill:#1e90e5;stroke:#1e90e5;" x="179.671976" xlink:href="#mbab3cfa406" y="293.39122"/>
     <use style="fill:#1e90e5;stroke:#1e90e5;" x="181.824152" xlink:href="#mbab3cfa406" y="311.092683"/>
     <use style="fill:#1e90e5;stroke:#1e90e5;" x="183.976328" xlink:href="#mbab3cfa406" y="326.581463"/>
     <use style="fill:#1e90e5;stroke:#1e90e5;" x="186.128504" xlink:href="#mbab3cfa406" y="314.780488"/>
     <use style="fill:#1e90e5;stroke:#1e90e5;" x="188.28068" xlink:href="#mbab3cfa406" y="318.468293"/>
     <use style="fill:#1e90e5;stroke:#1e90e5;" x="190.432856" xlink:href="#mbab3cfa406" y="322.893659"/>
     <use style="fill:#1e90e5;stroke:#1e90e5;" x="192.585032" xlink:href="#mbab3cfa406" y="323.63122"/>
     <use style="fill:#1e90e5;stroke:#1e90e5;" x="194.737208" xlink:href="#mbab3cfa406" y="313.305366"/>
     <use style="fill:#1e90e5;stroke:#1e90e5;" x="196.889383" xlink:href="#mbab3cfa406" y="300.766829"/>
     <use style="fill:#1e90e5;stroke:#1e90e5;" x="199.041559" xlink:href="#mbab3cfa406" y="304.454634"/>
     <use style="fill:#1e90e5;stroke:#1e90e5;" x="201.193735" xlink:href="#mbab3cfa406" y="303.717073"/>
     <use style="fill:#1e90e5;stroke:#1e90e5;" x="203.345911" xlink:href="#mbab3cfa406" y="274.214634"/>
     <use style="fill:#1e90e5;stroke:#1e90e5;" x="205.498087" xlink:href="#mbab3cfa406" y="265.363902"/>
     <use style="fill:#1e90e5;stroke:#1e90e5;" x="207.650263" xlink:href="#mbab3cfa406" y="248.4"/>
     <use style="fill:#1e90e5;stroke:#1e90e5;" x="209.802439" xlink:href="#mbab3cfa406" y="212.997073"/>
     <use style="fill:#1e90e5;stroke:#1e90e5;" x="211.954615" xlink:href="#mbab3cfa406" y="218.16"/>
     <use style="fill:#1e90e5;stroke:#1e90e5;" x="214.106791" xlink:href="#mbab3cfa406" y="193.820488"/>
     <use style="fill:#1e90e5;stroke:#1e90e5;" x="216.258967" xlink:href="#mbab3cfa406" y="192.345366"/>
     <use style="fill:#1e90e5;stroke:#1e90e5;" x="218.411143" xlink:href="#mbab3cfa406" y="191.607805"/>
     <use style="fill:#1e90e5;stroke:#1e90e5;" x="220.563318" xlink:href="#mbab3cfa406" y="211.521951"/>
     <use style="fill:#1e90e5;stroke:#1e90e5;" x="222.715494" xlink:href="#mbab3cfa406" y="243.974634"/>
     <use style="fill:#1e90e5;stroke:#1e90e5;" x="224.86767" xlink:href="#mbab3cfa406" y="258.725854"/>
     <use style="fill:#1e90e5;stroke:#1e90e5;" x="227.019846" xlink:href="#mbab3cfa406" y="302.979512"/>
     <use style="fill:#1e90e5;stroke:#1e90e5;" x="229.172022" xlink:href="#mbab3cfa406" y="294.12878"/>
     <use style="fill:#1e90e5;stroke:#1e90e5;" x="231.324198" xlink:href="#mbab3cfa406" y="304.454634"/>
     <use style="fill:#1e90e5;stroke:#1e90e5;" x="233.476374" xlink:href="#mbab3cfa406" y="297.079024"/>
     <use style="fill:#1e90e5;stroke:#1e90e5;" x="235.62855" xlink:href="#mbab3cfa406" y="300.766829"/>
     <use style="fill:#1e90e5;stroke:#1e90e5;" x="237.780726" xlink:href="#mbab3cfa406" y="300.766829"/>
     <use style="fill:#1e90e5;stroke:#1e90e5;" x="239.932902" xlink:href="#mbab3cfa406" y="310.355122"/>
     <use style="fill:#1e90e5;stroke:#1e90e5;" x="242.085078" xlink:href="#mbab3cfa406" y="308.142439"/>
     <use style="fill:#1e90e5;stroke:#1e90e5;" x="244.237254" xlink:href="#mbab3cfa406" y="297.079024"/>
     <use style="fill:#1e90e5;stroke:#1e90e5;" x="246.389429" xlink:href="#mbab3cfa406" y="300.766829"/>
     <use style="fill:#1e90e5;stroke:#1e90e5;" x="248.541605" xlink:href="#mbab3cfa406" y="290.440976"/>
     <use style="fill:#1e90e5;stroke:#1e90e5;" x="250.693781" xlink:href="#mbab3cfa406" y="285.278049"/>
     <use style="fill:#1e90e5;stroke:#1e90e5;" x="252.845957" xlink:href="#mbab3cfa406" y="263.88878"/>
     <use style="fill:#1e90e5;stroke:#1e90e5;" x="254.998133" xlink:href="#mbab3cfa406" y="271.26439"/>
     <use style="fill:#1e90e5;stroke:#1e90e5;" x="257.150309" xlink:href="#mbab3cfa406" y="216.684878"/>
     <use style="fill:#1e90e5;stroke:#1e90e5;" x="259.302485" xlink:href="#mbab3cfa406" y="184.232195"/>
     <use style="fill:#1e90e5;stroke:#1e90e5;" x="261.454661" xlink:href="#mbab3cfa406" y="148.829268"/>
     <use style="fill:#1e90e5;stroke:#1e90e5;" x="263.606837" xlink:href="#mbab3cfa406" y="75.810732"/>
     <use style="fill:#1e90e5;stroke:#1e90e5;" x="265.759013" xlink:href="#mbab3cfa406" y="73.598049"/>
     <use style="fill:#1e90e5;stroke:#1e90e5;" x="267.911189" xlink:href="#mbab3cfa406" y="143.666341"/>
     <use style="fill:#1e90e5;stroke:#1e90e5;" x="270.063364" xlink:href="#mbab3cfa406" y="286.753171"/>
     <use style="fill:#1e90e5;stroke:#1e90e5;" x="272.21554" xlink:href="#mbab3cfa406" y="281.590244"/>
     <use style="fill:#1e90e5;stroke:#1e90e5;" x="274.367716" xlink:href="#mbab3cfa406" y="279.377561"/>
     <use style="fill:#1e90e5;stroke:#1e90e5;" x="276.519892" xlink:href="#mbab3cfa406" y="273.477073"/>
     <use style="fill:#1e90e5;stroke:#1e90e5;" x="278.672068" xlink:href="#mbab3cfa406" y="272.001951"/>
     <use style="fill:#1e90e5;stroke:#1e90e5;" x="280.824244" xlink:href="#mbab3cfa406" y="272.001951"/>
     <use style="fill:#1e90e5;stroke:#1e90e5;" x="282.97642" xlink:href="#mbab3cfa406" y="270.526829"/>
     <use style="fill:#1e90e5;stroke:#1e90e5;" x="285.128596" xlink:href="#mbab3cfa406" y="280.115122"/>
     <use style="fill:#1e90e5;stroke:#1e90e5;" x="287.280772" xlink:href="#mbab3cfa406" y="286.01561"/>
     <use style="fill:#1e90e5;stroke:#1e90e5;" x="289.432948" xlink:href="#mbab3cfa406" y="285.278049"/>
     <use style="fill:#1e90e5;stroke:#1e90e5;" x="291.585124" xlink:href="#mbab3cfa406" y="297.079024"/>
     <use style="fill:#1e90e5;stroke:#1e90e5;" x="293.737299" xlink:href="#mbab3cfa406" y="291.916098"/>
     <use style="fill:#1e90e5;stroke:#1e90e5;" x="295.889475" xlink:href="#mbab3cfa406" y="274.214634"/>
     <use style="fill:#1e90e5;stroke:#1e90e5;" x="298.041651" xlink:href="#mbab3cfa406" y="276.427317"/>
     <use style="fill:#1e90e5;stroke:#1e90e5;" x="300.193827" xlink:href="#mbab3cfa406" y="288.228293"/>
     <use style="fill:#1e90e5;stroke:#1e90e5;" x="302.346003" xlink:href="#mbab3cfa406" y="306.667317"/>
     <use style="fill:#1e90e5;stroke:#1e90e5;" x="304.498179" xlink:href="#mbab3cfa406" y="315.518049"/>
     <use style="fill:#1e90e5;stroke:#1e90e5;" x="306.650355" xlink:href="#mbab3cfa406" y="335.432195"/>
     <use style="fill:#1e90e5;stroke:#1e90e5;" x="308.802531" xlink:href="#mbab3cfa406" y="347.970732"/>
     <use style="fill:#1e90e5;stroke:#1e90e5;" x="310.954707" xlink:href="#mbab3cfa406" y="363.459512"/>
     <use style="fill:#1e90e5;stroke:#1e90e5;" x="313.106883" xlink:href="#mbab3cfa406" y="369.36"/>
     <use style="fill:#1e90e5;stroke:#1e90e5;" x="315.259059" xlink:href="#mbab3cfa406" y="362.721951"/>
     <use style="fill:#1e90e5;stroke:#1e90e5;" x="317.411235" xlink:href="#mbab3cfa406" y="347.970732"/>
     <use style="fill:#1e90e5;stroke:#1e90e5;" x="319.56341" xlink:href="#mbab3cfa406" y="322.893659"/>
     <use style="fill:#1e90e5;stroke:#1e90e5;" x="321.715586" xlink:href="#mbab3cfa406" y="319.943415"/>
     <use style="fill:#1e90e5;stroke:#1e90e5;" x="323.867762" xlink:href="#mbab3cfa406" y="313.305366"/>
     <use style="fill:#1e90e5;stroke:#1e90e5;" x="326.019938" xlink:href="#mbab3cfa406" y="306.667317"/>
     <use style="fill:#1e90e5;stroke:#1e90e5;" x="328.172114" xlink:href="#mbab3cfa406" y="275.689756"/>
     <use style="fill:#1e90e5;stroke:#1e90e5;" x="330.32429" xlink:href="#mbab3cfa406" y="275.689756"/>
     <use style="fill:#1e90e5;stroke:#1e90e5;" x="332.476466" xlink:href="#mbab3cfa406" y="286.753171"/>
     <use style="fill:#1e90e5;stroke:#1e90e5;" x="334.628642" xlink:href="#mbab3cfa406" y="281.590244"/>
     <use style="fill:#1e90e5;stroke:#1e90e5;" x="336.780818" xlink:href="#mbab3cfa406" y="286.01561"/>
     <use style="fill:#1e90e5;stroke:#1e90e5;" x="338.932994" xlink:href="#mbab3cfa406" y="274.214634"/>
     <use style="fill:#1e90e5;stroke:#1e90e5;" x="341.08517" xlink:href="#mbab3cfa406" y="293.39122"/>
     <use style="fill:#1e90e5;stroke:#1e90e5;" x="343.237345" xlink:href="#mbab3cfa406" y="280.852683"/>
     <use style="fill:#1e90e5;stroke:#1e90e5;" x="345.389521" xlink:href="#mbab3cfa406" y="288.228293"/>
     <use style="fill:#1e90e5;stroke:#1e90e5;" x="347.541697" xlink:href="#mbab3cfa406" y="283.802927"/>
     <use style="fill:#1e90e5;stroke:#1e90e5;" x="349.693873" xlink:href="#mbab3cfa406" y="282.327805"/>
     <use style="fill:#1e90e5;stroke:#1e90e5;" x="351.846049" xlink:href="#mbab3cfa406" y="276.427317"/>
     <use style="fill:#1e90e5;stroke:#1e90e5;" x="353.998225" xlink:href="#mbab3cfa406" y="280.115122"/>
     <use style="fill:#1e90e5;stroke:#1e90e5;" x="356.150401" xlink:href="#mbab3cfa406" y="291.178537"/>
     <use style="fill:#1e90e5;stroke:#1e90e5;" x="358.302577" xlink:href="#mbab3cfa406" y="131.865366"/>
     <use style="fill:#1e90e5;stroke:#1e90e5;" x="360.454753" xlink:href="#mbab3cfa406" y="66.96"/>
     <use style="fill:#1e90e5;stroke:#1e90e5;" x="362.606929" xlink:href="#mbab3cfa406" y="78.760976"/>
     <use style="fill:#1e90e5;stroke:#1e90e5;" x="364.759105" xlink:href="#mbab3cfa406" y="142.19122"/>
     <use style="fill:#1e90e5;stroke:#1e90e5;" x="366.911281" xlink:href="#mbab3cfa406" y="179.806829"/>
     <use style="fill:#1e90e5;stroke:#1e90e5;" x="369.063456" xlink:href="#mbab3cfa406" y="233.64878"/>
     <use style="fill:#1e90e5;stroke:#1e90e5;" x="371.215632" xlink:href="#mbab3cfa406" y="266.101463"/>
     <use style="fill:#1e90e5;stroke:#1e90e5;" x="373.367808" xlink:href="#mbab3cfa406" y="276.427317"/>
     <use style="fill:#1e90e5;stroke:#1e90e5;" x="375.519984" xlink:href="#mbab3cfa406" y="274.214634"/>
     <use style="fill:#1e90e5;stroke:#1e90e5;" x="377.67216" xlink:href="#mbab3cfa406" y="299.291707"/>
     <use style="fill:#1e90e5;stroke:#1e90e5;" x="379.824336" xlink:href="#mbab3cfa406" y="307.404878"/>
     <use style="fill:#1e90e5;stroke:#1e90e5;" x="381.976512" xlink:href="#mbab3cfa406" y="314.042927"/>
     <use style="fill:#1e90e5;stroke:#1e90e5;" x="384.128688" xlink:href="#mbab3cfa406" y="301.50439"/>
     <use style="fill:#1e90e5;stroke:#1e90e5;" x="386.280864" xlink:href="#mbab3cfa406" y="302.979512"/>
     <use style="fill:#1e90e5;stroke:#1e90e5;" x="388.43304" xlink:href="#mbab3cfa406" y="299.291707"/>
     <use style="fill:#1e90e5;stroke:#1e90e5;" x="390.585216" xlink:href="#mbab3cfa406" y="305.192195"/>
     <use style="fill:#1e90e5;stroke:#1e90e5;" x="392.737391" xlink:href="#mbab3cfa406" y="294.866341"/>
     <use style="fill:#1e90e5;stroke:#1e90e5;" x="394.889567" xlink:href="#mbab3cfa406" y="306.667317"/>
     <use style="fill:#1e90e5;stroke:#1e90e5;" x="397.041743" xlink:href="#mbab3cfa406" y="286.01561"/>
     <use style="fill:#1e90e5;stroke:#1e90e5;" x="399.193919" xlink:href="#mbab3cfa406" y="300.029268"/>
     <use style="fill:#1e90e5;stroke:#1e90e5;" x="401.346095" xlink:href="#mbab3cfa406" y="260.938537"/>
     <use style="fill:#1e90e5;stroke:#1e90e5;" x="403.498271" xlink:href="#mbab3cfa406" y="242.499512"/>
     <use style="fill:#1e90e5;stroke:#1e90e5;" x="405.650447" xlink:href="#mbab3cfa406" y="232.173659"/>
     <use style="fill:#1e90e5;stroke:#1e90e5;" x="407.802623" xlink:href="#mbab3cfa406" y="211.521951"/>
     <use style="fill:#1e90e5;stroke:#1e90e5;" x="409.954799" xlink:href="#mbab3cfa406" y="201.196098"/>
     <use style="fill:#1e90e5;stroke:#1e90e5;" x="412.106975" xlink:href="#mbab3cfa406" y="216.684878"/>
     <use style="fill:#1e90e5;stroke:#1e90e5;" x="414.259151" xlink:href="#mbab3cfa406" y="209.309268"/>
     <use style="fill:#1e90e5;stroke:#1e90e5;" x="416.411326" xlink:href="#mbab3cfa406" y="237.336585"/>
     <use style="fill:#1e90e5;stroke:#1e90e5;" x="418.563502" xlink:href="#mbab3cfa406" y="239.549268"/>
     <use style="fill:#1e90e5;stroke:#1e90e5;" x="420.715678" xlink:href="#mbab3cfa406" y="257.250732"/>
     <use style="fill:#1e90e5;stroke:#1e90e5;" x="422.867854" xlink:href="#mbab3cfa406" y="255.038049"/>
     <use style="fill:#1e90e5;stroke:#1e90e5;" x="425.02003" xlink:href="#mbab3cfa406" y="299.291707"/>
     <use style="fill:#1e90e5;stroke:#1e90e5;" x="427.172206" xlink:href="#mbab3cfa406" y="290.440976"/>
     <use style="fill:#1e90e5;stroke:#1e90e5;" x="429.324382" xlink:href="#mbab3cfa406" y="305.192195"/>
     <use style="fill:#1e90e5;stroke:#1e90e5;" x="431.476558" xlink:href="#mbab3cfa406" y="304.454634"/>
     <use style="fill:#1e90e5;stroke:#1e90e5;" x="433.628734" xlink:href="#mbab3cfa406" y="302.979512"/>
     <use style="fill:#1e90e5;stroke:#1e90e5;" x="435.78091" xlink:href="#mbab3cfa406" y="313.305366"/>
     <use style="fill:#1e90e5;stroke:#1e90e5;" x="437.933086" xlink:href="#mbab3cfa406" y="316.25561"/>
     <use style="fill:#1e90e5;stroke:#1e90e5;" x="440.085262" xlink:href="#mbab3cfa406" y="311.830244"/>
     <use style="fill:#1e90e5;stroke:#1e90e5;" x="442.237437" xlink:href="#mbab3cfa406" y="326.581463"/>
     <use style="fill:#1e90e5;stroke:#1e90e5;" x="444.389613" xlink:href="#mbab3cfa406" y="302.241951"/>
     <use style="fill:#1e90e5;stroke:#1e90e5;" x="446.541789" xlink:href="#mbab3cfa406" y="291.916098"/>
     <use style="fill:#1e90e5;stroke:#1e90e5;" x="448.693965" xlink:href="#mbab3cfa406" y="277.902439"/>
     <use style="fill:#1e90e5;stroke:#1e90e5;" x="450.846141" xlink:href="#mbab3cfa406" y="279.377561"/>
     <use style="fill:#1e90e5;stroke:#1e90e5;" x="452.998317" xlink:href="#mbab3cfa406" y="246.187317"/>
     <use style="fill:#1e90e5;stroke:#1e90e5;" x="455.150493" xlink:href="#mbab3cfa406" y="241.761951"/>
     <use style="fill:#1e90e5;stroke:#1e90e5;" x="457.302669" xlink:href="#mbab3cfa406" y="238.811707"/>
     <use style="fill:#1e90e5;stroke:#1e90e5;" x="459.454845" xlink:href="#mbab3cfa406" y="249.875122"/>
     <use style="fill:#1e90e5;stroke:#1e90e5;" x="461.607021" xlink:href="#mbab3cfa406" y="255.77561"/>
     <use style="fill:#1e90e5;stroke:#1e90e5;" x="463.759197" xlink:href="#mbab3cfa406" y="241.761951"/>
     <use style="fill:#1e90e5;stroke:#1e90e5;" x="465.911372" xlink:href="#mbab3cfa406" y="274.214634"/>
     <use style="fill:#1e90e5;stroke:#1e90e5;" x="468.063548" xlink:href="#mbab3cfa406" y="261.676098"/>
     <use style="fill:#1e90e5;stroke:#1e90e5;" x="470.215724" xlink:href="#mbab3cfa406" y="274.214634"/>
     <use style="fill:#1e90e5;stroke:#1e90e5;" x="472.3679" xlink:href="#mbab3cfa406" y="301.50439"/>
     <use style="fill:#1e90e5;stroke:#1e90e5;" x="474.520076" xlink:href="#mbab3cfa406" y="305.192195"/>
     <use style="fill:#1e90e5;stroke:#1e90e5;" x="476.672252" xlink:href="#mbab3cfa406" y="302.979512"/>
     <use style="fill:#1e90e5;stroke:#1e90e5;" x="478.824428" xlink:href="#mbab3cfa406" y="317.730732"/>
     <use style="fill:#1e90e5;stroke:#1e90e5;" x="480.976604" xlink:href="#mbab3cfa406" y="315.518049"/>
     <use style="fill:#1e90e5;stroke:#1e90e5;" x="483.12878" xlink:href="#mbab3cfa406" y="328.056585"/>
     <use style="fill:#1e90e5;stroke:#1e90e5;" x="485.280956" xlink:href="#mbab3cfa406" y="319.205854"/>
     <use style="fill:#1e90e5;stroke:#1e90e5;" x="487.433132" xlink:href="#mbab3cfa406" y="319.943415"/>
     <use style="fill:#1e90e5;stroke:#1e90e5;" x="489.585308" xlink:href="#mbab3cfa406" y="329.531707"/>
     <use style="fill:#1e90e5;stroke:#1e90e5;" x="491.737483" xlink:href="#mbab3cfa406" y="306.667317"/>
     <use style="fill:#1e90e5;stroke:#1e90e5;" x="493.889659" xlink:href="#mbab3cfa406" y="289.703415"/>
     <use style="fill:#1e90e5;stroke:#1e90e5;" x="496.041835" xlink:href="#mbab3cfa406" y="287.490732"/>
     <use style="fill:#1e90e5;stroke:#1e90e5;" x="498.194011" xlink:href="#mbab3cfa406" y="284.540488"/>
     <use style="fill:#1e90e5;stroke:#1e90e5;" x="500.346187" xlink:href="#mbab3cfa406" y="274.952195"/>
     <use style="fill:#1e90e5;stroke:#1e90e5;" x="502.498363" xlink:href="#mbab3cfa406" y="284.540488"/>
     <use style="fill:#1e90e5;stroke:#1e90e5;" x="504.650539" xlink:href="#mbab3cfa406" y="284.540488"/>
     <use style="fill:#1e90e5;stroke:#1e90e5;" x="506.802715" xlink:href="#mbab3cfa406" y="266.101463"/>
     <use style="fill:#1e90e5;stroke:#1e90e5;" x="508.954891" xlink:href="#mbab3cfa406" y="258.725854"/>
     <use style="fill:#1e90e5;stroke:#1e90e5;" x="511.107067" xlink:href="#mbab3cfa406" y="280.852683"/>
     <use style="fill:#1e90e5;stroke:#1e90e5;" x="513.259243" xlink:href="#mbab3cfa406" y="267.576585"/>
     <use style="fill:#1e90e5;stroke:#1e90e5;" x="515.411418" xlink:href="#mbab3cfa406" y="294.866341"/>
     <use style="fill:#1e90e5;stroke:#1e90e5;" x="517.563594" xlink:href="#mbab3cfa406" y="294.12878"/>
     <use style="fill:#1e90e5;stroke:#1e90e5;" x="519.71577" xlink:href="#mbab3cfa406" y="283.802927"/>
     <use style="fill:#1e90e5;stroke:#1e90e5;" x="521.867946" xlink:href="#mbab3cfa406" y="289.703415"/>
     <use style="fill:#1e90e5;stroke:#1e90e5;" x="524.020122" xlink:href="#mbab3cfa406" y="300.766829"/>
     <use style="fill:#1e90e5;stroke:#1e90e5;" x="526.172298" xlink:href="#mbab3cfa406" y="316.993171"/>
     <use style="fill:#1e90e5;stroke:#1e90e5;" x="528.324474" xlink:href="#mbab3cfa406" y="311.830244"/>
    </g>
   </g>
   <g id="patch_3">
    <path d="M 76.367532 384.48 
L 76.367532 51.84 
" style="fill:none;stroke:#606054;stroke-linecap:square;stroke-linejoin:miter;"/>
   </g>
   <g id="patch_4">
    <path d="M 549.846233 384.48 
L 549.846233 51.84 
" style="fill:none;stroke:#606054;stroke-linecap:square;stroke-linejoin:miter;"/>
   </g>
   <g id="patch_5">
    <path d="M 76.367532 384.48 
L 549.846233 384.48 
" style="fill:none;stroke:#606054;stroke-linecap:square;stroke-linejoin:miter;"/>
   </g>
   <g id="patch_6">
    <path d="M 76.367532 51.84 
L 549.846233 51.84 
" style="fill:none;stroke:#606054;stroke-linecap:square;stroke-linejoin:miter;"/>
   </g>
  </g>
 </g>
 <defs>
  <clipPath id="pc6d6dad856">
   <rect height="332.64" width="473.478701" x="76.367532" y="51.84"/>
  </clipPath>
 </defs>
</svg>
