<?xml version="1.0" encoding="utf-8" standalone="no"?>
<!DOCTYPE svg PUBLIC "-//W3C//DTD SVG 1.1//EN"
  "http://www.w3.org/Graphics/SVG/1.1/DTD/svg11.dtd">
<!-- Created with matplotlib (https://matplotlib.org/) -->
<svg height="216pt" version="1.1" viewBox="0 0 305.470129 216" width="305.470129pt" xmlns="http://www.w3.org/2000/svg" xmlns:xlink="http://www.w3.org/1999/xlink">
 <defs>
  <style type="text/css">
*{stroke-linecap:butt;stroke-linejoin:round;}
  </style>
 </defs>
 <g id="figure_1">
  <g id="patch_1">
   <path d="M 0 216 
L 305.470129 216 
L 305.470129 0 
L 0 0 
z
" style="fill:#272822;"/>
  </g>
  <g id="axes_1">
   <g id="patch_2">
    <path d="M 38.183766 192.24 
L 274.923117 192.24 
L 274.923117 25.92 
L 38.183766 25.92 
z
" style="fill:#272822;"/>
   </g>
   <g id="matplotlib.axis_1">
    <g id="xtick_1">
     <g id="line2d_1">
      <path clip-path="url(#pcdc0c3edde)" d="M 48.944646 192.24 
L 48.944646 25.92 
" style="fill:none;stroke:#606054;stroke-dasharray:0.8,1.32;stroke-dashoffset:0;stroke-width:0.8;"/>
     </g>
     <g id="line2d_2">
      <defs>
       <path d="M 0 0 
L 0 3.5 
" id="m57c4e77e11" style="stroke:#917df0;stroke-width:0.8;"/>
      </defs>
      <g>
       <use style="fill:#917df0;stroke:#917df0;stroke-width:0.8;" x="48.944646" xlink:href="#m57c4e77e11" y="192.24"/>
      </g>
     </g>
     <g id="text_1">
      <!-- −1000 -->
      <defs>
       <path d="M 4.296875 35.5 
L 55.90625 35.5 
L 55.90625 27.203125 
L 4.296875 27.203125 
z
" id="DejaVuSansMono-8722"/>
       <path d="M 13.1875 8.296875 
L 28.515625 8.296875 
L 28.515625 64.015625 
L 12.015625 60.296875 
L 12.015625 69.28125 
L 28.421875 72.90625 
L 38.28125 72.90625 
L 38.28125 8.296875 
L 53.421875 8.296875 
L 53.421875 0 
L 13.1875 0 
z
" id="DejaVuSansMono-49"/>
       <path d="M 23.578125 36.625 
Q 23.578125 39.3125 25.453125 41.265625 
Q 27.34375 43.21875 29.984375 43.21875 
Q 32.71875 43.21875 34.671875 41.265625 
Q 36.625 39.3125 36.625 36.625 
Q 36.625 33.890625 34.6875 31.984375 
Q 32.765625 30.078125 29.984375 30.078125 
Q 27.25 30.078125 25.40625 31.9375 
Q 23.578125 33.796875 23.578125 36.625 
z
M 30.078125 66.40625 
Q 23.1875 66.40625 19.796875 58.984375 
Q 16.40625 51.5625 16.40625 36.375 
Q 16.40625 21.234375 19.796875 13.8125 
Q 23.1875 6.390625 30.078125 6.390625 
Q 37.015625 6.390625 40.40625 13.8125 
Q 43.796875 21.234375 43.796875 36.375 
Q 43.796875 51.5625 40.40625 58.984375 
Q 37.015625 66.40625 30.078125 66.40625 
z
M 30.078125 74.21875 
Q 41.75 74.21875 47.734375 64.640625 
Q 53.71875 55.078125 53.71875 36.375 
Q 53.71875 17.71875 47.734375 8.140625 
Q 41.75 -1.421875 30.078125 -1.421875 
Q 18.40625 -1.421875 12.453125 8.140625 
Q 6.5 17.71875 6.5 36.375 
Q 6.5 55.078125 12.453125 64.640625 
Q 18.40625 74.21875 30.078125 74.21875 
z
" id="DejaVuSansMono-48"/>
      </defs>
      <g style="fill:#917df0;" transform="translate(36.904021 205.36125)scale(0.08 -0.08)">
       <use xlink:href="#DejaVuSansMono-8722"/>
       <use x="60.205078" xlink:href="#DejaVuSansMono-49"/>
       <use x="120.410156" xlink:href="#DejaVuSansMono-48"/>
       <use x="180.615234" xlink:href="#DejaVuSansMono-48"/>
       <use x="240.820312" xlink:href="#DejaVuSansMono-48"/>
      </g>
     </g>
    </g>
    <g id="xtick_2">
     <g id="line2d_3">
      <path clip-path="url(#pcdc0c3edde)" d="M 75.846845 192.24 
L 75.846845 25.92 
" style="fill:none;stroke:#606054;stroke-dasharray:0.8,1.32;stroke-dashoffset:0;stroke-width:0.8;"/>
     </g>
     <g id="line2d_4">
      <g>
       <use style="fill:#917df0;stroke:#917df0;stroke-width:0.8;" x="75.846845" xlink:href="#m57c4e77e11" y="192.24"/>
      </g>
     </g>
     <g id="text_2">
      <!-- −750 -->
      <defs>
       <path d="M 6.78125 72.90625 
L 52.6875 72.90625 
L 52.6875 68.703125 
L 26.609375 0 
L 16.3125 0 
L 41.703125 64.59375 
L 6.78125 64.59375 
z
" id="DejaVuSansMono-55"/>
       <path d="M 10.109375 72.90625 
L 47.015625 72.90625 
L 47.015625 64.59375 
L 19.09375 64.59375 
L 19.09375 46.6875 
Q 21.1875 47.46875 23.3125 47.828125 
Q 25.4375 48.1875 27.59375 48.1875 
Q 38.921875 48.1875 45.5625 41.5 
Q 52.203125 34.8125 52.203125 23.390625 
Q 52.203125 11.859375 45.234375 5.21875 
Q 38.28125 -1.421875 26.21875 -1.421875 
Q 20.40625 -1.421875 15.59375 -0.640625 
Q 10.796875 0.140625 6.984375 1.703125 
L 6.984375 11.71875 
Q 11.46875 9.28125 16.015625 8.078125 
Q 20.5625 6.890625 25.296875 6.890625 
Q 33.453125 6.890625 37.859375 11.1875 
Q 42.28125 15.484375 42.28125 23.390625 
Q 42.28125 31.203125 37.71875 35.546875 
Q 33.15625 39.890625 25 39.890625 
Q 21.046875 39.890625 17.28125 38.984375 
Q 13.53125 38.09375 10.109375 36.28125 
z
" id="DejaVuSansMono-53"/>
      </defs>
      <g style="fill:#917df0;" transform="translate(66.214345 205.36125)scale(0.08 -0.08)">
       <use xlink:href="#DejaVuSansMono-8722"/>
       <use x="60.205078" xlink:href="#DejaVuSansMono-55"/>
       <use x="120.410156" xlink:href="#DejaVuSansMono-53"/>
       <use x="180.615234" xlink:href="#DejaVuSansMono-48"/>
      </g>
     </g>
    </g>
    <g id="xtick_3">
     <g id="line2d_5">
      <path clip-path="url(#pcdc0c3edde)" d="M 102.749044 192.24 
L 102.749044 25.92 
" style="fill:none;stroke:#606054;stroke-dasharray:0.8,1.32;stroke-dashoffset:0;stroke-width:0.8;"/>
     </g>
     <g id="line2d_6">
      <g>
       <use style="fill:#917df0;stroke:#917df0;stroke-width:0.8;" x="102.749044" xlink:href="#m57c4e77e11" y="192.24"/>
      </g>
     </g>
     <g id="text_3">
      <!-- −500 -->
      <g style="fill:#917df0;" transform="translate(93.116544 205.36125)scale(0.08 -0.08)">
       <use xlink:href="#DejaVuSansMono-8722"/>
       <use x="60.205078" xlink:href="#DejaVuSansMono-53"/>
       <use x="120.410156" xlink:href="#DejaVuSansMono-48"/>
       <use x="180.615234" xlink:href="#DejaVuSansMono-48"/>
      </g>
     </g>
    </g>
    <g id="xtick_4">
     <g id="line2d_7">
      <path clip-path="url(#pcdc0c3edde)" d="M 129.651242 192.24 
L 129.651242 25.92 
" style="fill:none;stroke:#606054;stroke-dasharray:0.8,1.32;stroke-dashoffset:0;stroke-width:0.8;"/>
     </g>
     <g id="line2d_8">
      <g>
       <use style="fill:#917df0;stroke:#917df0;stroke-width:0.8;" x="129.651242" xlink:href="#m57c4e77e11" y="192.24"/>
      </g>
     </g>
     <g id="text_4">
      <!-- −250 -->
      <defs>
       <path d="M 18.21875 8.296875 
L 51.703125 8.296875 
L 51.703125 0 
L 7.421875 0 
L 7.421875 8.296875 
Q 16.546875 17.921875 23.375 25.296875 
Q 30.21875 32.671875 32.8125 35.6875 
Q 37.703125 41.65625 39.40625 45.34375 
Q 41.109375 49.03125 41.109375 52.875 
Q 41.109375 58.984375 37.515625 62.453125 
Q 33.9375 65.921875 27.6875 65.921875 
Q 23.25 65.921875 18.359375 64.3125 
Q 13.484375 62.703125 8.015625 59.421875 
L 8.015625 69.390625 
Q 13.03125 71.78125 17.890625 73 
Q 22.75 74.21875 27.484375 74.21875 
Q 38.1875 74.21875 44.703125 68.53125 
Q 51.21875 62.84375 51.21875 53.609375 
Q 51.21875 48.921875 49.046875 44.234375 
Q 46.875 39.546875 42 33.890625 
Q 39.265625 30.71875 34.0625 25.09375 
Q 28.859375 19.484375 18.21875 8.296875 
z
" id="DejaVuSansMono-50"/>
      </defs>
      <g style="fill:#917df0;" transform="translate(120.018742 205.36125)scale(0.08 -0.08)">
       <use xlink:href="#DejaVuSansMono-8722"/>
       <use x="60.205078" xlink:href="#DejaVuSansMono-50"/>
       <use x="120.410156" xlink:href="#DejaVuSansMono-53"/>
       <use x="180.615234" xlink:href="#DejaVuSansMono-48"/>
      </g>
     </g>
    </g>
    <g id="xtick_5">
     <g id="line2d_9">
      <path clip-path="url(#pcdc0c3edde)" d="M 156.553441 192.24 
L 156.553441 25.92 
" style="fill:none;stroke:#606054;stroke-dasharray:0.8,1.32;stroke-dashoffset:0;stroke-width:0.8;"/>
     </g>
     <g id="line2d_10">
      <g>
       <use style="fill:#917df0;stroke:#917df0;stroke-width:0.8;" x="156.553441" xlink:href="#m57c4e77e11" y="192.24"/>
      </g>
     </g>
     <g id="text_5">
      <!-- 0 -->
      <g style="fill:#917df0;" transform="translate(154.145316 205.36125)scale(0.08 -0.08)">
       <use xlink:href="#DejaVuSansMono-48"/>
      </g>
     </g>
    </g>
    <g id="xtick_6">
     <g id="line2d_11">
      <path clip-path="url(#pcdc0c3edde)" d="M 183.45564 192.24 
L 183.45564 25.92 
" style="fill:none;stroke:#606054;stroke-dasharray:0.8,1.32;stroke-dashoffset:0;stroke-width:0.8;"/>
     </g>
     <g id="line2d_12">
      <g>
       <use style="fill:#917df0;stroke:#917df0;stroke-width:0.8;" x="183.45564" xlink:href="#m57c4e77e11" y="192.24"/>
      </g>
     </g>
     <g id="text_6">
      <!-- 250 -->
      <g style="fill:#917df0;" transform="translate(176.231265 205.36125)scale(0.08 -0.08)">
       <use xlink:href="#DejaVuSansMono-50"/>
       <use x="60.205078" xlink:href="#DejaVuSansMono-53"/>
       <use x="120.410156" xlink:href="#DejaVuSansMono-48"/>
      </g>
     </g>
    </g>
    <g id="xtick_7">
     <g id="line2d_13">
      <path clip-path="url(#pcdc0c3edde)" d="M 210.357839 192.24 
L 210.357839 25.92 
" style="fill:none;stroke:#606054;stroke-dasharray:0.8,1.32;stroke-dashoffset:0;stroke-width:0.8;"/>
     </g>
     <g id="line2d_14">
      <g>
       <use style="fill:#917df0;stroke:#917df0;stroke-width:0.8;" x="210.357839" xlink:href="#m57c4e77e11" y="192.24"/>
      </g>
     </g>
     <g id="text_7">
      <!-- 500 -->
      <g style="fill:#917df0;" transform="translate(203.133464 205.36125)scale(0.08 -0.08)">
       <use xlink:href="#DejaVuSansMono-53"/>
       <use x="60.205078" xlink:href="#DejaVuSansMono-48"/>
       <use x="120.410156" xlink:href="#DejaVuSansMono-48"/>
      </g>
     </g>
    </g>
    <g id="xtick_8">
     <g id="line2d_15">
      <path clip-path="url(#pcdc0c3edde)" d="M 237.260038 192.24 
L 237.260038 25.92 
" style="fill:none;stroke:#606054;stroke-dasharray:0.8,1.32;stroke-dashoffset:0;stroke-width:0.8;"/>
     </g>
     <g id="line2d_16">
      <g>
       <use style="fill:#917df0;stroke:#917df0;stroke-width:0.8;" x="237.260038" xlink:href="#m57c4e77e11" y="192.24"/>
      </g>
     </g>
     <g id="text_8">
      <!-- 750 -->
      <g style="fill:#917df0;" transform="translate(230.035663 205.36125)scale(0.08 -0.08)">
       <use xlink:href="#DejaVuSansMono-55"/>
       <use x="60.205078" xlink:href="#DejaVuSansMono-53"/>
       <use x="120.410156" xlink:href="#DejaVuSansMono-48"/>
      </g>
     </g>
    </g>
    <g id="xtick_9">
     <g id="line2d_17">
      <path clip-path="url(#pcdc0c3edde)" d="M 264.162237 192.24 
L 264.162237 25.92 
" style="fill:none;stroke:#606054;stroke-dasharray:0.8,1.32;stroke-dashoffset:0;stroke-width:0.8;"/>
     </g>
     <g id="line2d_18">
      <g>
       <use style="fill:#917df0;stroke:#917df0;stroke-width:0.8;" x="264.162237" xlink:href="#m57c4e77e11" y="192.24"/>
      </g>
     </g>
     <g id="text_9">
      <!-- 1000 -->
      <g style="fill:#917df0;" transform="translate(254.529737 205.36125)scale(0.08 -0.08)">
       <use xlink:href="#DejaVuSansMono-49"/>
       <use x="60.205078" xlink:href="#DejaVuSansMono-48"/>
       <use x="120.410156" xlink:href="#DejaVuSansMono-48"/>
       <use x="180.615234" xlink:href="#DejaVuSansMono-48"/>
      </g>
     </g>
    </g>
    <g id="text_10">
     <!-- Time -->
     <defs>
      <path d="M 2.296875 72.90625 
L 57.90625 72.90625 
L 57.90625 64.59375 
L 35.109375 64.59375 
L 35.109375 0 
L 25.203125 0 
L 25.203125 64.59375 
L 2.296875 64.59375 
z
" id="DejaVuSansMono-84"/>
      <path d="M 12.5 54.6875 
L 35.5 54.6875 
L 35.5 6.984375 
L 53.328125 6.984375 
L 53.328125 0 
L 8.6875 0 
L 8.6875 6.984375 
L 26.515625 6.984375 
L 26.515625 47.703125 
L 12.5 47.703125 
z
M 26.515625 75.984375 
L 35.5 75.984375 
L 35.5 64.59375 
L 26.515625 64.59375 
z
" id="DejaVuSansMono-105"/>
      <path d="M 33.015625 49.125 
Q 34.671875 52.640625 37.234375 54.3125 
Q 39.796875 56 43.40625 56 
Q 50 56 52.703125 50.890625 
Q 55.421875 45.796875 55.421875 31.6875 
L 55.421875 0 
L 47.21875 0 
L 47.21875 31.296875 
Q 47.21875 42.875 45.921875 45.671875 
Q 44.625 48.484375 41.21875 48.484375 
Q 37.3125 48.484375 35.859375 45.484375 
Q 34.421875 42.484375 34.421875 31.296875 
L 34.421875 0 
L 26.21875 0 
L 26.21875 31.296875 
Q 26.21875 43.015625 24.828125 45.75 
Q 23.4375 48.484375 19.828125 48.484375 
Q 16.265625 48.484375 14.875 45.484375 
Q 13.484375 42.484375 13.484375 31.296875 
L 13.484375 0 
L 5.328125 0 
L 5.328125 54.6875 
L 13.484375 54.6875 
L 13.484375 50 
Q 15.09375 52.9375 17.5 54.46875 
Q 19.921875 56 23 56 
Q 26.703125 56 29.171875 54.296875 
Q 31.640625 52.59375 33.015625 49.125 
z
" id="DejaVuSansMono-109"/>
      <path d="M 54.296875 29.59375 
L 54.296875 25.203125 
L 15.375 25.203125 
L 15.375 24.90625 
Q 15.375 15.96875 20.03125 11.078125 
Q 24.703125 6.203125 33.203125 6.203125 
Q 37.5 6.203125 42.1875 7.5625 
Q 46.875 8.9375 52.203125 11.71875 
L 52.203125 2.78125 
Q 47.078125 0.6875 42.3125 -0.359375 
Q 37.546875 -1.421875 33.109375 -1.421875 
Q 20.359375 -1.421875 13.171875 6.21875 
Q 6 13.875 6 27.296875 
Q 6 40.375 13.03125 48.1875 
Q 20.0625 56 31.78125 56 
Q 42.234375 56 48.265625 48.921875 
Q 54.296875 41.84375 54.296875 29.59375 
z
M 45.3125 32.234375 
Q 45.125 40.140625 41.578125 44.265625 
Q 38.03125 48.390625 31.390625 48.390625 
Q 24.90625 48.390625 20.703125 44.09375 
Q 16.5 39.796875 15.71875 32.171875 
z
" id="DejaVuSansMono-101"/>
     </defs>
     <g style="fill:#e5dc5a;" transform="translate(146.920941 217.14625)scale(0.08 -0.08)">
      <use xlink:href="#DejaVuSansMono-84"/>
      <use x="60.205078" xlink:href="#DejaVuSansMono-105"/>
      <use x="120.410156" xlink:href="#DejaVuSansMono-109"/>
      <use x="180.615234" xlink:href="#DejaVuSansMono-101"/>
     </g>
    </g>
   </g>
   <g id="matplotlib.axis_2">
    <g id="ytick_1">
     <g id="line2d_19">
      <path clip-path="url(#pcdc0c3edde)" d="M 38.183766 192.24 
L 274.923117 192.24 
" style="fill:none;stroke:#606054;stroke-dasharray:0.8,1.32;stroke-dashoffset:0;stroke-width:0.8;"/>
     </g>
     <g id="line2d_20">
      <defs>
       <path d="M 0 0 
L -3.5 0 
" id="me07d97e3de" style="stroke:#917df0;stroke-width:0.8;"/>
      </defs>
      <g>
       <use style="fill:#917df0;stroke:#917df0;stroke-width:0.8;" x="38.183766" xlink:href="#me07d97e3de" y="192.24"/>
      </g>
     </g>
     <g id="text_11">
      <!-- 0 -->
      <g style="fill:#917df0;" transform="translate(26.367516 195.300625)scale(0.08 -0.08)">
       <use xlink:href="#DejaVuSansMono-48"/>
      </g>
     </g>
    </g>
    <g id="ytick_2">
     <g id="line2d_21">
      <path clip-path="url(#pcdc0c3edde)" d="M 38.183766 171.748409 
L 274.923117 171.748409 
" style="fill:none;stroke:#606054;stroke-dasharray:0.8,1.32;stroke-dashoffset:0;stroke-width:0.8;"/>
     </g>
     <g id="line2d_22">
      <g>
       <use style="fill:#917df0;stroke:#917df0;stroke-width:0.8;" x="38.183766" xlink:href="#me07d97e3de" y="171.748409"/>
      </g>
     </g>
     <g id="text_12">
      <!-- 100 -->
      <g style="fill:#917df0;" transform="translate(16.735016 174.809034)scale(0.08 -0.08)">
       <use xlink:href="#DejaVuSansMono-49"/>
       <use x="60.205078" xlink:href="#DejaVuSansMono-48"/>
       <use x="120.410156" xlink:href="#DejaVuSansMono-48"/>
      </g>
     </g>
    </g>
    <g id="ytick_3">
     <g id="line2d_23">
      <path clip-path="url(#pcdc0c3edde)" d="M 38.183766 151.256818 
L 274.923117 151.256818 
" style="fill:none;stroke:#606054;stroke-dasharray:0.8,1.32;stroke-dashoffset:0;stroke-width:0.8;"/>
     </g>
     <g id="line2d_24">
      <g>
       <use style="fill:#917df0;stroke:#917df0;stroke-width:0.8;" x="38.183766" xlink:href="#me07d97e3de" y="151.256818"/>
      </g>
     </g>
     <g id="text_13">
      <!-- 200 -->
      <g style="fill:#917df0;" transform="translate(16.735016 154.317443)scale(0.08 -0.08)">
       <use xlink:href="#DejaVuSansMono-50"/>
       <use x="60.205078" xlink:href="#DejaVuSansMono-48"/>
       <use x="120.410156" xlink:href="#DejaVuSansMono-48"/>
      </g>
     </g>
    </g>
    <g id="ytick_4">
     <g id="line2d_25">
      <path clip-path="url(#pcdc0c3edde)" d="M 38.183766 130.765226 
L 274.923117 130.765226 
" style="fill:none;stroke:#606054;stroke-dasharray:0.8,1.32;stroke-dashoffset:0;stroke-width:0.8;"/>
     </g>
     <g id="line2d_26">
      <g>
       <use style="fill:#917df0;stroke:#917df0;stroke-width:0.8;" x="38.183766" xlink:href="#me07d97e3de" y="130.765226"/>
      </g>
     </g>
     <g id="text_14">
      <!-- 300 -->
      <defs>
       <path d="M 37.890625 39.015625 
Q 45.0625 37.109375 48.875 32.25 
Q 52.6875 27.390625 52.6875 20.125 
Q 52.6875 10.0625 45.921875 4.3125 
Q 39.15625 -1.421875 27.203125 -1.421875 
Q 22.171875 -1.421875 16.9375 -0.484375 
Q 11.71875 0.4375 6.6875 2.203125 
L 6.6875 12.015625 
Q 11.671875 9.421875 16.5 8.15625 
Q 21.34375 6.890625 26.125 6.890625 
Q 34.234375 6.890625 38.578125 10.546875 
Q 42.921875 14.203125 42.921875 21.09375 
Q 42.921875 27.4375 38.578125 31.171875 
Q 34.234375 34.90625 26.8125 34.90625 
L 19.28125 34.90625 
L 19.28125 43.015625 
L 26.8125 43.015625 
Q 33.59375 43.015625 37.40625 45.984375 
Q 41.21875 48.96875 41.21875 54.296875 
Q 41.21875 59.90625 37.671875 62.90625 
Q 34.125 65.921875 27.59375 65.921875 
Q 23.25 65.921875 18.609375 64.9375 
Q 13.96875 63.96875 8.890625 62.015625 
L 8.890625 71.09375 
Q 14.796875 72.65625 19.40625 73.4375 
Q 24.03125 74.21875 27.59375 74.21875 
Q 38.234375 74.21875 44.609375 68.875 
Q 50.984375 63.53125 50.984375 54.6875 
Q 50.984375 48.6875 47.625 44.671875 
Q 44.28125 40.671875 37.890625 39.015625 
z
" id="DejaVuSansMono-51"/>
      </defs>
      <g style="fill:#917df0;" transform="translate(16.735016 133.825851)scale(0.08 -0.08)">
       <use xlink:href="#DejaVuSansMono-51"/>
       <use x="60.205078" xlink:href="#DejaVuSansMono-48"/>
       <use x="120.410156" xlink:href="#DejaVuSansMono-48"/>
      </g>
     </g>
    </g>
    <g id="ytick_5">
     <g id="line2d_27">
      <path clip-path="url(#pcdc0c3edde)" d="M 38.183766 110.273635 
L 274.923117 110.273635 
" style="fill:none;stroke:#606054;stroke-dasharray:0.8,1.32;stroke-dashoffset:0;stroke-width:0.8;"/>
     </g>
     <g id="line2d_28">
      <g>
       <use style="fill:#917df0;stroke:#917df0;stroke-width:0.8;" x="38.183766" xlink:href="#me07d97e3de" y="110.273635"/>
      </g>
     </g>
     <g id="text_15">
      <!-- 400 -->
      <defs>
       <path d="M 35.890625 63.921875 
L 12.890625 25.390625 
L 35.890625 25.390625 
z
M 34.28125 72.90625 
L 45.703125 72.90625 
L 45.703125 25.390625 
L 55.421875 25.390625 
L 55.421875 17.390625 
L 45.703125 17.390625 
L 45.703125 0 
L 35.890625 0 
L 35.890625 17.390625 
L 4.984375 17.390625 
L 4.984375 26.703125 
z
" id="DejaVuSansMono-52"/>
      </defs>
      <g style="fill:#917df0;" transform="translate(16.735016 113.33426)scale(0.08 -0.08)">
       <use xlink:href="#DejaVuSansMono-52"/>
       <use x="60.205078" xlink:href="#DejaVuSansMono-48"/>
       <use x="120.410156" xlink:href="#DejaVuSansMono-48"/>
      </g>
     </g>
    </g>
    <g id="ytick_6">
     <g id="line2d_29">
      <path clip-path="url(#pcdc0c3edde)" d="M 38.183766 89.782044 
L 274.923117 89.782044 
" style="fill:none;stroke:#606054;stroke-dasharray:0.8,1.32;stroke-dashoffset:0;stroke-width:0.8;"/>
     </g>
     <g id="line2d_30">
      <g>
       <use style="fill:#917df0;stroke:#917df0;stroke-width:0.8;" x="38.183766" xlink:href="#me07d97e3de" y="89.782044"/>
      </g>
     </g>
     <g id="text_16">
      <!-- 500 -->
      <g style="fill:#917df0;" transform="translate(16.735016 92.842669)scale(0.08 -0.08)">
       <use xlink:href="#DejaVuSansMono-53"/>
       <use x="60.205078" xlink:href="#DejaVuSansMono-48"/>
       <use x="120.410156" xlink:href="#DejaVuSansMono-48"/>
      </g>
     </g>
    </g>
    <g id="ytick_7">
     <g id="line2d_31">
      <path clip-path="url(#pcdc0c3edde)" d="M 38.183766 69.290453 
L 274.923117 69.290453 
" style="fill:none;stroke:#606054;stroke-dasharray:0.8,1.32;stroke-dashoffset:0;stroke-width:0.8;"/>
     </g>
     <g id="line2d_32">
      <g>
       <use style="fill:#917df0;stroke:#917df0;stroke-width:0.8;" x="38.183766" xlink:href="#me07d97e3de" y="69.290453"/>
      </g>
     </g>
     <g id="text_17">
      <!-- 600 -->
      <defs>
       <path d="M 48.390625 71.296875 
L 48.390625 62.203125 
Q 45.3125 64.015625 41.84375 64.96875 
Q 38.375 65.921875 34.625 65.921875 
Q 25.25 65.921875 20.40625 58.859375 
Q 15.578125 51.8125 15.578125 38.09375 
Q 17.921875 42.96875 22.0625 45.578125 
Q 26.21875 48.1875 31.59375 48.1875 
Q 42.140625 48.1875 47.921875 41.71875 
Q 53.71875 35.25 53.71875 23.390625 
Q 53.71875 11.578125 47.75 5.078125 
Q 41.796875 -1.421875 31 -1.421875 
Q 18.3125 -1.421875 12.40625 7.6875 
Q 6.5 16.796875 6.5 36.375 
Q 6.5 54.828125 13.59375 64.515625 
Q 20.703125 74.21875 34.1875 74.21875 
Q 37.796875 74.21875 41.40625 73.453125 
Q 45.015625 72.703125 48.390625 71.296875 
z
M 30.8125 40.484375 
Q 24.515625 40.484375 20.890625 35.9375 
Q 17.28125 31.390625 17.28125 23.390625 
Q 17.28125 15.375 20.890625 10.828125 
Q 24.515625 6.296875 30.8125 6.296875 
Q 37.359375 6.296875 40.671875 10.609375 
Q 44 14.9375 44 23.390625 
Q 44 31.890625 40.671875 36.1875 
Q 37.359375 40.484375 30.8125 40.484375 
z
" id="DejaVuSansMono-54"/>
      </defs>
      <g style="fill:#917df0;" transform="translate(16.735016 72.351078)scale(0.08 -0.08)">
       <use xlink:href="#DejaVuSansMono-54"/>
       <use x="60.205078" xlink:href="#DejaVuSansMono-48"/>
       <use x="120.410156" xlink:href="#DejaVuSansMono-48"/>
      </g>
     </g>
    </g>
    <g id="ytick_8">
     <g id="line2d_33">
      <path clip-path="url(#pcdc0c3edde)" d="M 38.183766 48.798862 
L 274.923117 48.798862 
" style="fill:none;stroke:#606054;stroke-dasharray:0.8,1.32;stroke-dashoffset:0;stroke-width:0.8;"/>
     </g>
     <g id="line2d_34">
      <g>
       <use style="fill:#917df0;stroke:#917df0;stroke-width:0.8;" x="38.183766" xlink:href="#me07d97e3de" y="48.798862"/>
      </g>
     </g>
     <g id="text_18">
      <!-- 700 -->
      <g style="fill:#917df0;" transform="translate(16.735016 51.859487)scale(0.08 -0.08)">
       <use xlink:href="#DejaVuSansMono-55"/>
       <use x="60.205078" xlink:href="#DejaVuSansMono-48"/>
       <use x="120.410156" xlink:href="#DejaVuSansMono-48"/>
      </g>
     </g>
    </g>
    <g id="ytick_9">
     <g id="line2d_35">
      <path clip-path="url(#pcdc0c3edde)" d="M 38.183766 28.30727 
L 274.923117 28.30727 
" style="fill:none;stroke:#606054;stroke-dasharray:0.8,1.32;stroke-dashoffset:0;stroke-width:0.8;"/>
     </g>
     <g id="line2d_36">
      <g>
       <use style="fill:#917df0;stroke:#917df0;stroke-width:0.8;" x="38.183766" xlink:href="#me07d97e3de" y="28.30727"/>
      </g>
     </g>
     <g id="text_19">
      <!-- 800 -->
      <defs>
       <path d="M 30.078125 34.625 
Q 23.484375 34.625 19.890625 30.9375 
Q 16.3125 27.25 16.3125 20.515625 
Q 16.3125 13.765625 19.9375 10.03125 
Q 23.578125 6.296875 30.078125 6.296875 
Q 36.71875 6.296875 40.296875 9.984375 
Q 43.890625 13.671875 43.890625 20.515625 
Q 43.890625 27.203125 40.25 30.90625 
Q 36.625 34.625 30.078125 34.625 
z
M 21.484375 38.71875 
Q 15.1875 40.328125 11.640625 44.71875 
Q 8.109375 49.125 8.109375 55.328125 
Q 8.109375 64.015625 14.015625 69.109375 
Q 19.921875 74.21875 30.078125 74.21875 
Q 40.28125 74.21875 46.1875 69.109375 
Q 52.09375 64.015625 52.09375 55.328125 
Q 52.09375 49.125 48.546875 44.71875 
Q 45.015625 40.328125 38.71875 38.71875 
Q 46.046875 37.109375 49.921875 32.21875 
Q 53.8125 27.34375 53.8125 19.578125 
Q 53.8125 9.71875 47.515625 4.140625 
Q 41.21875 -1.421875 30.078125 -1.421875 
Q 18.953125 -1.421875 12.671875 4.125 
Q 6.390625 9.671875 6.390625 19.484375 
Q 6.390625 27.296875 10.265625 32.203125 
Q 14.15625 37.109375 21.484375 38.71875 
z
M 17.921875 54.390625 
Q 17.921875 48.53125 21.046875 45.453125 
Q 24.171875 42.390625 30.078125 42.390625 
Q 36.03125 42.390625 39.15625 45.453125 
Q 42.28125 48.53125 42.28125 54.390625 
Q 42.28125 60.359375 39.171875 63.484375 
Q 36.078125 66.609375 30.078125 66.609375 
Q 24.171875 66.609375 21.046875 63.453125 
Q 17.921875 60.296875 17.921875 54.390625 
z
" id="DejaVuSansMono-56"/>
      </defs>
      <g style="fill:#917df0;" transform="translate(16.735016 31.367895)scale(0.08 -0.08)">
       <use xlink:href="#DejaVuSansMono-56"/>
       <use x="60.205078" xlink:href="#DejaVuSansMono-48"/>
       <use x="120.410156" xlink:href="#DejaVuSansMono-48"/>
      </g>
     </g>
    </g>
    <g id="text_20">
     <!-- # -->
     <defs>
      <path d="M 33.40625 71.78125 
L 28.328125 51.515625 
L 40.28125 51.515625 
L 45.40625 71.78125 
L 53.21875 71.78125 
L 48.09375 51.515625 
L 60.015625 51.515625 
L 60.015625 44 
L 46.296875 44 
L 42.1875 27.6875 
L 54.390625 27.6875 
L 54.390625 20.21875 
L 40.28125 20.21875 
L 35.203125 0 
L 27.390625 0 
L 32.515625 20.21875 
L 20.515625 20.21875 
L 15.375 0 
L 7.625 0 
L 12.703125 20.21875 
L 0.09375 20.21875 
L 0.09375 27.6875 
L 14.59375 27.6875 
L 18.703125 44 
L 5.71875 44 
L 5.71875 51.515625 
L 20.515625 51.515625 
L 25.59375 71.78125 
z
M 38.484375 44 
L 26.515625 44 
L 22.40625 27.6875 
L 34.421875 27.6875 
z
" id="DejaVuSansMono-35"/>
     </defs>
     <g style="fill:#e5dc5a;" transform="translate(11.071266 111.488125)rotate(-90)scale(0.08 -0.08)">
      <use xlink:href="#DejaVuSansMono-35"/>
     </g>
    </g>
   </g>
   <g id="patch_3">
    <path clip-path="url(#pcdc0c3edde)" d="M 48.944646 192.24 
L 50.020734 192.24 
L 50.020734 186.297439 
L 48.944646 186.297439 
z
" style="fill:#d95319;opacity:0.5;stroke:#272822;stroke-linejoin:miter;stroke-width:0.5;"/>
   </g>
   <g id="patch_4">
    <path clip-path="url(#pcdc0c3edde)" d="M 50.020734 192.24 
L 51.096822 192.24 
L 51.096822 184.043364 
L 50.020734 184.043364 
z
" style="fill:#d95319;opacity:0.5;stroke:#272822;stroke-linejoin:miter;stroke-width:0.5;"/>
   </g>
   <g id="patch_5">
    <path clip-path="url(#pcdc0c3edde)" d="M 51.096822 192.24 
L 52.17291 192.24 
L 52.17291 185.067943 
L 51.096822 185.067943 
z
" style="fill:#d95319;opacity:0.5;stroke:#272822;stroke-linejoin:miter;stroke-width:0.5;"/>
   </g>
   <g id="patch_6">
    <path clip-path="url(#pcdc0c3edde)" d="M 52.17291 192.24 
L 53.248998 192.24 
L 53.248998 187.73185 
L 52.17291 187.73185 
z
" style="fill:#d95319;opacity:0.5;stroke:#272822;stroke-linejoin:miter;stroke-width:0.5;"/>
   </g>
   <g id="patch_7">
    <path clip-path="url(#pcdc0c3edde)" d="M 53.248998 192.24 
L 54.325086 192.24 
L 54.325086 186.092523 
L 53.248998 186.092523 
z
" style="fill:#d95319;opacity:0.5;stroke:#272822;stroke-linejoin:miter;stroke-width:0.5;"/>
   </g>
   <g id="patch_8">
    <path clip-path="url(#pcdc0c3edde)" d="M 54.325086 192.24 
L 55.401173 192.24 
L 55.401173 184.658111 
L 54.325086 184.658111 
z
" style="fill:#d95319;opacity:0.5;stroke:#272822;stroke-linejoin:miter;stroke-width:0.5;"/>
   </g>
   <g id="patch_9">
    <path clip-path="url(#pcdc0c3edde)" d="M 55.401173 192.24 
L 56.477261 192.24 
L 56.477261 184.248279 
L 55.401173 184.248279 
z
" style="fill:#d95319;opacity:0.5;stroke:#272822;stroke-linejoin:miter;stroke-width:0.5;"/>
   </g>
   <g id="patch_10">
    <path clip-path="url(#pcdc0c3edde)" d="M 56.477261 192.24 
L 57.553349 192.24 
L 57.553349 184.863027 
L 56.477261 184.863027 
z
" style="fill:#d95319;opacity:0.5;stroke:#272822;stroke-linejoin:miter;stroke-width:0.5;"/>
   </g>
   <g id="patch_11">
    <path clip-path="url(#pcdc0c3edde)" d="M 57.553349 192.24 
L 58.629437 192.24 
L 58.629437 186.092523 
L 57.553349 186.092523 
z
" style="fill:#d95319;opacity:0.5;stroke:#272822;stroke-linejoin:miter;stroke-width:0.5;"/>
   </g>
   <g id="patch_12">
    <path clip-path="url(#pcdc0c3edde)" d="M 58.629437 192.24 
L 59.705525 192.24 
L 59.705525 184.248279 
L 58.629437 184.248279 
z
" style="fill:#d95319;opacity:0.5;stroke:#272822;stroke-linejoin:miter;stroke-width:0.5;"/>
   </g>
   <g id="patch_13">
    <path clip-path="url(#pcdc0c3edde)" d="M 59.705525 192.24 
L 60.781613 192.24 
L 60.781613 185.272859 
L 59.705525 185.272859 
z
" style="fill:#d95319;opacity:0.5;stroke:#272822;stroke-linejoin:miter;stroke-width:0.5;"/>
   </g>
   <g id="patch_14">
    <path clip-path="url(#pcdc0c3edde)" d="M 60.781613 192.24 
L 61.857701 192.24 
L 61.857701 184.248279 
L 60.781613 184.248279 
z
" style="fill:#d95319;opacity:0.5;stroke:#272822;stroke-linejoin:miter;stroke-width:0.5;"/>
   </g>
   <g id="patch_15">
    <path clip-path="url(#pcdc0c3edde)" d="M 61.857701 192.24 
L 62.933789 192.24 
L 62.933789 183.2237 
L 61.857701 183.2237 
z
" style="fill:#d95319;opacity:0.5;stroke:#272822;stroke-linejoin:miter;stroke-width:0.5;"/>
   </g>
   <g id="patch_16">
    <path clip-path="url(#pcdc0c3edde)" d="M 62.933789 192.24 
L 64.009877 192.24 
L 64.009877 182.813868 
L 62.933789 182.813868 
z
" style="fill:#d95319;opacity:0.5;stroke:#272822;stroke-linejoin:miter;stroke-width:0.5;"/>
   </g>
   <g id="patch_17">
    <path clip-path="url(#pcdc0c3edde)" d="M 64.009877 192.24 
L 65.085965 192.24 
L 65.085965 180.764709 
L 64.009877 180.764709 
z
" style="fill:#d95319;opacity:0.5;stroke:#272822;stroke-linejoin:miter;stroke-width:0.5;"/>
   </g>
   <g id="patch_18">
    <path clip-path="url(#pcdc0c3edde)" d="M 65.085965 192.24 
L 66.162053 192.24 
L 66.162053 179.945045 
L 65.085965 179.945045 
z
" style="fill:#d95319;opacity:0.5;stroke:#272822;stroke-linejoin:miter;stroke-width:0.5;"/>
   </g>
   <g id="patch_19">
    <path clip-path="url(#pcdc0c3edde)" d="M 66.162053 192.24 
L 67.238141 192.24 
L 67.238141 181.174541 
L 66.162053 181.174541 
z
" style="fill:#d95319;opacity:0.5;stroke:#272822;stroke-linejoin:miter;stroke-width:0.5;"/>
   </g>
   <g id="patch_20">
    <path clip-path="url(#pcdc0c3edde)" d="M 67.238141 192.24 
L 68.314229 192.24 
L 68.314229 181.789288 
L 67.238141 181.789288 
z
" style="fill:#d95319;opacity:0.5;stroke:#272822;stroke-linejoin:miter;stroke-width:0.5;"/>
   </g>
   <g id="patch_21">
    <path clip-path="url(#pcdc0c3edde)" d="M 68.314229 192.24 
L 69.390317 192.24 
L 69.390317 181.379457 
L 68.314229 181.379457 
z
" style="fill:#d95319;opacity:0.5;stroke:#272822;stroke-linejoin:miter;stroke-width:0.5;"/>
   </g>
   <g id="patch_22">
    <path clip-path="url(#pcdc0c3edde)" d="M 69.390317 192.24 
L 70.466405 192.24 
L 70.466405 181.379457 
L 69.390317 181.379457 
z
" style="fill:#d95319;opacity:0.5;stroke:#272822;stroke-linejoin:miter;stroke-width:0.5;"/>
   </g>
   <g id="patch_23">
    <path clip-path="url(#pcdc0c3edde)" d="M 70.466405 192.24 
L 71.542493 192.24 
L 71.542493 181.174541 
L 70.466405 181.174541 
z
" style="fill:#d95319;opacity:0.5;stroke:#272822;stroke-linejoin:miter;stroke-width:0.5;"/>
   </g>
   <g id="patch_24">
    <path clip-path="url(#pcdc0c3edde)" d="M 71.542493 192.24 
L 72.618581 192.24 
L 72.618581 178.100802 
L 71.542493 178.100802 
z
" style="fill:#d95319;opacity:0.5;stroke:#272822;stroke-linejoin:miter;stroke-width:0.5;"/>
   </g>
   <g id="patch_25">
    <path clip-path="url(#pcdc0c3edde)" d="M 72.618581 192.24 
L 73.694669 192.24 
L 73.694669 182.813868 
L 72.618581 182.813868 
z
" style="fill:#d95319;opacity:0.5;stroke:#272822;stroke-linejoin:miter;stroke-width:0.5;"/>
   </g>
   <g id="patch_26">
    <path clip-path="url(#pcdc0c3edde)" d="M 73.694669 192.24 
L 74.770757 192.24 
L 74.770757 180.354877 
L 73.694669 180.354877 
z
" style="fill:#d95319;opacity:0.5;stroke:#272822;stroke-linejoin:miter;stroke-width:0.5;"/>
   </g>
   <g id="patch_27">
    <path clip-path="url(#pcdc0c3edde)" d="M 74.770757 192.24 
L 75.846845 192.24 
L 75.846845 177.895886 
L 74.770757 177.895886 
z
" style="fill:#d95319;opacity:0.5;stroke:#272822;stroke-linejoin:miter;stroke-width:0.5;"/>
   </g>
   <g id="patch_28">
    <path clip-path="url(#pcdc0c3edde)" d="M 75.846845 192.24 
L 76.922933 192.24 
L 76.922933 178.305718 
L 75.846845 178.305718 
z
" style="fill:#d95319;opacity:0.5;stroke:#272822;stroke-linejoin:miter;stroke-width:0.5;"/>
   </g>
   <g id="patch_29">
    <path clip-path="url(#pcdc0c3edde)" d="M 76.922933 192.24 
L 77.999021 192.24 
L 77.999021 175.027063 
L 76.922933 175.027063 
z
" style="fill:#d95319;opacity:0.5;stroke:#272822;stroke-linejoin:miter;stroke-width:0.5;"/>
   </g>
   <g id="patch_30">
    <path clip-path="url(#pcdc0c3edde)" d="M 77.999021 192.24 
L 79.075109 192.24 
L 79.075109 175.641811 
L 77.999021 175.641811 
z
" style="fill:#d95319;opacity:0.5;stroke:#272822;stroke-linejoin:miter;stroke-width:0.5;"/>
   </g>
   <g id="patch_31">
    <path clip-path="url(#pcdc0c3edde)" d="M 79.075109 192.24 
L 80.151196 192.24 
L 80.151196 177.281138 
L 79.075109 177.281138 
z
" style="fill:#d95319;opacity:0.5;stroke:#272822;stroke-linejoin:miter;stroke-width:0.5;"/>
   </g>
   <g id="patch_32">
    <path clip-path="url(#pcdc0c3edde)" d="M 80.151196 192.24 
L 81.227284 192.24 
L 81.227284 174.412316 
L 80.151196 174.412316 
z
" style="fill:#d95319;opacity:0.5;stroke:#272822;stroke-linejoin:miter;stroke-width:0.5;"/>
   </g>
   <g id="patch_33">
    <path clip-path="url(#pcdc0c3edde)" d="M 81.227284 192.24 
L 82.303372 192.24 
L 82.303372 171.953325 
L 81.227284 171.953325 
z
" style="fill:#d95319;opacity:0.5;stroke:#272822;stroke-linejoin:miter;stroke-width:0.5;"/>
   </g>
   <g id="patch_34">
    <path clip-path="url(#pcdc0c3edde)" d="M 82.303372 192.24 
L 83.37946 192.24 
L 83.37946 173.18282 
L 82.303372 173.18282 
z
" style="fill:#d95319;opacity:0.5;stroke:#272822;stroke-linejoin:miter;stroke-width:0.5;"/>
   </g>
   <g id="patch_35">
    <path clip-path="url(#pcdc0c3edde)" d="M 83.37946 192.24 
L 84.455548 192.24 
L 84.455548 175.846727 
L 83.37946 175.846727 
z
" style="fill:#d95319;opacity:0.5;stroke:#272822;stroke-linejoin:miter;stroke-width:0.5;"/>
   </g>
   <g id="patch_36">
    <path clip-path="url(#pcdc0c3edde)" d="M 84.455548 192.24 
L 85.531636 192.24 
L 85.531636 172.977904 
L 84.455548 172.977904 
z
" style="fill:#d95319;opacity:0.5;stroke:#272822;stroke-linejoin:miter;stroke-width:0.5;"/>
   </g>
   <g id="patch_37">
    <path clip-path="url(#pcdc0c3edde)" d="M 85.531636 192.24 
L 86.607724 192.24 
L 86.607724 170.313997 
L 85.531636 170.313997 
z
" style="fill:#d95319;opacity:0.5;stroke:#272822;stroke-linejoin:miter;stroke-width:0.5;"/>
   </g>
   <g id="patch_38">
    <path clip-path="url(#pcdc0c3edde)" d="M 86.607724 192.24 
L 87.683812 192.24 
L 87.683812 170.928745 
L 86.607724 170.928745 
z
" style="fill:#d95319;opacity:0.5;stroke:#272822;stroke-linejoin:miter;stroke-width:0.5;"/>
   </g>
   <g id="patch_39">
    <path clip-path="url(#pcdc0c3edde)" d="M 87.683812 192.24 
L 88.7599 192.24 
L 88.7599 171.543493 
L 87.683812 171.543493 
z
" style="fill:#d95319;opacity:0.5;stroke:#272822;stroke-linejoin:miter;stroke-width:0.5;"/>
   </g>
   <g id="patch_40">
    <path clip-path="url(#pcdc0c3edde)" d="M 88.7599 192.24 
L 89.835988 192.24 
L 89.835988 173.18282 
L 88.7599 173.18282 
z
" style="fill:#d95319;opacity:0.5;stroke:#272822;stroke-linejoin:miter;stroke-width:0.5;"/>
   </g>
   <g id="patch_41">
    <path clip-path="url(#pcdc0c3edde)" d="M 89.835988 192.24 
L 90.912076 192.24 
L 90.912076 166.215679 
L 89.835988 166.215679 
z
" style="fill:#d95319;opacity:0.5;stroke:#272822;stroke-linejoin:miter;stroke-width:0.5;"/>
   </g>
   <g id="patch_42">
    <path clip-path="url(#pcdc0c3edde)" d="M 90.912076 192.24 
L 91.988164 192.24 
L 91.988164 168.879586 
L 90.912076 168.879586 
z
" style="fill:#d95319;opacity:0.5;stroke:#272822;stroke-linejoin:miter;stroke-width:0.5;"/>
   </g>
   <g id="patch_43">
    <path clip-path="url(#pcdc0c3edde)" d="M 91.988164 192.24 
L 93.064252 192.24 
L 93.064252 172.363157 
L 91.988164 172.363157 
z
" style="fill:#d95319;opacity:0.5;stroke:#272822;stroke-linejoin:miter;stroke-width:0.5;"/>
   </g>
   <g id="patch_44">
    <path clip-path="url(#pcdc0c3edde)" d="M 93.064252 192.24 
L 94.14034 192.24 
L 94.14034 168.879586 
L 93.064252 168.879586 
z
" style="fill:#d95319;opacity:0.5;stroke:#272822;stroke-linejoin:miter;stroke-width:0.5;"/>
   </g>
   <g id="patch_45">
    <path clip-path="url(#pcdc0c3edde)" d="M 94.14034 192.24 
L 95.216428 192.24 
L 95.216428 163.14194 
L 94.14034 163.14194 
z
" style="fill:#d95319;opacity:0.5;stroke:#272822;stroke-linejoin:miter;stroke-width:0.5;"/>
   </g>
   <g id="patch_46">
    <path clip-path="url(#pcdc0c3edde)" d="M 95.216428 192.24 
L 96.292516 192.24 
L 96.292516 169.69925 
L 95.216428 169.69925 
z
" style="fill:#d95319;opacity:0.5;stroke:#272822;stroke-linejoin:miter;stroke-width:0.5;"/>
   </g>
   <g id="patch_47">
    <path clip-path="url(#pcdc0c3edde)" d="M 96.292516 192.24 
L 97.368604 192.24 
L 97.368604 162.322277 
L 96.292516 162.322277 
z
" style="fill:#d95319;opacity:0.5;stroke:#272822;stroke-linejoin:miter;stroke-width:0.5;"/>
   </g>
   <g id="patch_48">
    <path clip-path="url(#pcdc0c3edde)" d="M 97.368604 192.24 
L 98.444692 192.24 
L 98.444692 167.240259 
L 97.368604 167.240259 
z
" style="fill:#d95319;opacity:0.5;stroke:#272822;stroke-linejoin:miter;stroke-width:0.5;"/>
   </g>
   <g id="patch_49">
    <path clip-path="url(#pcdc0c3edde)" d="M 98.444692 192.24 
L 99.52078 192.24 
L 99.52078 157.199379 
L 98.444692 157.199379 
z
" style="fill:#d95319;opacity:0.5;stroke:#272822;stroke-linejoin:miter;stroke-width:0.5;"/>
   </g>
   <g id="patch_50">
    <path clip-path="url(#pcdc0c3edde)" d="M 99.52078 192.24 
L 100.596868 192.24 
L 100.596868 154.945304 
L 99.52078 154.945304 
z
" style="fill:#d95319;opacity:0.5;stroke:#272822;stroke-linejoin:miter;stroke-width:0.5;"/>
   </g>
   <g id="patch_51">
    <path clip-path="url(#pcdc0c3edde)" d="M 100.596868 192.24 
L 101.672956 192.24 
L 101.672956 160.273118 
L 100.596868 160.273118 
z
" style="fill:#d95319;opacity:0.5;stroke:#272822;stroke-linejoin:miter;stroke-width:0.5;"/>
   </g>
   <g id="patch_52">
    <path clip-path="url(#pcdc0c3edde)" d="M 101.672956 192.24 
L 102.749044 192.24 
L 102.749044 161.092781 
L 101.672956 161.092781 
z
" style="fill:#d95319;opacity:0.5;stroke:#272822;stroke-linejoin:miter;stroke-width:0.5;"/>
   </g>
   <g id="patch_53">
    <path clip-path="url(#pcdc0c3edde)" d="M 102.749044 192.24 
L 103.825132 192.24 
L 103.825132 160.478034 
L 102.749044 160.478034 
z
" style="fill:#d95319;opacity:0.5;stroke:#272822;stroke-linejoin:miter;stroke-width:0.5;"/>
   </g>
   <g id="patch_54">
    <path clip-path="url(#pcdc0c3edde)" d="M 103.825132 192.24 
L 104.901219 192.24 
L 104.901219 155.969884 
L 103.825132 155.969884 
z
" style="fill:#d95319;opacity:0.5;stroke:#272822;stroke-linejoin:miter;stroke-width:0.5;"/>
   </g>
   <g id="patch_55">
    <path clip-path="url(#pcdc0c3edde)" d="M 104.901219 192.24 
L 105.977307 192.24 
L 105.977307 152.076481 
L 104.901219 152.076481 
z
" style="fill:#d95319;opacity:0.5;stroke:#272822;stroke-linejoin:miter;stroke-width:0.5;"/>
   </g>
   <g id="patch_56">
    <path clip-path="url(#pcdc0c3edde)" d="M 105.977307 192.24 
L 107.053395 192.24 
L 107.053395 158.428875 
L 105.977307 158.428875 
z
" style="fill:#d95319;opacity:0.5;stroke:#272822;stroke-linejoin:miter;stroke-width:0.5;"/>
   </g>
   <g id="patch_57">
    <path clip-path="url(#pcdc0c3edde)" d="M 107.053395 192.24 
L 108.129483 192.24 
L 108.129483 154.330556 
L 107.053395 154.330556 
z
" style="fill:#d95319;opacity:0.5;stroke:#272822;stroke-linejoin:miter;stroke-width:0.5;"/>
   </g>
   <g id="patch_58">
    <path clip-path="url(#pcdc0c3edde)" d="M 108.129483 192.24 
L 109.205571 192.24 
L 109.205571 149.822406 
L 108.129483 149.822406 
z
" style="fill:#d95319;opacity:0.5;stroke:#272822;stroke-linejoin:miter;stroke-width:0.5;"/>
   </g>
   <g id="patch_59">
    <path clip-path="url(#pcdc0c3edde)" d="M 109.205571 192.24 
L 110.281659 192.24 
L 110.281659 153.920724 
L 109.205571 153.920724 
z
" style="fill:#d95319;opacity:0.5;stroke:#272822;stroke-linejoin:miter;stroke-width:0.5;"/>
   </g>
   <g id="patch_60">
    <path clip-path="url(#pcdc0c3edde)" d="M 110.281659 192.24 
L 111.357747 192.24 
L 111.357747 146.543752 
L 110.281659 146.543752 
z
" style="fill:#d95319;opacity:0.5;stroke:#272822;stroke-linejoin:miter;stroke-width:0.5;"/>
   </g>
   <g id="patch_61">
    <path clip-path="url(#pcdc0c3edde)" d="M 111.357747 192.24 
L 112.433835 192.24 
L 112.433835 142.855265 
L 111.357747 142.855265 
z
" style="fill:#d95319;opacity:0.5;stroke:#272822;stroke-linejoin:miter;stroke-width:0.5;"/>
   </g>
   <g id="patch_62">
    <path clip-path="url(#pcdc0c3edde)" d="M 112.433835 192.24 
L 113.509923 192.24 
L 113.509923 144.289677 
L 112.433835 144.289677 
z
" style="fill:#d95319;opacity:0.5;stroke:#272822;stroke-linejoin:miter;stroke-width:0.5;"/>
   </g>
   <g id="patch_63">
    <path clip-path="url(#pcdc0c3edde)" d="M 113.509923 192.24 
L 114.586011 192.24 
L 114.586011 147.158499 
L 113.509923 147.158499 
z
" style="fill:#d95319;opacity:0.5;stroke:#272822;stroke-linejoin:miter;stroke-width:0.5;"/>
   </g>
   <g id="patch_64">
    <path clip-path="url(#pcdc0c3edde)" d="M 114.586011 192.24 
L 115.662099 192.24 
L 115.662099 143.470013 
L 114.586011 143.470013 
z
" style="fill:#d95319;opacity:0.5;stroke:#272822;stroke-linejoin:miter;stroke-width:0.5;"/>
   </g>
   <g id="patch_65">
    <path clip-path="url(#pcdc0c3edde)" d="M 115.662099 192.24 
L 116.738187 192.24 
L 116.738187 137.937283 
L 115.662099 137.937283 
z
" style="fill:#d95319;opacity:0.5;stroke:#272822;stroke-linejoin:miter;stroke-width:0.5;"/>
   </g>
   <g id="patch_66">
    <path clip-path="url(#pcdc0c3edde)" d="M 116.738187 192.24 
L 117.814275 192.24 
L 117.814275 143.060181 
L 116.738187 143.060181 
z
" style="fill:#d95319;opacity:0.5;stroke:#272822;stroke-linejoin:miter;stroke-width:0.5;"/>
   </g>
   <g id="patch_67">
    <path clip-path="url(#pcdc0c3edde)" d="M 117.814275 192.24 
L 118.890363 192.24 
L 118.890363 138.142199 
L 117.814275 138.142199 
z
" style="fill:#d95319;opacity:0.5;stroke:#272822;stroke-linejoin:miter;stroke-width:0.5;"/>
   </g>
   <g id="patch_68">
    <path clip-path="url(#pcdc0c3edde)" d="M 118.890363 192.24 
L 119.966451 192.24 
L 119.966451 146.13392 
L 118.890363 146.13392 
z
" style="fill:#d95319;opacity:0.5;stroke:#272822;stroke-linejoin:miter;stroke-width:0.5;"/>
   </g>
   <g id="patch_69">
    <path clip-path="url(#pcdc0c3edde)" d="M 119.966451 192.24 
L 121.042539 192.24 
L 121.042539 136.707788 
L 119.966451 136.707788 
z
" style="fill:#d95319;opacity:0.5;stroke:#272822;stroke-linejoin:miter;stroke-width:0.5;"/>
   </g>
   <g id="patch_70">
    <path clip-path="url(#pcdc0c3edde)" d="M 121.042539 192.24 
L 122.118627 192.24 
L 122.118627 131.789806 
L 121.042539 131.789806 
z
" style="fill:#d95319;opacity:0.5;stroke:#272822;stroke-linejoin:miter;stroke-width:0.5;"/>
   </g>
   <g id="patch_71">
    <path clip-path="url(#pcdc0c3edde)" d="M 122.118627 192.24 
L 123.194715 192.24 
L 123.194715 132.814386 
L 122.118627 132.814386 
z
" style="fill:#d95319;opacity:0.5;stroke:#272822;stroke-linejoin:miter;stroke-width:0.5;"/>
   </g>
   <g id="patch_72">
    <path clip-path="url(#pcdc0c3edde)" d="M 123.194715 192.24 
L 124.270803 192.24 
L 124.270803 129.945563 
L 123.194715 129.945563 
z
" style="fill:#d95319;opacity:0.5;stroke:#272822;stroke-linejoin:miter;stroke-width:0.5;"/>
   </g>
   <g id="patch_73">
    <path clip-path="url(#pcdc0c3edde)" d="M 124.270803 192.24 
L 125.346891 192.24 
L 125.346891 125.847245 
L 124.270803 125.847245 
z
" style="fill:#d95319;opacity:0.5;stroke:#272822;stroke-linejoin:miter;stroke-width:0.5;"/>
   </g>
   <g id="patch_74">
    <path clip-path="url(#pcdc0c3edde)" d="M 125.346891 192.24 
L 126.422979 192.24 
L 126.422979 123.388254 
L 125.346891 123.388254 
z
" style="fill:#d95319;opacity:0.5;stroke:#272822;stroke-linejoin:miter;stroke-width:0.5;"/>
   </g>
   <g id="patch_75">
    <path clip-path="url(#pcdc0c3edde)" d="M 126.422979 192.24 
L 127.499067 192.24 
L 127.499067 115.806365 
L 126.422979 115.806365 
z
" style="fill:#d95319;opacity:0.5;stroke:#272822;stroke-linejoin:miter;stroke-width:0.5;"/>
   </g>
   <g id="patch_76">
    <path clip-path="url(#pcdc0c3edde)" d="M 127.499067 192.24 
L 128.575154 192.24 
L 128.575154 122.363674 
L 127.499067 122.363674 
z
" style="fill:#d95319;opacity:0.5;stroke:#272822;stroke-linejoin:miter;stroke-width:0.5;"/>
   </g>
   <g id="patch_77">
    <path clip-path="url(#pcdc0c3edde)" d="M 128.575154 192.24 
L 129.651242 192.24 
L 129.651242 115.806365 
L 128.575154 115.806365 
z
" style="fill:#d95319;opacity:0.5;stroke:#272822;stroke-linejoin:miter;stroke-width:0.5;"/>
   </g>
   <g id="patch_78">
    <path clip-path="url(#pcdc0c3edde)" d="M 129.651242 192.24 
L 130.72733 192.24 
L 130.72733 115.806365 
L 129.651242 115.806365 
z
" style="fill:#d95319;opacity:0.5;stroke:#272822;stroke-linejoin:miter;stroke-width:0.5;"/>
   </g>
   <g id="patch_79">
    <path clip-path="url(#pcdc0c3edde)" d="M 130.72733 192.24 
L 131.803418 192.24 
L 131.803418 113.757206 
L 130.72733 113.757206 
z
" style="fill:#d95319;opacity:0.5;stroke:#272822;stroke-linejoin:miter;stroke-width:0.5;"/>
   </g>
   <g id="patch_80">
    <path clip-path="url(#pcdc0c3edde)" d="M 131.803418 192.24 
L 132.879506 192.24 
L 132.879506 103.306494 
L 131.803418 103.306494 
z
" style="fill:#d95319;opacity:0.5;stroke:#272822;stroke-linejoin:miter;stroke-width:0.5;"/>
   </g>
   <g id="patch_81">
    <path clip-path="url(#pcdc0c3edde)" d="M 132.879506 192.24 
L 133.955594 192.24 
L 133.955594 114.576869 
L 132.879506 114.576869 
z
" style="fill:#d95319;opacity:0.5;stroke:#272822;stroke-linejoin:miter;stroke-width:0.5;"/>
   </g>
   <g id="patch_82">
    <path clip-path="url(#pcdc0c3edde)" d="M 133.955594 192.24 
L 135.031682 192.24 
L 135.031682 103.101578 
L 133.955594 103.101578 
z
" style="fill:#d95319;opacity:0.5;stroke:#272822;stroke-linejoin:miter;stroke-width:0.5;"/>
   </g>
   <g id="patch_83">
    <path clip-path="url(#pcdc0c3edde)" d="M 135.031682 192.24 
L 136.10777 192.24 
L 136.10777 104.740906 
L 135.031682 104.740906 
z
" style="fill:#d95319;opacity:0.5;stroke:#272822;stroke-linejoin:miter;stroke-width:0.5;"/>
   </g>
   <g id="patch_84">
    <path clip-path="url(#pcdc0c3edde)" d="M 136.10777 192.24 
L 137.183858 192.24 
L 137.183858 100.232755 
L 136.10777 100.232755 
z
" style="fill:#d95319;opacity:0.5;stroke:#272822;stroke-linejoin:miter;stroke-width:0.5;"/>
   </g>
   <g id="patch_85">
    <path clip-path="url(#pcdc0c3edde)" d="M 137.183858 192.24 
L 138.259946 192.24 
L 138.259946 95.724605 
L 137.183858 95.724605 
z
" style="fill:#d95319;opacity:0.5;stroke:#272822;stroke-linejoin:miter;stroke-width:0.5;"/>
   </g>
   <g id="patch_86">
    <path clip-path="url(#pcdc0c3edde)" d="M 138.259946 192.24 
L 139.336034 192.24 
L 139.336034 100.02784 
L 138.259946 100.02784 
z
" style="fill:#d95319;opacity:0.5;stroke:#272822;stroke-linejoin:miter;stroke-width:0.5;"/>
   </g>
   <g id="patch_87">
    <path clip-path="url(#pcdc0c3edde)" d="M 139.336034 192.24 
L 140.412122 192.24 
L 140.412122 86.913221 
L 139.336034 86.913221 
z
" style="fill:#d95319;opacity:0.5;stroke:#272822;stroke-linejoin:miter;stroke-width:0.5;"/>
   </g>
   <g id="patch_88">
    <path clip-path="url(#pcdc0c3edde)" d="M 140.412122 192.24 
L 141.48821 192.24 
L 141.48821 80.150996 
L 140.412122 80.150996 
z
" style="fill:#d95319;opacity:0.5;stroke:#272822;stroke-linejoin:miter;stroke-width:0.5;"/>
   </g>
   <g id="patch_89">
    <path clip-path="url(#pcdc0c3edde)" d="M 141.48821 192.24 
L 142.564298 192.24 
L 142.564298 82.405071 
L 141.48821 82.405071 
z
" style="fill:#d95319;opacity:0.5;stroke:#272822;stroke-linejoin:miter;stroke-width:0.5;"/>
   </g>
   <g id="patch_90">
    <path clip-path="url(#pcdc0c3edde)" d="M 142.564298 192.24 
L 143.640386 192.24 
L 143.640386 72.978939 
L 142.564298 72.978939 
z
" style="fill:#d95319;opacity:0.5;stroke:#272822;stroke-linejoin:miter;stroke-width:0.5;"/>
   </g>
   <g id="patch_91">
    <path clip-path="url(#pcdc0c3edde)" d="M 143.640386 192.24 
L 144.716474 192.24 
L 144.716474 76.257594 
L 143.640386 76.257594 
z
" style="fill:#d95319;opacity:0.5;stroke:#272822;stroke-linejoin:miter;stroke-width:0.5;"/>
   </g>
   <g id="patch_92">
    <path clip-path="url(#pcdc0c3edde)" d="M 144.716474 192.24 
L 145.792562 192.24 
L 145.792562 63.347891 
L 144.716474 63.347891 
z
" style="fill:#d95319;opacity:0.5;stroke:#272822;stroke-linejoin:miter;stroke-width:0.5;"/>
   </g>
   <g id="patch_93">
    <path clip-path="url(#pcdc0c3edde)" d="M 145.792562 192.24 
L 146.86865 192.24 
L 146.86865 66.216714 
L 145.792562 66.216714 
z
" style="fill:#d95319;opacity:0.5;stroke:#272822;stroke-linejoin:miter;stroke-width:0.5;"/>
   </g>
   <g id="patch_94">
    <path clip-path="url(#pcdc0c3edde)" d="M 146.86865 192.24 
L 147.944738 192.24 
L 147.944738 55.151255 
L 146.86865 55.151255 
z
" style="fill:#d95319;opacity:0.5;stroke:#272822;stroke-linejoin:miter;stroke-width:0.5;"/>
   </g>
   <g id="patch_95">
    <path clip-path="url(#pcdc0c3edde)" d="M 147.944738 192.24 
L 149.020826 192.24 
L 149.020826 59.659405 
L 147.944738 59.659405 
z
" style="fill:#d95319;opacity:0.5;stroke:#272822;stroke-linejoin:miter;stroke-width:0.5;"/>
   </g>
   <g id="patch_96">
    <path clip-path="url(#pcdc0c3edde)" d="M 149.020826 192.24 
L 150.096914 192.24 
L 150.096914 52.077516 
L 149.020826 52.077516 
z
" style="fill:#d95319;opacity:0.5;stroke:#272822;stroke-linejoin:miter;stroke-width:0.5;"/>
   </g>
   <g id="patch_97">
    <path clip-path="url(#pcdc0c3edde)" d="M 150.096914 192.24 
L 151.173002 192.24 
L 151.173002 43.266132 
L 150.096914 43.266132 
z
" style="fill:#d95319;opacity:0.5;stroke:#272822;stroke-linejoin:miter;stroke-width:0.5;"/>
   </g>
   <g id="patch_98">
    <path clip-path="url(#pcdc0c3edde)" d="M 151.173002 192.24 
L 152.24909 192.24 
L 152.24909 51.257853 
L 151.173002 51.257853 
z
" style="fill:#d95319;opacity:0.5;stroke:#272822;stroke-linejoin:miter;stroke-width:0.5;"/>
   </g>
   <g id="patch_99">
    <path clip-path="url(#pcdc0c3edde)" d="M 152.24909 192.24 
L 153.325177 192.24 
L 153.325177 42.036636 
L 152.24909 42.036636 
z
" style="fill:#d95319;opacity:0.5;stroke:#272822;stroke-linejoin:miter;stroke-width:0.5;"/>
   </g>
   <g id="patch_100">
    <path clip-path="url(#pcdc0c3edde)" d="M 153.325177 192.24 
L 154.401265 192.24 
L 154.401265 41.626805 
L 153.325177 41.626805 
z
" style="fill:#d95319;opacity:0.5;stroke:#272822;stroke-linejoin:miter;stroke-width:0.5;"/>
   </g>
   <g id="patch_101">
    <path clip-path="url(#pcdc0c3edde)" d="M 154.401265 192.24 
L 155.477353 192.24 
L 155.477353 41.012057 
L 154.401265 41.012057 
z
" style="fill:#d95319;opacity:0.5;stroke:#272822;stroke-linejoin:miter;stroke-width:0.5;"/>
   </g>
   <g id="patch_102">
    <path clip-path="url(#pcdc0c3edde)" d="M 155.477353 192.24 
L 156.553441 192.24 
L 156.553441 104.740906 
L 155.477353 104.740906 
z
" style="fill:#d95319;opacity:0.5;stroke:#272822;stroke-linejoin:miter;stroke-width:0.5;"/>
   </g>
   <g id="patch_103">
    <path clip-path="url(#pcdc0c3edde)" d="M 156.553441 192.24 
L 157.629529 192.24 
L 157.629529 121.54401 
L 156.553441 121.54401 
z
" style="fill:#d95319;opacity:0.5;stroke:#272822;stroke-linejoin:miter;stroke-width:0.5;"/>
   </g>
   <g id="patch_104">
    <path clip-path="url(#pcdc0c3edde)" d="M 157.629529 192.24 
L 158.705617 192.24 
L 158.705617 35.479327 
L 157.629529 35.479327 
z
" style="fill:#d95319;opacity:0.5;stroke:#272822;stroke-linejoin:miter;stroke-width:0.5;"/>
   </g>
   <g id="patch_105">
    <path clip-path="url(#pcdc0c3edde)" d="M 158.705617 192.24 
L 159.781705 192.24 
L 159.781705 33.84 
L 158.705617 33.84 
z
" style="fill:#d95319;opacity:0.5;stroke:#272822;stroke-linejoin:miter;stroke-width:0.5;"/>
   </g>
   <g id="patch_106">
    <path clip-path="url(#pcdc0c3edde)" d="M 159.781705 192.24 
L 160.857793 192.24 
L 160.857793 38.143234 
L 159.781705 38.143234 
z
" style="fill:#d95319;opacity:0.5;stroke:#272822;stroke-linejoin:miter;stroke-width:0.5;"/>
   </g>
   <g id="patch_107">
    <path clip-path="url(#pcdc0c3edde)" d="M 160.857793 192.24 
L 161.933881 192.24 
L 161.933881 39.987477 
L 160.857793 39.987477 
z
" style="fill:#d95319;opacity:0.5;stroke:#272822;stroke-linejoin:miter;stroke-width:0.5;"/>
   </g>
   <g id="patch_108">
    <path clip-path="url(#pcdc0c3edde)" d="M 161.933881 192.24 
L 163.009969 192.24 
L 163.009969 51.052937 
L 161.933881 51.052937 
z
" style="fill:#d95319;opacity:0.5;stroke:#272822;stroke-linejoin:miter;stroke-width:0.5;"/>
   </g>
   <g id="patch_109">
    <path clip-path="url(#pcdc0c3edde)" d="M 163.009969 192.24 
L 164.086057 192.24 
L 164.086057 48.38903 
L 163.009969 48.38903 
z
" style="fill:#d95319;opacity:0.5;stroke:#272822;stroke-linejoin:miter;stroke-width:0.5;"/>
   </g>
   <g id="patch_110">
    <path clip-path="url(#pcdc0c3edde)" d="M 164.086057 192.24 
L 165.162145 192.24 
L 165.162145 51.052937 
L 164.086057 51.052937 
z
" style="fill:#d95319;opacity:0.5;stroke:#272822;stroke-linejoin:miter;stroke-width:0.5;"/>
   </g>
   <g id="patch_111">
    <path clip-path="url(#pcdc0c3edde)" d="M 165.162145 192.24 
L 166.238233 192.24 
L 166.238233 61.298732 
L 165.162145 61.298732 
z
" style="fill:#d95319;opacity:0.5;stroke:#272822;stroke-linejoin:miter;stroke-width:0.5;"/>
   </g>
   <g id="patch_112">
    <path clip-path="url(#pcdc0c3edde)" d="M 166.238233 192.24 
L 167.314321 192.24 
L 167.314321 53.307012 
L 166.238233 53.307012 
z
" style="fill:#d95319;opacity:0.5;stroke:#272822;stroke-linejoin:miter;stroke-width:0.5;"/>
   </g>
   <g id="patch_113">
    <path clip-path="url(#pcdc0c3edde)" d="M 167.314321 192.24 
L 168.390409 192.24 
L 168.390409 70.315032 
L 167.314321 70.315032 
z
" style="fill:#d95319;opacity:0.5;stroke:#272822;stroke-linejoin:miter;stroke-width:0.5;"/>
   </g>
   <g id="patch_114">
    <path clip-path="url(#pcdc0c3edde)" d="M 168.390409 192.24 
L 169.466497 192.24 
L 169.466497 63.757723 
L 168.390409 63.757723 
z
" style="fill:#d95319;opacity:0.5;stroke:#272822;stroke-linejoin:miter;stroke-width:0.5;"/>
   </g>
   <g id="patch_115">
    <path clip-path="url(#pcdc0c3edde)" d="M 169.466497 192.24 
L 170.542585 192.24 
L 170.542585 77.692005 
L 169.466497 77.692005 
z
" style="fill:#d95319;opacity:0.5;stroke:#272822;stroke-linejoin:miter;stroke-width:0.5;"/>
   </g>
   <g id="patch_116">
    <path clip-path="url(#pcdc0c3edde)" d="M 170.542585 192.24 
L 171.618673 192.24 
L 171.618673 81.995239 
L 170.542585 81.995239 
z
" style="fill:#d95319;opacity:0.5;stroke:#272822;stroke-linejoin:miter;stroke-width:0.5;"/>
   </g>
   <g id="patch_117">
    <path clip-path="url(#pcdc0c3edde)" d="M 171.618673 192.24 
L 172.694761 192.24 
L 172.694761 85.683726 
L 171.618673 85.683726 
z
" style="fill:#d95319;opacity:0.5;stroke:#272822;stroke-linejoin:miter;stroke-width:0.5;"/>
   </g>
   <g id="patch_118">
    <path clip-path="url(#pcdc0c3edde)" d="M 172.694761 192.24 
L 173.770849 192.24 
L 173.770849 88.96238 
L 172.694761 88.96238 
z
" style="fill:#d95319;opacity:0.5;stroke:#272822;stroke-linejoin:miter;stroke-width:0.5;"/>
   </g>
   <g id="patch_119">
    <path clip-path="url(#pcdc0c3edde)" d="M 173.770849 192.24 
L 174.846937 192.24 
L 174.846937 86.708305 
L 173.770849 86.708305 
z
" style="fill:#d95319;opacity:0.5;stroke:#272822;stroke-linejoin:miter;stroke-width:0.5;"/>
   </g>
   <g id="patch_120">
    <path clip-path="url(#pcdc0c3edde)" d="M 174.846937 192.24 
L 175.923025 192.24 
L 175.923025 94.904942 
L 174.846937 94.904942 
z
" style="fill:#d95319;opacity:0.5;stroke:#272822;stroke-linejoin:miter;stroke-width:0.5;"/>
   </g>
   <g id="patch_121">
    <path clip-path="url(#pcdc0c3edde)" d="M 175.923025 192.24 
L 176.999113 192.24 
L 176.999113 94.290194 
L 175.923025 94.290194 
z
" style="fill:#d95319;opacity:0.5;stroke:#272822;stroke-linejoin:miter;stroke-width:0.5;"/>
   </g>
   <g id="patch_122">
    <path clip-path="url(#pcdc0c3edde)" d="M 176.999113 192.24 
L 178.0752 192.24 
L 178.0752 101.667167 
L 176.999113 101.667167 
z
" style="fill:#d95319;opacity:0.5;stroke:#272822;stroke-linejoin:miter;stroke-width:0.5;"/>
   </g>
   <g id="patch_123">
    <path clip-path="url(#pcdc0c3edde)" d="M 178.0752 192.24 
L 179.151288 192.24 
L 179.151288 101.462251 
L 178.0752 101.462251 
z
" style="fill:#d95319;opacity:0.5;stroke:#272822;stroke-linejoin:miter;stroke-width:0.5;"/>
   </g>
   <g id="patch_124">
    <path clip-path="url(#pcdc0c3edde)" d="M 179.151288 192.24 
L 180.227376 192.24 
L 180.227376 99.208176 
L 179.151288 99.208176 
z
" style="fill:#d95319;opacity:0.5;stroke:#272822;stroke-linejoin:miter;stroke-width:0.5;"/>
   </g>
   <g id="patch_125">
    <path clip-path="url(#pcdc0c3edde)" d="M 180.227376 192.24 
L 181.303464 192.24 
L 181.303464 111.503131 
L 180.227376 111.503131 
z
" style="fill:#d95319;opacity:0.5;stroke:#272822;stroke-linejoin:miter;stroke-width:0.5;"/>
   </g>
   <g id="patch_126">
    <path clip-path="url(#pcdc0c3edde)" d="M 181.303464 192.24 
L 182.379552 192.24 
L 182.379552 115.601449 
L 181.303464 115.601449 
z
" style="fill:#d95319;opacity:0.5;stroke:#272822;stroke-linejoin:miter;stroke-width:0.5;"/>
   </g>
   <g id="patch_127">
    <path clip-path="url(#pcdc0c3edde)" d="M 182.379552 192.24 
L 183.45564 192.24 
L 183.45564 117.03586 
L 182.379552 117.03586 
z
" style="fill:#d95319;opacity:0.5;stroke:#272822;stroke-linejoin:miter;stroke-width:0.5;"/>
   </g>
   <g id="patch_128">
    <path clip-path="url(#pcdc0c3edde)" d="M 183.45564 192.24 
L 184.531728 192.24 
L 184.531728 115.396533 
L 183.45564 115.396533 
z
" style="fill:#d95319;opacity:0.5;stroke:#272822;stroke-linejoin:miter;stroke-width:0.5;"/>
   </g>
   <g id="patch_129">
    <path clip-path="url(#pcdc0c3edde)" d="M 184.531728 192.24 
L 185.607816 192.24 
L 185.607816 119.494851 
L 184.531728 119.494851 
z
" style="fill:#d95319;opacity:0.5;stroke:#272822;stroke-linejoin:miter;stroke-width:0.5;"/>
   </g>
   <g id="patch_130">
    <path clip-path="url(#pcdc0c3edde)" d="M 185.607816 192.24 
L 186.683904 192.24 
L 186.683904 117.650608 
L 185.607816 117.650608 
z
" style="fill:#d95319;opacity:0.5;stroke:#272822;stroke-linejoin:miter;stroke-width:0.5;"/>
   </g>
   <g id="patch_131">
    <path clip-path="url(#pcdc0c3edde)" d="M 186.683904 192.24 
L 187.759992 192.24 
L 187.759992 121.54401 
L 186.683904 121.54401 
z
" style="fill:#d95319;opacity:0.5;stroke:#272822;stroke-linejoin:miter;stroke-width:0.5;"/>
   </g>
   <g id="patch_132">
    <path clip-path="url(#pcdc0c3edde)" d="M 187.759992 192.24 
L 188.83608 192.24 
L 188.83608 127.07674 
L 187.759992 127.07674 
z
" style="fill:#d95319;opacity:0.5;stroke:#272822;stroke-linejoin:miter;stroke-width:0.5;"/>
   </g>
   <g id="patch_133">
    <path clip-path="url(#pcdc0c3edde)" d="M 188.83608 192.24 
L 189.912168 192.24 
L 189.912168 132.814386 
L 188.83608 132.814386 
z
" style="fill:#d95319;opacity:0.5;stroke:#272822;stroke-linejoin:miter;stroke-width:0.5;"/>
   </g>
   <g id="patch_134">
    <path clip-path="url(#pcdc0c3edde)" d="M 189.912168 192.24 
L 190.988256 192.24 
L 190.988256 133.224217 
L 189.912168 133.224217 
z
" style="fill:#d95319;opacity:0.5;stroke:#272822;stroke-linejoin:miter;stroke-width:0.5;"/>
   </g>
   <g id="patch_135">
    <path clip-path="url(#pcdc0c3edde)" d="M 190.988256 192.24 
L 192.064344 192.24 
L 192.064344 131.994722 
L 190.988256 131.994722 
z
" style="fill:#d95319;opacity:0.5;stroke:#272822;stroke-linejoin:miter;stroke-width:0.5;"/>
   </g>
   <g id="patch_136">
    <path clip-path="url(#pcdc0c3edde)" d="M 192.064344 192.24 
L 193.140432 192.24 
L 193.140432 134.043881 
L 192.064344 134.043881 
z
" style="fill:#d95319;opacity:0.5;stroke:#272822;stroke-linejoin:miter;stroke-width:0.5;"/>
   </g>
   <g id="patch_137">
    <path clip-path="url(#pcdc0c3edde)" d="M 193.140432 192.24 
L 194.21652 192.24 
L 194.21652 141.215938 
L 193.140432 141.215938 
z
" style="fill:#d95319;opacity:0.5;stroke:#272822;stroke-linejoin:miter;stroke-width:0.5;"/>
   </g>
   <g id="patch_138">
    <path clip-path="url(#pcdc0c3edde)" d="M 194.21652 192.24 
L 195.292608 192.24 
L 195.292608 141.420854 
L 194.21652 141.420854 
z
" style="fill:#d95319;opacity:0.5;stroke:#272822;stroke-linejoin:miter;stroke-width:0.5;"/>
   </g>
   <g id="patch_139">
    <path clip-path="url(#pcdc0c3edde)" d="M 195.292608 192.24 
L 196.368696 192.24 
L 196.368696 136.707788 
L 195.292608 136.707788 
z
" style="fill:#d95319;opacity:0.5;stroke:#272822;stroke-linejoin:miter;stroke-width:0.5;"/>
   </g>
   <g id="patch_140">
    <path clip-path="url(#pcdc0c3edde)" d="M 196.368696 192.24 
L 197.444784 192.24 
L 197.444784 136.707788 
L 196.368696 136.707788 
z
" style="fill:#d95319;opacity:0.5;stroke:#272822;stroke-linejoin:miter;stroke-width:0.5;"/>
   </g>
   <g id="patch_141">
    <path clip-path="url(#pcdc0c3edde)" d="M 197.444784 192.24 
L 198.520872 192.24 
L 198.520872 142.445433 
L 197.444784 142.445433 
z
" style="fill:#d95319;opacity:0.5;stroke:#272822;stroke-linejoin:miter;stroke-width:0.5;"/>
   </g>
   <g id="patch_142">
    <path clip-path="url(#pcdc0c3edde)" d="M 198.520872 192.24 
L 199.59696 192.24 
L 199.59696 145.10934 
L 198.520872 145.10934 
z
" style="fill:#d95319;opacity:0.5;stroke:#272822;stroke-linejoin:miter;stroke-width:0.5;"/>
   </g>
   <g id="patch_143">
    <path clip-path="url(#pcdc0c3edde)" d="M 199.59696 192.24 
L 200.673048 192.24 
L 200.673048 148.183079 
L 199.59696 148.183079 
z
" style="fill:#d95319;opacity:0.5;stroke:#272822;stroke-linejoin:miter;stroke-width:0.5;"/>
   </g>
   <g id="patch_144">
    <path clip-path="url(#pcdc0c3edde)" d="M 200.673048 192.24 
L 201.749136 192.24 
L 201.749136 146.13392 
L 200.673048 146.13392 
z
" style="fill:#d95319;opacity:0.5;stroke:#272822;stroke-linejoin:miter;stroke-width:0.5;"/>
   </g>
   <g id="patch_145">
    <path clip-path="url(#pcdc0c3edde)" d="M 201.749136 192.24 
L 202.825223 192.24 
L 202.825223 154.535472 
L 201.749136 154.535472 
z
" style="fill:#d95319;opacity:0.5;stroke:#272822;stroke-linejoin:miter;stroke-width:0.5;"/>
   </g>
   <g id="patch_146">
    <path clip-path="url(#pcdc0c3edde)" d="M 202.825223 192.24 
L 203.901311 192.24 
L 203.901311 156.994463 
L 202.825223 156.994463 
z
" style="fill:#d95319;opacity:0.5;stroke:#272822;stroke-linejoin:miter;stroke-width:0.5;"/>
   </g>
   <g id="patch_147">
    <path clip-path="url(#pcdc0c3edde)" d="M 203.901311 192.24 
L 204.977399 192.24 
L 204.977399 151.051902 
L 203.901311 151.051902 
z
" style="fill:#d95319;opacity:0.5;stroke:#272822;stroke-linejoin:miter;stroke-width:0.5;"/>
   </g>
   <g id="patch_148">
    <path clip-path="url(#pcdc0c3edde)" d="M 204.977399 192.24 
L 206.053487 192.24 
L 206.053487 156.994463 
L 204.977399 156.994463 
z
" style="fill:#d95319;opacity:0.5;stroke:#272822;stroke-linejoin:miter;stroke-width:0.5;"/>
   </g>
   <g id="patch_149">
    <path clip-path="url(#pcdc0c3edde)" d="M 206.053487 192.24 
L 207.129575 192.24 
L 207.129575 155.969884 
L 206.053487 155.969884 
z
" style="fill:#d95319;opacity:0.5;stroke:#272822;stroke-linejoin:miter;stroke-width:0.5;"/>
   </g>
   <g id="patch_150">
    <path clip-path="url(#pcdc0c3edde)" d="M 207.129575 192.24 
L 208.205663 192.24 
L 208.205663 157.609211 
L 207.129575 157.609211 
z
" style="fill:#d95319;opacity:0.5;stroke:#272822;stroke-linejoin:miter;stroke-width:0.5;"/>
   </g>
   <g id="patch_151">
    <path clip-path="url(#pcdc0c3edde)" d="M 208.205663 192.24 
L 209.281751 192.24 
L 209.281751 157.609211 
L 208.205663 157.609211 
z
" style="fill:#d95319;opacity:0.5;stroke:#272822;stroke-linejoin:miter;stroke-width:0.5;"/>
   </g>
   <g id="patch_152">
    <path clip-path="url(#pcdc0c3edde)" d="M 209.281751 192.24 
L 210.357839 192.24 
L 210.357839 156.789547 
L 209.281751 156.789547 
z
" style="fill:#d95319;opacity:0.5;stroke:#272822;stroke-linejoin:miter;stroke-width:0.5;"/>
   </g>
   <g id="patch_153">
    <path clip-path="url(#pcdc0c3edde)" d="M 210.357839 192.24 
L 211.433927 192.24 
L 211.433927 158.63379 
L 210.357839 158.63379 
z
" style="fill:#d95319;opacity:0.5;stroke:#272822;stroke-linejoin:miter;stroke-width:0.5;"/>
   </g>
   <g id="patch_154">
    <path clip-path="url(#pcdc0c3edde)" d="M 211.433927 192.24 
L 212.510015 192.24 
L 212.510015 158.63379 
L 211.433927 158.63379 
z
" style="fill:#d95319;opacity:0.5;stroke:#272822;stroke-linejoin:miter;stroke-width:0.5;"/>
   </g>
   <g id="patch_155">
    <path clip-path="url(#pcdc0c3edde)" d="M 212.510015 192.24 
L 213.586103 192.24 
L 213.586103 164.371436 
L 212.510015 164.371436 
z
" style="fill:#d95319;opacity:0.5;stroke:#272822;stroke-linejoin:miter;stroke-width:0.5;"/>
   </g>
   <g id="patch_156">
    <path clip-path="url(#pcdc0c3edde)" d="M 213.586103 192.24 
L 214.662191 192.24 
L 214.662191 161.502613 
L 213.586103 161.502613 
z
" style="fill:#d95319;opacity:0.5;stroke:#272822;stroke-linejoin:miter;stroke-width:0.5;"/>
   </g>
   <g id="patch_157">
    <path clip-path="url(#pcdc0c3edde)" d="M 214.662191 192.24 
L 215.738279 192.24 
L 215.738279 165.805847 
L 214.662191 165.805847 
z
" style="fill:#d95319;opacity:0.5;stroke:#272822;stroke-linejoin:miter;stroke-width:0.5;"/>
   </g>
   <g id="patch_158">
    <path clip-path="url(#pcdc0c3edde)" d="M 215.738279 192.24 
L 216.814367 192.24 
L 216.814367 163.346856 
L 215.738279 163.346856 
z
" style="fill:#d95319;opacity:0.5;stroke:#272822;stroke-linejoin:miter;stroke-width:0.5;"/>
   </g>
   <g id="patch_159">
    <path clip-path="url(#pcdc0c3edde)" d="M 216.814367 192.24 
L 217.890455 192.24 
L 217.890455 166.625511 
L 216.814367 166.625511 
z
" style="fill:#d95319;opacity:0.5;stroke:#272822;stroke-linejoin:miter;stroke-width:0.5;"/>
   </g>
   <g id="patch_160">
    <path clip-path="url(#pcdc0c3edde)" d="M 217.890455 192.24 
L 218.966543 192.24 
L 218.966543 163.756688 
L 217.890455 163.756688 
z
" style="fill:#d95319;opacity:0.5;stroke:#272822;stroke-linejoin:miter;stroke-width:0.5;"/>
   </g>
   <g id="patch_161">
    <path clip-path="url(#pcdc0c3edde)" d="M 218.966543 192.24 
L 220.042631 192.24 
L 220.042631 165.396016 
L 218.966543 165.396016 
z
" style="fill:#d95319;opacity:0.5;stroke:#272822;stroke-linejoin:miter;stroke-width:0.5;"/>
   </g>
   <g id="patch_162">
    <path clip-path="url(#pcdc0c3edde)" d="M 220.042631 192.24 
L 221.118719 192.24 
L 221.118719 165.805847 
L 220.042631 165.805847 
z
" style="fill:#d95319;opacity:0.5;stroke:#272822;stroke-linejoin:miter;stroke-width:0.5;"/>
   </g>
   <g id="patch_163">
    <path clip-path="url(#pcdc0c3edde)" d="M 221.118719 192.24 
L 222.194807 192.24 
L 222.194807 169.69925 
L 221.118719 169.69925 
z
" style="fill:#d95319;opacity:0.5;stroke:#272822;stroke-linejoin:miter;stroke-width:0.5;"/>
   </g>
   <g id="patch_164">
    <path clip-path="url(#pcdc0c3edde)" d="M 222.194807 192.24 
L 223.270895 192.24 
L 223.270895 172.158241 
L 222.194807 172.158241 
z
" style="fill:#d95319;opacity:0.5;stroke:#272822;stroke-linejoin:miter;stroke-width:0.5;"/>
   </g>
   <g id="patch_165">
    <path clip-path="url(#pcdc0c3edde)" d="M 223.270895 192.24 
L 224.346983 192.24 
L 224.346983 168.879586 
L 223.270895 168.879586 
z
" style="fill:#d95319;opacity:0.5;stroke:#272822;stroke-linejoin:miter;stroke-width:0.5;"/>
   </g>
   <g id="patch_166">
    <path clip-path="url(#pcdc0c3edde)" d="M 224.346983 192.24 
L 225.423071 192.24 
L 225.423071 170.928745 
L 224.346983 170.928745 
z
" style="fill:#d95319;opacity:0.5;stroke:#272822;stroke-linejoin:miter;stroke-width:0.5;"/>
   </g>
   <g id="patch_167">
    <path clip-path="url(#pcdc0c3edde)" d="M 225.423071 192.24 
L 226.499159 192.24 
L 226.499159 173.592652 
L 225.423071 173.592652 
z
" style="fill:#d95319;opacity:0.5;stroke:#272822;stroke-linejoin:miter;stroke-width:0.5;"/>
   </g>
   <g id="patch_168">
    <path clip-path="url(#pcdc0c3edde)" d="M 226.499159 192.24 
L 227.575246 192.24 
L 227.575246 177.281138 
L 226.499159 177.281138 
z
" style="fill:#d95319;opacity:0.5;stroke:#272822;stroke-linejoin:miter;stroke-width:0.5;"/>
   </g>
   <g id="patch_169">
    <path clip-path="url(#pcdc0c3edde)" d="M 227.575246 192.24 
L 228.651334 192.24 
L 228.651334 173.18282 
L 227.575246 173.18282 
z
" style="fill:#d95319;opacity:0.5;stroke:#272822;stroke-linejoin:miter;stroke-width:0.5;"/>
   </g>
   <g id="patch_170">
    <path clip-path="url(#pcdc0c3edde)" d="M 228.651334 192.24 
L 229.727422 192.24 
L 229.727422 169.69925 
L 228.651334 169.69925 
z
" style="fill:#d95319;opacity:0.5;stroke:#272822;stroke-linejoin:miter;stroke-width:0.5;"/>
   </g>
   <g id="patch_171">
    <path clip-path="url(#pcdc0c3edde)" d="M 229.727422 192.24 
L 230.80351 192.24 
L 230.80351 174.002484 
L 229.727422 174.002484 
z
" style="fill:#d95319;opacity:0.5;stroke:#272822;stroke-linejoin:miter;stroke-width:0.5;"/>
   </g>
   <g id="patch_172">
    <path clip-path="url(#pcdc0c3edde)" d="M 230.80351 192.24 
L 231.879598 192.24 
L 231.879598 175.641811 
L 230.80351 175.641811 
z
" style="fill:#d95319;opacity:0.5;stroke:#272822;stroke-linejoin:miter;stroke-width:0.5;"/>
   </g>
   <g id="patch_173">
    <path clip-path="url(#pcdc0c3edde)" d="M 231.879598 192.24 
L 232.955686 192.24 
L 232.955686 175.027063 
L 231.879598 175.027063 
z
" style="fill:#d95319;opacity:0.5;stroke:#272822;stroke-linejoin:miter;stroke-width:0.5;"/>
   </g>
   <g id="patch_174">
    <path clip-path="url(#pcdc0c3edde)" d="M 232.955686 192.24 
L 234.031774 192.24 
L 234.031774 176.666391 
L 232.955686 176.666391 
z
" style="fill:#d95319;opacity:0.5;stroke:#272822;stroke-linejoin:miter;stroke-width:0.5;"/>
   </g>
   <g id="patch_175">
    <path clip-path="url(#pcdc0c3edde)" d="M 234.031774 192.24 
L 235.107862 192.24 
L 235.107862 178.71555 
L 234.031774 178.71555 
z
" style="fill:#d95319;opacity:0.5;stroke:#272822;stroke-linejoin:miter;stroke-width:0.5;"/>
   </g>
   <g id="patch_176">
    <path clip-path="url(#pcdc0c3edde)" d="M 235.107862 192.24 
L 236.18395 192.24 
L 236.18395 173.797568 
L 235.107862 173.797568 
z
" style="fill:#d95319;opacity:0.5;stroke:#272822;stroke-linejoin:miter;stroke-width:0.5;"/>
   </g>
   <g id="patch_177">
    <path clip-path="url(#pcdc0c3edde)" d="M 236.18395 192.24 
L 237.260038 192.24 
L 237.260038 179.125382 
L 236.18395 179.125382 
z
" style="fill:#d95319;opacity:0.5;stroke:#272822;stroke-linejoin:miter;stroke-width:0.5;"/>
   </g>
   <g id="patch_178">
    <path clip-path="url(#pcdc0c3edde)" d="M 237.260038 192.24 
L 238.336126 192.24 
L 238.336126 180.149961 
L 237.260038 180.149961 
z
" style="fill:#d95319;opacity:0.5;stroke:#272822;stroke-linejoin:miter;stroke-width:0.5;"/>
   </g>
   <g id="patch_179">
    <path clip-path="url(#pcdc0c3edde)" d="M 238.336126 192.24 
L 239.412214 192.24 
L 239.412214 177.486054 
L 238.336126 177.486054 
z
" style="fill:#d95319;opacity:0.5;stroke:#272822;stroke-linejoin:miter;stroke-width:0.5;"/>
   </g>
   <g id="patch_180">
    <path clip-path="url(#pcdc0c3edde)" d="M 239.412214 192.24 
L 240.488302 192.24 
L 240.488302 180.354877 
L 239.412214 180.354877 
z
" style="fill:#d95319;opacity:0.5;stroke:#272822;stroke-linejoin:miter;stroke-width:0.5;"/>
   </g>
   <g id="patch_181">
    <path clip-path="url(#pcdc0c3edde)" d="M 240.488302 192.24 
L 241.56439 192.24 
L 241.56439 180.764709 
L 240.488302 180.764709 
z
" style="fill:#d95319;opacity:0.5;stroke:#272822;stroke-linejoin:miter;stroke-width:0.5;"/>
   </g>
   <g id="patch_182">
    <path clip-path="url(#pcdc0c3edde)" d="M 241.56439 192.24 
L 242.640478 192.24 
L 242.640478 180.149961 
L 241.56439 180.149961 
z
" style="fill:#d95319;opacity:0.5;stroke:#272822;stroke-linejoin:miter;stroke-width:0.5;"/>
   </g>
   <g id="patch_183">
    <path clip-path="url(#pcdc0c3edde)" d="M 242.640478 192.24 
L 243.716566 192.24 
L 243.716566 180.559793 
L 242.640478 180.559793 
z
" style="fill:#d95319;opacity:0.5;stroke:#272822;stroke-linejoin:miter;stroke-width:0.5;"/>
   </g>
   <g id="patch_184">
    <path clip-path="url(#pcdc0c3edde)" d="M 243.716566 192.24 
L 244.792654 192.24 
L 244.792654 178.510634 
L 243.716566 178.510634 
z
" style="fill:#d95319;opacity:0.5;stroke:#272822;stroke-linejoin:miter;stroke-width:0.5;"/>
   </g>
   <g id="patch_185">
    <path clip-path="url(#pcdc0c3edde)" d="M 244.792654 192.24 
L 245.868742 192.24 
L 245.868742 181.174541 
L 244.792654 181.174541 
z
" style="fill:#d95319;opacity:0.5;stroke:#272822;stroke-linejoin:miter;stroke-width:0.5;"/>
   </g>
   <g id="patch_186">
    <path clip-path="url(#pcdc0c3edde)" d="M 245.868742 192.24 
L 246.94483 192.24 
L 246.94483 181.379457 
L 245.868742 181.379457 
z
" style="fill:#d95319;opacity:0.5;stroke:#272822;stroke-linejoin:miter;stroke-width:0.5;"/>
   </g>
   <g id="patch_187">
    <path clip-path="url(#pcdc0c3edde)" d="M 246.94483 192.24 
L 248.020918 192.24 
L 248.020918 181.379457 
L 246.94483 181.379457 
z
" style="fill:#d95319;opacity:0.5;stroke:#272822;stroke-linejoin:miter;stroke-width:0.5;"/>
   </g>
   <g id="patch_188">
    <path clip-path="url(#pcdc0c3edde)" d="M 248.020918 192.24 
L 249.097006 192.24 
L 249.097006 181.789288 
L 248.020918 181.789288 
z
" style="fill:#d95319;opacity:0.5;stroke:#272822;stroke-linejoin:miter;stroke-width:0.5;"/>
   </g>
   <g id="patch_189">
    <path clip-path="url(#pcdc0c3edde)" d="M 249.097006 192.24 
L 250.173094 192.24 
L 250.173094 181.789288 
L 249.097006 181.789288 
z
" style="fill:#d95319;opacity:0.5;stroke:#272822;stroke-linejoin:miter;stroke-width:0.5;"/>
   </g>
   <g id="patch_190">
    <path clip-path="url(#pcdc0c3edde)" d="M 250.173094 192.24 
L 251.249181 192.24 
L 251.249181 183.428616 
L 250.173094 183.428616 
z
" style="fill:#d95319;opacity:0.5;stroke:#272822;stroke-linejoin:miter;stroke-width:0.5;"/>
   </g>
   <g id="patch_191">
    <path clip-path="url(#pcdc0c3edde)" d="M 251.249181 192.24 
L 252.325269 192.24 
L 252.325269 184.658111 
L 251.249181 184.658111 
z
" style="fill:#d95319;opacity:0.5;stroke:#272822;stroke-linejoin:miter;stroke-width:0.5;"/>
   </g>
   <g id="patch_192">
    <path clip-path="url(#pcdc0c3edde)" d="M 252.325269 192.24 
L 253.401357 192.24 
L 253.401357 184.043364 
L 252.325269 184.043364 
z
" style="fill:#d95319;opacity:0.5;stroke:#272822;stroke-linejoin:miter;stroke-width:0.5;"/>
   </g>
   <g id="patch_193">
    <path clip-path="url(#pcdc0c3edde)" d="M 253.401357 192.24 
L 254.477445 192.24 
L 254.477445 180.969625 
L 253.401357 180.969625 
z
" style="fill:#d95319;opacity:0.5;stroke:#272822;stroke-linejoin:miter;stroke-width:0.5;"/>
   </g>
   <g id="patch_194">
    <path clip-path="url(#pcdc0c3edde)" d="M 254.477445 192.24 
L 255.553533 192.24 
L 255.553533 184.658111 
L 254.477445 184.658111 
z
" style="fill:#d95319;opacity:0.5;stroke:#272822;stroke-linejoin:miter;stroke-width:0.5;"/>
   </g>
   <g id="patch_195">
    <path clip-path="url(#pcdc0c3edde)" d="M 255.553533 192.24 
L 256.629621 192.24 
L 256.629621 186.502354 
L 255.553533 186.502354 
z
" style="fill:#d95319;opacity:0.5;stroke:#272822;stroke-linejoin:miter;stroke-width:0.5;"/>
   </g>
   <g id="patch_196">
    <path clip-path="url(#pcdc0c3edde)" d="M 256.629621 192.24 
L 257.705709 192.24 
L 257.705709 183.2237 
L 256.629621 183.2237 
z
" style="fill:#d95319;opacity:0.5;stroke:#272822;stroke-linejoin:miter;stroke-width:0.5;"/>
   </g>
   <g id="patch_197">
    <path clip-path="url(#pcdc0c3edde)" d="M 257.705709 192.24 
L 258.781797 192.24 
L 258.781797 184.453195 
L 257.705709 184.453195 
z
" style="fill:#d95319;opacity:0.5;stroke:#272822;stroke-linejoin:miter;stroke-width:0.5;"/>
   </g>
   <g id="patch_198">
    <path clip-path="url(#pcdc0c3edde)" d="M 258.781797 192.24 
L 259.857885 192.24 
L 259.857885 184.863027 
L 258.781797 184.863027 
z
" style="fill:#d95319;opacity:0.5;stroke:#272822;stroke-linejoin:miter;stroke-width:0.5;"/>
   </g>
   <g id="patch_199">
    <path clip-path="url(#pcdc0c3edde)" d="M 259.857885 192.24 
L 260.933973 192.24 
L 260.933973 182.608952 
L 259.857885 182.608952 
z
" style="fill:#d95319;opacity:0.5;stroke:#272822;stroke-linejoin:miter;stroke-width:0.5;"/>
   </g>
   <g id="patch_200">
    <path clip-path="url(#pcdc0c3edde)" d="M 260.933973 192.24 
L 262.010061 192.24 
L 262.010061 185.272859 
L 260.933973 185.272859 
z
" style="fill:#d95319;opacity:0.5;stroke:#272822;stroke-linejoin:miter;stroke-width:0.5;"/>
   </g>
   <g id="patch_201">
    <path clip-path="url(#pcdc0c3edde)" d="M 262.010061 192.24 
L 263.086149 192.24 
L 263.086149 186.502354 
L 262.010061 186.502354 
z
" style="fill:#d95319;opacity:0.5;stroke:#272822;stroke-linejoin:miter;stroke-width:0.5;"/>
   </g>
   <g id="patch_202">
    <path clip-path="url(#pcdc0c3edde)" d="M 263.086149 192.24 
L 264.162237 192.24 
L 264.162237 184.658111 
L 263.086149 184.658111 
z
" style="fill:#d95319;opacity:0.5;stroke:#272822;stroke-linejoin:miter;stroke-width:0.5;"/>
   </g>
   <g id="patch_203">
    <path d="M 38.183766 192.24 
L 38.183766 25.92 
" style="fill:none;stroke:#606054;stroke-linecap:square;stroke-linejoin:miter;"/>
   </g>
   <g id="patch_204">
    <path d="M 274.923117 192.24 
L 274.923117 25.92 
" style="fill:none;stroke:#606054;stroke-linecap:square;stroke-linejoin:miter;"/>
   </g>
   <g id="patch_205">
    <path d="M 38.183766 192.24 
L 274.923117 192.24 
" style="fill:none;stroke:#606054;stroke-linecap:square;stroke-linejoin:miter;"/>
   </g>
   <g id="patch_206">
    <path d="M 38.183766 25.92 
L 274.923117 25.92 
" style="fill:none;stroke:#606054;stroke-linecap:square;stroke-linejoin:miter;"/>
   </g>
   <g id="legend_1">
    <g id="patch_207">
     <path d="M 157.659054 48.65125 
L 267.923117 48.65125 
Q 269.923117 48.65125 269.923117 46.65125 
L 269.923117 32.92 
Q 269.923117 30.92 267.923117 30.92 
L 157.659054 30.92 
Q 155.659054 30.92 155.659054 32.92 
L 155.659054 46.65125 
Q 155.659054 48.65125 157.659054 48.65125 
z
" style="fill:#272822;opacity:0.5;stroke:#cccccc;stroke-linejoin:miter;stroke-width:0.5;"/>
    </g>
    <g id="patch_208">
     <path d="M 159.659054 42.571562 
L 179.659054 42.571562 
L 179.659054 35.571562 
L 159.659054 35.571562 
z
" style="fill:#d95319;opacity:0.5;stroke:#272822;stroke-linejoin:miter;stroke-width:0.5;"/>
    </g>
    <g id="text_21">
     <!-- Probabilistic -->
     <defs>
      <path d="M 19.484375 64.796875 
L 19.484375 37.40625 
L 30.90625 37.40625 
Q 37.75 37.40625 41.578125 41.015625 
Q 45.40625 44.625 45.40625 51.125 
Q 45.40625 57.625 41.59375 61.203125 
Q 37.796875 64.796875 30.90625 64.796875 
z
M 9.625 72.90625 
L 30.90625 72.90625 
Q 43.109375 72.90625 49.40625 67.359375 
Q 55.71875 61.8125 55.71875 51.125 
Q 55.71875 40.328125 49.4375 34.8125 
Q 43.171875 29.296875 30.90625 29.296875 
L 19.484375 29.296875 
L 19.484375 0 
L 9.625 0 
z
" id="DejaVuSansMono-80"/>
      <path d="M 56.390625 43.40625 
Q 53.515625 45.65625 50.53125 46.671875 
Q 47.5625 47.703125 44 47.703125 
Q 35.59375 47.703125 31.140625 42.421875 
Q 26.703125 37.15625 26.703125 27.203125 
L 26.703125 0 
L 17.671875 0 
L 17.671875 54.6875 
L 26.703125 54.6875 
L 26.703125 44 
Q 28.953125 49.8125 33.609375 52.90625 
Q 38.28125 56 44.671875 56 
Q 48 56 50.875 55.171875 
Q 53.765625 54.34375 56.390625 52.59375 
z
" id="DejaVuSansMono-114"/>
      <path d="M 30.078125 48.390625 
Q 23.25 48.390625 19.734375 43.0625 
Q 16.21875 37.75 16.21875 27.296875 
Q 16.21875 16.890625 19.734375 11.546875 
Q 23.25 6.203125 30.078125 6.203125 
Q 36.96875 6.203125 40.484375 11.546875 
Q 44 16.890625 44 27.296875 
Q 44 37.75 40.484375 43.0625 
Q 36.96875 48.390625 30.078125 48.390625 
z
M 30.078125 56 
Q 41.453125 56 47.484375 48.625 
Q 53.515625 41.265625 53.515625 27.296875 
Q 53.515625 13.28125 47.5 5.921875 
Q 41.5 -1.421875 30.078125 -1.421875 
Q 18.703125 -1.421875 12.6875 5.921875 
Q 6.6875 13.28125 6.6875 27.296875 
Q 6.6875 41.265625 12.6875 48.625 
Q 18.703125 56 30.078125 56 
z
" id="DejaVuSansMono-111"/>
      <path d="M 44.828125 27.296875 
Q 44.828125 37.75 41.5 43.0625 
Q 38.1875 48.390625 31.6875 48.390625 
Q 25.140625 48.390625 21.765625 43.046875 
Q 18.40625 37.703125 18.40625 27.296875 
Q 18.40625 16.9375 21.765625 11.5625 
Q 25.140625 6.203125 31.6875 6.203125 
Q 38.1875 6.203125 41.5 11.515625 
Q 44.828125 16.84375 44.828125 27.296875 
z
M 18.40625 47.703125 
Q 20.5625 51.703125 24.34375 53.84375 
Q 28.125 56 33.109375 56 
Q 42.96875 56 48.625 48.40625 
Q 54.296875 40.828125 54.296875 27.484375 
Q 54.296875 13.96875 48.609375 6.265625 
Q 42.921875 -1.421875 33.015625 -1.421875 
Q 28.125 -1.421875 24.390625 0.703125 
Q 20.65625 2.828125 18.40625 6.890625 
L 18.40625 0 
L 9.421875 0 
L 9.421875 75.984375 
L 18.40625 75.984375 
z
" id="DejaVuSansMono-98"/>
      <path d="M 34.28125 27.484375 
L 31.296875 27.484375 
Q 23.4375 27.484375 19.453125 24.71875 
Q 15.484375 21.96875 15.484375 16.5 
Q 15.484375 11.578125 18.453125 8.84375 
Q 21.4375 6.109375 26.703125 6.109375 
Q 34.125 6.109375 38.375 11.25 
Q 42.625 16.40625 42.671875 25.484375 
L 42.671875 27.484375 
z
M 51.703125 31.203125 
L 51.703125 0 
L 42.671875 0 
L 42.671875 8.109375 
Q 39.796875 3.21875 35.421875 0.890625 
Q 31.0625 -1.421875 24.8125 -1.421875 
Q 16.453125 -1.421875 11.46875 3.296875 
Q 6.5 8.015625 6.5 15.921875 
Q 6.5 25.046875 12.625 29.78125 
Q 18.75 34.515625 30.609375 34.515625 
L 42.671875 34.515625 
L 42.671875 35.9375 
Q 42.625 42.484375 39.34375 45.4375 
Q 36.078125 48.390625 28.90625 48.390625 
Q 24.3125 48.390625 19.625 47.0625 
Q 14.9375 45.75 10.5 43.21875 
L 10.5 52.203125 
Q 15.484375 54.109375 20.046875 55.046875 
Q 24.609375 56 28.90625 56 
Q 35.6875 56 40.5 54 
Q 45.3125 52 48.296875 48 
Q 50.140625 45.5625 50.921875 41.96875 
Q 51.703125 38.375 51.703125 31.203125 
z
" id="DejaVuSansMono-97"/>
      <path d="M 31.203125 19.828125 
Q 31.203125 13.765625 33.421875 10.6875 
Q 35.640625 7.625 39.984375 7.625 
L 50.484375 7.625 
L 50.484375 0 
L 39.109375 0 
Q 31.0625 0 26.640625 5.171875 
Q 22.21875 10.359375 22.21875 19.828125 
L 22.21875 69.484375 
L 7.8125 69.484375 
L 7.8125 76.515625 
L 31.203125 76.515625 
z
" id="DejaVuSansMono-108"/>
      <path d="M 47.515625 52.78125 
L 47.515625 44 
Q 43.65625 46.234375 39.75 47.359375 
Q 35.84375 48.484375 31.78125 48.484375 
Q 25.6875 48.484375 22.671875 46.5 
Q 19.671875 44.53125 19.671875 40.484375 
Q 19.671875 36.8125 21.921875 35 
Q 24.171875 33.203125 33.109375 31.5 
L 36.71875 30.8125 
Q 43.40625 29.546875 46.84375 25.734375 
Q 50.296875 21.921875 50.296875 15.828125 
Q 50.296875 7.71875 44.53125 3.140625 
Q 38.765625 -1.421875 28.515625 -1.421875 
Q 24.46875 -1.421875 20.015625 -0.5625 
Q 15.578125 0.296875 10.40625 2 
L 10.40625 11.28125 
Q 15.4375 8.6875 20.015625 7.390625 
Q 24.609375 6.109375 28.71875 6.109375 
Q 34.671875 6.109375 37.9375 8.515625 
Q 41.21875 10.9375 41.21875 15.28125 
Q 41.21875 21.53125 29.25 23.921875 
L 28.859375 24.03125 
L 25.484375 24.703125 
Q 17.71875 26.21875 14.15625 29.8125 
Q 10.59375 33.40625 10.59375 39.59375 
Q 10.59375 47.46875 15.90625 51.734375 
Q 21.234375 56 31.109375 56 
Q 35.5 56 39.546875 55.1875 
Q 43.609375 54.390625 47.515625 52.78125 
z
" id="DejaVuSansMono-115"/>
      <path d="M 29.984375 70.21875 
L 29.984375 54.6875 
L 50.390625 54.6875 
L 50.390625 47.703125 
L 29.984375 47.703125 
L 29.984375 18.015625 
Q 29.984375 11.96875 32.28125 9.5625 
Q 34.578125 7.171875 40.28125 7.171875 
L 50.390625 7.171875 
L 50.390625 0 
L 39.40625 0 
Q 29.296875 0 25.140625 4.046875 
Q 21 8.109375 21 18.015625 
L 21 47.703125 
L 6.390625 47.703125 
L 6.390625 54.6875 
L 21 54.6875 
L 21 70.21875 
z
" id="DejaVuSansMono-116"/>
      <path d="M 51.8125 2.78125 
Q 48.1875 0.6875 44.359375 -0.359375 
Q 40.53125 -1.421875 36.53125 -1.421875 
Q 23.828125 -1.421875 16.671875 6.1875 
Q 9.515625 13.8125 9.515625 27.296875 
Q 9.515625 40.765625 16.671875 48.375 
Q 23.828125 56 36.53125 56 
Q 40.484375 56 44.234375 54.96875 
Q 48 53.953125 51.8125 51.8125 
L 51.8125 42.390625 
Q 48.25 45.5625 44.65625 46.96875 
Q 41.0625 48.390625 36.53125 48.390625 
Q 28.078125 48.390625 23.53125 42.921875 
Q 19 37.453125 19 27.296875 
Q 19 17.1875 23.5625 11.6875 
Q 28.125 6.203125 36.53125 6.203125 
Q 41.21875 6.203125 44.921875 7.640625 
Q 48.640625 9.078125 51.8125 12.109375 
z
" id="DejaVuSansMono-99"/>
     </defs>
     <g style="fill:#917df0;" transform="translate(187.659054 42.571562)scale(0.1 -0.1)">
      <use xlink:href="#DejaVuSansMono-80"/>
      <use x="60.205078" xlink:href="#DejaVuSansMono-114"/>
      <use x="120.410156" xlink:href="#DejaVuSansMono-111"/>
      <use x="180.615234" xlink:href="#DejaVuSansMono-98"/>
      <use x="240.820312" xlink:href="#DejaVuSansMono-97"/>
      <use x="301.025391" xlink:href="#DejaVuSansMono-98"/>
      <use x="361.230469" xlink:href="#DejaVuSansMono-105"/>
      <use x="421.435547" xlink:href="#DejaVuSansMono-108"/>
      <use x="481.640625" xlink:href="#DejaVuSansMono-105"/>
      <use x="541.845703" xlink:href="#DejaVuSansMono-115"/>
      <use x="602.050781" xlink:href="#DejaVuSansMono-116"/>
      <use x="662.255859" xlink:href="#DejaVuSansMono-105"/>
      <use x="722.460938" xlink:href="#DejaVuSansMono-99"/>
     </g>
    </g>
   </g>
  </g>
 </g>
 <defs>
  <clipPath id="pcdc0c3edde">
   <rect height="166.32" width="236.73935" x="38.183766" y="25.92"/>
  </clipPath>
 </defs>
</svg>
